<svg id="Layer_1" data-name="Layer 1" xmlns="http://www.w3.org/2000/svg" viewBox="0 0 200 200"><defs><style>.cls-1{fill:#ce0e2d;}.cls-2{fill:#fff;}</style></defs><title>Team_Logos</title><g id="ATHK"><path class="cls-1" d="M100,199.85a99.93,99.93,0,1,1,99.92-99.93A100,100,0,0,1,100,199.85Z"/><path class="cls-2" d="M100,195.23a95.31,95.31,0,1,1,95.31-95.31A95.41,95.41,0,0,1,100,195.23Z"/><path class="cls-1" d="M100,190.62a90.7,90.7,0,1,1,90.7-90.7,90.8,90.8,0,0,1-90.7,90.7Z"/><polygon class="cls-2" points="67.62 23.27 69.35 27.17 64.45 24.68 61.73 25.89 67.41 38.69 70.13 37.48 66.52 29.35 71.52 32.07 73.3 36.08 76.02 34.87 70.34 22.07 67.62 23.27 67.62 23.27"/><polygon class="cls-2" points="126.98 21.13 124.89 27.7 121.58 26.65 123.67 20.08 120.83 19.18 118.74 25.75 117.77 25.44 118.22 27.41 116.59 32.52 119.42 33.43 120.77 29.19 124.08 30.24 122.74 34.48 125.57 35.38 129.81 22.03 126.98 21.13 126.98 21.13"/><path class="cls-2" d="M173.47,60.15l-1.61-2.51a31.21,31.21,0,0,1-6.47,2.68l-1.21-1.89L170,54.71l-1.6-2.5-5.81,3.71-.55-.86-.92,1.8-4.52,2.89,1.6,2.51,3.75-2.4,1.4,2.19a29.33,29.33,0,0,1-3.28,3.14l1.61,2.5c.9-.73,3.72-3.19,4.26-4.62a29,29,0,0,0,7.54-2.92Z"/><path class="cls-2" d="M177.17,68.41a14.68,14.68,0,0,0-6,1.45l-.83,7.3a17.16,17.16,0,0,1-1.78.45l-1.2-3.07,1-.4-1.08-2.78-3.51,1.37,3.14,8a16.64,16.64,0,0,0,6.33-1.59h0l.7-7.25c.5-.15,1-.28,1.55-.39l1.21,3.1-1,.4,1.08,2.77,3.51-1.37-3.13-8Z"/><polygon class="cls-2" points="26.53 60.4 28.81 61.78 30.49 59 40.2 64.88 41.74 62.34 32.03 56.46 33.72 53.68 31.44 52.3 26.53 60.4 26.53 60.4"/><polygon class="cls-2" points="77.94 19.48 78.53 22.07 81.7 21.35 84.23 32.41 87.13 31.75 84.6 20.68 87.77 19.96 87.18 17.37 77.94 19.48 77.94 19.48"/><polygon class="cls-2" points="38.26 44.01 36.26 46.21 46.62 55.63 51.47 50.3 49.5 48.51 46.65 51.63 38.26 44.01 38.26 44.01"/><path class="cls-2" d="M24,72.9l.7-2a16.92,16.92,0,0,1,4.25.8L27.78,75A16.76,16.76,0,0,1,24,72.9Zm12.62-1.54-6.39-2.31a17.56,17.56,0,0,0-7.36-.85c0,.07-1.95,5.39-2,5.64a17.56,17.56,0,0,0,5.93,4l-.35,1,2-.37,5,1.82,1-2.8-4.16-1.5,1.18-3.27,4.16,1.5,1-2.79Z"/><path class="cls-2" d="M139.52,29.66l1.79,1a17.33,17.33,0,0,1-1.54,4l-3-1.74a16.62,16.62,0,0,1,2.75-3.34Zm-.74,12.7,3.41-5.88a17.57,17.57,0,0,0,2.16-7.09c-.07,0-5-2.88-5.19-3a17.74,17.74,0,0,0-4.95,5.14l-.9-.53v2l-2.69,4.61,2.58,1.5,2.22-3.83,3,1.75-2.22,3.82,2.57,1.5Z"/><path class="cls-2" d="M50.74,36l1.64-1.25a17.11,17.11,0,0,1,3.15,3l-2.75,2.11a16.62,16.62,0,0,1-2-3.82Zm11.45,5.53-4.13-5.4a17.5,17.5,0,0,0-5.73-4.69l-4.77,3.65a17.65,17.65,0,0,0,2.86,6.53l-.83.63,1.88.76,3.24,4.24,2.36-1.8L54.39,42l2.76-2.11,2.68,3.52,2.36-1.81Z"/><path class="cls-2" d="M100.38,23.53l-3.46,0a16.32,16.32,0,0,1,.65-4.27l2.07,0a16.79,16.79,0,0,1,.74,4.25ZM97,30.65l0-4.42,3.48,0,0,4.42,3,0-.06-5.33,1-1.76h-1a17.78,17.78,0,0,0-1.78-6.91l-6,.07A17.55,17.55,0,0,0,94,23.89l.07,6.8,3,0Z"/><path class="cls-2" d="M161.21,43.43l-4.52,4.63a16.41,16.41,0,0,1-3.9,3l-.89-.87a17,17,0,0,1,2.68-4l4.6-4.72-2.13-2.08L152.5,44a17.12,17.12,0,0,1-4,2.83l-.89-.87a16.44,16.44,0,0,1,2.9-4L155,37.37l-2.13-2.08-4.71,4.84a17.21,17.21,0,0,0-3.83,6.37L147.94,50q.62-.21,1.2-.45c-.15.39-.3.79-.42,1.2l3.62,3.54a17.38,17.38,0,0,0,6.28-4l4.72-4.83-2.13-2.08Z"/><path class="cls-2" d="M41.51,137.43a15,15,0,0,0-5.38,3l1.18,7.26c-.52.32-1.05.63-1.6.91l-2-2.64.88-.66-1.79-2.38-3,2.26s5,6.6,5.18,6.89a16.62,16.62,0,0,0,5.68-3.24h0l-1.29-7.17c.45-.28.91-.55,1.39-.79l2,2.66-.88.66,1.79,2.38,3-2.26-5.18-6.89Z"/><polygon class="cls-2" points="73.41 164.1 72.54 166.61 75.61 167.67 71.91 178.4 74.73 179.37 78.42 168.64 81.5 169.7 82.36 167.18 73.41 164.1 73.41 164.1"/><path class="cls-2" d="M20.78,114.89l2.95-.62.56,2.63A24.38,24.38,0,0,1,21.44,118l-.66-3.13Zm8.5-1.79.68,3.22a15.64,15.64,0,0,1-3.05.15l-.58-2.75,3-.62Zm3.91,5.65-1.92-9.11-5.55,1.17-.22-1-1.56,1.43-6.37,1.34s1.79,8.48,1.91,9.07a24.58,24.58,0,0,0,6.62-2.37,17.86,17.86,0,0,0,7.09-.48Z"/><polygon class="cls-2" points="68.36 164.67 69.68 162.37 61.6 157.73 58.78 162.65 57.82 162.1 57.84 164.29 54.63 169.88 62.71 174.51 64.04 172.21 58.54 169.05 60.04 166.44 63.44 168.39 64.76 166.08 61.36 164.13 62.86 161.52 68.36 164.67 68.36 164.67"/><path class="cls-2" d="M155.67,156.74l.74.81-2.47,2.26-5.85-6.43,2.25-2,.89.81,2.2-2a27.57,27.57,0,0,0-3-2.51l-6.35,5.78,9.43,10.36,6.87-6.26-2.53-2.78-2.2,2Z"/><polygon class="cls-2" points="119.09 166.47 116.22 167.25 119.9 180.77 126.85 178.88 126.15 176.31 122.07 177.42 119.09 166.47 119.09 166.47"/><path class="cls-2" d="M33.94,128.34l.86,1.88a16.54,16.54,0,0,1-3.58,2.41l-1.45-3.14a16.79,16.79,0,0,1,4.17-1.15ZM26,138.3l6.17-2.85A17.49,17.49,0,0,0,38,130.9c0-.07-2.39-5.22-2.51-5.46a17.57,17.57,0,0,0-7,1.36l-.44-1-1.16,1.66-4.85,2.23,1.25,2.7,4-1.85,1.45,3.16-4,1.85L26,138.3Z"/><path class="cls-2" d="M87.84,179.55l.4-3,2.67.36A26,26,0,0,1,91,180l-3.17-.42ZM89,170.94l3.26.44a15.57,15.57,0,0,1-.88,2.91l-2.78-.37.4-3Zm6.63-1.8-9.23-1.23-.75,5.62-1.06-.15.82,2-.87,6.46L93.73,183a24.37,24.37,0,0,0,0-7,17.58,17.58,0,0,0,1.93-6.85Z"/><path class="cls-2" d="M178.5,118.31l-2.94-.65.58-2.63a27.93,27.93,0,0,1,3.05.16l-.69,3.12ZM170,116.44l.71-3.22a15.29,15.29,0,0,1,2.84,1.13l-.61,2.74-2.94-.65Zm-1.23-6.77c-.13.61-2,9.1-2,9.1l5.54,1.22-.23,1.05,2-.66,6.36,1.41,2-9.05a24.64,24.64,0,0,0-7-.57,17.79,17.79,0,0,0-6.66-2.5Z"/><path class="cls-2" d="M104.88,171.67l2.05-.2a16.39,16.39,0,0,1,1.11,4.18l-3.44.34a16.68,16.68,0,0,1,.28-4.32Zm6.82,10.74-.67-6.77a17.63,17.63,0,0,0-2.39-7l-6,.59a17.63,17.63,0,0,0-1,7.05l-1,.11,1.2,1.63.51,5.31,3-.28-.43-4.41,3.46-.33.43,4.4,3-.29Z"/><polygon class="cls-2" points="155.83 141.05 154.05 143.44 165.27 151.82 169.58 146.05 167.45 144.45 164.92 147.84 155.83 141.05 155.83 141.05"/><polygon class="cls-2" points="130.61 162.01 127.94 163.31 134.09 175.9 140.56 172.74 139.39 170.35 135.59 172.2 130.61 162.01 130.61 162.01"/><path class="cls-2" d="M163.67,127.44l5.89,2.67a16.13,16.13,0,0,1,4.15,2.63l-.9,2a16.22,16.22,0,0,1-4.72-1.37l-5.9-2.66L161,133.42l6.15,2.78a17.33,17.33,0,0,0,7.3,1.42c0-.06,2.4-5.29,2.52-5.57a17.25,17.25,0,0,0-5.89-4.54l-6.16-2.78-1.22,2.71Z"/><path class="cls-2" d="M57.48,154.78l-2.21-2a31.82,31.82,0,0,1-5.53,4.3l-1.67-1.5,4.61-5.13-2.21-2-4.61,5.13-.76-.69-.4,2-3.6,4,2.21,2,3-3.3,1.93,1.73a29.76,29.76,0,0,1-2.32,3.9l2.21,2c.67-.95,2.74-4.07,2.87-5.6a28.34,28.34,0,0,0,6.5-4.81Z"/><path class="cls-2" d="M162,99.92A62,62,0,1,1,100,38a62,62,0,0,1,61.95,62Z"/><path class="cls-1" d="M100,145.28a44.88,44.88,0,0,1-32.18-13.53c23.33-12,37.86-8.93,37.86-6.59s-3.59,8-3.59,8c19-2.69,32.88-14.15,32.88-29.58s-14.45-22.92-18.14-25.21c-3.94-2.46-2.09-5.78-15-10.67-7.88-3-18.94-5.89-23.27-7A45,45,0,1,1,100,145.28Zm0-102.81A57.7,57.7,0,0,0,53.69,65.73l8,2.3h0c5.66,1.67,24.45,7.18,28,8.3,10.26,3.29,13,4.58,15.84,7.67a78,78,0,0,0,11.55,9.67c4.29,3,6.38,6.27,6.38,11.46s-4,9.55-6.48,11c0,0,.9-2.49-.3-3.58s-5-3.19-14.64-2.49S79.4,115.5,70.64,120.18c0,0,4.18-6.58,10.46-9.57,0,0-5.18,0-34.1,12.61a57.78,57.78,0,1,0,53-80.75Z"/><path class="cls-1" d="M99.53,85.21a13.74,13.74,0,0,1-6.68-1.39c-3.38-1.7-8.56-5.48-13-1.3,0,0,3.79-.49,3.49.5s-.69,6.77,4.48,9,11.16.6,11.76-6.77Z"/></g></svg>