<svg id="Layer_1" data-name="Layer 1" xmlns="http://www.w3.org/2000/svg" xmlns:xlink="http://www.w3.org/1999/xlink" viewBox="0 0 200 200"><defs><style>.cls-1{fill:none;}.cls-2{fill:#1d428a;}.cls-3{fill:#fdb927;}.cls-4{clip-path:url(#clip-path);}</style><clipPath id="clip-path"><rect class="cls-1" x="18" y="1" width="163.22" height="197.03"/></clipPath></defs><title>Artboard 1</title><polygon class="cls-2" points="101.7 8.92 95.73 1 93.33 1 92.62 1 91.68 1 91.68 1.77 92.62 2.44 92.62 14.04 95.73 14.04 95.73 6.2 101.72 14.04 104.8 14.04 104.8 1 101.7 1 101.7 8.92 101.7 8.92"/><polygon class="cls-2" points="79.91 16.01 88.84 14.43 88.37 11.77 82.66 12.78 82.22 10.27 86.88 9.44 86.68 8.3 86.41 6.78 81.75 7.61 81.33 5.26 86.55 4.34 86.78 1.55 78.34 3.04 77.64 3.16 76.71 3.33 76.85 4.08 77.89 4.58 79.91 16.01 79.91 16.01"/><path class="cls-2" d="M64.62,10l1.64-.59a3.58,3.58,0,0,1,4.89,2.28,3.59,3.59,0,0,1-2.28,4.9l-1.64.59L64.62,10Zm.44,10.85,4.57-1.67c4.24-1.54,5.88-5,4.58-8.6s-4.8-5.2-9-3.65l-4,1.48-.51.18-1,.38.26.72,1.31.37,3.93,10.79Z"/><polygon class="cls-2" points="53.31 27.33 61.38 22.67 60.57 19.82 54.71 23.21 49.62 14.4 47.5 15.62 46.78 16.04 46.07 16.45 46.45 17.11 47.46 17.21 53.31 27.33 53.31 27.33"/><path class="cls-2" d="M37.27,31.44a3.7,3.7,0,1,1,5.57-4.84,3.7,3.7,0,1,1-5.57,4.84m8.1-7a6.69,6.69,0,0,0-9.75-.48,6.78,6.78,0,1,0,8.89,10.22,6.72,6.72,0,0,0,.86-9.74"/><path class="cls-2" d="M32.14,35.44l-2.58,3.3-.68.87L27.79,41l2.05,1.61,2-2.61a3.47,3.47,0,0,1-.44,3.79h0a3.64,3.64,0,0,1-5.38.47,3.62,3.62,0,0,1-.83-5.33,4.09,4.09,0,0,1,.72-.72,3.39,3.39,0,0,1,1.22-.6l1.06-1.36,1.35-1.73.06-.08-.2,0a6.77,6.77,0,0,0-6.14,2.41l-.3.37a6.78,6.78,0,1,0,10.67,8.34l.26-.35a6.72,6.72,0,0,0,.5-7.35q-.18-.3-.39-.6a7.12,7.12,0,0,0-1.38-1.42l-.52-.37h0"/><path class="cls-2" d="M120.54,10.87l1.12,1.05c1,.9,1.42,1.34,1.23,2s-.82.83-1.79.55a6.18,6.18,0,0,1-3.23-2.61l-.94,3.3a8.43,8.43,0,0,0,3.7,2c2.49.71,4.94-.17,5.64-2.61.55-1.91-.48-3.22-1.88-4.53L123.08,8.8c-.61-.58-.75-1-.63-1.4s.8-.76,1.59-.53a6.71,6.71,0,0,1,3.11,2.21l.85-3a8.3,8.3,0,0,0-3.36-1.84c-2.7-.77-4.89.4-5.49,2.5a3.93,3.93,0,0,0,1.39,4.12"/><polygon class="cls-2" points="131.35 21.06 134.35 22.46 138.72 13.09 142.44 14.82 143.58 12.37 133.13 7.5 131.99 9.95 135.72 11.69 131.35 21.06 131.35 21.06"/><path class="cls-2" d="M149.5,20l-1.2,4.49-1.25-.85-1.26-.85L149.5,20Zm-9.74,3.52L139,24.64l2.26,1.52.94-1.06,1.44-.73,2,1.35,2,1.35-.14,1.61L146.84,30l2.26,1.52.79-1.17,3-12-1.55-1.05-1.22-.82-.33-.22-1-.7-.43.63.33.89-8.88,6.45Z"/><polygon class="cls-2" points="156.92 24.59 159.93 27.39 152.88 34.95 155.3 37.21 162.35 29.65 165.35 32.45 167.19 30.47 158.76 22.61 156.92 24.59 156.92 24.59"/><polygon class="cls-2" points="166.4 41.65 169.32 45.38 171.44 43.72 168.53 39.99 170.41 38.52 173.67 42.69 176.24 41.59 170.9 34.76 170.92 34.74 169.91 33.44 169.31 33.91 169.36 35.18 160.25 42.3 165.83 49.46 167.96 47.79 164.39 43.22 166.4 41.65 166.4 41.65"/><path class="cls-2" d="M176.5,96A78.26,78.26,0,1,1,98.24,17.72,78.25,78.25,0,0,1,176.5,96"/><path class="cls-3" d="M98.24,164.45a68.47,68.47,0,0,1-24.57-4.52c-.31-4.68-.62-10.28-.91-16.4l-6.25-2.13v15.29c-1-.53-2-1.07-3-1.64V140.53l3,.11v.09l3.19,0,5.77.2,72.06,2.56-.87.89a68,68,0,0,1-48.42,20M45.71,139.9l10.76.38c-.22,3.32-.45,6.48-.71,9.41a72,72,0,0,1-5.94-5.29q-2.16-2.18-4.11-4.5m12.2-33.57c-.23,8.69-.55,17.66-1,26l-5.9.2,6.88-26.21Zm.44-29.91c0,6-.09,13.33-.24,21.12l-9.2,35.07-6.35.21,15.79-56.4Zm-23.83,44.7A67.82,67.82,0,0,1,31,108.71,72,72,0,0,0,41.28,98.32l-6.76,22.8Zm1.25,3L44.69,94A157.06,157.06,0,0,0,56.45,75.62l-16,57.14a66.72,66.72,0,0,1-4.69-8.68m30.73-45v4.21H63.31v3.91H66.5v4.22H63.31v3.91H66.5v7.9H63.31v3.91H66.5v8.13H63.31v3.91H66.5V132l-3,.1,0-59.57h2.91V75.2H63.31v3.91Zm84.71,50.06-1.83-4.09q4.51,1.83,9.11,3.5l-.19.35-7.09.24Zm2.33,7.21c-.46.63-.94,1.25-1.42,1.87l-79.6-1.56,0-.77,81.05.46Zm-75.93-4.74-5.38.19c-.33-7.88-.63-16.16-.91-24.18l6.29,24Zm8.3-.28-6.21.21L71,98.46c-.27-8.54-.5-16.44-.68-22.79l15.58,55.69Zm9.27-.31-7.17.24L72.23,74.89q2.07,2.3,4.25,4.47c1.53,1.53,3.1,3,4.7,4.47l14,47.22Zm8.6-.29-6.49.22L84.06,86.4c.94.81,1.88,1.62,2.83,2.41Q89.4,90.9,92,92.89l11.8,37.87Zm8.86-.29-6.74.22L94.78,95q3.85,2.87,7.84,5.56l10,29.89Zm8.57-.29-6.44.21-9.38-28q2.14,1.39,4.33,2.75l3,1.83.41.24,8.09,22.94Zm9.34-.32-7.2.25-7.51-21.28,1.43.83,1.53.85c1,.57,2,1.15,3.07,1.7l2.38,1.26,6.3,16.39Zm7.5-9.63q4.27,1.93,8.59,3.73l2.37,5.28-7.08.24-3.88-9.25Zm1.71,9.32-7.06.24L127,114.9l1.12.56,3.14,1.57,3.17,1.51.9.42,4.45,10.59Zm-89.94-82a68.51,68.51,0,0,1,110.92,76.49q-12.45-4.2-24.49-9.52l-3.15-1.41L130,111.65l-1.56-.74-1.54-.77-3.1-1.54-3.06-1.6-1.52-.81-1.52-.83-3-1.67-3-1.74A198.49,198.49,0,0,1,88.85,86.4c-3.6-2.86-7.1-5.86-10.42-9q-2.5-2.37-4.86-4.89c-.39-.42-.78-.83-1.16-1.26s-.76-.85-1.13-1.29-.74-.87-1.11-1.3l0-.06c-.13-5-.21-8-.21-8l-3.43-.81v4.6H63.58V59.5l-3.68.88,0,1.75-1.72.93c0,1.44.09,3.32.11,5.56-1.39,2.43-16.57,28.64-27.92,36.7A70.56,70.56,0,0,1,29.77,96,68,68,0,0,1,49.82,47.56m99.61-2.77A72.39,72.39,0,1,0,170.63,96a71.92,71.92,0,0,0-21.2-51.19"/><polygon class="cls-2" points="121.53 179.35 120.75 175.33 116.39 176.18 111.46 177.13 107.14 177.97 107.92 182 112.24 181.16 114.45 192.53 110.13 193.37 110.91 197.4 115.26 196.55 120.2 195.59 124.52 194.75 123.74 190.73 119.41 191.57 117.2 180.19 121.53 179.35 121.53 179.35"/><path class="cls-2" d="M142.07,176.71c-1.47-3.15-4.53-4.47-7.59-3.05s-4,4.62-2.55,7.77,4.49,4.52,7.6,3.07,4-4.67,2.54-7.79m4.6-2.15c2.39,5.12.52,11.11-5.32,13.83s-11.63.31-14-4.81-.53-11.07,5.33-13.81,11.62-.33,14,4.79"/><g class="cls-4"><path class="cls-2" d="M156.53,165.31l-1.77,1.52-2.9-3.4,1.85-1.59c1.06-.9,2.38-1.1,3.36,0s.6,2.46-.54,3.43m4.44-7c-2.46-2.88-6.33-2.65-9.25-.16l-5.48,4.68-.84.72-1,.88.75.87,1.66-.14,11.48,13.43,3.8-3.24-4.69-5.48,1.11-.94,8.45,2.25,4.58-3.91L161.72,165a6.15,6.15,0,0,0-.75-6.69"/><path class="cls-2" d="M179.49,157.58a12.62,12.62,0,0,1-4.86,4.15l-4.15-3.13a9.36,9.36,0,0,0,5.44-3.14c.93-1.22.87-2.33.2-2.84-.86-.65-1.73-.24-3.53.65l-2.11,1c-2.56,1.24-4.74,1.13-6.59-.27-2.64-2-3.11-5.72-.55-9.12a12.63,12.63,0,0,1,4.43-3.77l3.77,2.84a10,10,0,0,0-4.81,3.19c-.76,1-.79,2-.12,2.55s1.17.42,2.33-.13l2.49-1.19c2.61-1.26,5-2,7.43-.19,3.07,2.32,3,6.27.63,9.4"/></g><path class="cls-2" d="M94.37,186.47l-2.32-.09.15-4.46,2.44.09c1.39.05,2.5.79,2.45,2.29s-1.21,2.22-2.72,2.17m8-2.16c.13-3.78-2.88-6.23-6.71-6.37l-7.2-.25-1.11,0L86,177.6l0,1.15,1.33,1-.62,17.65,5,.18.26-7.21,1.44.06,4.72,7.37,6,.21-5.68-8.28a6.15,6.15,0,0,0,4-5.44"/><path class="cls-2" d="M71.86,182.63,69.63,182l1.27-4.28,2.34.69c1.33.4,2.22,1.4,1.79,2.84s-1.73,1.84-3.17,1.41m8.28-.08c1.08-3.63-1.22-6.76-4.9-7.85l-6.91-2-1.06-.32L66,172l-.32,1.09,1,1.32-5,16.94,4.79,1.42,2-6.91,1.39.41,2.71,8.32,5.77,1.71-3.42-9.44a6.12,6.12,0,0,0,5.2-4.27"/><path class="cls-2" d="M50.71,176.66l-2-1.17,5.37-4.58-1.41,6.91-2-1.16Zm5.9-10-1.75-1-.7-.41-1.43-.84-.58,1,.49,1.11-13,10.68L38.58,179l3.56,2.1,1.33-1.7,2.11-1.23L48.73,180l3.16,1.86-.06,2.44-.83,2,3.55,2.1,1.09-1.85,3.41-18.46-2.44-1.44Z"/><polygon class="cls-2" points="44.78 159.01 44.78 159.01 43.54 157.66 42.7 158.44 42.87 159.84 32.2 164.47 39.09 152.81 36.95 150.47 24.81 156.4 31.31 144.32 27.55 140.21 27.55 140.22 27.08 139.7 26.23 140.47 26.46 142.37 18 159.07 21.4 162.78 29.55 159.41 25.47 167.22 28.86 170.93 48.48 163.06 44.78 159.01 44.78 159.01"/></svg>