<svg id="Layer_1" data-name="Layer 1" xmlns="http://www.w3.org/2000/svg" viewBox="0 0 200 200"><defs><style>.cls-1{fill:#ffc629;}.cls-2{fill:#8a2432;}.cls-3{fill:#0a2240;}.cls-4{fill:#fff;}</style></defs><title>Team_Logos</title><path class="cls-1" d="M99.81,198.1a99,99,0,1,1,99-99,99.09,99.09,0,0,1-99,99"/><path class="cls-2" d="M99.81,5.18A93.94,93.94,0,1,1,5.87,99.12,94,94,0,0,1,99.81,5.18"/><path class="cls-3" d="M188.93,99.4A89.4,89.4,0,1,1,99.53,10a89.4,89.4,0,0,1,89.4,89.4"/><path class="cls-2" d="M99.51,165.22a65,65,0,1,0-65-65,65,65,0,0,0,65,65"/><path class="cls-3" d="M38.84,100.2a60.65,60.65,0,1,1,60.67,60.67A60.73,60.73,0,0,1,38.84,100.2"/><path class="cls-1" d="M143.38,125l-.06.08L108.68,102.6l-6.07,3.59,37.62,23.69,0,.08,3.34,4,.1-.14a6.33,6.33,0,0,0,3.44-3c1-1.66,1.54-3.39,1.29-4.33l.06-.13-5-1.36Zm9.46-11.12c.07-10.39-5.52-24.68-10.53-34.19L135,83.86l-.73-1.16h0l-1.88,1.16-73.12,46,0,.08-3.35,4-.08-.14a6.33,6.33,0,0,1-3.44-3c-1.07-1.66-1.54-3.39-1.29-4.33l0-.13,5-1.36.06.08,37.65-24.47-25.39-16h0l-3.15-2h0l-.76,1.16-7.34-4.14c-5,9.51-10.6,23.8-10.5,34.19-3.87-12,.1-28.46,5.52-39.09l0-.06L50.83,74l4.36-6.74,1.28.92C63.82,58.81,77,48.4,89.5,46.83c-9.44,4.3-20,15.3-26.54,23.77l6.84,5L69,76.81h0L70.76,78l29,18.82,28.54-18.55,2.18-1.42h0l-.82-1.26,6.81-5c-6.48-8.47-17.09-19.47-26.52-23.77,12.53,1.58,25.69,12,33.1,21.35l1.22-.88,4.36,6.76-1.36.76c5.44,10.63,9.46,27.07,5.59,39.09"/><polygon class="cls-1" points="105.66 52.87 103.06 56.28 99.45 47.67 99.45 87.42 111.56 71.92 123.75 75.06 105.66 52.87 105.66 52.87"/><polygon class="cls-4" points="105.66 62.19 105.66 52.87 103.06 56.27 105.66 62.19 105.66 62.19"/><polygon class="cls-4" points="99.45 47.67 77.48 74.46 87.17 71.99 99.45 87.42 99.45 47.67 99.45 47.67"/><path class="cls-1" d="M86,148.69a19.23,19.23,0,0,1,11.59-5.32v-6.09H80.84A18.7,18.7,0,0,0,86,148.69"/><path class="cls-1" d="M97.61,154.34v-7.21a15.81,15.81,0,0,0-8.75,4,19.56,19.56,0,0,0,8.75,3.19"/><path class="cls-4" d="M101.34,117v7.18a15.5,15.5,0,0,0,8.71-4,18.85,18.85,0,0,0-8.71-3.19"/><path class="cls-4" d="M112.91,122.69a19.3,19.3,0,0,1-11.57,5.3v5.54h16.74a18.8,18.8,0,0,0-5.17-10.84"/><path class="cls-4" d="M97.61,124.22V117a18.7,18.7,0,0,0-8.7,3.19,15.47,15.47,0,0,0,8.7,4"/><path class="cls-1" d="M101.34,137.28v6.08a19.17,19.17,0,0,1,11.57,5.33,18.41,18.41,0,0,0,5.21-11.41Z"/><path class="cls-4" d="M80.88,133.53H97.61V128A19.36,19.36,0,0,1,86,122.68a18.73,18.73,0,0,0-5.14,10.85"/><path class="cls-1" d="M101.34,154.34a19.19,19.19,0,0,0,8.71-3.19,15.54,15.54,0,0,0-8.71-4v7.21Z"/><polygon class="cls-1" points="171.62 91.32 173.98 95.38 168.12 100.85 175.73 98.03 178.13 102.14 178.52 97.52 183.61 97.19 179.43 94.65 184.56 86.63 176.12 93.42 171.62 91.32 171.62 91.32"/><polygon class="cls-1" points="27.49 91.25 25.12 95.31 30.98 100.78 23.38 97.96 20.97 102.07 20.58 97.46 15.49 97.12 19.67 94.58 14.55 86.56 22.99 93.35 27.49 91.25 27.49 91.25"/><path class="cls-4" d="M33,51.72a1,1,0,0,0-.08,1.12.59.59,0,0,0,.17.18l7.24,5.15h0a1,1,0,0,0,1-.4l0,0a.94.94,0,0,0-.09-1.32l-7-5a.94.94,0,0,0-1.27.28l0,0Zm7.4,10.7L28.6,54.06l2.63-3.71a10.87,10.87,0,0,1,1.52-1.67,7.45,7.45,0,0,1,1.07-.8,1.8,1.8,0,0,0,.2-.23l.1-.17.15-.26,10.38,7.36a7.3,7.3,0,0,1-.54,2.15,10.14,10.14,0,0,1-1,1.87l-.06.1L40.4,62.42Z"/><polygon class="cls-4" points="57.95 43.4 51.22 33.19 50.53 33.65 49.3 31.78 56.82 26.82 58.05 28.68 54.36 31.12 56.41 34.22 59.24 32.35 59.95 34.32 57.53 35.92 59.86 39.46 63.55 37.03 64.78 38.9 57.95 43.4 57.95 43.4"/><polygon class="cls-4" points="86.05 31.19 83.14 26.32 82.86 26.43 83.93 31.63 80.51 32.34 78.03 20.34 77.28 20.5 76.84 18.32 80.47 17.57 83.87 22.42 84.14 22.3 83.06 17.04 86.47 16.33 89.41 30.5 86.05 31.19 86.05 31.19"/><path class="cls-4" d="M109.11,30.38l.34-14.62,3.21.54-.45,9,.3,0,2.65-8.61,3.22.53C117.09,21.12,114,30,113.56,31.12l-4.45-.74Z"/><path class="cls-4" d="M165.76,50.77a1,1,0,0,0-1-.45.46.46,0,0,0-.21.1l-2.74,2.09a.86.86,0,0,0,0,1.19l0,0c.35.45.87.61,1.19.36L165.78,52a.9.9,0,0,0,0-1.22l0,0Zm-5.4,4.48-.79-1-4.14,3.2-2.07-2.68,11.45-8.83,2.77,3.58a11.9,11.9,0,0,1,1.17,1.91,8.4,8.4,0,0,1,.49,1.22,1.48,1.48,0,0,0,.16.26,1.49,1.49,0,0,0,.12.14l.21.22-6.1,4.69a7.25,7.25,0,0,1-1-.59l-.13-.09-3.28,5-2-2.54,3.15-4.51Z"/><polygon class="cls-4" points="133.07 38.26 139.42 27.78 138.71 27.35 139.87 25.45 147.57 30.12 146.42 32.02 142.64 29.73 140.77 32.81 143.68 34.57 142.08 36.25 139.6 34.75 137.46 38.28 141.24 40.57 140.07 42.5 133.07 38.26 133.07 38.26"/><path class="cls-4" d="M75.15,181a10.6,10.6,0,0,1-2.21-1,7.51,7.51,0,0,1-1.78-1.37l3.73-12.34a7.17,7.17,0,0,1,2.24-.16,11.29,11.29,0,0,1,2.37.43,10.6,10.6,0,0,1,2.21,1,7,7,0,0,1,.92.61,1.4,1.4,0,0,0,.49.24.67.67,0,0,0,.19,0l.3.05-.1.34-1.06,3.53-3.3-1,.47-1.57a.91.91,0,0,0-.55-1.05l-.19-.08a1,1,0,0,0-1.24.51L75,178.08a.77.77,0,0,0,.07.59,1.15,1.15,0,0,0,.68.53,1,1,0,0,0,1.23-.51L78.08,175,77,174.4l1.08-1.78L82,173.8l-2.26,7.49a7.17,7.17,0,0,1-2.24.16,10.68,10.68,0,0,1-2.37-.43"/><path class="cls-4" d="M104.07,184.32a10.86,10.86,0,0,1-2.4-.14,7.36,7.36,0,0,1-2.14-.68l-.71-12.88a7.28,7.28,0,0,1,2.06-.91,11.19,11.19,0,0,1,2.37-.4,11,11,0,0,1,2.41.14,6.67,6.67,0,0,1,1.07.26,1.6,1.6,0,0,0,.54.06l.2,0,.3-.05,0,.35.2,3.68-3.44.19-.09-1.63a.9.9,0,0,0-.87-.8h-.21a1,1,0,0,0-1,.9l.49,9.25a.73.73,0,0,0,.26.52,1.12,1.12,0,0,0,.82.27,1,1,0,0,0,1-.9l-.2-3.91-1.18-.15.41-2,4.09-.22.42,7.81a7.22,7.22,0,0,1-2,.91,10.5,10.5,0,0,1-2.37.4"/><path class="cls-4" d="M49.12,167.79a10.53,10.53,0,0,1-1.73-1.68,7,7,0,0,1-1.16-1.92l7-9.05-.61-.47L54,152.92l3.34,2.59-7.42,9.57a1.05,1.05,0,0,0,1.63,1.26L59,156.77l2.74,2.12L53.32,169.7a7.45,7.45,0,0,1-2.15-.65,11,11,0,0,1-2.05-1.26"/><polygon class="cls-4" points="153.09 165.04 145.14 155.74 143.01 157.55 141.57 155.86 148.53 149.93 149.97 151.62 147.84 153.43 155.8 162.73 153.09 165.04 153.09 165.04"/><path class="cls-4" d="M171,145a10.36,10.36,0,0,1-1.48,1.85,7.1,7.1,0,0,1-1.77,1.32l-3-1.88,1.83-2.9,1.56,1a.74.74,0,0,0,.67,0,1.08,1.08,0,0,0,.57-.47l0,0a1,1,0,0,0-.22-1.29l-3.33-2.09-2,3.13a1.62,1.62,0,0,1-2.1.77l-.3-.18-4.68-2.94a7.71,7.71,0,0,1,.42-2.18,10.58,10.58,0,0,1,2.52-4,8.22,8.22,0,0,1,.95-.82A1.23,1.23,0,0,0,161,134l.1-.17.13-.28,3.42,2.16-1.83,2.91-1.39-.87a.63.63,0,0,0-.22-.09,1,1,0,0,0-1,.51l0,0a.92.92,0,0,0,.22,1.28l2.37,1.5.09.05.12.07,1.91-3a1.72,1.72,0,0,1,2.24-.82l.59.38.13.09,4.65,2.92a7.5,7.5,0,0,1-.42,2.19,10.61,10.61,0,0,1-1,2.14"/><polygon class="cls-4" points="124.06 167.79 123.3 168.11 122.45 166.06 130.77 162.6 131.62 164.65 127.54 166.35 128.92 169.67 132.06 168.37 132.47 170.65 129.79 171.77 131.38 175.58 135.45 173.88 136.31 175.96 128.77 179.11 124.06 167.79 124.06 167.79"/><polygon class="cls-4" points="29.92 147.4 33.33 142.86 33.12 142.64 28.71 145.61 26.76 142.71 36.93 135.87 36.5 135.24 38.34 134.01 40.41 137.07 37.22 142.06 37.43 142.27 41.89 139.27 43.84 142.17 31.83 150.25 29.92 147.4 29.92 147.4"/></svg>