<svg id="Layer_1" data-name="Layer 1" xmlns="http://www.w3.org/2000/svg" xmlns:xlink="http://www.w3.org/1999/xlink" viewBox="0 0 200 200"><defs><style>.cls-1{fill:none;}.cls-2{clip-path:url(#clip-path);}.cls-3{fill:#fff;}.cls-4{fill:#2d2a26;}.cls-5{fill:#8c9091;}.cls-6{fill:#0056a8;}</style><clipPath id="clip-path"><rect class="cls-1" x="4.39" width="189.97" height="198.4"/></clipPath></defs><title>Team_Logos</title><g id="MAVR"><g class="cls-2"><path class="cls-3" d="M187.37,101.8l5.23-12.94L175.17,98.6c-.06,0-5.16,2.87-12.56,6.05a249.75,249.75,0,0,0,10.22-31.08C179,50,182.3,24.09,182.44,23l1.3-10.46-36,10a63.48,63.48,0,0,0-97.12.15L14.42,12.53l1.36,10.53c0,.26,3.5,26.86,10,50.81a253,253,0,0,0,10.28,30c-7.87-3.33-14.47-6.47-14.55-6.5L5.3,89.67l5,12.49L4.39,99.92l5.42,14.59v0c.37,1.06,2.67,7.26,20.15,54.42l2.4,6.49,5.08-1.61c1,2.61,3.48,9.42,3.48,9.42L48,179.57c5.38-2.76,16.92-7.44,26.26-8.95,11.1,15.23,19.77,23.12,20.14,23.46l4.79,4.32,4.72-4.41a183.91,183.91,0,0,0,20-23.37,70.54,70.54,0,0,1,23.81,8.08l6.88,3.8,3-7.26.76-1.87,3.92,1.33,2.54-6.48c.49-1.25,11.64-27.44,22.4-52.66l7.18-16.82s-7,3-7,3.06Z"/></g><path class="cls-4" d="M176.58,101.13a163.33,163.33,0,0,1-19.26,8.8A254.51,254.51,0,0,0,170,72.83h0c6.17-23.55,9.5-49.93,9.53-50.2l.77-6.15-6,1.66-75.67,21L17.85,16.5l.8,6.19c0,.26,3.47,26.61,9.89,50.43a273.39,273.39,0,0,0,12.8,36.1c-10.5-4.14-21-9.14-21.12-9.21l-9.51-4.54,3.89,9.8c9.35,23.55,14.1,36.48,20.13,52.84l7.76,21L46.63,177c6.19-3.18,19-8.28,28.9-9.5,11.39,15.9,20.38,24.08,20.77,24.43l2.82,2.54,2.77-2.59c.4-.38,9.55-9,20.67-24.36,11.54,1.18,21.46,5.85,26.51,8.64l4.05,2.25,1.77-4.28c4.59-11.12,27.31-67.28,27.54-67.84l4.4-10.89-10.25,5.73Z"/><path class="cls-3" d="M184.87,103.88c-.2.08-18.39,7.82-33.27,11.52C157.41,102,162.47,90,167.15,72.1h0c6.11-23.37,9.42-49.57,9.45-49.83l.23-1.81-1.76.49L98.62,42.15,21.24,20.49l.23,1.82a437.56,437.56,0,0,0,9.82,50.05c4.17,15.48,9.08,27.17,13.83,38.48l1.56,3.75c-12.87-3.26-30.31-9.37-30.49-9.44l-2.46-.86.92,2.44c7.64,20.33,11.56,31.26,15.7,42.82l8.4,23.27,1.11-.35a243.69,243.69,0,0,1,36.83-7.85c11.09,16,21.41,25.07,21.51,25.16l.81.71.8-.72c.1-.1,9.92-9.05,21.32-25,9.89.66,28.29,4.82,35.28,7.59l1.11.44.46-1.11c4.59-11.09,28.24-65.63,28.48-66.18l1.22-2.8-2.81,1.2Z"/><path class="cls-5" d="M147.46,118.86l.95-2.19c6.43-14.82,11.5-26.51,16.39-45.19h0A442.92,442.92,0,0,0,174,23.78L99,44.59l-.33.09L24.13,23.83a434.36,434.36,0,0,0,9.5,47.9c4.14,15.32,9,26.94,13.73,38.17l3.4,8.17,27.09,44,.42.61A150.74,150.74,0,0,0,99,187.21a177,177,0,0,0,20.57-24.43l.39-.55,27.52-43.37Z"/><path class="cls-4" d="M47.52,92.27c-.72-1-3.85-6-3.85-14.36h0c0-.24,0-.49,0-.75h0a52.93,52.93,0,0,1-3.32-18.49h0A54.36,54.36,0,0,1,57.63,19.16h0A60.34,60.34,0,0,1,99.24,2.78h0a60.34,60.34,0,0,1,41.61,16.38h0a54.36,54.36,0,0,1,17.26,39.51h0a52.94,52.94,0,0,1-2.59,16.42h0A52.76,52.76,0,0,1,147,103.82h0a4,4,0,0,1-1.1.76h0s0,0-.09.09h0a.45.45,0,0,0-.1.27h0a5.8,5.8,0,0,1-.3,1.13h0l.09,0-.23.31a55.81,55.81,0,0,1-45.21,22.76h0c-24.45,0-45.21-15.43-52.57-36.84Z"/><path class="cls-6" d="M178.76,108.72c-.37.16-37.52,16.18-80.08,16h0c-37.47-.16-79.95-16.23-80.38-16.39l-9-3.43,3.19,8.6c.06.23.06.23,20.14,54.39l1.45,3.9,4-1.25a208.71,208.71,0,0,1,60.46-9.34c26,0,48.75,5.36,58.08,8.53l3.94,1.34,1.54-3.91c.56-1.43,13.72-32.32,22.43-52.73l4.31-10.12-10.07,4.41Z"/><path class="cls-3" d="M179.17,114l-3.79,1.39-8.44,3.08a18.6,18.6,0,0,0-5.83,3.1,15.7,15.7,0,0,0-2.4,2.71c.15-.41.24-.66.24-.68l1.13-3.12-3.21.85-7.63,2h0L141.78,125l-1.75.29-8.94,1.5c-.37.06-3.83.67-5.63,2.49a8.81,8.81,0,0,0-1.06,1.31l.51-3-2.25.21-7.22.68-.24,1.87a3.7,3.7,0,0,0-.66-.65,7.21,7.21,0,0,0-4.3-1L99.66,129h0l-8.54-.06a8,8,0,0,0-4.89,1.88,5.16,5.16,0,0,0-.73.89c0-1-.07-1.62-.07-1.62l-.06-1.52-9-.82h0L66,126.37l.47,2.37.12.62a13.57,13.57,0,0,0-6.28-3.79l-10.74-2.43.69,2.75.52,2a12.6,12.6,0,0,0-1-1.5,11.88,11.88,0,0,0-5.9-4.58c-2.62-.95-8-2.22-8.22-2.27l-3-.72v0c-2.75-1.19-8.82-3.18-10.88-3.85l-3.41-1.11,1.24,3.37,17.68,47.8,7.31-2h0l7.79-1.86L60,159.85v0l6.49-1,5.79-.83h0l7.36-.76c.78,0,3.17-.29,4.44-1.3a6.31,6.31,0,0,0,1.14-1.19l.11,2,8.65-.28H94a7.73,7.73,0,0,0,4.16-1.77,5,5,0,0,0,.49-.56l-.08,2.22,7,.18h0l7.91.2h0l5.71.44,7.26.79a9.5,9.5,0,0,0,5.15-1,6.1,6.1,0,0,0,.6-.38l-.6,2,7.4,1.25v0l6.56,1.2.82.22a20.59,20.59,0,0,0,6.62.66c3.4-.41,6.87-3.17,8.44-6.72l7.35-17h0c.13-.29,10.43-24.22,10.43-24.22Z"/><polygon class="cls-4" points="113.86 155.07 118.46 155.42 122.82 129.5 116.99 130.05 113.86 155.07 113.86 155.07"/><path class="cls-4" d="M132.91,131.41l-2.17,9.28,5.75-.15L140.3,127l-8.83,1.5s-3.23.53-4.69,2c-2,2-2.5,5.75-2.5,5.75l-3.53,19.38,5.76.59a8.21,8.21,0,0,0,4.2-.7,6.14,6.14,0,0,0,2.72-3.56c.48-1.4,1.79-6.9,1.79-6.9h-5.44l-1.15,5.5a5.19,5.19,0,0,1-1,2.17,3,3,0,0,1-2.36,1l3.76-17.33a14.42,14.42,0,0,1,1.44-3.56,3,3,0,0,1,2.4-1.4Z"/><path class="cls-4" d="M142.82,141.13l4.93-15.69-5,1.08-8.89,30.66,3.94.63,4.16-13.09,1.19,0a1.16,1.16,0,0,1,.77,1,4.9,4.9,0,0,1-.36,1.62L140,158.19l4.64.87,3.83-11.25A8.93,8.93,0,0,0,149,145a5.31,5.31,0,0,0-1-2.48,3.64,3.64,0,0,0,2.23-1.24,5.71,5.71,0,0,0,1.6-3.1c.32-.93,5.45-15.09,5.45-15.09l-6.64,1.67-3.92,12.65a7.42,7.42,0,0,1-.93,2.21c-.64.93-1.07,1.26-1.45,1.33a8.08,8.08,0,0,1-1.53.15Z"/><path class="cls-4" d="M165.91,125.67l-4.32,11.61,5.92-.31L176,117l-8.46,3.1a16.94,16.94,0,0,0-5.28,2.79,22,22,0,0,0-4.32,6,69.7,69.7,0,0,0-2.71,6.82c-.32,1.39-3.2,9.13-3.2,9.13h6.72l-2.88,7.59a7.85,7.85,0,0,1-1.44,3.1,4.38,4.38,0,0,1-2.72,1.55l3.84-9.76h-4.16l-4.51,12.15a18.09,18.09,0,0,0,5.93.67,9.65,9.65,0,0,0,7.05-5.69c1.44-3.26,6.24-14.41,6.24-14.41l-8,.4,2.44-7.12a33.17,33.17,0,0,1,2.85-5.52,15.92,15.92,0,0,1,2.56-2.16Z"/><path class="cls-4" d="M21.19,116.68,38.32,163l5.06-1.42L30.69,124.12s1.92.15,3.52,3.09a30.13,30.13,0,0,1,2.88,7c.48,1.86,8.55,26.87,8.55,26.87l5.14-1.2-9.86-32.94s1.28,0,2.56,2.16a17.4,17.4,0,0,1,1.76,4l7.59,26.32,5-1L51.47,134a29.73,29.73,0,0,0-3.06-6.53,10.17,10.17,0,0,0-5.08-3.9c-2.55-.87-8-2.28-8-2.28l.82,2.47a17.65,17.65,0,0,0-3.52-3c-1.5-.82-11.39-4.15-11.39-4.15Z"/><path class="cls-4" d="M61.38,142.08l-2.74-12a6.16,6.16,0,0,1,2.59,1.28c1,.93,1.24,3.52,1.24,3.52l1.47,7.18Zm5.74,14.83,4.33-.58-3.7-19.26s-.85-4.32-1.93-6c-1.91-3-6-4-6-4l-7.94-1.63L60.14,158l4.9-.82L62,145l2.82,0,2.28,11.85Z"/><path class="cls-4" d="M68.2,128.4l5.43,27.7,5.88-.62s2.67-.09,3.45-.7a4.18,4.18,0,0,0,1.59-3.09l-.71-21.51-5.66-.56L80.24,150a4.12,4.12,0,0,1-.8,2.79,1.89,1.89,0,0,1-1.6.62l-2.91-24.12-6.73-.87Z"/><path class="cls-4" d="M87,155l6.9-.27A6,6,0,0,0,97,153.39a5.79,5.79,0,0,0,1.35-3l.13-3.92-4.64,0,0,3.88a2.81,2.81,0,0,1-.54,1.86c-.46.45-2,.42-2,.42l0-7.78h7.19l.15-2.37-7.49.07v-6.85a1.92,1.92,0,0,1,.64-1.5,3.34,3.34,0,0,1,2-.39v7h5l.62-10.09-8.26-.17a6.2,6.2,0,0,0-3.68,1.4c-1.64,1.55-1.44,5.11-1.44,5.11L87,155Z"/><path class="cls-4" d="M108.85,134.31l-.32,6.07a2.58,2.58,0,0,1-.32,1.24,1.17,1.17,0,0,1-.75.51l-1.65,0,.48-9,1.22,0a1.84,1.84,0,0,1,1,.23c.38.27.3,1,.3,1Zm4.63-2.94c-.9-1-3.15-.83-3.15-.83l-9,.21-.93,23.84,4.52.12.58-9.8s1.45-.49,2.14.52a2.49,2.49,0,0,1,.4,1.45l-.6,7.87,4.45.21.78-7.92a4.84,4.84,0,0,0-.21-2.42,2.16,2.16,0,0,0-1.39-1.14s.64,0,1.6-1.09a4.41,4.41,0,0,0,1-2.63l.55-5.48a3.8,3.8,0,0,0-.71-2.91Z"/><path class="cls-4" d="M109.6,165.41l5.62-1.37-5.76-.55c-.25,0-5.6-.52-8.25-.5l-2.58-8-1,2.66c-.06.16-1.25,3.47-1.87,5.32-3.09,0-7.21.41-7.4.43l-6,.64,5.91,1.27c1.78.39,5.44,1.67,5.82,3.24-.46,1.83-1.72,5.06-1.73,5.09l-1.17,3,7.34-5.15,7.19,5-2.82-8.07c.56-1,3.77-2.4,6.67-3.1Z"/><path class="cls-3" d="M101.38,168.33c.4-1.59,3.07-2.8,5.21-3.53-2.1-.18-4.85-.38-6.14-.38h-.36s-1-3.06-1.59-4.65c-.49,1.38-1.21,3.42-1.52,4.37l-.11.36H96.5c-1.51,0-3.53.13-5.16.23,1.87.72,4,1.94,4.3,3.77v.1l0,.09a39.58,39.58,0,0,1-1.28,4l4.21-3,4.27,3c-.57-1.61-1.48-4.24-1.48-4.24l0-.15Z"/><path class="cls-3" d="M43.39,58.67c0-29.15,25-52.86,55.85-52.86s55.84,23.71,55.84,52.86S130,111.52,99.24,111.52,43.39,87.81,43.39,58.67Z"/><path class="cls-4" d="M65.53,27.31l2.38-1.91c1.51-1.22,2-2.81,1.13-3.92-1.11-1.39-2.89-.87-4.63.53L62.5,23.55l3,3.76Zm-.2-4.09.11-.1c.69-.55,1.29-.66,1.72-.14s.08,1.1-.54,1.6l-.12.09-1.17-1.45Z"/><path class="cls-4" d="M79.39,17.79l1.68-.68.44.47,2.36-1-4-3.58-2.47,1-.31,5.34,2.36-1,0-.64Zm0-1.22L79.21,15l.08,0a3.55,3.55,0,0,0,.38.51l.58.69-.9.36Z"/><polygon class="cls-4" points="91.03 10.07 93.43 9.8 93.8 13.06 95.81 12.83 95.98 14.38 91.57 14.87 91.03 10.07 91.03 10.07"/><polygon class="cls-4" points="104.78 9.79 107.17 10.14 106.7 13.39 108.7 13.68 108.48 15.21 104.08 14.58 104.78 9.79 104.78 9.79"/><path class="cls-4" d="M118.5,17.66l1.67.73,0,.64,2.34,1-.25-5.37-2.44-1.07-4.05,3.51,2.34,1,.42-.48Zm.86-.88,1-1.17.08,0a4.49,4.49,0,0,0-.1.64l-.09.89-.88-.39Z"/><path class="cls-4" d="M130.52,23.22l0,.14a3.17,3.17,0,0,0,.88,1.3c.18.15.52.34.66.17s-.09-.39-.24-.55l-.33-.36c-.65-.69-1-1.51-.53-2.1.73-.88,2.25-.46,3.36.46A5.14,5.14,0,0,1,135.73,24l-1.29.54a3.09,3.09,0,0,0-.85-1.17c-.16-.14-.44-.29-.57-.14s.1.35.23.49l.36.42c.68.78,1,1.56.48,2.19-.74.89-2.21.41-3.32-.51a8,8,0,0,1-1.69-2l1.44-.59Z"/><path class="cls-4" d="M146,45.16a6.22,6.22,0,0,0-1.09-.78.54.54,0,0,1-.33-.37,4,4,0,0,0-.36-1.29,55.16,55.16,0,0,0-18-15.06,7.42,7.42,0,0,0-2.4-.63.45.45,0,0,1-.38-.2,6.5,6.5,0,0,0-2.14-1.45,56.33,56.33,0,0,0-21.22-4.12,57.68,57.68,0,0,0-6.74.4l2.91-3.9c-11.61-.34-19.93,8.72-19.93,8.72h0a55.88,55.88,0,0,0-8,4.52h0a13,13,0,0,0-7.8,7A47.81,47.81,0,0,0,56,43.36,12.67,12.67,0,0,0,54,45a22.31,22.31,0,0,0-5.3,10.35l-.12.27c-.06.32-.11.67-.17,1-.13.66-.24,1.35-.33,2.08l.05-.08c0,.15,0,.24,0,.24s-1,3.57-1,3.57l-1.72,5.18h0a.1.1,0,0,0,0,0C41.16,82.15,46.68,91,47.63,92.3c7.34,21.38,28.05,36.78,52.46,36.78a55.69,55.69,0,0,0,45.11-22.7h0a4.68,4.68,0,0,0,.42-1.36.59.59,0,0,1,.24-.44,3.85,3.85,0,0,0,1.08-.75,52.78,52.78,0,0,0-.9-58.67Z"/><path class="cls-3" d="M76.87,34.63l.39-.42c.19-.19.26-.24.28-.23l0,0a22.12,22.12,0,0,1,.67-5c5-7,13.33-8.89,13.33-8.89,1-.29.36.16.36.16-5.22,5.85-4.67,10.69-4.67,10.69l5,18.2s-4-1.43-7.16-7.82C83.66,54.05,95.68,64.39,95.68,64.39c.53.45-.3,0-.3,0A37.53,37.53,0,0,1,88,58.79c.25,1,6.1,30.41,6.12,30.5s.11.43.17.62l2-5L98,99.72c-7.62,7.1-15.74,4.29-16.25,4.11l.36.54s6.59,13,33.45,11.58c0,0,.65,0,.55.08s0,0-.15.1a9.2,9.2,0,0,1-1.29.31c-32.43,8.66-49.23-19-50-20.21A24.07,24.07,0,0,1,62,91.5c0-.07-.06-.28.09-.12,0,0,3.44,3.59,13.18,4.48h.11c-7.52-8.4-10.73-14.48-11.2-15.41h0a20.55,20.55,0,0,1-2-5.22s0-.19.12,0c.36.77,2.86,4.44,5.88,5.27h0C65.64,76.33,64,69.77,63.84,68.81c3.5,4.9,9.71,5.26,9.71,5.26l0,0,0,0c-10.22-10.2-8-21.29-3.87-29.3a46.94,46.94,0,0,1,7.2-10.13Z"/><polygon class="cls-5" points="107.43 102.07 100.73 109.11 100.74 109.11 100.74 109.11 109.02 102.76 104.74 88 106.61 70.24 103.33 87.19 107.43 102.07 107.43 102.07 107.43 102.07"/><path class="cls-5" d="M105.74,66.14c.12-.06.27-.14.43-.24h0A8.63,8.63,0,0,0,108,64.45h0a9.92,9.92,0,0,0,2.66-7.16h0a18.87,18.87,0,0,0-.93-5.56h0c-.13,2.48-.78,11.69-4,14.41Z"/><path class="cls-5" d="M108.85,36a9.15,9.15,0,0,1,7.8-3.85h0a13.75,13.75,0,0,0-3.87-.56h0a13,13,0,0,0-4,.61h0a9.8,9.8,0,0,0-1.36.53h0a14.57,14.57,0,0,1,1.4,3.27Z"/><path class="cls-5" d="M103,45.29l.11-.06-.11.06Zm2.92-1.92a.13.13,0,0,1,.1.12h0c0,.33,0,.66,0,1h0a80.77,80.77,0,0,1-2.79,18.81h0a44.12,44.12,0,0,0,3.7-17.66h0a40.57,40.57,0,0,0-.54-6.7h0c-.14-.83-.28-1.47-.38-1.9h0c-.74,5.71-2.92,8.31-2.93,8.32h0a.1.1,0,0,1-.1,0h0a.1.1,0,0,1-.09-.06h0a34.91,34.91,0,0,0-8.06-9.81h0a32.72,32.72,0,0,0-4.17-3h0c6.8,14.79,8.8,26.19,9.31,30h0c0-.44,0-.88,0-1.32h0a76.16,76.16,0,0,0-1.54-13.62h0c-.76-4-1.53-6.85-1.53-6.86h0a.11.11,0,0,1,0-.13h0a.11.11,0,0,1,.13,0h0c3.07,2.38,5.21,9.12,5.59,10.38h0a19.17,19.17,0,0,0,1.93-4.1h0c.65-1.76,1.16-3.36,1.16-3.36h0a.12.12,0,0,1,.11-.09h0Z"/><path class="cls-5" d="M48.64,74.06c0,7,1.22,14.38,7.27,23.78h0c5.72,12,16.26,18.52,21.17,21h0c1.63.82,2.64,1.2,2.65,1.21h0a50.45,50.45,0,0,0,21.72,5h0A51.94,51.94,0,0,0,130,116.18h0c1.45-1,2.23-1.64,2.23-1.64h0l.07.09-.07-.09q.44-.36.66-.57h0l-.26.15h0c-.31.19-.6.37-.6.38h0c-10.71,6.28-20.57,8.2-28.63,8.2h0c-12.61,0-20.77-4.71-20.78-4.71h0C55.9,104,55.51,79.64,55.51,79.62h0a.11.11,0,0,1,.09-.11h0a.12.12,0,0,1,.13.06h0c3.45,6.69,7.63,9,9.5,9.69h0a5,5,0,0,0,.65.22h0c-7.78-9.8-10-18-10-24.27h0c0-8.23,3.9-12.9,3.91-12.91h0a.12.12,0,0,1,.14,0h0a.11.11,0,0,1,.07.13h0a40.65,40.65,0,0,0-.78,7.69h0a27.28,27.28,0,0,0,1.13,8.12h0a16.7,16.7,0,0,0,.83,2.14h0a49.61,49.61,0,0,1-.34-5.72h0a45.22,45.22,0,0,1,13-31.82h0a19.75,19.75,0,0,0-5.45,4.25h0c-1.86,1.9-3.26,3.67-3.26,3.67h0a.11.11,0,0,1-.13,0h0a.12.12,0,0,1-.08-.11h0a11.07,11.07,0,0,1,1.3-4.17h0a16.64,16.64,0,0,0-3.35,4.95h0a30.12,30.12,0,0,0-1.4,3.5h0l0,.05a36.71,36.71,0,0,0-5.84,9.11h0A30,30,0,0,0,54,58.4h0a3.5,3.5,0,0,1-.2.68h0a.14.14,0,0,1-.13.1h0c-.17,0-.12-.13-.14-.16h0a.81.81,0,0,1,0-.16h0c0-.23,0-.55,0-.54h0a27.77,27.77,0,0,1,2.09-8.79h0c-4.07,4.38-5.07,10.32-5.07,15.08h0a34.88,34.88,0,0,0,.89,7.91h0v0a50.78,50.78,0,0,0,1.11,9h0c.54,2.76,1.09,4.81,1.08,4.8h0a4.94,4.94,0,0,1,.26.92h0a.15.15,0,0,1,0,.08h0a.14.14,0,0,1-.12.08h0c-.15,0-.14-.1-.21-.18h0a2.14,2.14,0,0,1-.16-.27h0l-.21-.38h0C50.34,82.21,49,75,48.64,73.2h0v.86Z"/><path class="cls-6" d="M138.91,43.1a49,49,0,0,0-37.55-17.52h-.31a2.1,2.1,0,0,0-.36,0c-.1,0-.24,0-.26.22s.11.2.27.31a38.24,38.24,0,0,1,5.5,5.24l0,.07.09,0a11.18,11.18,0,0,1,1.6-.55A16.06,16.06,0,0,1,120,32.38c-1.2.59-7.34,3.69-8.64,7.19l0,.07.06,0s6.18,5.63,18.91,5.63a47.58,47.58,0,0,0,6.59-.47,6.91,6.91,0,0,0,1.1-.23c.54-.17,1.14-.42,1.16-.95a.89.89,0,0,0-.25-.57Z"/><path class="cls-6" d="M112.53,67.64a.12.12,0,0,0-.17,0,.14.14,0,0,0,0,.17,4.81,4.81,0,0,1,.39.47,12.71,12.71,0,0,1,2.13,7.59A27.5,27.5,0,0,1,112,87.33a29,29,0,0,0-.44-4.12c-.45-2.37-1.33-4.92-3.19-5.49a.11.11,0,0,0-.1,0,.11.11,0,0,0-.05.09l-1.16,10.36v0l4.16,15.45L103,110.29a.11.11,0,0,0,0,.2,31.21,31.21,0,0,0,8.63,1,48.29,48.29,0,0,0,10.39-1.17,2,2,0,0,0,1.33-1.2,54.78,54.78,0,0,0,.9-10.28c0-9-2-21.94-11.76-31.22Z"/><path class="cls-6" d="M114.39,63.47Zm11.67,45.9a.75.75,0,0,1-.24-.61h0a2.15,2.15,0,0,1,.06-.46h0s.31-1.22.63-3.34h0a58,58,0,0,0,.64-8.62h0c0-9.33-2.24-22.35-12.62-32.45h0l-.17-.12h0c-.08-.08-.18-.13-.2-.29h0a.17.17,0,0,1,.09-.14h0a.34.34,0,0,1,.14,0h0a1.81,1.81,0,0,1,.46.08h0a11.62,11.62,0,0,1,4.72,3h0a17,17,0,0,0-.57-2.74h0a16,16,0,0,0-3.24-6.17h0l-.22-.24h0c-.11-.15-.22-.23-.24-.38h0a.14.14,0,0,1,0-.1h0a.19.19,0,0,1,.1,0h0c.14,0,.23.1.53.32h0c.65.31,26.73,12.94,27.64,38.43h0s0,.15,0,.38h0a3.44,3.44,0,0,1-.92,2.57h0c-.26.32-6.44,8-15.54,11h0a1.54,1.54,0,0,1-.58.11h0a.8.8,0,0,1-.51-.15Z"/><path class="cls-6" d="M145.58,90.64c-.51-21-20.35-35.39-30.24-41.24h0c-3.3-2-5.48-3-5.49-3h0l-.47-.22H110a8.5,8.5,0,0,1,6.33,2.87h0a9.26,9.26,0,0,0-.52-2.71h0l-.09-.24.24.09a29.45,29.45,0,0,0,10,1.43h0a71.72,71.72,0,0,0,9.33-.67h0c2.51-.33,4.16-.66,4.17-.66h0a2.36,2.36,0,0,1,.37,0h0a2,2,0,0,1,2,.94h0c3.36,3.76,7.52,12.45,8.22,22.89h0q.12,2,.12,3.81h0c0,7.85-1.62,13.88-2.88,16.43h0c-.44.85-.77,1.33-1.16,1.36h0c-.36,0-.47-.43-.49-1.09h0"/><path class="cls-4" d="M88.43,22.64l0-.07h0c-.3.08-5.65,1.66-7.24,9.84,0,0,0,.15.07,0,.49-.79,2.17-3.33,3.7-2.57,0,0,0-.06,0-.16a14.72,14.72,0,0,1,3.42-7Z"/><path class="cls-4" d="M84.32,96.52c-1.16-2.34-8.6-18.58-8.6-18.58-2.31.73-5.19-1.15-5.19-1.15h0C74.19,86.52,82.82,95,84.19,96.56l0,0c.23.26.23.17.23.17l-.12-.23Z"/><path class="cls-4" d="M76.94,43.59c-6.71,15.35,8.4,21.68,8.6,21.76h0l-.81-3.54-.45-2a11.5,11.5,0,0,1-1.08-.41l-.34-.16L82.46,59c-6.61-3.51-6-11.91-5.56-14.65a.09.09,0,0,1,0,0c0-.09,0-.16,0-.23,0-.26.08-.43.1-.52a.42.42,0,0,0,0-.07v0c0-.2-.07,0-.11.12Z"/><path class="cls-5" d="M86.89,86.8,85.8,67.51,92.28,89s-2.12-5.09-5.39-2.22Z"/><path class="cls-5" d="M92.25,49.12l-5-18.2a2.06,2.06,0,0,0,0,.42l1.44,11.54a2.28,2.28,0,0,1,0,.42c0,.65-.41,1.49-3.43-1.74-.16-.16-.2-.22-.24-.26,3.12,6.39,7.16,7.82,7.16,7.82Z"/><path class="cls-5" d="M80.38,52.38a6.66,6.66,0,0,1-.56-2.59,5.86,5.86,0,0,1,2.07-4.39l.06,0A45,45,0,0,1,82,40.68c-1.66,2.44-5.18,8.23-1,12.76a3.16,3.16,0,0,1-.18-.27,6.67,6.67,0,0,1-.49-.79Z"/><path class="cls-4" d="M84.78,54.73A25,25,0,0,1,82,45.44s0-.06,0-.09l-.06,0a5.86,5.86,0,0,0-2.07,4.39,5.27,5.27,0,0,0,1.05,3.38,3.16,3.16,0,0,0,.18.27,3.58,3.58,0,0,0,.27.29,5.3,5.3,0,0,0,3.87,1.66,6.77,6.77,0,0,1-.41-.66Z"/><path class="cls-5" d="M90.82,89.25s-3.19-.81-3,5.83c0,0,0,0,0,0a2.41,2.41,0,0,1,.15-.55c1-2.2,1.85-3.08,2.66-3.1s1.18.62,1.6,1.47a14.65,14.65,0,0,1,1,3.12c.21.92.38,1.84.5,2.61,0,.47.09,1.06.12,1.78v.06h0v0c.11-.78,1.55-9.95-3.08-11.24Z"/><path class="cls-4" d="M93.9,100.47v-.06c0-.72-.08-1.31-.12-1.78-.12-.77-.29-1.69-.5-2.61a14.65,14.65,0,0,0-1-3.12c-.42-.85-.93-1.46-1.6-1.47s-1.66.9-2.66,3.1a2.41,2.41,0,0,0-.15.55h0l1.58,3.48s.9-9.32,4.47,1.89v0Z"/></g></svg>