<svg id="Layer_1" data-name="Layer 1" xmlns="http://www.w3.org/2000/svg" viewBox="0 0 200 200"><defs><style>.cls-1{fill:#b1b1b1;}.cls-2{fill:#011e41;}.cls-3{fill:#ffc629;}.cls-4{fill:#fff;}</style></defs><title>Team_Logos</title><path class="cls-1" d="M200,100A100,100,0,1,1,100,0,100,100,0,0,1,200,100Z"/><path class="cls-2" d="M194.28,100A94.28,94.28,0,1,1,100,5.72,94.29,94.29,0,0,1,194.28,100Z"/><path class="cls-3" d="M100,10.15A89.85,89.85,0,1,0,189.84,100,89.85,89.85,0,0,0,100,10.15Z"/><path class="cls-2" d="M161.5,100c0,34.67-27.54,62.8-61.5,62.8S38.5,134.67,38.5,100,66,37.21,100,37.21,161.5,65.32,161.5,100Z"/><path class="cls-4" d="M157.55,100c0,32.45-25.76,58.75-57.55,58.75S42.45,132.45,42.45,100,68.21,41.25,100,41.25s57.55,26.3,57.55,58.75Z"/><polygon class="cls-2" points="36.85 82.41 36.26 84.76 17.88 80.17 18.47 77.82 36.85 82.41 36.85 82.41"/><polygon class="cls-2" points="39.41 54.17 47.36 60.26 45.99 62.05 30.95 50.54 31.73 49.53 42.62 52.35 34.4 46.05 35.77 44.27 50.8 55.77 50.01 56.81 39.41 54.17 39.41 54.17"/><path class="cls-2" d="M58.74,25.1l3.74-1.92c1.6-.81,3.59-.71,4.58,1.23,2.37,4.63,3.42,6.68,5.8,11.31.94,1.86-.12,3.49-1.65,4.28l-3.84,2L58.74,25.1ZM68.6,39l1-.53a1.53,1.53,0,0,0,.78-2.18L65.09,25.89A1.49,1.49,0,0,0,63,25.24l-1.12.58L68.6,39Z"/><polygon class="cls-2" points="97.63 33.23 95.22 33.36 94.19 14.45 96.64 14.32 97.63 33.23 97.63 33.23"/><path class="cls-2" d="M125.17,38.27l.79-3.62-3.19-1.23-1.87,3.21-2.25-.86,10.08-16.41,2.34.9L127.5,39.17l-2.33-.9Zm2.68-13-.15-.06-3.85,6.33,2.54,1,1.46-7.25Z"/><polygon class="cls-2" points="153.27 45.58 145.97 52.44 144.42 50.8 158.21 37.81 159.07 38.73 154.54 49.03 162.09 41.93 163.63 43.56 149.85 56.55 148.95 55.6 153.27 45.58 153.27 45.58"/><path class="cls-2" d="M162.73,80.84,166,79.15,165,75.9l-3.68.58-.75-2.29,19.09-2.57.79,2.37-16.9,9.22-.79-2.37Zm11.74-6.14-.06-.17-7.33,1,.85,2.58,6.54-3.45Z"/><path class="cls-2" d="M24.66,139.46l-1.11-2.16,16.79-8.75,2.76,5.32a1.55,1.55,0,0,1-.57,2.32c-3,1.55-4.52,2.34-7.5,3.91a1.52,1.52,0,0,1-2.2-.74l-1.69-3.27-6.48,3.37ZM33,135.14l1.36,2.59L41,134.25l-1.36-2.59L33,135.14Z"/><path class="cls-2" d="M49.73,169.56l1.84-3.22-2.68-2.14-2.75,2.5-1.88-1.5L58.8,152.6l2,1.56-9.1,17-1.94-1.56ZM56.17,158l-.13-.11-5.57,4.89,2.13,1.69L56.17,158Z"/><path class="cls-2" d="M83.29,178l2.36.58-1.2,4.89a1.5,1.5,0,0,1-1.82,1.16l-4.57-1.13a1.51,1.51,0,0,1-1.14-1.89c1.5-6,2.3-9.31,3.79-15.35a1.5,1.5,0,0,1,1.81-1.16l4.65,1.14a1.52,1.52,0,0,1,1.07,1.88l-1,3.86-2.35-.57.83-3.4-2.82-.69L79.4,181.72l2.81.7L83.29,178Z"/><polygon class="cls-2" points="118.07 184.51 112 185.6 108.67 166.96 114.68 165.89 115.04 167.91 111.41 168.55 112.5 174.61 115.9 174 116.26 176.05 112.86 176.66 114.03 183.15 117.71 182.49 118.07 184.51 118.07 184.51"/><path class="cls-2" d="M146,172.59,144,174l-10.67-15.65,5.18-3.53a1.48,1.48,0,0,1,2.26.37c1.48,2.16,2.45,3.58,3.92,5.75a1.51,1.51,0,0,1-.44,2.26l-.24.17,6.88,5.91-2.25,1.54-7.74-6.9-.09-.87,1.64-1.11-3.42-5-2.54,1.74,9.51,14Z"/><path class="cls-2" d="M165.19,144.1l3.76,2.36,1.1-1.76-3.63-2.29-7,.35a2.36,2.36,0,0,1-1.32-.26l-3.42-2.16a1.51,1.51,0,0,1-.49-2.07c.77-1.24,1.36-2.16,2.14-3.4a1.43,1.43,0,0,1,2.12-.41l3.29,2.06-1.3,2-2.87-1.81-1.12,1.77,2.82,1.77,6.66-.37a3.09,3.09,0,0,1,1.69.3c1.78,1.13,2.39,1.51,4.18,2.63a1.51,1.51,0,0,1,.55,2.11c-.78,1.23-1.37,2.15-2.14,3.38a1.48,1.48,0,0,1-2.11.44l-4.17-2.64,1.29-2.05Z"/><path class="cls-1" d="M81.58,64.35,66,135l30.85,0s3.41-14,3.72-15.33H114c10,.07,18.16-3.33,23.7-9.83,10.07-11,8.3-26.95.73-36.06a28.06,28.06,0,0,0-22-10.19l-34.66,0-.17.73Z"/><path class="cls-2" d="M98.37,116.9l-3.72,15.33-25.13,0L84,66.43l32.37,0a25.17,25.17,0,0,1,19.87,9.16c7.17,8.67,7.88,23.08-.71,32.44-5.28,6.19-13,8.9-21.57,8.84Z"/><path class="cls-3" d="M80.67,81.49H94.86a2.57,2.57,0,0,1,2.62,3.44,19.87,19.87,0,0,0-1,4.16c-.12,1.09,1.1,1.77,1.79,1.77l28.94,0c.52,0,.82-.14.82-.41a18.39,18.39,0,0,0-.12-1.89c-.1-.64-.21-.75-.73-.75-3.61,0-5.08-1.61-8.85-4A27.74,27.74,0,0,0,104.24,80L81,79.93l-.35,1.56Z"/><path class="cls-3" d="M98.21,100.23A18.92,18.92,0,0,1,97,96.71,3.61,3.61,0,0,0,93.14,94H77.92l.39-1.71,49.35,0c.49,0,.38.2.35.75s-.16,1.55-.23,2.15-.56.46-1,.46a8.57,8.57,0,0,0-4.38,1.19,40.13,40.13,0,0,1-8.85,5c-2.63.84-12.47,3.85-15.34-1.69"/><path class="cls-3" d="M75.19,106.4l25.77,0a4.39,4.39,0,0,1,2.88.9,22.66,22.66,0,0,0,8,4c1.35.38,3.65-.12,5.72-1.3a22.34,22.34,0,0,0,9.57-12c.29-.93-.26-.86-1-.8-2.18.15-4.46,2.12-7.46,4s-9.13,3.72-14.92,3.72H75.53l-.34,1.49Z"/><path class="cls-3" d="M113,71.89a6,6,0,0,1,2.39.14c4.9,1.93,9.53,7,11.46,12.44.37,1,.48,1.71,0,1.77-2.24.24-3.28-.86-5.93-2.66a30.53,30.53,0,0,0-8.41-4.06c-3.29-1-9.3-1.2-10.08-1.23s-.69-.35-.34-.69A20.91,20.91,0,0,1,113,71.89Z"/><path class="cls-3" d="M136.49,90.46a.46.46,0,0,1-.47.44h-5.64c-.73,0-.76-.34-.76-.75s-.15-1.25-.17-1.74-.2-1,.43-1.29a8.29,8.29,0,0,0,3.75-3.52c.21-.45.55-1.18.94-.56a15.65,15.65,0,0,1,1.92,7.42Z"/><path class="cls-3" d="M134.46,100.6c-.1.19-.45.33-.57,0a9.18,9.18,0,0,0-4.13-4.47.72.72,0,0,1-.38-.89c0-.41.22-1.69.24-2.24s.19-.73.52-.73H136c.22,0,.47.19.47.34a18.23,18.23,0,0,1-2,8Z"/><path class="cls-3" d="M119.18,111.64c-.42.07-1.33-.07.09-.9,4.27-2.49,8.09-8.32,9.09-11.67.41-1.28.44-1.34.93-1.2a6,6,0,0,1,2.47,2.16c.79,1.09,1.14,3.21.68,3.81a20.4,20.4,0,0,1-13.26,7.8Z"/><path class="cls-3" d="M130,85.26c-1,.52-1.19.43-1.39-.32-1.86-6.51-7.34-11.33-9.58-12.76-.43-.27-.31-.45,0-.41,5.37.71,10.62,3.63,13.26,7.64,1.51,2.29-1.32,5.32-2.28,5.85Z"/></svg>