<?xml version="1.0" encoding="utf-8"?>
<!-- Generator: Adobe Illustrator 26.0.2, SVG Export Plug-In . SVG Version: 6.00 Build 0)  -->
<svg version="1.1" id="Layer_1" xmlns="http://www.w3.org/2000/svg" xmlns:xlink="http://www.w3.org/1999/xlink" x="0px" y="0px"
	 viewBox="0 0 500.8 552.3" style="enable-background:new 0 0 500.8 552.3;" xml:space="preserve">
<style type="text/css">
	.st0{fill:#061922;}
</style>
<g>
	<path class="st0" d="M157.9,422.9H139l-22.7,91h15.9l4.9-20.5h22.6l5,20.5h15.9L157.9,422.9z M141,477.4l7.5-30.6l7.4,30.6H141z"/>
	<polygon class="st0" points="240.1,422.9 240.1,513.8 224.2,513.8 224.2,475.6 203.5,475.6 203.5,513.8 187.6,513.8 187.6,422.9 
		203.5,422.9 203.5,459.7 224.2,459.7 224.2,422.9 	"/>
	<polygon class="st0" points="122.2,438.8 104.9,438.8 104.9,513.8 89,513.8 89,438.8 71.6,438.8 71.6,422.9 122.2,422.9 	"/>
	<path class="st0" d="M64.5,422.9v72c0,5.4-2,10.4-5.7,14.1c-3.7,3.7-8.7,5.7-14.1,5.7H30.8c-5.4,0-10.4-2-14.1-5.7
		c-3.7-3.7-5.7-8.7-5.7-14.1v-72h15.9v76h21.7v-76H64.5z"/>
	<path class="st0" d="M315.8,423.3v72c0,5.4-2,10.4-5.7,14.1c-3.7,3.7-8.7,5.7-14.1,5.7h-13.9c-5.4,0-10.4-2-14.1-5.7
		c-3.7-3.7-5.7-8.7-5.7-14.1v-18.1h15.9v22.3h21.6l0.1-76.1H315.8z"/>
	<path class="st0" d="M362.5,423.3h-18.9l-22.7,91h15.9l4.9-20.5h22.6l5,20.5h15.9L362.5,423.3z M360.4,477.9h-14.8l7.5-30.6
		L360.4,477.9z"/>
	<polygon class="st0" points="436.9,438.9 407.6,498.4 437,498.4 437,514.3 389.7,514.3 389.7,498.8 389.7,498.7 419.1,439.2 
		389.7,439.2 389.7,423.3 437,423.3 437,438.8 	"/>
	<polygon class="st0" points="492.1,438.9 462.8,498.4 492.2,498.4 492.2,514.3 444.8,514.3 444.8,498.8 444.9,498.7 474.2,439.2 
		444.8,439.2 444.8,423.3 492.2,423.3 492.2,438.8 	"/>
	<path class="st0" d="M495,34.8l-48,103H254.8l-60.6,129.9h-54.3c0.4-6.5,1.7-13,3.8-19.3c5.2-15.7,15-28.6,27.3-37.8
		c3.2,3.7,6.2,7.7,8.8,11.9c0.4,0.7,1.2,0.6,1.5,0c0,0,0,0,0,0l87.5-187.7H495z"/>
	<path class="st0" d="M49.9,308c-5.5,11-13.3,20.3-22.8,27.4c-7.9-9.2-14.3-20-18.3-32.3C6,294.9,4.4,286.5,4,278.3h54
		C57.3,288.5,54.6,298.6,49.9,308"/>
	<path class="st0" d="M93.7,278.3v89.8c-22.1-1.3-43-10.2-59.1-25.1c10.3-8,18.8-18.3,24.8-30.3c5.5-10.9,8.6-22.6,9.3-34.4H93.7z"
		/>
	<path class="st0" d="M54.2,248.4c2.1,6.3,3.4,12.8,3.8,19.3H4c1.1-21.1,9.4-41.2,23-57C39.3,219.9,49,232.8,54.2,248.4"/>
	<path class="st0" d="M93.7,177.9v89.8H68.6c-0.4-7.6-1.9-15.2-4.4-22.7c-5.8-17.3-16.4-31.6-29.8-42c9.6-9,21.3-16,34.6-20.4
		C77.2,179.9,85.5,178.4,93.7,177.9"/>
	<path class="st0" d="M129.3,267.7h-25v-89.8c22.1,1.2,43.1,10.1,59.3,25c-13.9,10.7-24.2,25.2-29.9,42.2
		C131.2,252.5,129.7,260.1,129.3,267.7"/>
	<path class="st0" d="M163.5,343.2c-9.6,8.9-21.2,15.8-34.4,20.2c-8.3,2.7-16.6,4.3-24.9,4.7v-89.8h25c0.7,11.8,3.8,23.5,9.3,34.4
		C144.6,324.8,153.1,335.2,163.5,343.2"/>
	<path class="st0" d="M194.2,278.3c-1.2,21.2-9.4,41.3-23.2,57.2c-9.6-7.1-17.5-16.5-23-27.5c-4.7-9.4-7.4-19.5-8.1-29.6H194.2z"/>
</g>
</svg>
