<svg id="Layer_1" data-name="Layer 1" xmlns="http://www.w3.org/2000/svg" viewBox="0 0 200 200"><defs><style>.cls-1{fill:#ddc9a3;}.cls-2{fill:#295135;}.cls-3{fill:#fff;}</style></defs><title>Team_Logos</title><g id="BUCK"><path class="cls-1" d="M100,196.29A79.18,79.18,0,0,1,44.44,60.63a2.37,2.37,0,0,1,.39-.32c-5.27-7.93-8.21-17.21-6-28.44C43,11.17,59.71,4.93,60.42,4.67a2.37,2.37,0,0,1,.83-.14,2.45,2.45,0,0,1,2.4,2.91A39.19,39.19,0,0,1,76.53.12,2.39,2.39,0,0,1,77.27,0a2.45,2.45,0,0,1,1.27,4.54A41.89,41.89,0,0,0,65.92,16.35a34.79,34.79,0,0,1,7.52-1h.49a2.45,2.45,0,0,1,.45,4.82A45.35,45.35,0,0,0,60.54,27a41.62,41.62,0,0,0,5.3,36.52,43.15,43.15,0,0,0,3.26,4.08c-.41-8.63,2.13-22,17.64-28.21a2.42,2.42,0,0,1,.91-.18,2.45,2.45,0,0,1,1.27,4.54l-.11.07A20.33,20.33,0,0,0,83,49.61a22.84,22.84,0,0,1,4-.77l.18,0,.3,0a2.45,2.45,0,0,1,1.3,4.52l-.18.11c-5,2.87-7.73,6.2-8.21,9.9-.52,4,1.68,7.81,3.28,10,4.16-4.84,6.87-13.06,7.63-16.16a2.44,2.44,0,0,1,2.37-1.87l.29,0a2.45,2.45,0,0,1,2.16,2.41c.06,10.15-2.66,17.09-5.45,21.54a21.62,21.62,0,0,0,9.11,2.22h.56a21.62,21.62,0,0,0,9.11-2.22c-2.79-4.45-5.51-11.39-5.45-21.54a2.45,2.45,0,0,1,2.16-2.41l.29,0a2.46,2.46,0,0,1,2.38,1.87c.75,3.1,3.46,11.32,7.62,16.16,1.6-2.16,3.8-6,3.28-10-.48-3.7-3.24-7-8.21-9.9l-.15-.09a2.46,2.46,0,0,1,1.28-4.54l.29,0,.18,0a23.09,23.09,0,0,1,4,.77,20.49,20.49,0,0,0-5.86-5.76l-.11-.07a2.45,2.45,0,0,1,1.27-4.54,2.42,2.42,0,0,1,.91.18c15.51,6.22,18,19.58,17.64,28.21a43.15,43.15,0,0,0,3.26-4.08A41.62,41.62,0,0,0,139.46,27a45,45,0,0,0-13.84-6.86,2.45,2.45,0,0,1,.45-4.82h.49a34.79,34.79,0,0,1,7.52,1A41.89,41.89,0,0,0,121.46,4.54,2.45,2.45,0,0,1,122.73,0a2.39,2.39,0,0,1,.74.12,39.19,39.19,0,0,1,12.88,7.32,2.45,2.45,0,0,1,2.4-2.91,2.37,2.37,0,0,1,.83.14c.71.26,17.44,6.5,21.56,27.2,2.24,11.23-.7,20.51-6,28.44a3,3,0,0,1,.4.32A79.19,79.19,0,0,1,100,196.29Z"/><path class="cls-2" d="M52.55,56.83s-3.5-15.84-.9-25.22c-.69.75-1.4,1.52-2,2.36-6.33,8.2,2.95,22.86,2.95,22.86Zm94.9,0s9.28-14.66,3-22.86c-.65-.84-1.36-1.61-2.05-2.36,2.6,9.38-.9,25.22-.9,25.22ZM41.25,32.34C45.16,12.76,61.25,7,61.25,7c-5.89,4.36-11.91,12.54-14.39,24a34.09,34.09,0,0,1,7.29-7C60.68,9.9,71.81,4.2,77.27,2.45a44,44,0,0,0-16.61,18c8.19-2.93,13.14-2.66,13.14-2.66a47.41,47.41,0,0,0-15.33,7.72A44,44,0,0,0,63.85,65a38.24,38.24,0,0,0,8.8,9.13c-1.1-2.78-5.31-24.25,15-32.4l-.15.08a22.93,22.93,0,0,0-9.76,13.65,15.43,15.43,0,0,1,9.67-4.17l-.09.06c-18.85,10.87-3.86,25.6-3.86,25.6,5.94-5,9.41-16.13,10.15-19.18C93.68,69.51,89.76,76.57,87.1,80A23.46,23.46,0,0,0,100,83.91h0A23.46,23.46,0,0,0,112.9,80c-2.66-3.45-6.58-10.51-6.51-22.29.74,3.05,4.21,14.2,10.15,19.18,0,0,15-14.73-3.86-25.6l-.09-.06a15.43,15.43,0,0,1,9.67,4.17,22.93,22.93,0,0,0-9.76-13.65l-.15-.08c20.31,8.15,16.1,29.62,15,32.4a38.24,38.24,0,0,0,8.8-9.13,44,44,0,0,0,5.38-39.45,47.41,47.41,0,0,0-15.33-7.72s5-.27,13.14,2.66a44,44,0,0,0-16.61-18C128.19,4.2,139.32,9.9,145.85,24A34.09,34.09,0,0,1,153.14,31c-2.48-11.49-8.5-19.67-14.39-24,0,0,16.09,5.79,20,25.37,4.54,22.79-13.67,37-28.34,49.22L141.61,77c.76-.32,1.29.41,1.15,1.28L142.43,81c-.18,1.52-1.3,9.23-5.53,11.57-.92.51-2.5,1.08-7.14,1.43l-8.41.54,1.39,4.73-8.26,13.23,4.23-4.46,8.64,30.7-23.69,19.49,7.39-33.53-11,13.45L89,124.74l7.39,33.53L72.65,138.78l8.64-30.7,4.23,4.46L77.26,99.31l1.39-4.73L70.24,94c-4.64-.35-6.22-.92-7.14-1.43-4.23-2.34-5.35-10-5.53-11.57l-.33-2.77c-.14-.87.39-1.6,1.15-1.28l11.2,4.57C54.92,69.37,36.71,55.13,41.25,32.34ZM51.72,68.09a68.9,68.9,0,0,0-19.23,61.77l20.72-5.59a47,47,0,0,0,93-.25l21.26,5.84a68.68,68.68,0,0,0-19.1-61.53l1.82-2a71.4,71.4,0,1,1-100.37-.08l1.86,1.81Zm102.13-5.72-1.71,2.05a74.1,74.1,0,1,1-104.28,0l-1.71-2.05a76.79,76.79,0,1,0,107.7,0Z"/><path class="cls-3" d="M94.5,167.7l-4.32,6,1.94,10.51-2.67-.47L88,176.1l-1.26,7.15-2.55-.44,2.88-16.41,2.55.45-.8,4.55,3-4.17,2.69.47Zm34.41,7.4L126.7,171l2.87-1.53,2.2,4.1-2.86,1.53Zm-5.34-9.91,2.86-1.54,1.89,3.51-2.86,1.54-1.89-3.51Zm6.93,2.73.27-1.63-2.52-4.67-2.4-.68-5.74,3.11L128,178.61l5.74-3.1.72-2.43L132,168.56l-1.5-.64ZM104.41,181.8l0,2.64-8,.13L96.18,168l8-.13,0,2.65-5.44.09.06,4,5.44-.09,0,2.63-5.44.09.08,4.66,5.43-.09Zm12.17-1.92.51,2.59L109.23,184,106,167.75l7.86-1.54.51,2.6-5.34,1,.77,3.93,5.34-1.05.5,2.57-5.33,1,.89,4.58,5.34-1.05Zm18.93-26.34,10.67,12.68-1.37,1.16-3.64,3.06-1.48,1.25L129.09,159l2-1.67,9,10.65,2.48-2.08-9-10.65,2-1.66Zm30.05-20.42-2.41,8-1.77-.53-2.67-.8.73-2.46,1.92.57.93-3.09-4.43-1.33L156.15,139l-1.78-.53-7.09-2.12.53-1.77,1.87-6.25,1.8.54,2.63.79-.74,2.46-1.89-.57-.93,3.1,3.83,1.14,1.68-5.55,1.78.53,5.94,1.78,1.78.54Zm-14.68,10.25,10.59,1.4-1.27,2.4-7.71-1,6.42,3.41-1.21,2.28L143,144.08l1.21-2.28,4.09,2.16-3-4.13,1.27-2.41,4.37,6Zm2.73,11.4,1.45,1.15L151,161l-1.14,1.44-11.48-9.15-1.48-1.18,5.22-6.55,1.48,1.19,2.48,2-1.61,2-1.87-1.5-2,2.53,8.8,7,2-2.53-1.89-1.51,1.6-2,2.51,2ZM85.3,166l-6,15.47-1.68-.65-4.44-1.7-1.81-.7,6-15.43,2.41.93-5,13,3,1.16,5-13,2.4.92Zm-38.76-12.2,3.17,4.44-2.16,1.55-4.69-6.54,13.54-9.7,1.51,2.1-11.37,8.15Zm6.39-16.94-15.75,5.41-.84-2.44,9.88-3.4-4.56-.14,3.51-2.92-9.88,3.4-.85-2.45,15.76-5.41.84,2.45-3.51,2.91,4.56.14.84,2.45Zm2.33,4.46L40.48,149l-1.19-2.29L54.06,139l1.2,2.3ZM67.8,156.73,55.06,167.56l-1.75-1.73,3.07-4.63-4.58,3.14L50,162.61l10.67-12.88,1.71,1.69-4.31,5.43L64,152.94l.59.58-3.83,5.9L66.08,155l1.72,1.7Zm2.51,9.71-2.72-1.74,2.18-3.42L72.51,163l-2.2,3.44ZM75.58,163l.47-.74,0-.07L69,157.67l0,.05-8.92,14,2.16,1.38,3.93-6.14,2.72,1.74L65,174.81l2.16,1.38,7.54-11.81.91-1.42Z"/><path class="cls-3" d="M92.31,94.05l-5.72-2.62a.74.74,0,0,0-1,.56,3.55,3.55,0,0,0,1.19,3.53,4.11,4.11,0,0,0,5.79-.26.74.74,0,0,0-.21-1.21Z"/><path class="cls-3" d="M61.25,81s.82,6.87,3.7,8.47c2,1.07,6.7,1,10.86,1.29C71.21,89,64.43,84.09,61.25,81Z"/><polygon class="cls-3" points="95.2 122.1 97.5 125.23 102.5 125.23 104.8 122.1 95.2 122.1 95.2 122.1"/><path class="cls-3" d="M138.75,81c-3.18,3.1-10,8-14.56,9.76,4.16-.32,8.91-.22,10.86-1.29,2.88-1.6,3.7-8.47,3.7-8.47Z"/><path class="cls-3" d="M104.78,104l-2.21-7.27L100,97.93l-2.57-1.25L95.22,104a9.16,9.16,0,0,1-3.92,4.91l-1.35,6,3.33,4.5h3.54l-3.28-4.82.52-3a8.13,8.13,0,0,0,11.88,0l.52,3-3.28,4.82h3.54l3.33-4.5-1.35-6a9.16,9.16,0,0,1-3.92-4.91Z"/><path class="cls-3" d="M113.41,91.43l-5.72,2.62a.74.74,0,0,0-.21,1.21,4.11,4.11,0,0,0,5.79.26A3.55,3.55,0,0,0,114.46,92a.74.74,0,0,0-1-.56Z"/></g></svg>