<svg id="Layer_1" data-name="Layer 1" xmlns="http://www.w3.org/2000/svg" xmlns:xlink="http://www.w3.org/1999/xlink" viewBox="0 0 200 200"><defs><style>.cls-1{fill:none;}.cls-2{clip-path:url(#clip-path);}.cls-3{fill:#2d2a26;}.cls-4{fill:#8a2432;}.cls-5{fill:#ffa400;}.cls-6{fill:#fff;}</style><clipPath id="clip-path"><rect class="cls-1" x="27.1" width="145.45" height="200.82"/></clipPath></defs><title>Team_Logos</title><g id="HEAT"><g class="cls-2"><path class="cls-3" d="M45.75,57C46.19,52.09,64,45.55,92.88,44.53a16.48,16.48,0,0,0-6.63,11.15L86,57.82a18.06,18.06,0,0,1-.93,4c-1.11,2.92-4.24,5.32-7.59,7.15-11.62-1.46-21.33-3.91-27-7h0c-3.11-1.68-4.81-3.48-4.68-4.93Zm110.82-1.49c1.1,1.22,1,2,1,2.26-.13,1.4-1.88,3.09-4.81,4.63h0c-6.17,3.25-16.78,5.7-29.4,7a10.64,10.64,0,0,1,1.81-.94l.21-.08c3.62-1.47,7.74-3.14,7.93-9.14,0-1,.08-3.88.61-4.93.68-1.35,2.41-3.42,3.93-4,0,0-2.55-.51-2.55-.51l-.4,0a6.87,6.87,0,0,0,1.94-2.16c10.25,2.13,17.15,5,19.73,7.88ZM169.17,48c-5.42-6-17.38-10.83-32.78-13.76.07-1.77,1.14-2.52,3.06-3.85a26,26,0,0,0,3.28-2.56c5-4.72-.87-12-1.12-12.25l-3.21-3.92.77,5c.53,3.43-.73,4.64-4.46,7.24A7.74,7.74,0,0,0,133.47,25a24.78,24.78,0,0,0-.5-8,8.68,8.68,0,0,0-2.35-4.5l-.41,4.64s-.36,3.63-5.16,8a17.4,17.4,0,0,0,1.15-1.45c2.35-3.43,1.67-7.32.88-11.84l-.16-1c-.81-4.7.45-7.63,1.25-8.12.79-1,2.36-2.55,2.36-2.55a6.65,6.65,0,0,0-3.14-.07c-3,.41-8.06,2.21-7.92,6.32a17.78,17.78,0,0,0,1.15,5c.55,1.62,1.07,3.15.61,3.94-.37.62-1.48,1.12-3.23,1.44-7.07,1.29-12.49,4.6-15.26,9.32a14.87,14.87,0,0,0-1.84,5c-17.55.05-34.18,2.24-47.06,6.23C39.39,41.88,31.43,48,30.8,55c-.33,3.71,1.35,9,10.62,14.19l-.06.07L44,70.52h0l1.38.66h0a87.66,87.66,0,0,0,14.88,4.92A30.81,30.81,0,0,0,54.81,80a38.81,38.81,0,1,0,62.68,37.83c3.13-9.37,2.77-19.43,2.63-23.23C119.81,86,124,81.19,126.73,79c12.27-1.55,23.12-4.24,31.2-7.84h0l1.31-.62h0l2.8-1.34-.08-.07c6.51-3.63,10.14-7.9,10.54-12.45.27-3-.86-6-3.35-8.71Z"/></g><polygon class="cls-3" points="65.82 175.33 70.77 155.09 62.59 155.09 57.61 175.33 65.82 175.33 65.82 175.33"/><path class="cls-3" d="M83.74,160.07l.48,8.26H80l4.31,7h7.47l-1.17-20.24H78.26s-10.08,20.24-10,20.24h7.89l7.57-15.26Z"/><polygon class="cls-3" points="64.73 193.91 63.06 200.82 70.74 200.82 75.72 180.59 68.04 180.59 66.15 188.43 60.38 188.44 62.27 180.59 54.59 180.59 49.61 200.82 57.29 200.82 58.95 193.91 64.73 193.91 64.73 193.91"/><polygon class="cls-3" points="83.09 196.26 83.65 193.51 93.16 193.51 94.37 189.04 84.82 189.04 85.43 186.07 94.99 186.07 96.45 180.59 79.11 180.59 74.13 200.82 91.34 200.82 92.58 196.27 83.09 196.26 83.09 196.26"/><polygon class="cls-3" points="132.46 175.33 137.41 155.09 129.23 155.09 124.25 175.33 132.46 175.33 132.46 175.33"/><path class="cls-3" d="M146,170.72c1.08,1.51,2.28,4.46-2.78,6.75-5.87,2.66,0,9.45-8,9.45h-3.31l-3.33,13.9h-8.21l3.35-13.9h-5.54l1.74-6.33h14.22c8.43,0,2.52-5.84,6.81-6.63,2.93-.54,4.74-1.07,5.08-3.24Z"/><polygon class="cls-3" points="43.5 165.51 42.2 155.09 32.08 155.09 27.1 175.33 34.57 175.33 37.33 164.75 37.37 164.75 38.86 175.33 43.25 175.33 49.35 164.75 49.4 164.75 47.02 175.33 54.06 175.33 59.04 155.09 49.29 155.09 43.55 165.51 43.5 165.51 43.5 165.51"/><polygon class="cls-3" points="110.25 165.51 108.94 155.09 98.83 155.09 93.85 175.33 101.32 175.33 104.07 164.75 104.12 164.75 105.61 175.33 110 175.33 116.1 164.75 116.15 164.75 113.76 175.33 120.8 175.33 125.78 155.09 116.04 155.09 110.29 165.51 110.25 165.51 110.25 165.51"/><path class="cls-3" d="M109,185.57l.48,8.26h-4.26l4.31,7H117l-1.17-20.23H103.53s-10.09,20.23-10,20.23h7.89L109,185.57Z"/><path class="cls-4" d="M42.14,112.68A24.66,24.66,0,0,0,51.89,128a26,26,0,0,0,5.69,3c-1.25-2.14-2.71-4.3-4.2-6.49-2.78-4.1-5.65-8.33-7.47-12.89A27,27,0,0,1,44.33,97h0A37.3,37.3,0,0,0,42,109.93c0,.93,0,1.84.11,2.75Z"/><path class="cls-4" d="M48.4,110.61c1.72,4.29,4.5,8.41,7.2,12.38a87.91,87.91,0,0,1,5.67,9.12,31.54,31.54,0,0,0,5.28.77,45.29,45.29,0,0,1-4.87-9.14c-5.39-13.39-4.61-29.94,2.07-39.52A35.59,35.59,0,0,1,76.65,73c4.57-2.5,7.43-3.24,10.34-5,3.16-1.89,4.85-5,2.77-12.11a12.93,12.93,0,0,1-.59-5,15.15,15.15,0,0,0-1.55,4.91l0,0a31.36,31.36,0,0,1-1.32,6.45C83.52,69.62,70,73.69,68.2,74.23A32.67,32.67,0,0,0,55.73,81a26.81,26.81,0,0,0-7.33,29.61Z"/><path class="cls-4" d="M104.89,44.43a9.71,9.71,0,0,1,.3,1.33c.36,2.56-.42,4.63-3.56,5.14s-4.33-2.3-4.58-4.59a10,10,0,0,1,.1-1.89l-1.62,0a17.23,17.23,0,0,0-3.68,2.83c-.64,1.39-1.42,3.31-.22,7.8,2.1,7.92,1.21,12.7-5.16,15.44C78.37,74,73.18,76.05,66.23,84.8c-3.31,4.16-5.11,11.06-5.41,18a49.2,49.2,0,0,0,3.47,19.83,44.65,44.65,0,0,0,5.62,10.29,36.39,36.39,0,0,0,6.57-.85,17,17,0,0,1-4.06-10.13c-.83-12.85,6.09-18.25,16.74-26.79l4.76-4c19-16.15,13.47-32.57,15.56-46.59-1.51-.06-3-.1-4.59-.13Z"/><path class="cls-4" d="M112.5,44.7a62.56,62.56,0,0,0-1,8.74c-.75,12.22-.38,26-15.84,39.78L91,97c-10.35,8.29-16.27,13.48-15.86,24.76a13.82,13.82,0,0,0,4.32,9.54,41.35,41.35,0,0,0,8.51-3.65c13.44-7.63,21.9-19,25.14-33.67a97.09,97.09,0,0,0,2-22.83c0-3.06.38-9.06.38-9.06A34.14,34.14,0,0,1,120.85,46c.14-.23.3-.46.44-.68q-4.2-.42-8.79-.66Z"/><path class="cls-4" d="M117,84v0a.17.17,0,0,1,0,.07c-.42,2.19-.53,4.65-.79,7.1q-.2,1.41-.39,2.73c0,.25-.1.5-.16.75C112.29,110,103.5,122,89.37,130A46.25,46.25,0,0,1,82,133.37a18.59,18.59,0,0,0,12.3,3.1c12.69-1.9,18.88-10.19,21.85-19,3.06-9.09,2.73-18.79,2.59-22.81-.49-13.41,9.89-18.36,9.89-18.36-8.07-.43-10.71,3.08-11.6,7.7Z"/><path class="cls-4" d="M108.55,133.43a26.32,26.32,0,0,1-13.32,5.68,21,21,0,0,1-16.15-4.54,2.52,2.52,0,0,0-.25-.21,39.57,39.57,0,0,1-6.73,1.18C77.23,141,84,144.16,93,144.77h.13a37.56,37.56,0,0,0,15.58-11.49l-.17.14Z"/><path class="cls-4" d="M61.33,142.67a18.3,18.3,0,0,0-2-8.39,37.26,37.26,0,0,1-9.07-4,22.6,22.6,0,0,1-4.45-4s0,0,0,0a37.45,37.45,0,0,0,15.53,16.37Z"/><path class="cls-4" d="M87.21,146.52A33.67,33.67,0,0,1,74,140.68a34.09,34.09,0,0,1-5.32-5,34.64,34.64,0,0,1-6.1-.6A18.43,18.43,0,0,1,63.92,144h0a37.25,37.25,0,0,0,15.55,3.39,37.71,37.71,0,0,0,7.79-.82l-.05,0Z"/><path class="cls-4" d="M130.7,54.59c-.87,2.92-3.75,2.57-4.58,1-1.32-2.49-.82-4.41.56-5.72s3.62-2,5.8-3h0c-2.52-.43-5.2-.82-8-1.15l-.12.13c-.25.29-.51.57-.75.87a31.6,31.6,0,0,0-5.52,15.69l-.14,1.19a63.56,63.56,0,0,0-.22,7.55c0,.41,0,.83,0,1.26,0,1-.08,2-.12,3h.06c0-.41,0-.57,0-.36a11.65,11.65,0,0,1,6.93-7.88c3.58-1.45,7.11-2.79,7.28-8a17.92,17.92,0,0,1,.72-5.45,4.68,4.68,0,0,1,2.52-2.54c-1.73-.17-3.63.56-4.47,3.36Z"/><path class="cls-5" d="M135,34c.26-3.48,3.55-4.13,6.74-7.15,4.09-3.89-1.23-10.37-1.23-10.37.67,4.36-1.35,6-5,8.59a4.64,4.64,0,0,0-2.14,3.41,44.29,44.29,0,0,1-.58,5.13L135,34Z"/><path class="cls-5" d="M123.77,27.94c-1,.74-1.91,1.49-2.77,2.26-.61.58-1.21,1.17-1.76,1.73,3.59.31,7.09.71,10.46,1.2,2.15-3.92,3.17-8.36,1.9-15.93,0,0-.3,5.13-7.83,10.74Z"/><path class="cls-5" d="M103.68,31.18c4.11,0,8.14.21,12.07.48l.4-.4c2.64-2.83,6.72-5.22,8.9-8.4s1.31-7.06.5-11.76c-1.39-8.11,2-9.61,2-9.61s-6.85.94-6.72,4.91c.18,5.31,5.66,10.32-2.6,11.82-9.06,1.65-14.69,6.55-15.93,13Z"/><path class="cls-6" d="M103.66,33.31c-38-.38-69.64,9.42-70.74,21.88-.44,5,4,9.6,12,13.41a86.93,86.93,0,0,0,18.36,6,37.8,37.8,0,0,1,4.55-1.7A58.22,58.22,0,0,0,74,70.64c-10.63-1.55-19.24-3.93-24.53-6.8-3.91-2.11-6-4.49-5.79-7C44.37,48.49,71,42,103,42.28S160.43,49.63,159.69,58c-.2,2.28-2.32,4.42-5.94,6.32-6.7,3.52-18.52,6.23-32.89,7.49a11.37,11.37,0,0,0-1.29,2.28c6.53-2.47,14.06,1.19,14.06,1.19a4.74,4.74,0,0,1,.86.43c9.53-1.7,17.72-4.11,23.86-7,7.25-3.46,11.66-7.62,12.05-12.13,1.11-12.46-28.78-22.86-66.74-23.23Z"/></g></svg>