<svg id="Layer_1" data-name="Layer 1" xmlns="http://www.w3.org/2000/svg" viewBox="0 0 200 200"><defs><style>.cls-1{fill:#2d2a26;}.cls-2{fill:#fff;}.cls-3{fill:#ce0e2d;}</style></defs><title>Team_Logos</title><path class="cls-1" d="M133.26,37.15a35.94,35.94,0,0,0-4.35-5.27q-1-1.05-2.19-2L142.59,14H96.37L78.53,31.84h0s0,0,0,0a36.59,36.59,0,0,0-4.35,5.27,35.68,35.68,0,0,0,0,39.87,36.59,36.59,0,0,0,4.35,5.27c.71.7,1.44,1.38,2.2,2L64.83,100.17H111L129,82.26h0A35.68,35.68,0,0,0,136.55,71a35.78,35.78,0,0,0,0-27.75,36.25,36.25,0,0,0-3.29-6.06"/><path class="cls-2" d="M126.82,33.93q-1-1.05-2.16-2l-19.4,19.39a6.07,6.07,0,0,1,2.61,1.53h0a6,6,0,0,1,0,8.48L71.94,97.29h4.21L110,63.46a9,9,0,0,0,0-12.66l2.1-2.1a11.94,11.94,0,0,1,0,16.87L80.36,97.29h4.21l29.62-29.62a14.93,14.93,0,0,0,0-21.08l2.1-2.1a17.91,17.91,0,0,1,0,25.29L88.78,97.29H93L118.4,71.88a20.89,20.89,0,0,0,0-29.5l2.1-2.1a23.85,23.85,0,0,1,0,33.71L97.2,97.29h4.21l21.2-21.2a26.84,26.84,0,0,0,0-37.92l2.12-2.11a29.83,29.83,0,0,1,0,42.15L105.65,97.29h4.21l17-17h0a32.79,32.79,0,0,0,0-46.38"/><path class="cls-3" d="M80.6,80.27c.7.7,1.42,1.36,2.17,2l19.4-19.4a5.84,5.84,0,0,1-2.61-1.52h0a6,6,0,0,1,0-8.48l36-36h-4.21L97.45,50.73a9,9,0,0,0,0,12.66L95.31,65.5a12,12,0,0,1,0-16.87l31.77-31.77H122.9L93.24,46.53a14.91,14.91,0,0,0,0,21.07L91.1,69.71a17.91,17.91,0,0,1,0-25.29l27.56-27.56h-4.21L89,42.31a20.88,20.88,0,0,0,0,29.51l-2.11,2.1a23.86,23.86,0,0,1,0-33.71l23.35-23.35h-4.21L84.82,38.11a26.82,26.82,0,0,0,0,37.91l-2.12,2.12A29.82,29.82,0,0,1,82.7,36l19.13-19.13H97.62l-17,17h0a32.79,32.79,0,0,0,0,46.38"/><polygon class="cls-1" points="45.78 172.47 43.51 172.47 43.51 170.21 50.57 170.21 50.57 172.47 48.27 172.47 48.27 183.63 45.78 183.63 45.78 172.47 45.78 172.47"/><path class="cls-1" d="M53.82,170.21H59.4L61,171.84v4.71l-1.34,1.32,1.5,5.76H58.66l-1.36-5.49h-1v5.49H53.82V170.21Zm4.16,6,.54-.56v-3l-.54-.56H56.33v4.08Z"/><path class="cls-1" d="M66.05,170.21h3.66l2.06,13.42H69.3l-.39-3.11H66.73l-.39,3.11H64l2.06-13.42Zm.93,8.25h1.66l-.82-6.66L67,178.46Z"/><polygon class="cls-1" points="74.59 181.72 76.08 181.72 76.08 172.12 74.59 172.12 74.59 170.21 80.09 170.21 80.09 172.12 78.59 172.12 78.59 181.72 80.09 181.72 80.09 183.63 74.59 183.63 74.59 181.72 74.59 181.72"/><polygon class="cls-1" points="83.57 170.21 86.08 170.21 86.08 181.43 88.96 181.43 88.96 183.63 83.57 183.63 83.57 170.21 83.57 170.21"/><path class="cls-1" d="M97.57,170.21H103l1.63,1.63v3.56l-1.34,1.34,1.34,1.35V182L103,183.63H97.57V170.21Zm4,5.56.62-.64v-2.37l-.54-.55h-1.54v3.56Zm.08,5.85.54-.54V178.4l-.62-.64h-1.46v3.86Z"/><polygon class="cls-1" points="108.4 170.21 110.91 170.21 110.91 181.43 113.79 181.43 113.79 183.63 108.4 183.63 108.4 170.21 108.4 170.21"/><path class="cls-1" d="M118.61,170.21h3.66l2.06,13.42h-2.47l-.39-3.11h-2.18l-.38,3.11h-2.36l2.06-13.42Zm.94,8.25h1.65l-.82-6.66-.83,6.66Z"/><polygon class="cls-1" points="127.15 181.8 130.53 172.47 127.19 172.47 127.19 170.21 133.28 170.21 133.28 172.02 129.89 181.35 133.3 181.35 133.3 183.63 127.15 183.63 127.15 181.8 127.15 181.8"/><polygon class="cls-1" points="136.78 170.21 142.67 170.21 142.67 172.41 139.28 172.41 139.28 175.69 142.36 175.69 142.36 177.89 139.28 177.89 139.28 181.43 142.71 181.43 142.71 183.63 136.78 183.63 136.78 170.21 136.78 170.21"/><path class="cls-1" d="M146.34,170.21h5.59l1.63,1.63v4.71l-1.34,1.32,1.5,5.76h-2.53l-1.36-5.49h-1v5.49h-2.51V170.21Zm4.17,6,.54-.56v-3l-.54-.56h-1.66v4.08Z"/><polygon class="cls-1" points="156.9 182 156.9 179.6 159.39 179.6 159.39 181.02 159.96 181.57 160.85 181.57 161.4 181.02 161.4 178.42 160.97 177.99 158.34 177.99 156.96 176.61 156.96 171.84 158.6 170.21 162.25 170.21 163.89 171.84 163.89 174.24 161.38 174.24 161.38 172.84 160.83 172.27 160.02 172.27 159.45 172.84 159.45 175.32 159.88 175.75 162.53 175.75 163.91 177.13 163.91 182 162.27 183.63 158.54 183.63 156.9 182 156.9 182"/><path class="cls-1" d="M28.2,118.76c0-7.78-4.19-10.4-12.42-10.4H1.07l6.41,6.41v46.86h7.93V138.24h.41c8,0,12.18-2.49,12.38-9.83h0v-9.65Zm-12.74-4h1.78c1.79,0,3,.61,3,2.63v11.52c0,1.94-.59,3-3.38,3H15.46v-17.1Z"/><path class="cls-1" d="M39.51,118c0-2.69.82-3.29,2.47-3.29s2.39.6,2.39,3.29v34c0,2.69-.82,3.29-2.39,3.29s-2.47-.6-2.47-3.29V118Zm2.39,43.63c4.94,0,10.39-2,10.39-9V117.33c0-7-5.45-9-10.39-9s-10.31,2-10.31,9v35.33c0,7,5.45,9,10.31,9"/><path class="cls-1" d="M136.7,117.74h.47l1.52,20.48H134.9l1.8-20.48Zm-2.5,26.86h5.19l1.7,17h8L143,108.36H131.14l-6.06,53.27h7.18l1.94-17Z"/><path class="cls-1" d="M192.07,151.28c0,3.44-1,4-3,4h-1.87V114.76h1.87c2,0,3,.53,3,4v32.55Zm7.93.7V120.4c0-9.35-3.29-12-11.15-12h-9.58v53.27h11.3c6.14,0,9.43-4.56,9.43-9.65"/><path class="cls-1" d="M63.62,114.73h1.89c1.79,0,3,.6,3,2.62l0,11c0,1.94-.59,3.44-3.37,3.44H63.62V114.73Zm.06,23.46c3.67-.16,4.89,1.12,4.88,4.34v19.1h7.76s.16-5.73,0-21.13c0-4.81-3-5.52-3-5.52,3.47-1.5,3.08-3.21,3.08-7.18l0-10.3c0-6.89-3.74-9.12-10.14-9.12l-10.5,0v53.27h8V138.19Z"/><polygon class="cls-1" points="121.68 155.23 111.58 155.23 111.58 108.36 103.65 108.36 103.65 161.63 121.68 161.63 121.68 155.23 121.68 155.23"/><polygon class="cls-1" points="85.46 114.77 85.46 161.63 93.4 161.63 93.4 114.77 100.28 114.77 100.28 108.36 74.17 108.36 80.59 114.77 85.46 114.77 85.46 114.77"/><polygon class="cls-1" points="159.68 132.07 168.65 161.63 168.69 161.63 175.89 161.63 175.89 108.36 168.69 108.36 168.69 138.22 159.68 108.36 159.63 108.36 152.48 108.36 152.48 161.63 159.68 161.63 159.68 132.07 159.68 132.07"/></svg>