<svg id="Layer_1" data-name="Layer 1" xmlns="http://www.w3.org/2000/svg" xmlns:xlink="http://www.w3.org/1999/xlink" viewBox="0 0 200 200"><defs><style>.cls-1{fill:none;}.cls-2{fill:#2d2a26;}.cls-3{fill:#c10230;}.cls-4{clip-path:url(#clip-path);}.cls-5{fill:#fff;}</style><clipPath id="clip-path"><rect class="cls-1" x="2.21" y="0.44" width="195.9" height="197.33"/></clipPath></defs><title>Team_Logos</title><g id="BULL"><path class="cls-2" d="M180.86,76.41c-.68-11.92-6-22.61-9.21-29l-.37-.76-1.39-2.77.28,3.09c.39,4.27,1.34,18.86-3,27.13-5.39,11.21-21.25,10.12-26.46,9.77l-.39,0c-8.57-.57-36.41-1.56-44.95-1.52-11.28,0-23.73,1-33.74,1.7-4.9.36-9.13.67-12,.78l-1,.08c-14,1.31-22.89-2.83-26.34-12.29-2.11-5.81-2.06-17.29-2-22.8v-4l-1.1,2a73.57,73.57,0,0,0-9.18,29C9,94.61,18.24,101,25.25,104.22a49.21,49.21,0,0,0,17.28,4h.11a12.15,12.15,0,0,0,1.69.14,17.84,17.84,0,0,1,2.42.24c-1.33.26-3.08.55-4.61.82s-3.17.54-4,.71c-1.66.35-8.72,2-12.52,3.3-3.23,1.11-6.71,2.75-6.75,2.76l-.63.3.41.57A26.93,26.93,0,0,0,21.1,120a22.93,22.93,0,0,0,17.76,5.77c6.68-.83,10.25-2.38,11.63-3.11C50.92,124.07,52,127.4,53,130c3,7.48,9.86,21.73,12.43,26.68,2.09,4,4.16,7.57,5.53,9.93l.49.85a6.82,6.82,0,0,1-2.32,3.19c-.21.19-.4.35-.55.51l-.16.16v.22c-.06,1.38-.39,13.76,8,22.84l.09.1.13,0a48.23,48.23,0,0,0,18.5,3.26c9,0,16.57-2.14,19.23-3.48l.1,0,.08-.09c5.88-7,8.55-17.41,8.61-21.21v-.24l-.17-.18-.46-.45a8.31,8.31,0,0,1-2.69-4.54c.71-1.23,2.11-4.16,3.26-6.54.63-1.34,1.19-2.49,1.49-3.08,2.49-4.84,9.75-20.42,12.63-27.78,1.83-4.66,2.85-7,3.29-7.95,1.27.69,4.71,2.21,11.2,2.88,8.42.87,16.45-4.76,18.68-7.83.38-.52,1-1.26,1-1.27l.5-.59-.7-.32c-.05,0-.33-.14-1.59-.57L165,112.92l-4.65-1.56c-1.27-.43-7-1.67-11.1-2.56l-3.14-.69,1-.18c9.61-1.71,35.14-6.23,33.71-31.52Z"/><path class="cls-3" d="M12.12,71.29A82.7,82.7,0,0,1,19,50.76h0l0-.08h.15v0h.14v.14c-.08,2-.14,4-.14,6h0a60.48,60.48,0,0,0,1.4,14.07h0l.11.43L20.36,71c-1.4-1.25-2.79-2.68-4.23-3.93h0c-1.27,1.43-2.49,3-3.78,4.34h0l-.32.34.09-.46Z"/><path class="cls-3" d="M178.39,68.32l-.14,0,.13,0c-1.85-6.12-3.51-12.32-6.55-17.94l-.25.07c.12,2,.18,3.88.18,5.8A82.11,82.11,0,0,1,170.63,70l0,.27.24-.12c1.48-.72,2.9-1.69,4.42-2.34l3.67,2.66-.53-2.16Z"/><path class="cls-3" d="M118.46,133.78l-.28.12a31.68,31.68,0,0,1-6.49,2.29,18,18,0,0,1-4.41.57,13.52,13.52,0,0,1-11.67-6l-.09-.13-.11.1c-.55.49-.88,1.08-1.44,1.59-2.89,3.32-7.08,4.59-11.36,4.59a25.22,25.22,0,0,1-9.51-1.94l-.29-.12.11.3a53,53,0,0,1,3.49,18.49,43.21,43.21,0,0,1-.84,8.56c-.4,2-1.06,4-1.59,6l-.09.3.28-.14a45.48,45.48,0,0,1,21-4.88,44.56,44.56,0,0,1,19.9,4.43c1,.4,1.87,1.07,2.75,1.35l.26.09L118,169a50.05,50.05,0,0,1-2.71-16v-.23c0-.36,0-.72,0-1.07a56.77,56.77,0,0,1,3.09-17.62l.1-.29Z"/><path class="cls-3" d="M58.74,139.71A6.27,6.27,0,0,1,57.36,137h0l-.06-.31.27.17a6.39,6.39,0,0,0,3.54,1h0a13.42,13.42,0,0,0,7.24-2.66h0l.09-.06.08.08.07.06-.1.1.1-.1,0,.05v.06c-.28,2.61-1.21,5.59-4,6.61h0a4.68,4.68,0,0,1-1.21.16h0a6.66,6.66,0,0,1-4.71-2.43Z"/><path class="cls-3" d="M123.62,138.72a7.45,7.45,0,0,1-1.11-2.92h0l-.06-.35.28.22a7.73,7.73,0,0,0,4.87,1.56h0a11.08,11.08,0,0,0,5.83-1.7h0l.33-.22-.13.37c-.8,2.36-2.85,4.78-5.34,5.32h0a4.58,4.58,0,0,1-.64,0h0a4.79,4.79,0,0,1-4-2.32Z"/><path class="cls-3" d="M126.8,142.18a4.57,4.57,0,0,0,1,.1h0a9.45,9.45,0,0,0,2.8-.54h0l.27-.09-.1.27c-3.43,8.57-7.57,16.85-11.84,25.07h0l-.14.28-.11-.29h0a21.65,21.65,0,0,1-1.1-7.45h0c0-1.88.13-3.79.25-5.71h0a81.52,81.52,0,0,1,3.6-16h0l.1-.31.15.29c1,2,2.94,4,5.14,4.34h0"/><path class="cls-3" d="M72.7,167c-5.17-7.89-9.09-16.22-12.89-24.68h0l-.16-.37.35.19a8.29,8.29,0,0,0,3.72,1h0a4.26,4.26,0,0,0,2.44-.68h0a9.5,9.5,0,0,0,3.29-4.84h0l.11-.3.15.29a45,45,0,0,1,4.21,19.65h0a50.15,50.15,0,0,1-.91,9.63h0v0l0,0-.19.19L72.7,167Z"/><path class="cls-3" d="M77.24,193.42h0l0,0c-5.27-5.78-7.25-13.2-7.54-21.06h0v-.08l.06,0c6.92-5,16.17-7.7,25.3-7.7h0A41.24,41.24,0,0,1,112.13,168h0a41.91,41.91,0,0,1,9.43,5.46h0l-.08.1.08-.1.06,0v.08a37.46,37.46,0,0,1-8.19,19.7h0l0,0h0a52.11,52.11,0,0,1-18.62,3.34h0a45.28,45.28,0,0,1-17.5-3.27Z"/><path class="cls-3" d="M169.83,115.74s-3.25-1.25-4.09-1.56a97.49,97.49,0,0,0-30.15-5.65c-.93-10.86-2.18-17.65-4.29-23.79l0-.09h-.09c-5-.29-27.33-1.19-35.95-1.19s-30.52,1.36-35.54,1.65H59.6l0,.09a98.09,98.09,0,0,0-5.4,23.88,124.55,124.55,0,0,0-32,6.79,11.54,11.54,0,0,0-1.44.64l-.37.21-.06,0-.27-.31.1.49a.15.15,0,0,0,0,.07,21,21,0,0,0,15.73,7.79h.48A33.32,33.32,0,0,0,48,122.69c.85-.37,2.48-1,2.92-1.23a16.82,16.82,0,0,1,.9,2c1,2.78,2.2,6.78,3.08,8.52,1.29,2.59,3.41,4.67,6.84,4.75h.14a7.64,7.64,0,0,0,5.61-3l.14-.2h-.25c-8.63-.44-12.16-5-12.75-11.94v-.11l-.1,0a7.52,7.52,0,0,1-2.07-.54,1.39,1.39,0,0,1-.71-1,3.43,3.43,0,0,1-.08-.71,5.68,5.68,0,0,1,1-2.84,4.13,4.13,0,0,1,3.61-1.77,9.76,9.76,0,0,1,3,.53,18.11,18.11,0,0,1,6.34,3.89c1.8,1.57,7,7,10.16,8.89A15.3,15.3,0,0,0,83.26,130a9,9,0,0,0,6.49-2.5,16.69,16.69,0,0,0,5-9.41l0-.17h-.17a181.61,181.61,0,0,1-19.53-1.71c-.7-.11-.91-.4-.91-.65a.81.81,0,0,1,.89-.66,1.37,1.37,0,0,1,.34,0s11.43,1.51,19.41,1.56H95v-.12c.06-.94.08-2.57.13-4.41v-.13H95a121.87,121.87,0,0,1-20.22-2.12c-.65-.14-.91-.53-.91-.86a.62.62,0,0,1,.69-.6,1.55,1.55,0,0,1,.35,0,153.37,153.37,0,0,0,20.08,2h.19v-.14c0-1.42,0-3.43,0-5.37v-.13h-.55a133.27,133.27,0,0,1-19.46-1.79c-.73-.12-1-.47-1-.74s.26-.58.81-.58h.15a159.52,159.52,0,0,0,19.32,1.61h.71v-.14c0-1.31,0-2.84,0-4.38v0c0-.83.38-1.17.65-1.17s.58.29.58,1.06c0,.58,0,2.24,0,4.31v.26h.14a143,143,0,0,0,18.76-1.81,2.5,2.5,0,0,1,.51-.06c.67,0,.85.28.85.54a.67.67,0,0,1-.56.64,132.52,132.52,0,0,1-19.61,2.23h-.13v.14c0,1.59.06,3.66.09,5.34v.14h.14c6.06-.22,13.08-.45,19.11-1.78a3.61,3.61,0,0,1,.74-.09c.7,0,1,.28,1,.52s-.35.69-1.21.84a150.85,150.85,0,0,1-19.56,2h-.14v.14c0,1.48,0,3.27.13,4.44v.13h.13a162.77,162.77,0,0,0,20.39-1.88l.31,0c.61,0,.89.33.89.63s-.27.67-1,.77c-1.7.24-13,1.7-20.32,1.88h-.17l0,.17c.71,2.46.85,6,4.42,9.11a9.94,9.94,0,0,0,6.52,2.18,14,14,0,0,0,6.88-1.84c3.19-1.84,8.23-7.37,10-8.93,1.49-1.31,4.88-4.45,9.42-4.45h.19c2.33.05,3.47.67,4.06,1.33a4.21,4.21,0,0,1,.81,1.82,3,3,0,0,1,.19,1,1.63,1.63,0,0,1-.74,1.47c-.8.49-1.54.36-2.38.74l-.07,0v.08c-.6,3.78-1.78,8.09-4.75,10.34a14.34,14.34,0,0,1-5.34,2.28,20,20,0,0,1-2.92.44l-.29,0,.2.21s.7.77.93,1a6.37,6.37,0,0,0,4,1.23l.64,0a10.61,10.61,0,0,0,5.65-2.88c1.59-2.07,3.05-6.35,4.13-9.11.38-1,1.24-2.68,1.59-3.56.89.42,1.4.69,3.08,1.37a32.28,32.28,0,0,0,10.89,2h.5c4.85-.12,10.35-3.06,13.66-6.13.58-.54,1.66-1.88,1.66-1.88l.12-.15-.18-.06Z"/><path class="cls-2" d="M100.39,175.41a5.57,5.57,0,0,0-.74,2.86h0a7.62,7.62,0,0,0,1.54,4.51h0a.28.28,0,0,0,.23.11h0a.4.4,0,0,0,.3-.15h0a.28.28,0,0,0,0-.09h0c0-1-.62-1.8-.63-2.85h0a2.35,2.35,0,0,1,.13-.77h0l.09-.29.15.26a7.42,7.42,0,0,0,4.07,3.08h0a7,7,0,0,0,1.85.24h0a7,7,0,0,0,5.49-2.67h0A5.84,5.84,0,0,0,114,176.4h0a3.58,3.58,0,0,0-.36-1.59h0a6.89,6.89,0,0,0-5.08-3.41h0a9.2,9.2,0,0,0-1-.06h0a7.85,7.85,0,0,0-7.17,4.07Z"/><path class="cls-2" d="M88.81,183.55c.17,0,.38-.19.52-.43h0a8.41,8.41,0,0,0,1.3-4.35h0a5.58,5.58,0,0,0-.75-2.88h0l.12-.07-.12.06a7.45,7.45,0,0,0-4.07-3.35h0a9.22,9.22,0,0,0-2.81-.44h0a7.21,7.21,0,0,0-5.89,2.74h0a4.2,4.2,0,0,0-.81,2.53h0a4.41,4.41,0,0,0,.22,1.4h0a6.64,6.64,0,0,0,4.82,4.12h0a8.22,8.22,0,0,0,1.38.12h0a7.48,7.48,0,0,0,6.11-3.28h0l.15-.21.09.24a1.9,1.9,0,0,1,.09.58h0c0,.42-.12.86-.16,1.21h0c-.07.61-.55,1.09-.54,1.51h0a.68.68,0,0,0,.16.43h0a.37.37,0,0,0,.19.07Z"/><path class="cls-2" d="M77.79,191.58a47.53,47.53,0,0,1,18-3.53h0a38.74,38.74,0,0,1,13.76,2.37h0c1.06.45,2.19.82,3.26,1.16h0a5.59,5.59,0,0,0,.59-.74h0A39.8,39.8,0,0,0,96,187.11h0a46.73,46.73,0,0,0-18.64,3.81h0a1.91,1.91,0,0,0,.44.66Z"/><g class="cls-4"><path class="cls-2" d="M82.43,152.25A16,16,0,0,0,95.23,158h0a21.34,21.34,0,0,0,5.32-.69h0c8.09-2.25,13-11.07,14.66-18.8h0a1.74,1.74,0,0,0-.75-.36h0a32.88,32.88,0,0,1-5.82,12.77h0a17.41,17.41,0,0,1-13.48,6.29h0a17.28,17.28,0,0,1-5.21-.8h0c-7.42-2.32-11.27-10.45-12-17.81h0a1.16,1.16,0,0,0-.74.19h0a24.33,24.33,0,0,0,5.21,13.49Z"/><path class="cls-2" d="M18.44,2.44a8.41,8.41,0,0,0-5.58-2C10.62.52,2.21,3.33,2.21,15.85s7.54,16.52,12.1,16.52S23.47,28.92,25,22.82c.21-.89.07-1-.8-1.41l-3-1.11c-.69-.26-.73-.23-1.16,1-.3.81-1.6,4.44-4.64,4.44s-4.35-4.51-4.35-9.18.8-9.11,4.57-9.11,4.53,4,4.78,5.48c.11.63.18.66.94.66H24.1c.54,0,.58,0,.58-1.33V2.07c0-.66-.15-.66-1.24-.66H21c-.51,0-.47.11-.87.81a1,1,0,0,1-1.67.22Z"/><path class="cls-2" d="M125.37,18.15H121.2c-.91,0-1,0-.79-.64l2.56-8c.15-.41.31-.42.46.07L126,17.52c.22.56.16.63-.6.63Zm12.86,8.22h-.87c-.44,0-.46,0-.74-.86l-5.73-18c-.18-.6-.2-.75.35-.75h1.19c1.12,0,1.16,0,1.16-.82V2.52c0-1-.07-1.11-.94-1.11H117.58c-1.24,0-1.31,0-1.31,1V6.07c0,.78.07.82.94.82h1.06c.94,0,.94.15.76.63l-5.86,18.25a.76.76,0,0,1-.81.6h-.73c-.87,0-.94.07-.94.82v3.4c0,1.15,0,1.19.65,1.19h7.83c.9,0,.94-.09.94-.74V27.48c0-1,0-1.11-.79-1.11h-1.2c-.54,0-.53,0-.27-.84l.86-2.69c.18-.55.21-.58,1-.58h6.89c.69,0,.86,0,1.07.57l.86,2.68c.22.74.24.86-.38.86h-1.08c-.73,0-.84,0-.8,1.11V31c0,.7,0,.74.94.74h11.31c.61,0,.65,0,.65-1.19v-3.4c0-.75,0-.82-.94-.82Z"/><path class="cls-2" d="M158.16,21.11h2c.95,0,.95.15.95.67,0,1.7-1.31,3.92-4.57,3.92-3,0-4.35-4.51-4.35-9.18s.8-9.11,4.57-9.11a4.7,4.7,0,0,1,4.78,3.7c.15.63.15.67.94.67h2.76c.58,0,.58,0,.58-1.34V2.07c0-.66-.08-.66-1.24-.66h-2.46c-.51,0-.58.07-.87.81-.17.44-.8,1-1.67.22a8.43,8.43,0,0,0-5.58-2c-2.24.08-10.65,2.89-10.65,15.41s7.54,16.52,12.1,16.52c6.89,0,12.25-5.16,12.25-15.11,0-1-.11-1-1.45-1H158c-.8,0-.87.05-.87,1v3.26c0,.67,0,.67,1,.67Z"/><path class="cls-2" d="M184.58,26.93c-2.77,0-5-4.48-5-10s2.25-10,5-10,5,4.48,5,10-2.25,10-5,10Zm0-25.62c-7.45,0-13.48,7-13.48,15.61s6,15.61,13.48,15.61,13.49-7,13.49-15.61-6-15.61-13.49-15.61Z"/></g><path class="cls-2" d="M33.4,25.67v-18c0-.63,0-.74-.73-.74H31.8c-.9,0-.94-.11-.94-.71v-4c0-.66,0-.77,1.12-.77H42.6c.8,0,.94.05.94.88V5.92c0,.82-.11.82-.94.82H42c-.47,0-.54,0-.51.7v5.15c0,1.3,0,1.41,1.09,1.41h5.65c1.09,0,1.09,0,1.09-1.41V7.44c0-.7,0-.7-.51-.7h-.54c-.94,0-1-.08-1-.82V2.29c0-.8.14-.88.94-.88H58.87c1.12,0,1.12,0,1.12.77v4c0,.6,0,.71-.94.71h-.91c-.65,0-.69,0-.69.74v18c0,.66,0,.7.84.7h.94c.75,0,.76,0,.76,1.11V31c0,.63,0,.74-.94.74H47.85c-.72,0-.76,0-.76-1.15V27.19c0-.78,0-.82.94-.82h.58c.66,0,.66,0,.66-.78V20.07c0-1.37-.08-1.4-1-1.4H42.6c-.94,0-1,.11-1,1.4v5.52c0,.78,0,.78.65.78h.58c.94,0,.94,0,.94.82v3.4c0,1.15,0,1.19-.76,1.19H31.8c-.94,0-.94,0-.94-.74V27.48c0-1.07,0-1.11.76-1.11h.94c.84,0,.84,0,.84-.7Z"/><g class="cls-4"><path class="cls-2" d="M68,7.44c0-.7,0-.7-.51-.7h-1c-1,0-1-.08-1-.82V2.29c0-.8.14-.88.94-.88H77c1.12,0,1.12,0,1.12.77v4c0,.6,0,.71-.94.71h-.47c-.65,0-.69,0-.69.74v18c0,.66,0,.7.83.7h.73c.75,0,.76,0,.76,1.11V31c0,.63,0,.74-.94.74H66.21c-.73,0-.76,0-.76-1.15V27.19c0-.78,0-.82.94-.82h.87c.65,0,.73,0,.73-.74V7.44Z"/><path class="cls-2" d="M98.74,2.44a8.43,8.43,0,0,0-5.58-2C90.91.52,82.5,3.33,82.5,15.85S90,32.37,94.61,32.37s9.16-3.45,10.65-9.55c.21-.89.07-1-.8-1.41l-3-1.11c-.69-.26-.73-.23-1.16,1-.3.81-1.59,4.44-4.64,4.44s-4.35-4.51-4.35-9.18.8-9.11,4.57-9.11,4.53,4,4.78,5.48c.11.63.18.66.94.66h2.76c.54,0,.58,0,.58-1.33V2.07c0-.66-.15-.66-1.24-.66h-2.46c-.51,0-.47.11-.87.81a1,1,0,0,1-1.66.22Z"/></g><path class="cls-2" d="M39.81,63.18V58c0-1,.08-1.07,1.24-1.07s5.29.14,5.29,3.85-4,3.55-5.29,3.55-1.24,0-1.24-1.18Zm0-17.19c0-1,0-1.11,1.09-1.11s5.44.15,5.44,3.85-4,3.56-5.29,3.56-1.24-.08-1.24-1.08V46Zm9.13,8.67c1.53-1.26,4.28-3,4.28-7.26,0-4.67-4.71-7.71-7.54-7.71H30.47c-1.23,0-1.31.08-1.31,1v3.85c0,.59.06.67.94.67h1c.58,0,.58.15.58,1V64c0,.63-.15.67-.76.67H30c-.72,0-.83.11-.8,1v3.71c0,.66.12.74.94.74H46.63c4.13,0,7.17-3.71,7.17-7.93s-2.68-5.93-4.86-7.48Z"/><path class="cls-2" d="M82,45.84V61.33c0,3.92-2,9.7-9.85,9.7s-11.59-5.78-11.59-9.7V45.88c0-.67-.11-.7-.69-.7H59c-.91,0-.94-.08-.94-.82V40.84c0-1.15.11-1.15,1.19-1.15H69.77c.79,0,.94,0,.94,1v3.52c0,.78,0,.82-1.16.82h-.83c-.51,0-.55.07-.55.7v15a4.48,4.48,0,0,0,4.57,4.45,4.23,4.23,0,0,0,4.56-4.45V45.81c0-.78-.07-.78-.79-.78h-.73c-.9,0-1,0-1-.82V40.69c0-.89,0-1,.94-1h7.83c1.26,0,1.3,0,1.3,1v3.63c0,.78,0,.82-.94.82H82.7c-.65,0-.69,0-.69.66Z"/><path class="cls-2" d="M118.75,64.66h-1c-.72,0-.8.11-.8,1.11v3.56c0,.74.08.74.95.74h19.42c.85,0,.94,0,.94-1.19V60.14c0-.78,0-.81-.94-.81h-2.83c-.87,0-.9.07-.9,1.11v3.07c0,1.19-.11,1.22-.91,1.22h-4.31c-1.31,0-1.34-.11-1.34-.92V46.29c0-1.15,0-1.26.69-1.26h1c.83,0,.87-.08.87-.82v-3.4c0-1.08,0-1.12-1-1.12H118.21c-1.27,0-1.31.09-1.31,1v3.63c0,.74.08.82.95.82h.83c.73,0,.76,0,.76,1.11V63.84c0,.75,0,.82-.69.82Z"/><path class="cls-2" d="M163.8,61.62c0,6.45-6,9.19-8.62,9.19a9.22,9.22,0,0,1-5.58-2c-.87-.74-1.72.11-2,.52-.43.74-.47.81-.87.81h-1.3c-1.27,0-1.23,0-1.23-.67V61.1c0-1.33.07-1.33.58-1.33h1.88c.72,0,.76,0,.94.67a5.83,5.83,0,0,0,5.47,4.15c1.45,0,2.72-.37,2.72-1.71,0-2.81-1.67-3.48-4.64-5s-7.46-3.33-7.46-9.78A9.19,9.19,0,0,1,152.21,39a8.63,8.63,0,0,1,5.36,2c.87.74,1.72-.11,2-.51.47-.82.47-.82.87-.82h1.3c1.2,0,1.23,0,1.23.67v8.37c0,1.29,0,1.33-.58,1.33h-1.88c-.73,0-.76-.08-.94-.66a6.34,6.34,0,0,0-5.8-4.15,1.86,1.86,0,0,0-2,2c0,1.77,2,3.33,5.36,5s6.74,4.15,6.74,9.48Z"/><path class="cls-2" d="M91.77,64.66h-1c-.72,0-.8.11-.8,1.11v3.56c0,.74.08.74,1,.74h19.42c.85,0,.94,0,.94-1.19V60.14c0-.78,0-.81-.94-.81h-2.83c-.87,0-.9.07-.9,1.11v3.07c0,1.19-.12,1.22-.91,1.22h-4.31c-1.31,0-1.34-.11-1.34-.92V46.29c0-1.15,0-1.26.69-1.26h1c.83,0,.87-.08.87-.82v-3.4c0-1.08,0-1.12-1-1.12H91.23c-1.27,0-1.31.09-1.31,1v3.63c0,.74.08.82,1,.82h.83c.72,0,.76,0,.76,1.11V63.84c0,.75,0,.82-.69.82Z"/><path class="cls-5" d="M22.18,76C26.43,84.15,35,86.79,43.71,86.37c4.88,0,9.56-.54,14.37-.85v.33A108,108,0,0,0,53,107c-12.61.46-25.55-.54-34.87-9-6.31-6.42-7.92-15.23-6.55-23.93,1.51-1.78,3.05-3.28,4.62-5.06C18.3,71.21,21.61,73,22.18,76Z"/><path class="cls-5" d="M179.07,72.27a25,25,0,0,1,.49,3.8c.61,9.7-3.59,18.65-11.87,23.59-9.07,5.47-19.54,7.34-30.66,7.62-.19-1-.31-2.27-.44-3.4a132.73,132.73,0,0,0-3.87-19c11.9-.13,26.38,3,34.24-7.92,1-1.53,2.1-2.92,3-4.58,1.76-.78,3.45-1.9,5.15-2.83,1.42.74,2.51,1.88,3.94,2.68Z"/><path class="cls-5" d="M133.84,121.42c0,3.72-1.15,7.57-4.47,9.34a9.91,9.91,0,0,1-5.14,1.11,2,2,0,0,1-.06-1.13,7.48,7.48,0,0,0,6.77-3.16,10.66,10.66,0,0,0,1.4-5.57,5.72,5.72,0,0,1,1.5-.59Z"/><path class="cls-5" d="M66.67,131.52a3,3,0,0,1-1.65,0,8.75,8.75,0,0,1-8.69-9.46,2.47,2.47,0,0,1,1.63.05c0,3.38,1.37,8,8.53,8,.49.78,0,.86.18,1.41Z"/></g></svg>