<svg id="Layer_1" data-name="Layer 1" xmlns="http://www.w3.org/2000/svg" xmlns:xlink="http://www.w3.org/1999/xlink" viewBox="0 0 200 200"><defs><style>.cls-1{fill:none;}.cls-2{clip-path:url(#clip-path);}.cls-3{fill:#2d2a26;}.cls-4{fill:#76777a;}.cls-5{fill:#003da6;}.cls-6{fill:#db0032;}.cls-7{fill:#fff;}</style><clipPath id="clip-path"><rect class="cls-1" x="-0.44" y="24.41" width="200.54" height="152.46"/></clipPath></defs><title>Team_Logos</title><g id="CLIP"><g class="cls-2"><path class="cls-3" d="M2.46,90.44a8.84,8.84,0,0,0-2.9,6.82v50.29a8.91,8.91,0,0,0,10,9.17q6.75-.57,13.51-1.05v-9.5q-6.76.35-13.51.75v-49q6.75.41,13.51.75V89.14q-6.76-.48-13.51-1a8.81,8.81,0,0,0-7.11,2.35"/></g><path class="cls-3" d="M35.13,89.93q-5-.3-10-.65v66.25q11-.75,21.94-1.29v-9.1q-6,.21-11.9.46V89.93Z"/><path class="cls-3" d="M49,154.14q5.12-.24,10.25-.43V91.11q-5.13-.19-10.25-.43v63.46Z"/><path class="cls-3" d="M78.22,118l-6.84,0V100.33l6.84.11V118Zm0-26.36q-8.46-.16-16.92-.47v62.45c3.36-.11,6.72-.22,10.08-.31v-26.5l6.84,0a10.49,10.49,0,0,0,7.09-2.55,7.8,7.8,0,0,0,3-6.21V100.55a7.88,7.88,0,0,0-3-6.18,10.53,10.53,0,0,0-7.09-2.72"/><path class="cls-3" d="M153.21,99.65,160,99.4v18.41l-6.82,0V99.65Zm13.89,24.72a8.59,8.59,0,0,0,3-6.65V99a8,8,0,0,0-3-6.42A9.41,9.41,0,0,0,160,90.19c-5.63.32-11.25.59-16.89.81v62.82c3.36.13,6.71.28,10.07.44v-27q4.17,13.54,8.35,27.48c3.36.19,6.7.4,10.05.62q-4.38-14.61-8.77-28.68a9.68,9.68,0,0,0,4.26-2.28"/><path class="cls-3" d="M107.26,118h-6.85V100.59c2.28,0,4.56,0,6.85,0V118Zm0-26.2q-8.48.06-16.94,0V153c3.36,0,6.73,0,10.09,0V126.77h6.85a10.39,10.39,0,0,0,7.09-2.52,7.82,7.82,0,0,0,3-6.23V100.49a7.68,7.68,0,0,0-3-6.12,10.25,10.25,0,0,0-7.09-2.53"/><path class="cls-3" d="M119.36,153.13q11,.19,22,.62v-9q-6-.16-11.92-.28V126.83l8.63,0V118l-8.63,0V100.3q6-.1,11.92-.28v-9q-11,.42-22,.62v61.44"/><path class="cls-3" d="M200.1,107.32V97.26a9.13,9.13,0,0,0-10-9.17q-4.23.36-8.45.68a10.73,10.73,0,0,0-7.14,3.33,9.33,9.33,0,0,0-2.9,6.79v18.82a8.86,8.86,0,0,0,2.9,6.69,10.15,10.15,0,0,0,7.14,2.81l8.45.1v19.61l-8.45-.48v-9.62c-3.35-.1-6.69-.21-10-.3v9.4a9.41,9.41,0,0,0,2.9,6.87,11,11,0,0,0,7.14,3.26q4.22.31,8.45.67a9,9,0,0,0,10-9.17V127.44a9.45,9.45,0,0,0-3-7.06,9.23,9.23,0,0,0-7-2.87l-8.45.09V98.38l8.45-.48v9.8l10-.38"/><path class="cls-4" d="M10.12,89.21c4,.33,8.1.65,12.29,1v-.4c-4.29-.31-8.62-.65-12.9-1-.31,0-.62,0-.92,0a7.89,7.89,0,0,0-5.67,2.2A8.21,8.21,0,0,0,.23,97.26v50.29A8.48,8.48,0,0,0,2,153a8.85,8.85,0,0,1-1.3-4.81V97.86a8.36,8.36,0,0,1,2.73-6.45,8,8,0,0,1,5.78-2.24c.3,0,.61,0,.93,0"/><path class="cls-4" d="M34.46,91v-.41c-2.9-.17-5.83-.36-8.7-.56v64.82l.44,0V90.44h.08c2.64.18,5.39.36,8.18.53"/><path class="cls-4" d="M58.62,92.18v-.43c-2.92-.11-5.92-.23-8.91-.37v62.06l.45,0V91.82h.07c2.72.13,5.54.25,8.39.36"/><path class="cls-4" d="M78.8,92.77a10.34,10.34,0,0,1,5.41,1.55,10.09,10.09,0,0,0-6-2c-5.39-.11-10.85-.26-16.23-.45v61.07h.45V92.32h.07c5.41.19,10.9.34,16.31.45"/><path class="cls-4" d="M161.31,91.29a8.77,8.77,0,0,1,4.8,1.31,8.55,8.55,0,0,0-5.39-1.76l-.65,0c-5.33.3-10.8.56-16.26.78v61.53l.45,0V92.1h.07c5.5-.22,11-.48,16.33-.78l.65,0"/><path class="cls-4" d="M100.44,93l7.41,0h.1a9.84,9.84,0,0,1,5.41,1.47,9.56,9.56,0,0,0-6-1.92h-.09c-2.49,0-5,0-7.41,0L91,92.5v59.82h.45V92.94h.07c3,0,6,0,8.93,0"/><path class="cls-4" d="M140.69,91.77c-6.83.25-13.78.45-20.66.58v60.12h.45V92.8h.07c6.65-.13,13.43-.32,20.14-.57v-.46Z"/><path class="cls-4" d="M190.74,89.21c.3,0,.6,0,.9,0A8.07,8.07,0,0,1,196,90.36a7.86,7.86,0,0,0-5-1.64c-.29,0-.59,0-.89,0-2.8.24-5.65.46-8.45.68A10.18,10.18,0,0,0,175,92.56a8.67,8.67,0,0,0-2.71,6.33V117.7a8.08,8.08,0,0,0,1.73,5.16,8.23,8.23,0,0,1-1.28-4.56V99.49a8.8,8.8,0,0,1,2.75-6.44,10.28,10.28,0,0,1,6.8-3.16c2.8-.22,5.64-.44,8.46-.68"/><path class="cls-5" d="M-.44,167.61a811.64,811.64,0,0,1,200.54,0v-3.48a875.63,875.63,0,0,0-200.54,0v3.48Z"/><path class="cls-6" d="M23.76,176.88a301.4,301.4,0,0,1,152.14,0v-3.29a309.47,309.47,0,0,0-152.14,0v3.29"/><path class="cls-5" d="M79.92,82A805,805,0,0,1-.44,76v3.48C27.89,82.77,56.44,84.64,85,85.12A32.58,32.58,0,0,1,79.92,82"/><path class="cls-5" d="M119.75,82a32.58,32.58,0,0,1-5.11,3.14c28.58-.48,57.14-2.35,85.46-5.63V76a805,805,0,0,1-80.35,6"/><path class="cls-6" d="M73.23,75.31a304.35,304.35,0,0,1-49.47-8.56V70a313,313,0,0,0,52.31,8.58,35.77,35.77,0,0,1-2.84-3.3"/><path class="cls-6" d="M126.43,75.31a34.2,34.2,0,0,1-2.83,3.3A312.9,312.9,0,0,0,175.9,70V66.75a304.16,304.16,0,0,1-49.47,8.56"/><path class="cls-7" d="M68.92,55.33A30.91,30.91,0,1,1,99.83,86.24,30.91,30.91,0,0,1,68.92,55.33"/><path class="cls-3" d="M122.18,72.5a27.94,27.94,0,0,1-5.83-15.82H128a28,28,0,0,1-5.82,15.82m-21,11V75.41H98.48v8.08a28,28,0,0,1-19.2-8.88A30.63,30.63,0,0,0,86,56.68V54A30.65,30.65,0,0,0,79.28,36a28,28,0,0,1,19.2-8.88v8h2.71v-8A28,28,0,0,1,120.38,36,30.57,30.57,0,0,0,113.64,54v2.71a30.55,30.55,0,0,0,6.74,17.93,28,28,0,0,1-19.19,8.88m-23.7-11a27.9,27.9,0,0,1-5.82-15.82H83.32A28,28,0,0,1,77.49,72.5m0-34.35A28,28,0,0,1,83.32,54H71.67a27.9,27.9,0,0,1,5.82-15.82m44.69,0A28,28,0,0,1,128,54H116.35a27.94,27.94,0,0,1,5.83-15.82M99.83,24.41a30.92,30.92,0,1,0,30.91,30.92A31,31,0,0,0,99.83,24.41"/><polygon class="cls-6" points="92.95 42.38 92.95 68.17 106.72 68.17 106.72 64.62 96.63 64.62 96.63 42.38 92.95 42.38 92.95 42.38"/><path class="cls-5" d="M111.41,51V40.39c0-1.59-.64-2.24-2.21-2.24H90.44c-1.55,0-2.18.65-2.18,2.24V70.26c0,1.59.63,2.24,2.18,2.24H109.2c1.57,0,2.21-.65,2.21-2.24V59.62h-3.72v9.62H92V41.41h15.74V51Z"/><path class="cls-6" d="M103.13,53.47h-1.8V45.92h1.8v7.55Zm3.59,10.15V42.38h-9l-.08,21.24h3.58l.06-6.62h1.82l0,6.62Z"/></g></svg>