<svg id="Layer_1" data-name="Layer 1" xmlns="http://www.w3.org/2000/svg" viewBox="0 0 200 200"><defs><style>.cls-1{fill:#b1b1b1;}.cls-2{fill:#003da6;}.cls-3{fill:#db0032;}.cls-4{fill:#fff;}</style></defs><title>Team_Logos</title><path class="cls-1" d="M197.28,98A97.44,97.44,0,1,1,99.84.54,97.44,97.44,0,0,1,197.28,98"/><path class="cls-2" d="M194.48,98A94.65,94.65,0,1,1,99.84,3.34,94.64,94.64,0,0,1,194.48,98"/><path class="cls-3" d="M180.54,98a80.71,80.71,0,1,1-80.71-80.7A80.7,80.7,0,0,1,180.54,98"/><path class="cls-4" d="M99.84,174.06a76.19,76.19,0,0,1-70.9-48.53c13.53,18.51,40.23,31.14,70.9,31.14S157.2,144,170.73,125.53a76.18,76.18,0,0,1-70.89,48.53m0-152.16a76.18,76.18,0,0,1,70.89,48.53C157.2,51.92,130.5,39.29,99.84,39.29S42.47,51.92,28.94,70.43A76.18,76.18,0,0,1,99.84,21.9m-76,78.46H38.67V95.61H23.82c.05-1.8.15-3.59.33-5.35,5.26-26.5,37.19-46.95,75.69-46.95s70.42,20.45,75.68,47c.18,1.76.28,3.55.33,5.35H161v4.75h14.85c0,1.79-.15,3.58-.33,5.34-5.26,26.5-37.19,47-75.68,47S29.41,132.2,24.15,105.7c-.18-1.76-.28-3.55-.33-5.34m76-83.09A80.71,80.71,0,1,0,180.54,98a80.8,80.8,0,0,0-80.7-80.71"/><polygon class="cls-4" points="65.73 125.73 71.44 125.73 71.44 100.09 65.73 100.09 65.73 125.73 65.73 125.73"/><path class="cls-4" d="M87.61,100.1h-.18c-1.6,0-7.43,0-8.55,0l-.29,0c-1.72,0-2.82.81-3.08,2.3a2.28,2.28,0,0,0-.05.42c0,.06-.4,4.86.08,6.22.76,2.2,2.54,3,4.18,3.53l.17,0a1.31,1.31,0,0,1,.32.1.77.77,0,0,1,.38.29l0,9.23-4.71,0,0,3.41h6.2c2.15-.1,3.64-1,4.19-2.66.15-1.26.17-9.85,0-11.65a2.24,2.24,0,0,0-1-1.71,6.29,6.29,0,0,0-.93-.6c-.33-.18-.7-.36-1-.52-1.34-.65-2.86-1.4-2.86-3.1V104H85a2.35,2.35,0,0,0,2.13-1.3,3.71,3.71,0,0,0,.45-1.34,7.92,7.92,0,0,0,0-1.08v-.17Z"/><path class="cls-4" d="M111.81,105.86a9.1,9.1,0,0,1,.18-1.58l.1-.1a5.13,5.13,0,0,1,.81-.06H113c1.94,0,2,.61,2,4.11v10.7c0,.32,0,.62,0,.94a5.77,5.77,0,0,1-.1.87l-.11.1a6.8,6.8,0,0,1-1,.08,2,2,0,0,1-1.51-.48,3,3,0,0,1-.44-2.15V107.48s0-1.2,0-1.62m1.89-5.78a14.14,14.14,0,0,0-3.71.35c-2.79.67-4.15,2.54-4.15,5.71v15.25c0,3.91,2.79,4.71,7,4.71,5.08,0,8-1.8,8-4.93V105.28c0-5.2-3.31-5.2-7.14-5.2"/><path class="cls-4" d="M134.06,111c-2.72-9.87-7.1-11-8.91-11a3.24,3.24,0,0,0-.76.08l-.14,0v25.62H130v-10.3l4,10.3h5.88V100.11h-5.87V111Z"/><path class="cls-4" d="M56.48,111.46H53.27V104s1.74,0,2,0c.64.08,1.22.33,1.22,1.09,0,.25,0,6.35,0,6.35m2.31-11.38-14.41,0H44.2v.17A3.75,3.75,0,0,0,47.44,104v21.71h5.91V114.83h5c2.62,0,4.13-1.73,4.13-4.74v-.92c0-7.26-.29-8.71-3.67-9.09"/><path class="cls-4" d="M104.07,100.12H90.7v4h3.81v21.62h5.87V104.13h.21a3.29,3.29,0,0,0,2.49-.95,4.23,4.23,0,0,0,1-2.88v-.18Z"/><path class="cls-4" d="M155.49,100.1h-.18c-1.6,0-7.43,0-8.55,0l-.29,0a2.77,2.77,0,0,0-3.08,2.3,2.28,2.28,0,0,0,0,.42c0,.06-.4,4.86.08,6.22.76,2.2,2.54,3,4.18,3.53l.17,0a1.31,1.31,0,0,1,.32.1.73.73,0,0,1,.38.29l0,9.23-4.71,0,0,3.41H150c2.15-.1,3.64-1,4.19-2.66.15-1.26.17-9.85.05-11.65a2.24,2.24,0,0,0-1-1.71,6.69,6.69,0,0,0-.92-.6c-.34-.18-.71-.36-1.06-.52-1.34-.65-2.86-1.4-2.86-3.1V104h4.48a2.35,2.35,0,0,0,2.13-1.3,3.71,3.71,0,0,0,.45-1.34,7.92,7.92,0,0,0,0-1.08v-.17Z"/><path class="cls-4" d="M103.08,73.8h1.13c1.49,0,2.05,0,2,2.67,0,2.09,0,2.23,0,3.26v.2a1.16,1.16,0,0,1-.32.83.62.62,0,0,1-.47.21h-2.3V73.8Zm0,10.47h1c1,0,2.56.31,2.56,2,0,.82.07,3.39.1,4.35V91c0,.15.07,1.4.13,1.64a3.55,3.55,0,0,0,3.39,2.58h1.67V86.12a4.91,4.91,0,0,0-1-2.67l-.12-.16A5,5,0,0,0,112,79.64v-.89c0-7.09-.28-8.51-3.57-8.88H97.36v25h5.7V84.27Z"/><polygon class="cls-4" points="138.48 69.87 132.92 69.87 132.9 94.88 138.48 94.89 138.48 69.87 138.48 69.87"/><path class="cls-4" d="M85.05,94.92h5.73V73.77H91a3.21,3.21,0,0,0,2.43-.93A4.14,4.14,0,0,0,94.38,70v-.17h-13V73.8h3.71V94.92Z"/><path class="cls-4" d="M145.13,94.92h5.73V73.77h.21a3.22,3.22,0,0,0,2.43-.93,4.11,4.11,0,0,0,1-2.81v-.17h-13V73.8h3.72V94.92Z"/><polygon class="cls-4" points="78.34 90.87 72.34 90.87 72.34 84.79 76.45 84.79 76.45 79.35 72.34 79.35 72.34 73.72 78.34 73.72 78.34 69.87 66.78 69.87 66.76 94.88 78.34 94.88 78.34 90.87 78.34 90.87"/><path class="cls-4" d="M57.53,90.87H54.36V73.8a7,7,0,0,1,2.41.1c.74.29.72,1.67.72,1.7.21,2,.06,13.7,0,15.27m2-21H45.24l0,.16a3.28,3.28,0,0,0,3.42,3.75V94.85H59.26c2.42,0,4-2,4-5.12V78.13c0-6.41,0-8.13-3.81-8.26"/><path class="cls-4" d="M120.9,75.53a8.94,8.94,0,0,1,.18-1.55l.1-.1a6.47,6.47,0,0,1,.8,0h.11c1.92,0,2,.59,2,4V88.33c0,.31,0,.6,0,.91a5.47,5.47,0,0,1-.11.85l-.1.1a6.66,6.66,0,0,1-1,.08,2,2,0,0,1-1.5-.47,2.87,2.87,0,0,1-.44-2.1V77.11s0-1.17,0-1.58m1.87-5.66a14.32,14.32,0,0,0-3.67.34c-2.78.66-4.13,2.49-4.13,5.59V90.73c0,3.82,2.78,4.61,6.94,4.61,5,0,7.94-1.76,7.94-4.82V75c0-5.09-3.29-5.09-7.09-5.09"/></svg>