<svg id="Layer_1" data-name="Layer 1" xmlns="http://www.w3.org/2000/svg" viewBox="0 0 200 200"><defs><style>.cls-1{fill:#201747;}.cls-2{fill:#00758d;}.cls-3{fill:#fff;}.cls-4{fill:#898a8d;}</style></defs><title>Team_Logos</title><g id="CHOR"><path class="cls-1" d="M48.14,91.56H33.92V107l-8.56,4.19,8.56,4.47v13.72l9.45,5.79c3.48-.46,7.92-1,13.06-1.52L93,154.7l6.65,30.63c0-.07,6.73-30.63,6.73-30.63l36.46-21c5.14.53,9.59,1.06,13.07,1.52l9.44-5.79V115.66l8.57-4.37L165.31,107V91.56H151.09a34.53,34.53,0,0,0,5-6.93c1.16-2,2.27-4.51,3.62-7.47,10.36-3.16,18-9.78,21.29-16.23,8.88-16.26,15.56-36.14,15.56-36.14s-3.83,1.85-8.46,4.13c3.76-11.45,6-21.18,6-21.18s-40.95,27.1-72.85,52.55l-2.77-1.65c0-.27.09-2.6.09-2.79,0,0,.31-2.7-4.45-4.32l-.85-.28c2.31-1.74,5.9-4.39,8.52-6.18,4.17-2.86,3.68-6,3.68-6L110.34,50.32a34.68,34.68,0,0,0-21.45,0L73.77,39.05s-.5,3.16,3.67,6c2.62,1.79,6.21,4.44,8.53,6.18l-.85.28c-4.77,1.62-4.45,4.32-4.45,4.32,0,.19.07,2.52.08,2.79L78,60.29C46.09,34.84,5.14,7.74,5.14,7.74s2.24,9.73,6,21.18c-4.95-2.45-8.46-4.13-8.46-4.13S9.36,44.67,18.25,60.93C21.52,67.38,29.17,74,39.54,77.16c0,0,1.75,4,3.26,6.89a46.6,46.6,0,0,0,5.34,7.51Z"/><path class="cls-2" d="M116.79,68.41c-.14.45-.29.89-.44,1.32,14.33-9.37,39.39-25.72,67.46-43.95,0,0,0,.61,2.52-6.61-29.66,17.92-55.92,38.22-69.54,49.24Z"/><path class="cls-2" d="M82.44,68.42c-13.62-11-39.88-31.33-69.54-49.25,2.49,7.22,2.52,6.61,2.52,6.61C43.49,44,68.54,60.36,82.89,69.72c-.16-.43-.31-.86-.45-1.3Z"/><path class="cls-2" d="M56.4,92.36a36.87,36.87,0,0,1-11-14.24L48.2,79c9.18,2.43,26.72,4.85,26.72,4.85-8.45.19-15.6.85-19.67,1.3a14.69,14.69,0,0,1-2.2-3.38,27.73,27.73,0,0,0,1,5.23h0a31,31,0,0,0,2.31,5.4ZM99.6,82.9A23,23,0,0,1,87.27,70.81c3,2.62,6.92,3.46,10,.45-3.79-1.64-4.26-8.41-5-10.19a10.89,10.89,0,0,0-5.69-6.18c.91-.31,1.77-.59,2.58-.83a11.12,11.12,0,0,1,5.67,7.59s.38-5-2.11-8.57a29.27,29.27,0,0,1,13.72,0c-2.51,3.54-2.12,8.58-2.12,8.58a11.1,11.1,0,0,1,5.68-7.6l2.59.84a10.89,10.89,0,0,0-5.69,6.18c-.73,1.78-1.21,8.55-5,10.19.87,5.15-.2,10-2.33,11.64Z"/><path class="cls-2" d="M145.12,87h0a27.73,27.73,0,0,0,1-5.23,15,15,0,0,1-2.2,3.38c-4.08-.45-11.22-1.11-19.67-1.3,0,0,17.54-2.42,26.72-4.85l2.81-.84a36.87,36.87,0,0,1-11,14.24,31,31,0,0,0,2.31-5.4Z"/><path class="cls-2" d="M77.76,135.91,59.89,125.6c-1.28.12-2.55.24-3.76.37l24.81,14.32a25.52,25.52,0,0,1-3.18-4.38Z"/><path class="cls-2" d="M121.46,135.91l17.87-10.31c1.29.12,2.55.24,3.77.37l-24.82,14.32a25,25,0,0,0,3.18-4.38Z"/><path class="cls-2" d="M91.67,138.32c-7.89-1.71-11.16-5.6-11.16-5.6a21.51,21.51,0,0,0,7,8.17s3.33-1,4.11-2.57Z"/><path class="cls-2" d="M86.84,129.89c-.56-.54-1.13-1.1-1.69-1.69a14,14,0,0,0-4.7,2.52c1.74,1.66,5.07,3.87,11,5.12-.73-2.05-2.58-3.89-4.66-6Z"/><path class="cls-2" d="M99.46,148.51a12.71,12.71,0,0,0-5.11,1.29c-.65-1.24-1.42-2.49-2.14-3.6a14.29,14.29,0,0,0,4.23-.14,27.2,27.2,0,0,1-6.57-3.24h0c.27-.11.55-.24.83-.38h0a8.73,8.73,0,0,0,2.36-1.65,4.4,4.4,0,0,0,1.34-3.11c0-3.92-2.63-5.24-5.6-8.17-.59-.59-1.23-1.19-1.88-1.83a47.49,47.49,0,0,1,11.39-1.39l1.19,16.63h.17l1.23-16.63a47.49,47.49,0,0,1,11.39,1.39c-.65.64-1.29,1.24-1.88,1.83-3,2.93-5.61,4.25-5.61,8.17a4.37,4.37,0,0,0,1.35,3.11,8.68,8.68,0,0,0,2.35,1.65h0c.29.14.57.27.84.38h0a27,27,0,0,1-6.56,3.24,14.2,14.2,0,0,0,4.22.14c-.72,1.11-1.48,2.36-2.14,3.6a12.65,12.65,0,0,0-5.1-1.29Z"/><path class="cls-2" d="M111.66,140.89a21.45,21.45,0,0,0,7.06-8.17s-3.27,3.89-11.16,5.6c.78,1.61,4.1,2.57,4.1,2.57Z"/><path class="cls-2" d="M107.73,135.84c6-1.25,9.3-3.46,11-5.12a14.09,14.09,0,0,0-4.71-2.52c-.56.59-1.13,1.15-1.68,1.69-2.08,2.06-3.94,3.9-4.66,6Z"/><path class="cls-3" d="M94.27,71.71a8.59,8.59,0,0,1-3.36-6s-3.75,6.28,3.36,6Z"/><path class="cls-3" d="M105.17,71.71a8.59,8.59,0,0,0,3.36-6s3.75,6.28-3.36,6Z"/><path class="cls-3" d="M103,154.59c-.51-.54-1.27-1.16-3.57-1.17a4.76,4.76,0,0,0-3.57,1.07l3.71,14.71L103,154.59Z"/><polygon class="cls-3" points="127.64 89.98 127.64 95.36 125.83 95.36 125.83 89.98 124.33 89.98 124.33 88.44 129.13 88.44 129.13 89.98 127.64 89.98 127.64 89.98"/><polygon class="cls-3" points="119.22 89.98 119.22 95.36 117.4 95.36 117.4 89.98 115.9 89.98 115.9 88.44 120.72 88.44 120.72 89.98 119.22 89.98 119.22 89.98"/><path class="cls-3" d="M92.72,91.35H90.79V90h1.93v1.37Zm1,1.56h.65V89.18l-.76-.74H89.08v6.92h1.71V92.91h1.28l1,2.45h1.69l-1-2.45Z"/><polygon class="cls-3" points="138.06 89.98 138.06 88.44 132.98 88.44 132.98 95.36 138.06 95.36 138.06 93.81 134.75 93.81 134.75 92.67 138.06 92.67 138.06 91.12 134.75 91.12 134.75 89.98 138.06 89.98 138.06 89.98"/><polygon class="cls-3" points="100.55 93.81 100.55 88.44 98.77 88.44 98.77 95.36 103.1 95.36 103.1 93.81 100.55 93.81 100.55 93.81"/><path class="cls-3" d="M110.13,93.81h-2V90h2v3.83Zm.94-5.37h-4.6v6.14l.77.78h4.59V89.21l-.76-.77Z"/><path class="cls-3" d="M81.28,91.55V90h2v1.57ZM85,95.36V89.21l-.77-.77H79.53v6.92h1.75V93.11h2v2.25Z"/><polygon class="cls-3" points="74.01 88.44 74.01 91.55 72.06 91.55 72.06 88.44 70.31 88.44 70.31 95.36 72.06 95.36 72.06 93.11 74.01 93.11 74.01 95.36 75.75 95.36 75.75 88.44 74.01 88.44 74.01 88.44"/><path class="cls-3" d="M177.91,39.29c3.37-7.91,5.9-13.51,5.9-13.51-28.07,18.23-53.13,34.58-67.46,44a30.42,30.42,0,0,1-1.86,4.18L171,43.1,126.9,75l2-.36,23.32-2.26S168,70.84,176.79,59.05C180.92,52.72,188,34.21,188,34.21l-10,5.08Z"/><path class="cls-3" d="M42.81,113.06l5.43-2.34v12.34c1.56-.21,3.16-.41,4.79-.6V95.36H48.25s0,9.71,0,9.76l-5.43,2.29v-12H38v14s-4,1.9-3.94,1.94l3.94,2v11.38c1.54-.28,3.17-.55,4.81-.81v-10.8Z"/><path class="cls-3" d="M80.09,104h5.42c0,1.34,0,3,0,4.25l-5.4.09V104Zm0,9c1.19,0,2.36-.07,3.56-.09.88,2.29,1.79,4.89,2.67,7.19,1.58,0,3.18-.08,4.78-.11-.88-2.31-1.77-4.9-2.65-7.18l1.83,0V101.68l-2.12-2.09H73.49l1.81,2.16v18.8l4.8-.24V113Z"/><path class="cls-3" d="M98.79,104h5.49v15.93c1.65,0,3.36,0,5,.07V101.76l-2.18-2.17h-15l1.81,2.16v18.17c1.62,0,3.25,0,4.9,0V104Z"/><path class="cls-3" d="M127.19,116.09c-3.1-.16-6.15-.3-9.26-.41,0-1.14,0-2.27,0-3.4,3.11.09,6.17.19,9.27.32v-4.78c-3.11-.08-6.18-.15-9.28-.21V104h9.28V99.59H111.08l1.79,2.15v18.33c4.9.15,9.7.36,14.32.65v-4.63Z"/><path class="cls-3" d="M139.26,104h4.12V99.59H129.85V104h4.21v17.24c1.73.14,3.52.29,5.2.45V104Z"/><path class="cls-3" d="M66.94,116.33c-1.84.11-3.65.23-5.49.36V104H67v12.35Zm4.82-14.58-2.17-2.16H54.86l1.74,2.1v17.89l1.9,2.26c4.22-.42,8.69-.79,13.24-1.08v-19Z"/><path class="cls-3" d="M160.72,113.2q2.22-1,4.46-2c-4.78-2.21-9.56-4.22-14.34-6.08V99.65h5.06v2h4.82V95.36H144.23l1.83,2.13v11.2L155.9,113v6.26l-5.06-.65v-2l-4.78-.57v6.39c5.23.61,10.14,1.32,14.66,2.13V113.2Z"/><polygon class="cls-3" points="64.68 93.21 64.68 93.81 63.13 93.81 63.13 89.98 64.68 89.98 64.68 90.55 66.42 90.55 66.42 88.44 61.42 88.44 61.42 94.58 62.2 95.36 66.42 95.36 66.42 93.21 64.68 93.21 64.68 93.21"/><path class="cls-3" d="M21.33,39.29c-3.37-7.91-5.9-13.51-5.9-13.51C43.49,44,68.55,60.36,82.89,69.73a31.67,31.67,0,0,0,1.85,4.18L28.2,43.1,72.34,75l-2-.36L47,72.36S31.21,70.84,22.44,59.05c-4.13-6.33-11.16-24.84-11.16-24.84l10,5.08Z"/><path class="cls-4" d="M48.14,91.56H33.92V107l-8.56,4.19,8.56,4.47v13.72l9.45,5.79c3.48-.46,7.92-1,13.06-1.52L93,154.7l6.65,30.63c0-.07,6.73-30.63,6.73-30.63l36.46-21c5.14.53,9.59,1.06,13.07,1.52l9.44-5.79V115.66l8.57-4.37L165.31,107V91.56H151.09a34.53,34.53,0,0,0,5-6.93c1.16-2,2.27-4.51,3.62-7.47,10.36-3.16,18-9.78,21.29-16.23,8.88-16.26,15.56-36.14,15.56-36.14s-3.83,1.85-8.46,4.13c3.76-11.45,6-21.18,6-21.18s-40.95,27.1-72.85,52.55l-2.77-1.65c0-.27.09-2.6.09-2.79,0,0,.31-2.7-4.45-4.32l-.85-.28c2.31-1.74,5.9-4.39,8.52-6.18,4.17-2.86,3.68-6,3.68-6L110.34,50.32a34.68,34.68,0,0,0-21.45,0L73.77,39.05s-.5,3.16,3.67,6c2.62,1.79,6.21,4.44,8.53,6.18l-.85.28c-4.77,1.62-4.45,4.32-4.45,4.32,0,.19.07,2.52.08,2.79L78,60.29C46.09,34.84,5.14,7.74,5.14,7.74s2.24,9.73,6,21.18c-4.95-2.45-8.46-4.13-8.46-4.13S9.36,44.67,18.25,60.93C21.52,67.38,29.17,74,39.54,77.16c0,0,1.75,4,3.26,6.89a46.6,46.6,0,0,0,5.34,7.51ZM195.46,33.82A227.79,227.79,0,0,1,182,63.25c-5,8.58-15,13.7-20.86,15.59,0,0-2.85,6.86-5.78,10.64h12v16.26l11.36,5.44-11.37,5.73,0,13.64-11,6.74s-8.79-1.09-13.07-1.54l-34.95,20.19c-7,31.64-8.67,40.85-8.67,40.85S98,188.1,91,155.94L56,135.75c-4.28.45-13.06,1.54-13.06,1.54l-11-6.74,0-13.64-11.37-5.73,11.36-5.44V89.48h12c-2.88-3.6-5.78-10.64-5.78-10.64a43.77,43.77,0,0,1-9.83-4.66,33.88,33.88,0,0,1-11-10.93A223.07,223.07,0,0,1,3.77,33.82C1.75,28.7-.77,20.88-.77,20.88L7.74,25C4.62,15.64,2,3.21,2,3.21H2s44.77,29.43,76.17,54.6l.5-.3c0-.52,0-1,0-1.6a4.88,4.88,0,0,1,.27-1.7,6.65,6.65,0,0,1,3-3.44c-2.31-1.69-6.46-4.57-6.83-5-3-2.63-3.55-5.6-3.32-7.07l.52-3.34,17,12.68a35.45,35.45,0,0,1,20.64,0l17-12.68.52,3.34c.23,1.47-.28,4.44-3.32,7.07-.35.38-4.52,3.28-6.83,5a6.65,6.65,0,0,1,3,3.44,4.65,4.65,0,0,1,.27,1.7c0,.55,0,1.08,0,1.6l.5.3c32.15-25.75,76.17-54.6,76.17-54.6h0S195.05,13.44,191.5,25l8.5-4.09c-1.93,6.22-4.54,12.94-4.54,12.94Z"/></g></svg>