<svg id="Layer_1" data-name="Layer 1" xmlns="http://www.w3.org/2000/svg" viewBox="0 0 200 200"><defs><style>.cls-1{fill:#fff;}.cls-2{fill:#003da6;}.cls-3{fill:#db0032;}</style></defs><title>Team_Logos</title><g id="_76ER" data-name="76ER"><path class="cls-1" d="M199.92,99.92A99.92,99.92,0,1,1,100,0a99.92,99.92,0,0,1,99.92,99.92"/><path class="cls-2" d="M196.24,99.92A96.24,96.24,0,1,1,100,3.69a96.24,96.24,0,0,1,96.24,96.23"/><polygon class="cls-1" points="18.61 116.32 20.58 122.6 27.26 122.6 21.85 126.54 23.82 132.71 18.61 128.93 13.34 132.71 15.33 126.52 9.91 122.6 16.57 122.6 18.61 116.32 18.61 116.32"/><polygon class="cls-1" points="181.44 116.32 183.41 122.6 190.09 122.6 184.68 126.54 186.66 132.71 181.44 128.93 176.17 132.71 178.16 126.52 172.74 122.6 179.4 122.6 181.44 116.32 181.44 116.32"/><polygon class="cls-1" points="41.98 149.97 43.95 156.25 50.63 156.25 45.22 160.19 47.2 166.36 41.98 162.58 36.72 166.36 38.7 160.17 33.28 156.25 39.94 156.25 41.98 149.97 41.98 149.97"/><polygon class="cls-1" points="160.24 149.97 162.21 156.25 168.89 156.25 163.48 160.19 165.45 166.36 160.24 162.58 154.97 166.36 156.96 160.17 151.54 156.25 158.2 156.25 160.24 149.97 160.24 149.97"/><polygon class="cls-1" points="78.44 171.87 80.41 178.15 87.09 178.15 81.69 182.09 83.66 188.25 78.44 184.48 73.18 188.25 75.16 182.07 69.75 178.15 76.4 178.15 78.44 171.87 78.44 171.87"/><polygon class="cls-1" points="122.76 171.87 124.73 178.15 131.4 178.15 126 182.09 127.97 188.25 122.76 184.48 117.49 188.25 119.47 182.07 114.06 178.15 120.72 178.15 122.76 171.87 122.76 171.87"/><path class="cls-1" d="M172.16,100.38A72.16,72.16,0,1,1,100,28.23a72.16,72.16,0,0,1,72.16,72.15"/><path class="cls-2" d="M32.13,114.56a69.34,69.34,0,0,0,82.05,53.68A68.1,68.1,0,0,0,158,138.35a70.62,70.62,0,0,0,9.86-52.14A68.14,68.14,0,0,0,138,42.4,69.31,69.31,0,0,0,32.13,114.56"/><path class="cls-1" d="M123.61,46.35c.23,2.7-1,5.33-3.74,7.85-13-9.54-25.39-14.23-37.55-14.28a47.39,47.39,0,0,0-7.61.59,65.3,65.3,0,0,1,44.2-2.3c2.24,2.14,4.42,5,4.7,8.14"/><path class="cls-1" d="M110,158.35c13.67-12.55,20-39.45,23.79-55.52l.59-2.51c2-8.19,5.39-14.29,9.09-17.95,13.71,21.3,11.85,43.3,8.39,57.11A65.16,65.16,0,0,1,100,165.37a43.58,43.58,0,0,0,10.08-7"/><path class="cls-1" d="M134.87,67.1c5.55-4.65,10-8.2,13.14-10.5A64.32,64.32,0,0,1,162.6,83c-2.56-3.43-5.84-6.69-9.38-7.42a11.73,11.73,0,0,0-9.13,2.32,83.4,83.4,0,0,0-9.22-10.77"/><path class="cls-1" d="M36.28,97.45C42.59,80.5,65.73,73.59,74.44,71l.38-.11a108.41,108.41,0,0,1,11.72-2.36c11.22-1.9,25-4.26,33.4-10.5a133.21,133.21,0,0,1,10.44,8.91C111.47,83,82.25,110,51,143.13a65.36,65.36,0,0,1-16-42.72l1.27-3"/><path class="cls-1" d="M132.69,65q-5.28-5-10.4-9c3.16-3.09,4.6-6.42,4.3-10a13.14,13.14,0,0,0-2.16-5.9,66.35,66.35,0,0,1,21.48,14.23c-3.28,2.42-7.76,6-13.22,10.57"/><path class="cls-1" d="M117.42,56.15C109.58,61.57,96.6,63.77,86,65.56A112.16,112.16,0,0,0,74,68l-.38.12c-8.35,2.49-29.38,8.79-38,23.92A64.52,64.52,0,0,1,45.63,64.8,67.94,67.94,0,0,1,63,46.59c15.39-6.5,32.66-6.06,54.38,9.56"/><path class="cls-1" d="M152.62,78.49c4.54.93,9.42,8.55,11.74,13a64.43,64.43,0,0,1-7.89,41.08c.35-2.21.64-4.53.82-7a71.87,71.87,0,0,0-11.48-45.16c2.38-1.68,4.75-2.35,6.81-1.92"/><path class="cls-1" d="M132.58,69a80.21,80.21,0,0,1,9.19,10.76C137.33,84,133.55,91,131.51,99.62l-.59,2.53c-3.71,15.73-9.91,42.08-22.9,54A38.07,38.07,0,0,1,92.71,165a65.45,65.45,0,0,1-39.65-19.64c31.5-33.48,60.85-60.46,79.52-76.31"/><path class="cls-1" d="M117.93,119.68l1.76-.48c1.06-.28,1.78-.64,1.78-2.18,0-1.28-.36-3.62-1.89-3.62s-1.65,2.77-1.65,4.28v2Z"/><path class="cls-1" d="M96.79,118.69c0-5.56-.2-10.35-4-10.35-3.07,0-3.6,4.79-3.6,10.35s-.16,10.36,3.6,10.36c3.2,0,4-4.81,4-10.36"/><path class="cls-1" d="M117.93,119.68l1.76-.48c1.06-.28,1.78-.64,1.78-2.18,0-1.28-.36-3.62-1.89-3.62s-1.65,2.77-1.65,4.28v2Z"/><path class="cls-1" d="M88.81,106h.06c1.81-2.82,5.25-4.16,8.61-4.16,7.64,0,12.32,6.58,12.32,15.43,0,10.49-7.11,16.72-15.88,16.72-13.51,0-18.41-10.89-18.41-23.51,0-14.53,6.31-26.54,22-26.54,6.13,0,11.17,4,11.17,10a5.67,5.67,0,0,1-5.92,5.83c-4.24,0-5.59-3.55-6.2-6.65-.24-1.32.25-4.24-1.94-4.24-4.57,0-5.32,9-5.51,12.25L88.81,106Z"/><path class="cls-1" d="M96.79,118.69c0-5.56-.2-10.35-4-10.35-3.07,0-3.6,4.79-3.6,10.35s-.16,10.36,3.6,10.36c3.2,0,4-4.81,4-10.36"/><path class="cls-1" d="M16.34,91.47c.26-2.19-.38-3.36-1.94-3.55-1.36-.16-2.34.68-2.53,2.32-.14,1.16.27,1.39,1.52,1.54l2.85.34c.05-.22.07-.44.1-.65Zm-1.37-7c2.56.3,3.63,2.1,3.23,5.45l-.29,2.42,1.38.17c1.77.21,2.44.17,2.65-1.27l1.63.2L22.79,98l-1.63-.19c.13-1.44-.51-1.64-2.28-1.85l-5.12-.61c-1.77-.21-2.43-.16-2.64,1.27l-1.64-.2.86-7.22c.41-3.47,2-5.05,4.63-4.74Z"/><path class="cls-1" d="M24.6,77.18c.53-1.35,0-1.71-1.68-2.4l-4.75-2c-1.65-.69-2.3-.84-2.89.48l-1.52-.63,2.56-6.11,1.48.62c-.53,1.35,0,1.71,1.68,2.4l1.22.52,1.92-4.58L21.39,65c-1.65-.69-2.29-.83-2.89.49L17,64.85l2.56-6.11,1.51.63c-.52,1.36,0,1.72,1.69,2.41l4.75,2c1.65.69,2.3.83,2.89-.49l1.52.64L29.38,70,27.9,69.4c.52-1.35,0-1.71-1.68-2.4l-2.07-.86-1.91,4.57,2.07.86c1.64.69,2.29.84,2.89-.48l1.48.62-2.56,6.1-1.52-.63Z"/><path class="cls-1" d="M31,44.71c-.83,1.18-.38,1.67,1,2.74l4.13,3.09c1.43,1.07,2,1.36,2.92.23l1.32,1-4,5.29-1.32-1c.84-1.19.37-1.66-1.06-2.73L30,50.24c-1.43-1.07-2-1.38-2.92-.25l-1.31-1,3.95-5.29,1.32,1Z"/><path class="cls-1" d="M45.9,45.49l-1-1.27c1.08-1,.73-1.52-.41-2.89l-3.32-3.95c-1.15-1.37-1.64-1.8-2.78-.9l-1.05-1.26L42.35,31l1,1.26c-1.08,1-.75,1.54.4,2.91l3.69,4.4c.86,1,1.25,1.18,2.3.3,1.4-1.17,2-3.27,1.48-5.88l1.45-.31,1.49,4.86-8.31,7Z"/><path class="cls-1" d="M66.54,24,63.68,21l.24,4.25L66.54,24Zm-4.91,9.35-.69-1.49c1.25-.77,1.19-1.61,1.14-3l-.36-10.24,2.77-1.26,7.62,7.44c.87.85,1.34,1.27,2.48.88l.68,1.5-6,2.75-.66-1.46.12-.06c.83-.38,1.15-.74.91-1.26a1.77,1.77,0,0,0-.36-.5l-1.4-1.39L64,27,64.2,29a1.6,1.6,0,0,0,.11.43c.26.58.83.62,1.77.21l.67,1.46-5.12,2.34Z"/><path class="cls-1" d="M86.81,21.14c.19,1.32.42,1.67,1.8,1.47,2.65-.38,4.07-2.46,3.62-5.66s-2.4-4.79-5-4.41c-1.38.19-1.5.59-1.32,1.91l1,6.69ZM82,23.5c1.43-.24,1.45-.9,1.2-2.67l-.72-5.11c-.25-1.77-.46-2.4-1.9-2.23l-.23-1.63,6.67-.95c5.13-.73,8.2,1.28,8.8,5.52s-1.76,7-6.91,7.76l-6.68.94L82,23.5Z"/><path class="cls-1" d="M105.3,21.55c1.44.17,1.65-.46,1.91-2.23l.74-5.1c.26-1.76.24-2.43-1.19-2.68L107,9.92l11,1.6,1.22,4.27-1.34.47a6.09,6.09,0,0,0-4.63-3.79c-1.32-.19-1.55.18-1.74,1.47l-.28,1.91.63.09c1.39.2,1.81-.18,2.13-1.8l1.39.21-.88,6-1.39-.2c0-1.56-.4-2.35-1.5-2.51l-.62-.09-.46,3.1c-.18,1.3-.06,1.69,1.27,1.89,2,.29,4.25-.66,6-2.82l1.16.87-2.67,4.26-11.28-1.65.24-1.63Z"/><path class="cls-1" d="M126.07,27.41l.66-1.51c1.34.54,1.69,0,2.41-1.65l2.07-4.72c.72-1.63.89-2.27-.42-2.89l.66-1.51,6,2.65-.66,1.51c-1.34-.54-1.71,0-2.42,1.64L132.1,26.2c-.53,1.21-.51,1.64.75,2.19,1.67.73,3.81.33,5.92-1.28l.92,1.16L136,31.76l-9.93-4.35Z"/><path class="cls-1" d="M153.34,34.63c1.71,1.38,3,1.47,4,.25s.67-2.34-.61-3.38c-.91-.73-1.32-.51-2.11.47l-1.81,2.23c.16.16.33.29.5.43ZM160,37.22c-1.62,2-3.72,2-6.34-.17l-1.9-1.54-.87,1.08c-1.12,1.39-1.44,2-.34,2.91l-1,1.28-5.15-4.16,1-1.28c1.15.88,1.66.45,2.78-.94l3.24-4c1.12-1.39,1.44-2,.34-2.91l1-1.28,5.66,4.57c2.72,2.19,3.22,4.38,1.55,6.45Z"/><path class="cls-1" d="M161,49.25c.86,1.17,1.46.89,2.93-.13l4.22-3c1.46-1,1.93-1.5,1.14-2.7l1.34-1,3.8,5.43-1.31.92c-.87-1.16-1.47-.89-2.93.14l-1.09.76L172,53.82l1.09-.76c1.46-1,1.93-1.5,1.13-2.7l1.32-.93,3.79,5.43-1.34,1c-.87-1.17-1.47-.89-2.93.13l-4.23,3c-1.46,1-1.93,1.5-1.13,2.71l-1.35.94-3.8-5.43,1.32-.92c.86,1.16,1.47.89,2.93-.14l1.83-1.28-2.84-4.07L165.92,52c-1.46,1-1.93,1.49-1.13,2.7l-1.32.92-3.79-5.42,1.35-1Z"/><path class="cls-1" d="M185.08,72c-.56-1.33-1.21-1.21-2.88-.57l-4.81,1.85c-1.67.64-2.24,1-1.76,2.35l-1.53.6L171.73,70l1.53-.59c.56,1.34,1.21,1.19,2.87.55L181,68.15c1.67-.64,2.24-1,1.76-2.33l1.54-.59,2.37,6.16-1.54.59Z"/><path class="cls-1" d="M183.93,90.88,187.69,89l-4.13-1,.37,2.86Zm-7.49-7.45,1.63-.21c.37,1.41,1.19,1.61,2.58,2l9.89,2.67.39,3L181.58,96c-1.07.58-1.6.91-1.57,2.11l-1.63.21-.86-6.57,1.6-.2v.13c.12.91.38,1.31,1,1.24a1.62,1.62,0,0,0,.57-.2l1.74-.92-.55-4.25-1.91-.33a1.63,1.63,0,0,0-.44,0c-.63.08-.84.61-.73,1.63l-1.59.21-.73-5.59Z"/><path class="cls-1" d="M140.55,108.82a4.5,4.5,0,0,0-3.46,1.59c-.09-.21-.18-.41-.28-.61l-.73-1.4-10.38,3v5.67h1.92a1.84,1.84,0,0,0,.31,0,6.3,6.3,0,0,1,.25,2.44v6.6l-1.89.27v6.24h14.37v-6.24l-1.89-.27v-1.93a24.7,24.7,0,0,1,.53-4.47,6.51,6.51,0,0,0,1.88.29c2.57,0,4.37-2.32,4.37-5.64s-2-5.59-5-5.59Z"/><path class="cls-1" d="M158.55,115.44a3.49,3.49,0,0,1-.17-.91c0-1.7-.67-5.65-7-5.65-3.48,0-10.3,2.68-10.3,8.87a8.1,8.1,0,0,0,1.67,5.22,4.77,4.77,0,0,0-2.21,4.29c0,2.23,1.12,6,8.65,6,6.44,0,10.13-3.33,10.13-9.15,0-5.55-.49-7.41-.81-8.64Z"/><path class="cls-1" d="M82.65,82.05a2.09,2.09,0,0,0-1.57-.71,3.75,3.75,0,0,0-2.62,1.56,16.06,16.06,0,0,1-12,4.94C60.22,87.84,53.63,85,48.41,80a2.26,2.26,0,0,0-1.54-.63c-2.56,0-3.23,4.11-3.24,4.15v20.58l1.64.24a39.76,39.76,0,0,0,16.44-.58c-5.27,4.72-17.13,17.54-17,29.78,0,2.25,1.43,2.5,2,2.5a2.44,2.44,0,0,0,1.56-.66,2.72,2.72,0,0,1,.33-.26,13,13,0,0,1,7.52-2,16.69,16.69,0,0,1,7,1.42,3,3,0,0,0,1.28.34,2.07,2.07,0,0,0,1.54-.67,2.73,2.73,0,0,0,.53-2.24c-.87-8.87,1.08-18.58,4.87-24.16L72,107c3.22-4.76,9.91-14.67,11.18-22.85a2.46,2.46,0,0,0-.48-2Z"/><path class="cls-1" d="M122.35,125a1.77,1.77,0,0,1-1.54-1l3.68-1a7.69,7.69,0,0,1-2.14,2Zm8.06-3.61-.09-1.56a15.67,15.67,0,0,0-.45-2.91l-.07-1.79-.33.51a9.88,9.88,0,0,0-9.48-6.8c-6.66,0-11.32,5.27-11.32,12.8,0,5.78,3.39,11.61,11,11.61A11.93,11.93,0,0,0,130,127.55l.29-.49-.22-5.59.37-.1Z"/><path class="cls-1" d="M105.64,103.16c-.38-.53-.8-1.13-1.16-1.66a7.42,7.42,0,0,0,6.16-7.58C110.64,87.13,105,82,97.55,82c-15,0-24,10.63-24,28.45,0,16.16,7.41,25.43,20.33,25.43,10.48,0,17.8-7.66,17.8-18.64,0-5.46-3.66-10.65-6.08-14.09Z"/><path class="cls-2" d="M118,117.7c0-1.51,0-4.28,1.65-4.28s1.89,2.34,1.89,3.61c0,1.55-.72,1.91-1.78,2.19l-1.76.48v-2Zm4.42,9.21c-2.33,0-3.7-2.12-3.94-4.27l10-2.69c-.3-4.88-3.12-9.19-8.42-9.19-5.65,0-9.4,4.4-9.4,10.88,0,5.07,2.91,9.7,9,9.7a10,10,0,0,0,8.7-4.74l-2-2.35c-1,1.49-2.1,2.66-4,2.66Z"/><path class="cls-2" d="M138.79,130.77H128.24v-2.66l1.9-.26v-8.27c0-3-.39-4.36-2.48-4.36v-2.33l7.48-2.19a13.85,13.85,0,0,1,1.25,5.46h.07c.75-2.25,1.68-5.4,4.13-5.4,2.14,0,3.09,1.65,3.09,3.67s-.9,3.72-2.46,3.72a7,7,0,0,1-2.51-.63c-1.37-.46-1.81,5.49-1.81,6.73v3.6l1.89.26v2.66Z"/><path class="cls-2" d="M156.51,114.55c0,1.64-1.41,2.46-2.9,2.46a3.64,3.64,0,0,1-3.43-3.24c-.77,0-1.32.39-1.32,1.71,0,3.06,8.63.88,8.63,8.62,0,5.79-4.19,7.24-8.22,7.24-2.45,0-6.74-.33-6.74-4.06,0-1.69.94-3,2.63-3,2.62,0,3.07,2.4,3.51,4.1.12.45.51.52.88.52,1.38,0,2.38-.57,2.38-1.48,0-3.47-8.86-2.13-8.86-9.66,0-4.79,5.66-7,8.39-7,3.1,0,5,1,5,3.74"/><path class="cls-2" d="M92.86,129.07c-3.75,0-3.6-4.81-3.6-10.36s.53-10.35,3.6-10.35c3.77,0,4,4.79,4,10.35s-.77,10.36-4,10.36Zm4.66-27.23c-3.36,0-6.8,1.34-8.61,4.16h-.06l.34-4.88c.19-3.29.94-12.24,5.51-12.24,2.19,0,1.7,2.91,1.94,4.24.61,3.09,2,6.65,6.2,6.65a5.67,5.67,0,0,0,5.92-5.83c0-6-5-10-11.17-10-15.73,0-22,12-22,26.54C75.55,123.1,80.45,134,94,134c8.77,0,15.88-6.23,15.88-16.72,0-8.85-4.68-15.43-12.32-15.43Z"/><path class="cls-3" d="M45.58,83.69v18.73c10.49,1.54,23,.52,31.87-12.43.37-.55.59-.16.35.32-2.47,5-8.32,9.69-13.38,13.65-4.86,3.82-17.89,17.5-17.72,29.52,0,.93,0,.67.85.07,4-2.94,11.71-3,16.46-.75.67.31.72.21.64-.64-.91-9.33,1.19-19.51,5.19-25.42C72.59,102.64,80,92.1,81.27,83.83c.14-.86-.31-.73-1.38.4-8.39,8.87-23.57,8.65-33.36-.74-.62-.6-.9-.33-1,.2"/><path class="cls-1" d="M81.74,72.44a18,18,0,1,1-17.95-18,18,18,0,0,1,17.95,18Z"/><polygon class="cls-2" points="63.77 55.12 64.37 57.03 66.4 57.03 64.75 58.23 65.35 60.1 63.77 58.95 62.16 60.1 62.76 58.22 61.12 57.03 63.15 57.03 63.77 55.12 63.77 55.12"/><polygon class="cls-2" points="75.72 62.09 76.34 63.99 78.37 63.99 76.72 65.19 77.33 67.07 75.73 65.91 74.13 67.07 74.75 65.19 73.07 63.99 75.11 63.99 75.72 62.09 75.72 62.09"/><polygon class="cls-2" points="70.59 56.71 71.2 58.62 73.24 58.62 71.59 59.82 72.19 61.7 70.6 60.53 69.01 61.7 69.61 59.81 67.95 58.62 69.98 58.62 70.59 56.71 70.59 56.71"/><polygon class="cls-2" points="77.68 68.68 78.29 70.58 80.32 70.58 78.68 71.78 79.27 73.66 77.69 72.5 76.09 73.66 76.7 71.78 75.04 70.58 77.06 70.58 77.68 68.68 77.68 68.68"/><polygon class="cls-2" points="76.82 75.64 77.43 77.54 79.47 77.54 77.81 78.75 78.42 80.63 76.83 79.47 75.24 80.63 75.83 78.74 74.19 77.54 76.22 77.54 76.82 75.64 76.82 75.64"/><polygon class="cls-2" points="72.98 81.2 73.58 83.1 75.62 83.1 73.97 84.31 74.57 86.18 72.99 85.02 71.39 86.18 71.99 84.31 70.33 83.1 72.37 83.1 72.98 81.2 72.98 81.2"/><polygon class="cls-2" points="66.94 84.31 67.55 86.21 69.57 86.21 67.92 87.42 68.53 89.3 66.94 88.14 65.34 89.3 65.94 87.42 64.29 86.21 66.32 86.21 66.94 84.31 66.94 84.31"/><polygon class="cls-2" points="51.59 61.48 50.97 63.37 48.95 63.37 50.59 64.58 49.99 66.46 51.58 65.29 53.19 66.46 52.58 64.58 54.24 63.37 52.2 63.37 51.59 61.48 51.59 61.48"/><polygon class="cls-2" points="56.59 56.71 55.98 58.62 53.95 58.62 55.6 59.82 54.99 61.7 56.59 60.53 58.19 61.7 57.59 59.81 59.24 58.62 57.21 58.62 56.59 56.71 56.59 56.71"/><polygon class="cls-2" points="49.25 67.83 48.66 69.72 46.62 69.72 48.28 70.92 47.67 72.81 49.25 71.65 50.85 72.81 50.25 70.92 51.91 69.72 49.88 69.72 49.25 67.83 49.25 67.83"/><polygon class="cls-2" points="49.88 74.78 49.26 76.69 47.23 76.69 48.89 77.89 48.29 79.78 49.87 78.61 51.47 79.78 50.86 77.89 52.51 76.69 50.48 76.69 49.88 74.78 49.88 74.78"/><polygon class="cls-2" points="53.72 80.46 53.12 82.37 51.08 82.37 52.73 83.57 52.12 85.45 53.72 84.28 55.33 85.45 54.72 83.57 56.37 82.37 54.34 82.37 53.72 80.46 53.72 80.46"/><polygon class="cls-2" points="59.77 84.07 59.16 85.98 57.13 85.98 58.78 87.18 58.18 89.05 59.76 87.91 61.37 89.05 60.75 87.17 62.41 85.98 60.38 85.98 59.77 84.07 59.77 84.07"/></g></svg>