<svg id="Layer_1" data-name="Layer 1" xmlns="http://www.w3.org/2000/svg" viewBox="0 0 200 200"><defs><style>.cls-1{fill:#b4975a;}.cls-2{fill:#002b5c;}.cls-3{fill:#e31936;}.cls-4{fill:#fff;}</style></defs><title>Team_Logos</title><path class="cls-1" d="M82.55,37l.42.2c-4.7.36-9.3.91-13.74,1.58A12.67,12.67,0,0,1,82.55,37Zm48.74,1.73c-4.43-.66-9-1.2-13.7-1.54L118,37a12.59,12.59,0,0,1,13.29,1.73ZM199,82.47l.61.25V71.44a15.89,15.89,0,0,0-.91-5.25,18.13,18.13,0,0,0-2.62-4.85,20.1,20.1,0,0,0-3.54-3.6,19.58,19.58,0,0,0-3.8-2.33,47.79,47.79,0,0,0-7.22-3.24c-3.92-1.55-10.31-3.92-18.49-6.36a236.64,236.64,0,0,0-27.86-6.51h0c-.07-.09-7.26-9.08-18.09-4.44-.37.16-.73.33-1.09.51a7,7,0,0,1-5.76.74c-1.62-.43-3.68-1.43-2.83-5.05a4.11,4.11,0,0,1,1.81-2.46,2.73,2.73,0,0,1,2.22-.26c1.45.42,2,1.21,1.84,2.4a1.48,1.48,0,0,1-.83,1.07,1.56,1.56,0,0,1-1.49-.29,1.13,1.13,0,0,0-1.58.29,1.14,1.14,0,0,0,.29,1.59,3.65,3.65,0,0,0,5.86-2.26c.16-.89.37-3.87-3.46-5a5,5,0,0,0-4,.48,6.43,6.43,0,0,0-2.89,3.91c0,.05,0,.09,0,.13A12.65,12.65,0,0,0,104,29.3l-3.74-3.81L96.53,29.3a11.76,11.76,0,0,0-1.15,1.37l0-.13a6.46,6.46,0,0,0-2.88-3.91,5,5,0,0,0-4-.48c-3.83,1.12-3.61,4.1-3.45,5a3.64,3.64,0,0,0,5.85,2.26,1.14,1.14,0,0,0,.3-1.59,1.13,1.13,0,0,0-1.58-.29,1.57,1.57,0,0,1-1.49.29,1.49,1.49,0,0,1-.84-1.07c-.21-1.19.4-2,1.85-2.4a2.73,2.73,0,0,1,2.22.26,4.11,4.11,0,0,1,1.81,2.46c.85,3.62-1.21,4.62-2.83,5.05a7,7,0,0,1-5.76-.74l-1.09-.51c-10.83-4.64-18,4.35-18.09,4.44l0,.06A239.33,239.33,0,0,0,38.46,45.6,212.48,212.48,0,0,0,12.79,55l-1.47.68V56a7.24,7.24,0,0,0-2,.62C7,57.68,4.59,58.84,2.29,60L.55,60.9V67a7.1,7.1,0,0,0,.88,3.69,5.94,5.94,0,0,0,.38.59V78.1A9.85,9.85,0,0,0,.63,82.64a6.37,6.37,0,0,0,1.18,3.84v14.15L2,101A15.73,15.73,0,0,0,11,109.81l-.19.1s3.54,5.73,9,6.93l-1.06.43a18.19,18.19,0,0,0,11.39,7.59l-1.11.54a22.27,22.27,0,0,0,12.38,6.18,61.73,61.73,0,0,0,117.6,0,22.23,22.23,0,0,0,12.38-6.18l-1.11-.54a18.16,18.16,0,0,0,11.39-7.59l-1-.43c5.5-1.2,9-6.93,9-6.93l.35-.47A16.25,16.25,0,0,0,200,94.86V87.64a15.91,15.91,0,0,0-1-5.17Z"/><path class="cls-2" d="M193.81,77.66,197.12,79V71.44a13.17,13.17,0,0,0-.77-4.41,15.49,15.49,0,0,0-2.26-4.17A17.28,17.28,0,0,0,191,59.72a16.86,16.86,0,0,0-3.49-2.12c-.65-.46-2.36-1.29-6.91-3.09-3.87-1.54-10.19-3.88-18.28-6.29-13.32-4-33.38-8.68-54.28-9a4.45,4.45,0,0,0-3.26-2.9,9.12,9.12,0,0,0-2.57-5.29l-2-2-2,2a9.07,9.07,0,0,0-2.56,5.29,4.44,4.44,0,0,0-3.26,2.88c-20.57.36-40.23,4.93-53.33,8.78a210.1,210.1,0,0,0-25.33,9.3v1.53l-.29-.17a2.82,2.82,0,0,0-1.27-.29,4.52,4.52,0,0,0-1.88.47c-2.33,1.08-4.68,2.23-7,3.39l-.38.2V67a4.72,4.72,0,0,0,.55,2.44,3.6,3.6,0,0,0,.71.87v8.4a7.81,7.81,0,0,0-1.18,3.89,3.54,3.54,0,0,0,1.18,2.85v14.7a13.26,13.26,0,0,0,9.2,7.73c.16,0,.34.08.51.12h0a12.42,12.42,0,0,0,3.62.26h0c-1.24.61-2.48,1.23-3.71,1.86,0,.08,3.69,6.11,12.54,5.24q-2.21,1-4.4,2.14c0,.08,4.25,6,13.57,5.86-2.15,1.08-3.44,1.77-3.44,1.77a18.89,18.89,0,0,0,11.27,4.6,59.24,59.24,0,0,0,113.48,0,18.81,18.81,0,0,0,11.27-4.6s-1.29-.69-3.44-1.77c9.33.15,13.56-5.78,13.58-5.86q-2.19-1.11-4.41-2.14c8.86.87,12.52-5.16,12.54-5.24-1.23-.63-2.46-1.25-3.7-1.86a12.29,12.29,0,0,0,7.35-1.74,13.82,13.82,0,0,0,7.29-11.71V87.64c0-4.63-3.68-10-3.68-10Z"/><path class="cls-3" d="M139.7,134.83c1.11.84,2.22,1.69,3.32,2.55,0-.12-13.17,3.6-22.55-.53-.34-.15-.67-.32-1-.49a19.92,19.92,0,0,1-38.4,0c-.33.17-.65.34-1,.49-9.38,4.13-22.57.41-22.55.53q1.66-1.29,3.33-2.55a27.06,27.06,0,0,1-11.73-1.08,55.29,55.29,0,0,0,102.3,0,27,27,0,0,1-11.72,1.08Z"/><path class="cls-4" d="M94.77,45a4.56,4.56,0,0,1-2.18-2.43c-33.17.86-66.21,12.77-66.15,13.21a3.25,3.25,0,0,0-2.22,2.62v1.18A208.86,208.86,0,0,1,94.78,45.42V45Z"/><path class="cls-4" d="M176.18,56.6c.07-.47-34.65-13.19-68.22-14A4.59,4.59,0,0,1,105.78,45v.46a213.64,213.64,0,0,1,72.61,15V59.23a3.27,3.27,0,0,0-2.21-2.63Z"/><path class="cls-3" d="M103.91,39c-2.15-.26-2.5,2.8-2.56,3.83h-.69c0-2.92,1.4-4.09,1.4-6A6.44,6.44,0,0,0,100.27,33a6.44,6.44,0,0,0-1.79,3.77c0,2,1.39,3.13,1.4,6H99.2c-.06-1-.42-4.09-2.56-3.83a1.89,1.89,0,0,0,0,3.75s-.4-1.43.75-1.43c.84,0,1.06,1,1.12,1.51h-1v1.12h2.24a2.23,2.23,0,0,1-1,1.4,1.34,1.34,0,0,0,1,.7,2.07,2.07,0,0,0,.59,1.34,2.07,2.07,0,0,0,.59-1.34,1.37,1.37,0,0,0,1-.7,2.19,2.19,0,0,1-1-1.4H103V42.8h-1c.06-.53.29-1.51,1.13-1.51,1.14,0,.75,1.43.75,1.43a1.89,1.89,0,0,0,0-3.75"/><path class="cls-4" d="M89.33,72.39a2.89,2.89,0,0,1-.28,1.34,2.81,2.81,0,0,1-.73.9,3.44,3.44,0,0,1-1,.55,4.22,4.22,0,0,1-1.11.23,4.28,4.28,0,0,1-1.13-.08,2.77,2.77,0,0,1-1-.42,2.29,2.29,0,0,1-.73-.81,2.62,2.62,0,0,1-.28-1.29V54.87a2.89,2.89,0,0,1,.28-1.34,2.78,2.78,0,0,1,.73-.92,3,3,0,0,1,1-.57,4.47,4.47,0,0,1,1.13-.24,4.1,4.1,0,0,1,1.11.09,2.92,2.92,0,0,1,1,.43,2.45,2.45,0,0,1,.73.83,2.69,2.69,0,0,1,.28,1.3V72.39Zm4-11.09V54.13a5.86,5.86,0,0,0-.54-2.6,4.85,4.85,0,0,0-1.5-1.79,5.91,5.91,0,0,0-2.24-1,9.79,9.79,0,0,0-2.79-.19,10,10,0,0,0-2.79.56,7.23,7.23,0,0,0-2.26,1.27,5.72,5.72,0,0,0-1.51,2,6.3,6.3,0,0,0-.54,2.67v7.18a1.76,1.76,0,0,0-1.35,1.65,1.37,1.37,0,0,0,1.35,1.38v8a5.47,5.47,0,0,0,.54,2.56,4.52,4.52,0,0,0,1.51,1.73,6.07,6.07,0,0,0,2.26.91,10.56,10.56,0,0,0,2.79.15A11.31,11.31,0,0,0,89,78.15a6.62,6.62,0,0,0,2.24-1.21A5.56,5.56,0,0,0,92.75,75a6.1,6.1,0,0,0,.54-2.64v-8a1.61,1.61,0,0,0,1.42-1.57,1.5,1.5,0,0,0-1.42-1.48Z"/><path class="cls-4" d="M17.32,80.62c0,.08,0,.1-.06.07l-.1-.12c-.1-.32-4.82-16-5.07-16.69a12.12,12.12,0,0,1-.37-1.17.68.68,0,0,0-.34-.45.8.8,0,0,0-.68.09q-2.12,1-4.22,2v1.3a2.13,2.13,0,0,0,.18,1,1,1,0,0,0,.45.42,1.05,1.05,0,0,0,.63.13v12a2.76,2.76,0,0,0-1.19,2.09.87.87,0,0,0,1.19.93V99.07q1.65-.79,3.3-1.56V76.35c0-.15,0-.23,0-.21l.08.08s.12.4.37,1.11,4.86,16.09,4.91,16.21a4.68,4.68,0,0,0,.4.93c.14.23.37.28.7.14l2.21-.92a1.32,1.32,0,0,0,.69-.6,1.63,1.63,0,0,0,.23-.8V76.44a2.53,2.53,0,0,0,1.08-1.91.94.94,0,0,0-1.08-1V61.77a1.71,1.71,0,0,1,.13-.57,3.77,3.77,0,0,1,.25-.41,6,6,0,0,0,.61-.91A2.47,2.47,0,0,0,22,58.65V57.51q-2.34.95-4.65,1.94V80.62Z"/><path class="cls-4" d="M173.82,80.9c0,.09,0,.09-.06,0a.87.87,0,0,1-.1-.19c-.1-.38-.31-1.14-.62-2.27S172.38,76,172,74.51s-.82-3.06-1.27-4.7-.88-3.15-1.26-4.53-.72-2.53-1-3.46-.39-1.41-.39-1.46a2.07,2.07,0,0,0-.35-.73,1.42,1.42,0,0,0-.7-.45c-1.47-.48-2.93-1-4.41-1.4v1.3a2.93,2.93,0,0,0,.2,1.13,2.68,2.68,0,0,0,.47.8,3.09,3.09,0,0,0,.66.64V71a1.06,1.06,0,0,0-1.25,1.12A2.26,2.26,0,0,0,164,74V87.64c1.15.36,2.29.73,3.43,1.11V70c0-.16,0-.22,0-.19a.71.71,0,0,1,.07.15s.13.49.39,1.4.59,2.06,1,3.42.8,2.85,1.25,4.45.88,3.1,1.28,4.52.74,2.62,1,3.63.46,1.58.51,1.74a8.65,8.65,0,0,0,.4,1.24,1.2,1.2,0,0,0,.71.7c.75.27,1.49.56,2.24.84a.61.61,0,0,0,.69-.05.85.85,0,0,0,.23-.62V78.58a1,1,0,0,0,1.08-1,2.48,2.48,0,0,0-1.08-1.9V66.57a.93.93,0,0,1,.13-.46,1.36,1.36,0,0,1,.25-.22,1.79,1.79,0,0,0,.62-.43,1.37,1.37,0,0,0,.3-1V63.34c-1.55-.6-3.12-1.19-4.68-1.75V80.9Z"/><path class="cls-4" d="M193.37,83.87a19.21,19.21,0,0,0-1.76-3.05,30.42,30.42,0,0,0-1.91-2.4,1.36,1.36,0,0,0,.06-.36,2.68,2.68,0,0,0-1.48-2.22,1.14,1.14,0,0,0-.93-.06l-.37-.41a27.56,27.56,0,0,1-1.77-2.22,3.19,3.19,0,0,1-.72-1.81V65.1a.8.8,0,0,1,.26-.66,1.43,1.43,0,0,1,.68-.27,2.56,2.56,0,0,1,.87,0,3.26,3.26,0,0,1,.87.27A5.49,5.49,0,0,1,188,65a5.87,5.87,0,0,1,.87.71,3.87,3.87,0,0,1,.65.87,1.94,1.94,0,0,1,.27,1v1.46a3.27,3.27,0,0,0,.64,1.87A4,4,0,0,0,192,72.18l1.68.81V70.08a8.21,8.21,0,0,0-.49-2.85,8.8,8.8,0,0,0-1.36-2.5,11.58,11.58,0,0,0-2.06-2.08,12.9,12.9,0,0,0-2.58-1.55,10,10,0,0,0-2.57-.8,3.89,3.89,0,0,0-2,.19,2.66,2.66,0,0,0-1.37,1.28,5.14,5.14,0,0,0-.5,2.49V69.4a7,7,0,0,0,.7,3.11,14.4,14.4,0,0,0,1.78,2.76c.69.86,1.44,1.7,2.23,2.53a1.2,1.2,0,0,0-.13.57,2.63,2.63,0,0,0,1.49,2.19,1.05,1.05,0,0,0,1.12,0,15.68,15.68,0,0,1,1.62,2.31,5.19,5.19,0,0,1,.69,2.54v7.38a1.06,1.06,0,0,1-.28.79,1.31,1.31,0,0,1-.73.37,3.17,3.17,0,0,1-1,0,3.31,3.31,0,0,1-1-.29,5.08,5.08,0,0,1-1-.61,6.55,6.55,0,0,1-1-.85,4.86,4.86,0,0,1-.73-1,2.07,2.07,0,0,1-.28-1V88.48a2.71,2.71,0,0,0-.51-1.62,3.64,3.64,0,0,0-1.54-1.14c-.61-.25-1.22-.51-1.83-.75v3a7.4,7.4,0,0,0,.55,2.84,9.35,9.35,0,0,0,1.49,2.46,11.32,11.32,0,0,0,2.18,2,14.88,14.88,0,0,0,2.65,1.52,11.43,11.43,0,0,0,2.63.85,4.63,4.63,0,0,0,2.18-.06,2.69,2.69,0,0,0,1.5-1.12,4.26,4.26,0,0,0,.56-2.34V87a7.62,7.62,0,0,0-.71-3.14Z"/><path class="cls-4" d="M60.57,66.88c-.16,1.39-.32,2.76-.48,4.1s-.3,2.54-.44,3.59-.23,1.89-.32,2.54a4.49,4.49,0,0,1-.16,1c-.31-1.85-.6-3.51-.85-5l-.84-4.92c-.3-1.81-.61-3.6-.94-5.35s-.61-3.39-.89-4.89-.52-2.68-.74-3.56c0-.27-.29-.46-.73-.54a3.14,3.14,0,0,0-1.33,0,4.58,4.58,0,0,0-1.25.51,1.39,1.39,0,0,0-.77.91c-.22.92-.46,2.19-.74,3.82s-.57,3.39-.89,5.29-.62,3.83-.92,5.8-.58,3.74-.84,5.34-.53,3.41-.84,5.43a3.35,3.35,0,0,1-.18-.9c-.09-.6-.2-1.4-.32-2.39s-.25-2.12-.41-3.39-.32-2.57-.47-3.89c-.38-3.1-1.65-14.27-1.65-14.27q-2.4.68-4.79,1.39v1.18a1.69,1.69,0,0,0,.27,1,1.28,1.28,0,0,0,.59.45,1.24,1.24,0,0,1,.35.25.92.92,0,0,1,.23.44q.57,4.74,1.05,8.77a2.19,2.19,0,0,0-1,1.71,1.1,1.1,0,0,0,1.3,1.14.88.88,0,0,0,0,.16c.18,1.5.35,3,.53,4.37s.32,2.7.47,3.83.26,2,.35,2.75.14,1.09.14,1.14a1,1,0,0,0,.25.54.57.57,0,0,0,.61.13c1.49-.41,3-.8,4.46-1.18a1.14,1.14,0,0,0,.67-.4,2.85,2.85,0,0,0,.44-.86Q51.24,73,52.93,63q1.65,9.2,3.3,18.43a1.58,1.58,0,0,0,.44.66.8.8,0,0,0,.67.09q2.23-.45,4.47-.87a.91.91,0,0,0,.62-.41,1.67,1.67,0,0,0,.26-.65c0-.06.05-.46.14-1.21s.21-1.72.36-2.92.3-2.54.48-4,.35-3,.54-4.61a1.1,1.1,0,0,1,0-.18,1.92,1.92,0,0,0,1.31-1.74,1.25,1.25,0,0,0-1-1.26c.33-2.83.68-5.92,1.07-9.26a1.46,1.46,0,0,1,.24-.55,3.52,3.52,0,0,1,.36-.41,2.52,2.52,0,0,0,.6-.73,2.19,2.19,0,0,0,.28-1.14V51c-1.63.25-3.25.53-4.87.83,0,0-1.32,11.75-1.69,15Z"/><path class="cls-4" d="M155.1,74a.45.45,0,0,1-.44.09c-1.23-.33-2.47-.65-3.71-1a.72.72,0,0,1-.4-.27.7.7,0,0,1-.12-.48s0-.25.1-.65.15-.92.26-1.55.22-1.34.36-2.14.27-1.6.43-2.42c.4-2.19.79-4.37,1.19-6.55l.08,0c.39,2.38.79,4.77,1.18,7.15.16.91.3,1.79.44,2.65s.24,1.63.35,2.32.2,1.24.28,1.69.11.67.11.69a.42.42,0,0,1-.11.4Zm4-3a2.2,2.2,0,0,0-1.29-1.88c-.18-1.09-.37-2.18-.55-3.24-.25-1.49-.47-2.83-.67-4s-.36-2.18-.49-3-.2-1.21-.2-1.31a2.63,2.63,0,0,0-.63-1.41,2.69,2.69,0,0,0-1.46-.92q-2.64-.69-5.3-1.3v.9a2.53,2.53,0,0,0,1,2.32.4.4,0,0,1,.2.38,3.78,3.78,0,0,1,0,.56s-.06.34-.18.94-.28,1.39-.47,2.37-.42,2.08-.65,3.33L148,66.59a1.19,1.19,0,0,0-1.53,1.19,2,2,0,0,0,1,1.64c-.75,3.82-2.55,13.15-2.55,13.15,1.26.27,2.52.56,3.78.85,0,0,1.1-6.37,1.12-6.5.05-.51.29-.71.72-.61,1.5.37,3,.75,4.5,1.15a1.34,1.34,0,0,1,.59.31,1.21,1.21,0,0,1,.31.72c0,.12.89,7,.89,7,1.32.37,2.64.76,3.95,1.16,0,0-1.62-9.72-2.43-14.54a1.08,1.08,0,0,0,.79-1.11Z"/><path class="cls-4" d="M106.49,58.2a3.66,3.66,0,0,1-.59,2.18,2.13,2.13,0,0,1-1.88.79c-.85,0-1.7,0-2.55,0a.56.56,0,0,1-.33-.12.36.36,0,0,1-.16-.31V52.28c0-.36.22-.54.65-.54.8,0,1.59,0,2.39,0a2.21,2.21,0,0,1,1.88.84,3.72,3.72,0,0,1,.59,2.2V58.2ZM111,75.09l-.34-.23a.65.65,0,0,1-.14-.5V67.64A7.54,7.54,0,0,0,110,65a4.08,4.08,0,0,0-1.37-1.91c-.29-.3-.32-.56-.08-.79A4.74,4.74,0,0,0,110,60.63a4.79,4.79,0,0,0,.53-2.28V55.24a9.37,9.37,0,0,0-.36-2.67A5.56,5.56,0,0,0,109,50.46,5.48,5.48,0,0,0,107,49a7.56,7.56,0,0,0-3-.57q-4.17-.08-8.34,0v1.14A2.08,2.08,0,0,0,96,50.87a2.27,2.27,0,0,0,.62.62.66.66,0,0,1,.28.25.79.79,0,0,1,.13.49v9a1.59,1.59,0,0,0-1.26,1.53A1.52,1.52,0,0,0,97,64.24V77.87q2,0,4,0v-13a.48.48,0,0,1,.53-.55l2.51,0a2.27,2.27,0,0,1,1.88.81,3.55,3.55,0,0,1,.59,2.16V76a2,2,0,0,0,.5,1.41,2.14,2.14,0,0,0,1.56.58l3.35.16V76.64a1.43,1.43,0,0,0-.3-1,3.85,3.85,0,0,0-.63-.53Z"/><path class="cls-4" d="M123.61,67.6c-.41.14-.61.51-.61,1.11,0,.16,0,6.82-.06,7a.42.42,0,0,1-.42.17c-1.18-.12-2.37-.24-3.55-.34a.45.45,0,0,1-.4-.27,1.28,1.28,0,0,1-.12-.56q0-10.81,0-21.64a1.1,1.1,0,0,1,.1-.58.84.84,0,0,1,.3-.25,3,3,0,0,0,.65-.61,1.71,1.71,0,0,0,.32-1.08V49.33q-3.36-.31-6.74-.52V50a1.83,1.83,0,0,0,.32,1.12,3.26,3.26,0,0,0,.65.71,1.32,1.32,0,0,1,.32.3,1.08,1.08,0,0,1,.12.6v9a1.42,1.42,0,0,0-1.27,1.43,1.67,1.67,0,0,0,1.27,1.59V78.32q5.34.36,10.65,1l.81.09a.86.86,0,0,0,.64-.19.84.84,0,0,0,.32-.71V67.71l-1.69-.21a3.74,3.74,0,0,0-1.57.1Z"/><path class="cls-4" d="M36,58.42l-.2,0-.07,0h0q-6.18,2-12.27,4.33v1.14a2.3,2.3,0,0,0,.21,1.14.82.82,0,0,0,.6.4.84.84,0,0,1,.35.18.66.66,0,0,1,.15.5v8.91a2.47,2.47,0,0,0-1.21,2,1,1,0,0,0,1.21,1V91.72l1-.37c1.75-.66,3.52-1.29,5.28-1.9l2.26-.77L35,88.12l.7-.22.07,0a1.28,1.28,0,0,0,.29-.14,1.64,1.64,0,0,0,.36-.34,1.22,1.22,0,0,0,.29-.8v-4h0V78.27l-1.64.51a5.17,5.17,0,0,0-1.52.78A1.65,1.65,0,0,0,33,80.93c0,.16,0,4.3-.06,4.47a.67.67,0,0,1-.4.36l-1.49.5L29,87c-.31.11-.46,0-.46-.39V77.43a.76.76,0,0,1,.58-.76c1.54-.55,3.1-1.08,4.65-1.6a.72.72,0,0,0,.58-.74v-2.2c0-.21-.07-.34-.21-.38a.58.58,0,0,0-.41,0q-2.31.77-4.61,1.57c-.39.14-.58,0-.58-.34V64.76a.85.85,0,0,1,.17-.48.77.77,0,0,1,.37-.3c1.23-.44,2.47-.87,3.71-1.28a.24.24,0,0,1,.14.09c.09.11.06,4.27.06,4.43,0,.6.19.93.58,1A3.74,3.74,0,0,0,35.06,68l1.64-.51V63.19h0V59a.6.6,0,0,0-.27-.51.65.65,0,0,0-.47-.09Z"/><path class="cls-4" d="M141.5,52.49l-.19-.07h-.08c-4.21-.83-8.45-1.53-12.69-2.1v1.15a2.92,2.92,0,0,0,.22,1.25,1.72,1.72,0,0,0,.62.71,1.81,1.81,0,0,1,.36.37.9.9,0,0,1,.16.57v8.92a1.3,1.3,0,0,0-1.27,1.33,1.84,1.84,0,0,0,1.27,1.68V79.92l1,.15q2.75.41,5.49.88l2.32.41,1.76.33.72.14.08,0a.88.88,0,0,0,.28,0,.76.76,0,0,0,.68-.8V72.73c-.56-.12-1.12-.22-1.68-.33a3.58,3.58,0,0,0-1.56,0c-.4.11-.6.46-.6,1.07,0,.15,0,4.31-.06,4.44A.37.37,0,0,1,138,78l-1.52-.27-2.12-.35a.55.55,0,0,1-.48-.63V67.61c0-.36.2-.52.6-.45,1.6.26,3.21.54,4.81.84.39.07.59-.07.59-.44v-2.2a.61.61,0,0,0-.22-.5.83.83,0,0,0-.42-.21c-1.58-.3-3.17-.57-4.76-.83a.62.62,0,0,1-.6-.65V55a.48.48,0,0,1,.18-.39.46.46,0,0,1,.38-.11c1.28.21,2.56.42,3.84.66a.56.56,0,0,1,.14.16c.1.16.06,4.31.06,4.46A1.4,1.4,0,0,0,139,61a4.78,4.78,0,0,0,1.56.58l1.68.33V53.48a1.08,1.08,0,0,0-.28-.65,1.23,1.23,0,0,0-.49-.34Z"/><path class="cls-4" d="M67.19,145.23l1.41,1.35c.36.35.87.83,1.45.22a.88.88,0,0,0,.29-.68c0-.29-.19-.45-.66-.91L68.4,144l-1.21,1.25Zm.85-3.12,2.8,2.7a2.29,2.29,0,0,1,1,1.95,2.11,2.11,0,0,1-.61,1.13,1.93,1.93,0,0,1-1.2.64,2.47,2.47,0,0,1-2-1L66.43,146l-1.65,1.71-1.12-1.08L68,142.11Z"/><polygon class="cls-4" points="75.5 148.66 80.53 151.68 79.95 152.65 76.27 150.45 75.54 151.66 79.1 153.8 78.53 154.75 74.97 152.62 74.19 153.91 78.02 156.21 77.45 157.17 72.26 154.06 75.5 148.66 75.5 148.66"/><polygon class="cls-4" points="84.28 153.32 85.78 153.82 84.15 158.69 87.46 159.8 87.1 160.9 82.28 159.29 84.28 153.32 84.28 153.32"/><polygon class="cls-4" points="92.93 155.67 94.49 155.91 93.54 162.13 91.98 161.9 92.93 155.67 92.93 155.67"/><path class="cls-4" d="M106.26,160.23a2.64,2.64,0,0,1-.76,1.4,4,4,0,0,1-2.91,1.11c-2.24.1-3.84-1-3.93-3.2-.1-2.37,1.75-3.42,3.73-3.5.73,0,2.8,0,3.7,1.81l-1.72.28a2.07,2.07,0,0,0-1.93-.93,2.11,2.11,0,0,0-2.14,2.28,2.17,2.17,0,0,0,2.36,2.1,2,2,0,0,0,1.94-1.27l1.66-.08Z"/><path class="cls-4" d="M113.37,156.31a1.68,1.68,0,0,1-.18-.21,2.42,2.42,0,0,1-.12-.23v.24c0,.08,0,.17,0,.26l-.32,2.28,2.12-.63-1.48-1.71Zm-1.51-1.57,1.63-.49,4.71,5.18-1.7.5-.85-1-3.09.92-.18,1.29-1.65.49,1.13-6.9Z"/><path class="cls-4" d="M119.59,151.94l1.35-.81,4.45,1.42,1.24.45c-.35-.49-.43-.63-.72-1.09l-1.65-2.76,1.29-.78,3.24,5.41-1.34.8-4.51-1.44c-.48-.17-.67-.23-1.2-.44a10.55,10.55,0,0,1,.59.89l1.78,3-1.28.77-3.24-5.4Z"/><path class="cls-4" d="M132.55,148.13a2.17,2.17,0,0,0,2.21-.76c.28-.26,1.1-1.15.57-1.7-.32-.33-.71-.1-1,.09s-1.28.9-1.53,1.07c-.49.33-1.74,1.14-2.73.12a1.66,1.66,0,0,1-.44-.81,3,3,0,0,1,1.18-2.64,4.44,4.44,0,0,1,2-1.23,2.59,2.59,0,0,1,1.45,0l-.81,1.31a1.19,1.19,0,0,0-.76,0,3.11,3.11,0,0,0-1.08.7c-.5.49-.92,1.08-.5,1.51s.62.12,1-.13c.22-.15,1.29-.89,1.55-1.05.62-.41,1.69-1.08,2.66-.09,1.41,1.46-.28,3.19-.84,3.74a3.57,3.57,0,0,1-3.72,1.12l.77-1.27Z"/><path class="cls-4" d="M93,117.94s-22.57-7.56-12.77-31.59c0,0-23.86,1-56.56,14.19,0,0-2.3.95-3.64,1.43a7.58,7.58,0,0,1-6.57-.15A205,205,0,0,1,81.82,82.56c5.07-.48,5.73.28,4.4,2.2-1.1,1.56-14.83,19,6.79,33.18Z"/><path class="cls-1" d="M73,93.16c-19.34,2.51-38.26,9.25-38.26,9.25,3.22,5.72,12,3.32,12,3.32,16.38-4.64,23.69-6.21,26-6.66A33.6,33.6,0,0,1,73,93.16Z"/><path class="cls-1" d="M73.1,102.57a206.13,206.13,0,0,0-30.43,8.52S47,116,55.52,113.57c7.18-2,16.4-5,19.14-5.86a22.89,22.89,0,0,1-1.56-5.14Z"/><path class="cls-1" d="M76.1,110.42c-2.92,1-17.51,5.67-23.67,8,0,0,3.53,4.74,13.74.72,7.1-2.8,11-4.43,12.74-5.17a21.56,21.56,0,0,1-2.81-3.59Z"/><path class="cls-1" d="M81.17,116.07c-2.55,1.11-12,5.25-17.5,7.89,0,0,6.9,3.38,15.56-2l5.4-3.54a27.34,27.34,0,0,1-3.46-2.38Z"/><path class="cls-1" d="M87.25,119.83c-1.74,1.08-8.92,5.6-12.43,8.19,0,0,6,2.46,12.06-3.29,2-1.87,3.07-2.93,3.67-3.54-1-.38-2.16-.83-3.3-1.36Z"/><path class="cls-4" d="M107.54,117.94s22.57-7.56,12.76-31.59c0,0,23.87,1,56.57,14.19,0,0,2.3.95,3.63,1.43a7.6,7.6,0,0,0,6.58-.15,205.08,205.08,0,0,0-68.35-19.26c-5.07-.48-5.74.28-4.4,2.2,1.1,1.56,14.82,19-6.79,33.18Z"/><path class="cls-1" d="M127.59,93.16c19.34,2.51,38.25,9.25,38.25,9.25-3.22,5.72-12,3.32-12,3.32-16.39-4.64-23.7-6.21-26-6.66a33.6,33.6,0,0,0-.26-5.91Z"/><path class="cls-1" d="M127.45,102.57a206.13,206.13,0,0,1,30.42,8.52s-4.3,4.9-12.84,2.48c-7.19-2-16.4-5-19.15-5.86a22.9,22.9,0,0,0,1.57-5.14Z"/><path class="cls-1" d="M124.45,110.42c2.91,1,17.51,5.67,23.66,8,0,0-3.53,4.74-13.73.72-7.11-2.8-11-4.43-12.75-5.17a21.6,21.6,0,0,0,2.82-3.59Z"/><path class="cls-1" d="M119.38,116.07c2.55,1.11,12,5.25,17.49,7.89,0,0-6.89,3.38-15.56-2l-5.39-3.54a28.08,28.08,0,0,0,3.46-2.38Z"/><path class="cls-1" d="M113.3,119.83c1.73,1.08,8.92,5.6,12.42,8.19,0,0-6,2.46-12.06-3.29-2-1.87-3.07-2.93-3.67-3.54,1.06-.38,2.17-.83,3.31-1.36Z"/><path class="cls-4" d="M118.75,131.06a18.48,18.48,0,1,1-18.48-18.48,18.48,18.48,0,0,1,18.48,18.48Z"/><path class="cls-1" d="M114.93,134.88a14.66,14.66,0,1,1-14.66-14.65,14.66,14.66,0,0,1,14.66,14.65Z"/><path class="cls-2" d="M110,145.05a5,5,0,0,1-2-2.89c0-.11,0-.22,0-.33a19.55,19.55,0,0,0,9.08-7.78,17.08,17.08,0,0,1-7,11ZM83.5,134a19.47,19.47,0,0,0,9.08,7.79c0,.11,0,.22,0,.34a5,5,0,0,1-2,2.88,17.07,17.07,0,0,1-7-11Zm3.92-14.16c-.76,4.21,1,8.18,2.59,11.81a29.34,29.34,0,0,1,2.52,7.4,17.09,17.09,0,0,1-9-11.26,17.06,17.06,0,0,1,3.88-8Zm18,20.21a16.77,16.77,0,0,1-3.94.77v-26.8a16.94,16.94,0,0,1,7.51,2.38c3.38,4.88,1.48,9.24-.73,14.25-1.33,3-2.69,6.1-2.84,9.4Zm-3.94,3.24a19.86,19.86,0,0,0,4.09-.68,7,7,0,0,0,2.17,3.72,17,17,0,0,1-6.26,1.69v-4.73ZM95,142.65a19.64,19.64,0,0,0,4.09.68v4.73a16.91,16.91,0,0,1-6.26-1.69A7,7,0,0,0,95,142.65Zm-3.42-26.21A16.94,16.94,0,0,1,99,114.06v26.8a17.16,17.16,0,0,1-3.94-.74c-.15-3.31-1.51-6.41-2.84-9.43-2.21-5-4.12-9.37-.73-14.25ZM117,127.85A17.31,17.31,0,0,1,108,139a29.3,29.3,0,0,1,2.51-7.34c1.6-3.63,3.35-7.6,2.58-11.81a17.05,17.05,0,0,1,3.89,8Zm-16.74-16.71a19.92,19.92,0,1,0,19.92,19.92,19.95,19.95,0,0,0-19.92-19.92Z"/><path class="cls-2" d="M106.19,85.28s-.15.62-.53.62a24,24,0,0,1-3.92-1.76l-1.42-.81-1.51.81a24,24,0,0,1-3.92,1.76c-.39,0-.53-.62-.53-.62s-6.28,3.78-6.28,14.25c0,7.79,4.06,11.33,4.06,11.33l.55,2.2h15.17l.55-2.2s4.06-3.54,4.06-11.33c0-10.47-6.28-14.25-6.28-14.25Z"/><path class="cls-4" d="M109.18,96.89a11.27,11.27,0,0,0-2.73-7.44s0,.92-1.6-.11a8,8,0,0,0-9.19,0c-1.49,1-1.56.1-1.56.1a11.22,11.22,0,0,0-2.73,7.44,8.59,8.59,0,0,0,.88,4.38,8.42,8.42,0,0,0,16,.11c.08-.11,1-1.4,1-4.49Z"/><path class="cls-2" d="M103.62,104.19l0,0a2.26,2.26,0,0,1,.57-2.8s3.29.68,3.36-3.67a2.66,2.66,0,0,1,.38-1.38s-.84-.76-2.67.61-2.83,5.28-3.82,4.36-.62-6-1.13-6.18h0c-.51.2-.15,5.27-1.13,6.18s-2-3-3.82-4.36-2.68-.61-2.68-.61A2.54,2.54,0,0,1,93,97.67c.08,4.35,3.37,3.67,3.37,3.67a2.27,2.27,0,0,1,.57,2.81l0,0c-3.92-4.22-6.2-3.64-5.07,1.08s5.34,24.53,6,29.14c-.1,4.15-.57,5.64-.7,6l-.43.85.47,1a14.45,14.45,0,0,1,1.45,2.76l1.62,4.11,1.6-4.1a15,15,0,0,1,1.46-2.77l.49-.9-.45-.9c-.12-.31-.59-1.74-.7-5.74.56-4.14,4.9-24.65,6-29.36s-1.15-5.3-5.08-1.09Z"/><path class="cls-3" d="M97.61,124.94c-1.41-7.41-2.51-12.88-3.41-16.86-.68-3,1.14-1.82,2.12.08l1.29,16.78Z"/><path class="cls-3" d="M102.93,124.94c1.41-7.41,2.52-12.88,3.42-16.86.68-3-1.14-1.82-2.13.08l-1.29,16.78Z"/><path class="cls-3" d="M95.39,99.86a.51.51,0,0,1-.36-.64.44.44,0,0,1,.18-.26,4.34,4.34,0,0,0-.66-.61s-.46,2.14,1.45,1.92c0,0-.07-.19-.21-.47a.51.51,0,0,1-.4.06Z"/><path class="cls-3" d="M106,98.35a3.91,3.91,0,0,0-.66.61.49.49,0,0,1,.18.26.52.52,0,0,1-.76.59,2.78,2.78,0,0,0-.21.46c1.91.22,1.45-1.92,1.45-1.92Z"/><path class="cls-3" d="M101.17,127.69c.61-11.45,1.52-19.55,1.52-20.56a4.71,4.71,0,0,0-.19-1.33l-.67,2.18-.2-3.85a6.85,6.85,0,0,0-1.37-1.28h0a6.15,6.15,0,0,0-1.31,1.28l-.2,3.85-.67-2.18a4.71,4.71,0,0,0-.19,1.33c0,1,.91,9.11,1.51,20.56s-.81,13.56-.81,13.56a23.41,23.41,0,0,1,1.71,3.3,23.41,23.41,0,0,1,1.71-3.3s-1.41-2.13-.81-13.56Z"/></svg>