<svg id="Layer_1" data-name="Layer 1" xmlns="http://www.w3.org/2000/svg" xmlns:xlink="http://www.w3.org/1999/xlink" viewBox="0 0 200 200"><defs><style>.cls-1{fill:none;}.cls-2{clip-path:url(#clip-path);}.cls-3{fill:#fff;}.cls-4{fill:#2d2a26;}.cls-5{fill:#007934;}.cls-6{fill:#993921;}.cls-7{fill:#e69e6c;}.cls-8{fill:#8b6f4b;}</style><clipPath id="clip-path"><rect class="cls-1" x="9.21" width="179.91" height="200"/></clipPath></defs><title>Team_Logos</title><g id="CELT"><g class="cls-2"><path class="cls-3" d="M189.12,94A90,90,0,0,0,108.91,4.61a10.74,10.74,0,0,0-1.6-1.29c-7.21-4.63-13.22-1.19-17.39.84l-1,.52a89,89,0,0,0-22.49,5.6,22.11,22.11,0,0,0-2.9-3.54A23,23,0,0,0,24.21,23,22.82,22.82,0,0,0,29.3,37.45,90,90,0,0,0,64,176.87c-.59,4.76.19,8,1.06,9.31-1.33,1.11-1.88,1.81-2.09,3.06-2.09,2.85,3,6.46,5.07,8.06,4.29,3.28,6.54,2.71,9.88,2.57,4.12-.17,8-5,10.22-8.13,4.45-.63,5.28.07,5.42.62a22.76,22.76,0,0,0,6-1.67c6-2.52,4.31-5.63,3.69-6.18a2,2,0,0,1-.43-.59,89.22,89.22,0,0,0,40.13-11.24,17.92,17.92,0,0,1,1.32,1.68c1.32,1.94,2,8.27,2.29,11.54s.83,5.49,2.43,10.63,2.23,1.4,2.3,0,.35-6.39.14-10-.28-8.83.41-11.05a2.54,2.54,0,0,0-.9-3.2c-.35-.42,0-.56-.91-3.4a4.05,4.05,0,0,1-.12-.5,90.38,90.38,0,0,0,12.9-10.72A89.37,89.37,0,0,0,189.12,94Z"/><path class="cls-4" d="M189.12,94A90,90,0,0,0,108.91,4.61a10.74,10.74,0,0,0-1.6-1.29c-7.21-4.63-13.22-1.19-17.39.84l-1,.52a89,89,0,0,0-22.49,5.6,22.11,22.11,0,0,0-2.9-3.54A23,23,0,0,0,24.21,23,22.82,22.82,0,0,0,29.3,37.45,90,90,0,0,0,64,176.87c-.59,4.76.19,8,1.06,9.31-1.33,1.11-1.88,1.81-2.09,3.06-2.09,2.85,3,6.46,5.07,8.06,4.29,3.28,6.54,2.71,9.88,2.57,4.12-.17,8-5,10.22-8.13,4.45-.63,5.28.07,5.42.62a22.76,22.76,0,0,0,6-1.67c6-2.52,4.31-5.63,3.69-6.18a2,2,0,0,1-.43-.59,89.22,89.22,0,0,0,40.13-11.24,17.92,17.92,0,0,1,1.32,1.68c1.32,1.94,2,8.27,2.29,11.54s.83,5.49,2.43,10.63,2.23,1.4,2.3,0,.35-6.39.14-10-.28-8.83.41-11.05a2.54,2.54,0,0,0-.9-3.2c-.35-.42,0-.56-.91-3.4a4.05,4.05,0,0,1-.12-.5,90.38,90.38,0,0,0,12.9-10.72A89.37,89.37,0,0,0,189.12,94Z"/></g><path class="cls-5" d="M77.9,178A35.84,35.84,0,0,0,88,175.89c.28.07.73.34,1.43.62.27-2.22-1.15-6.85-2-9-.53-1.4-1-2.36-1.67-3.82A33.37,33.37,0,0,1,80,161.67c0,1.32.24,4.76.52,7.06-.7.07-1.67.14-2.85.14.14,2.5.42,7,.28,9.1Z"/><path class="cls-5" d="M140.82,170.6c-.63-.62.76-2.57,1.39-6.18s.69-9.67-2-13.08a12.1,12.1,0,0,1-2.13-3.45,65.75,65.75,0,0,1-27.7,11.68,4.48,4.48,0,0,1-.34.53,25,25,0,0,1-6.4,5.71,37.22,37.22,0,0,1-5.84,2.36c-.28,2.22-.64,7.19-.07,8.9.21.62,2.78,2.16,3.69,3.82.09.18.17.35.26.51A86.76,86.76,0,0,0,141,170.77l-.17-.17Z"/><path class="cls-5" d="M161,32.24A86.68,86.68,0,0,0,110.91,7.42a22.18,22.18,0,0,1,1.89,8.63c2.71-1.18,4.79-1.81,5.91-3.62s2.64-1.46,3.61-.14,1,3-1.59,4.59a40.93,40.93,0,0,1-5,2.64c-.56.28-.07.77.56,1.81s2.21,3.62,2.5,9a.86.86,0,0,0,0,.16A66.55,66.55,0,0,1,159,123c.58.29,1.36,2.31,1.62,5a8.82,8.82,0,0,1-.34,3.9,39.17,39.17,0,0,1-5.36,7.37,2,2,0,0,1-2.71-.42c-.62-.9-.69-.42-1.18.07s-2.16,2.92-2.57,3.54-1.81,1.26-.91,3.76,1.95,4.38,1.6,5.77-.48,1.81,1.39,3.41,1.81,3.54,1,4.79a14.59,14.59,0,0,0-1.67,5A87.36,87.36,0,0,0,161,32.24Z"/><path class="cls-5" d="M60.58,158.57c-.24-2.35-.6-6.61,1.05-9.64a67.33,67.33,0,0,1-9.47-7.88,66.4,66.4,0,0,1,1.39-95.3A4.51,4.51,0,0,1,54,45a23,23,0,0,1-23-5.67A87.5,87.5,0,0,0,64.41,174.28a40.71,40.71,0,0,1,1.81-6.11c.76-2-.42-6.67-2.37-9.11a19.35,19.35,0,0,0-3.27-.49Z"/><path class="cls-5" d="M83.76,8a85.9,85.9,0,0,0-16.08,4.47A23.06,23.06,0,0,1,65.8,36.59,66.09,66.09,0,0,1,81.28,30c.35-.35.71-.68,1.07-1-2-3.34-4.73-8.69-2.37-15.92A11.77,11.77,0,0,1,83.76,8Z"/><path class="cls-3" d="M118.71,34.33a5.91,5.91,0,0,1,3.27,7c-.35,1.6-1.69,3.14-1.81,3.76-.21,1-2.4,2.81-3.09,4.2a4.58,4.58,0,0,0-.6,3.15v0a18.31,18.31,0,0,0,5,2.92c1.09.38,1,.67.55,1.39.77.07,1.16.54,1.88,1.39s2.78.35,4-.28a3.12,3.12,0,0,1,4.11.7,25.54,25.54,0,0,1,4,7,35.38,35.38,0,0,0,2.16,5.21c.27.42-1,8.07-1.33,11.13s-.62,4.38-.69,4.87,2-1.74,2,.9a103.51,103.51,0,0,0,2.17,13.87c.29,1.27.59,2.43.88,3.37.84.14,1.53,1.81,2,4.38s1.53,4.17,1.6,5.42.42,1.46.83,1.67.28.84-1,2.29a11.66,11.66,0,0,1,1,.91c.35-.35,1.32-1.46,1.32-1.46s3.83,1.53,4.66,1.81,1.83-1.78,4.31-.7a5.41,5.41,0,0,1,2,2.17,65,65,0,0,0-39.22-89.33c0,1-.08,1.86-.08,2.2Z"/><path class="cls-3" d="M138.8,143.7c-1-.49-1.61.21-2.09-3.62a6.69,6.69,0,0,0-1.73-3.26,3.21,3.21,0,0,1-.42-3.14,13.32,13.32,0,0,0,.63-4.72,3.69,3.69,0,0,1,2.15-4,6.07,6.07,0,0,1-1.25-2.5c-2.85-.94-3.42-1-4-2.4a36.68,36.68,0,0,1-1.86-7.54,20.45,20.45,0,0,1-.26-2.5c-.91-1.73-2.94-5.57-4.51-8.45-.57-1.08-1.09-2-1.47-2.68-1.39-2.43,0-5.63.7-7.51s1.25-3.54.62-5.42a15.58,15.58,0,0,1-.76-3.06c-.14-.76-.77-1.74-1.6.91s-2.43,6.53-3.34,10.56a27.45,27.45,0,0,0-.75,7.2,13.57,13.57,0,0,0,1.24,5.25c1.81,3.75,4,7.23,3.68,9.31a6.38,6.38,0,0,1-.76,2.51,73.84,73.84,0,0,1-3,14c-.9,2.23-4.45,10.29-5.22,13.7a88.14,88.14,0,0,1-3.56,11.51,64.76,64.76,0,0,0,28-12.72c.24-.59.19-1.13-.41-1.43Z"/><path class="cls-3" d="M61.53,52.46a9,9,0,0,0,3.09,2.59c3.4,1.74,4.1,3,4.1,6s.56,9.11,1.53,10.15a10.91,10.91,0,0,0,1.46-1.81,20,20,0,0,0,6.05,7.23c.21.15.11.91.62,1.05,1.05.27,7.79,1.32,8,2.71a25.49,25.49,0,0,0,4-6,35.31,35.31,0,0,1,4.66-7,7.2,7.2,0,0,1,.07-1.53,9,9,0,0,1-2.37,1.95c-1.11.48-5,2.15-7.78,3.54-1,.49-2.71,1-3.41-4s0-7.72.49-8.9,1.39-2.23,3.13-1.74a49.17,49.17,0,0,0,5.28,1.53c.14-.56.63-1.6-1.25-1.81a10.68,10.68,0,0,1-6.79-3.84A7.19,7.19,0,0,1,81,48.31c-4,.62-13.08,1.81-15.09,2.29s-3.73.9-4.38-3.68c-.28-2-.77-4.66.63-3.69a6.47,6.47,0,0,1,5.35-1.39,2,2,0,0,1,1.3.88,6.53,6.53,0,0,1-.47,2.81c-.6,1.86-1.77,3.19,2,2.33,4-.92,9-1.67,10.32-2a11.38,11.38,0,0,1,2.61-5,6.12,6.12,0,0,0,1.6-3.27c.07-.49-.39-.6-1,0s-3.06,2.09-5.22,1.53c-.83-.22-1.88-1.81-2.43-2.71a23.63,23.63,0,0,1,3-4.27,64.27,64.27,0,0,0-20.5,11,16.94,16.94,0,0,0,.57,4.54,13.14,13.14,0,0,0,2.2,4.71Z"/><path class="cls-3" d="M66.36,147.45c2.85-1.11,5.09-1.06,7.3,1.88.62.83,1.11,3.27,6.46,1.11C77.27,147,75.56,143,74,137.58c-2.47-8.56-8-18.29-6-22.74-1.18-1.11-2.57-5.42-4-4.93-1,.32-2.36.34-1.25-2.92a20,20,0,0,1,2.89-5.39,48.81,48.81,0,0,1,9.76-9.49c.42-.35.49-.63.21-.91a8.34,8.34,0,0,0-1.46-1.32,1.1,1.1,0,0,0-1.39.28,10.49,10.49,0,0,1-1.53,1.18c-.41.28-3.75-3-5.49-5.35a10.3,10.3,0,0,0-4.1-3.41c.69-.76,2.26-2.42,1.67-2.22A4.27,4.27,0,0,1,58.57,79c-2.3-2.43-1.39-3.69-1.88-4s-3,.2-4.86-2.72S49.2,68,50.71,66a3.09,3.09,0,0,0,.84-2.85c-.21-1.33,0-2.16,1.74-3.83s2.78-3.2,3.54-3.06-1.15-2.1-2.21-3.77A9.08,9.08,0,0,1,54,51.3a10.83,10.83,0,0,1-.81-3.08A64.92,64.92,0,0,0,53.24,140a66.84,66.84,0,0,0,9.26,7.7,2.61,2.61,0,0,1,3.86-.22Z"/><path class="cls-6" d="M29.41,10.33c5.7,1.46,10,6.07,11.85,8.64.48.65,1,.55,1.18.07a23.16,23.16,0,0,0,1.25-7c0-5.83.8-8.15,2.26-10.86a21.8,21.8,0,0,0-16.54,9.11Z"/><path class="cls-6" d="M26,28.22c10.7,1,14-5,14.73-5.92s-.14-1.46-.49-1.94c-1.85-2.59-6-7.18-11.69-8.64A21.84,21.84,0,0,0,26,28.22Z"/><path class="cls-6" d="M68.45,27.8c-4.52-1.88-9.88-.14-13.71,3.2S49,36.9,47.65,44.82h-.48a21.7,21.7,0,0,1-14.69-5.7c6.54-1.67,12.05-4.66,18.23-10.5A36.92,36.92,0,0,0,60.79,12.78c.84-3.2-.34-1.32-1,.14a45.77,45.77,0,0,1-10.5,14.25C43,33.08,38.13,36,31.53,38.22a21.69,21.69,0,0,1-5-8.06c2.22.14,9.23-.67,12.74-3.54,4.61-3.79,5.15-8.28,5.77-14.68s1.57-8.29,3.09-10.73A21.82,21.82,0,0,1,69,23a21.57,21.57,0,0,1-.53,4.79Z"/><path class="cls-6" d="M67.85,30c-1-1.46-4.77-2.16-10.67,1.53-.56.35-.94.59-.28,1.25a21.63,21.63,0,0,1,4.45,6.82,21.84,21.84,0,0,0,6.5-9.6Z"/><path class="cls-6" d="M59.61,40.94a30.46,30.46,0,0,0-3.47-6.82c-.64-.82-.77-1.18-2-.13-3.29,2.9-4.56,7.29-5.25,10.77a21.77,21.77,0,0,0,10.67-3.82Z"/><path class="cls-7" d="M53.63,65.34c-.9-.28-1.6.76-2,1.6s-.91,1.74.41,3.62,2.15,3,4.45,2.85A3.65,3.65,0,0,0,58.92,72c.34-.49.41.34-.14,1.18a3.79,3.79,0,0,0,.07,4.1c1,1.32,3.2,2.43,6.05.77a11.44,11.44,0,0,0,4.51-4.59c.49-.91.49-1.32,0-1.88S67.33,68.4,67,63.19c-.21-3.13.35-5.15-1.6-6.26S59,53.18,58.43,48c-.21-2-.07-4.94-2-3.34a5.08,5.08,0,0,0-2.15,3.89c-.21,1.19.76,2.79,1.6,3.9s1.8,3.54,2.57,4.17,1.25,1.11,1.88,1.18a33.79,33.79,0,0,1,3.75.28c.63.21,1,1-.55,1a42.41,42.41,0,0,0-4.94.55c-1,.14-2,.21-2.5,2.29s-1.19,4.52-1.26,5.29-.48,1.18-.48,1.6.83,2.43,2.71.41a14,14,0,0,0,3-5c.35-1,.76-.84.42.69s-.45,5.36.27,6.68,2.38,2.88,4.39,1.88A3.3,3.3,0,0,1,66.77,73c.56.07-.1,1-.59,1.46s-2.08,2.19-4.9-.35a6.39,6.39,0,0,1-1.88-3.75.65.65,0,0,0-1.18-.28c-.35.49-2.22,2.22-3.54,1s-1.87-1.94-1.12-4.59c.14-.48.41-1,.07-1.11Z"/><path class="cls-7" d="M55,61.45c-.3.9-.55,2.08-.69,2.5s-.77,1.32-1.32.14a2.35,2.35,0,0,1,.34-3c.28-.28.7-.83,1-.56s.76.7.69.91Z"/><path class="cls-7" d="M58.15,58.25c-.57.29-1.79.28-2.22,1.25-.28.63-1.39-.07-.84-.83s1-.7,1.32-.91.49-.83,1.19-.48.83.83.55,1Z"/><path class="cls-7" d="M104,23.83c-2,.21-3.76,1.4-5.56,2.65s-8.34,6.74-9.88,7.85c1.6.84,2,2.51,1.46,5.29-.12.61,0,.83.42.41s2.36-2.5,2.3-4.17a5.08,5.08,0,0,0-1-2.85c-.14-.21.56-1,1.32.7s.56,4.17-1.73,6.88-4.11,2.64-5.08,3.13-1.95,1.25-1,2.71,2.64.9,3.33.42a5.15,5.15,0,0,1,3.9-.84c2.22.21,3-1.2,1.46-2.71-.49-.49-1.74-1.6-.21-1.6.9,0,2,2,2.64,2.57s2,.77,3.89.91,4.8.83,4.8,2.64c0,1.11-.6,1.44-1.39.56-.31-.35-.76.2-1.11.55-1.18,1.19-4.21,4.38-6.36,4.94s-3-.07-5.81-1.6-5.49-3.06-6.25-3.55-2.37-1.6-1.6.63,2.64,4.52,6.39,5.77A26.2,26.2,0,0,1,94,57.21c.83.41.35.83-.77.69-1-.12-2-1-1.18.91s2.09,3.89,5.91,3.4,3.93-1.29,6.33-5.28c.41-.7.83-.21.55,1.6a18.12,18.12,0,0,1,4-1.46,9.26,9.26,0,0,0,5.91-4.8c1-1.81,1.5-2.43,1.33-4.31-.07-.7,1-2.09,2-3.06s3.89-4.66,2.44-7.3-3.9-1.32-5.08.63a13.88,13.88,0,0,0-2.57,7.44,1.75,1.75,0,0,0-2.09.69c-.21.35-3.27-.07-4.31.21s-1.39-.35-.28-1.81,5-6.75,4.8-10.71a6.06,6.06,0,0,1,.28-2.29c.24-1.15.35-1.16-1.08-2-.93-.51-1-1.95-1.15-3.06s-.4-1.18-1.73-.9c-1,.21-2.65-.77-3.41-2Z"/><path class="cls-7" d="M95.83,45.6c-.38.86-1.43,1.7-3.85,1.42-1.22-.14-2.41-.15-2.61.8-.14.66-.69.62-1.46.59s-1.67-.24-1.71,0,3.41,2.33,4.56,2.85,2.82,1.76,4.17,1.63c1.81-.17,3.38-1.07,6-3.89,1.1-1.17,2-1.78.94-2.26a5.33,5.33,0,0,0-2.36-.42c-.94,0-3-.14-3.73-.76Z"/><path class="cls-7" d="M82.87,45.63c-.94,0-1-.73-.42-1.77a8.89,8.89,0,0,1,2-2.64,2.26,2.26,0,0,0,.84,1.25,3.27,3.27,0,0,0-1.16,2.79l-1.31.37Z"/><path class="cls-4" d="M104,41.31a8.21,8.21,0,0,1-4.23-1.25c-1.29-.88-1.72-1.3-1.49-2.6.14-.8.21-1.24.26-1.53s.06-.36.09-.52a1.55,1.55,0,0,0-.11-1.23.5.5,0,0,0-.4-.18,2,2,0,0,0-1.07.52c-.73-.55-1.43-1.17-1.94-1.62a10.32,10.32,0,0,0-.87-.74.64.64,0,0,1-.34-.43.62.62,0,0,1,.23-.47.52.52,0,0,1,.4-.12h.17a.67.67,0,0,0,.51-.17c.15-.18.18-.46.12-.94,0,0,0-.08.36-.08h.52a.83.83,0,0,0,.37-.06.47.47,0,0,0,.23-.34c0-.16,0-.22.29-.22a2.15,2.15,0,0,1,.54.09h.11a.5.5,0,0,0,.42-.31l0-.06a.38.38,0,0,1,.37-.21h.15a4.24,4.24,0,0,1,.5.11,2.35,2.35,0,0,0,.53.09.61.61,0,0,0,.6-.54c.13-.47.22-.61.41-.61a1.61,1.61,0,0,1,.74.3,1.43,1.43,0,0,0,.74.26.61.61,0,0,0,.62-.55s0,0,.09,0a2.35,2.35,0,0,1,1,.36l.18.11a12.48,12.48,0,0,1,3.56,2.94,1.45,1.45,0,0,1,.43.8H108a.68.68,0,0,0-.67.69,1,1,0,0,1-.19.55,1.13,1.13,0,0,1-.12-.2c-.1-.18-.22-.38-.43-.38l-.11,0a.66.66,0,0,1-.08-.17c0-.1-.14-.37-.39-.37a.46.46,0,0,0-.3.12l0,0c0-.1-.14-.36-.39-.36a.74.74,0,0,0-.17,0l0,0a.84.84,0,0,1,0-.1.3.3,0,0,0-.29-.17,1.21,1.21,0,0,0-.31.06,1.05,1.05,0,0,1-.3.07.1.1,0,0,1-.09,0,.34.34,0,0,0-.31-.21.77.77,0,0,0-.35.12.57.57,0,0,1-.25.1s0,0-.11-.07a.42.42,0,0,0-.32-.2c-.16,0-.26.14-.34.24l0,.05c-.08.1-.13.14-.19.14H102a.57.57,0,0,0-.24,0,.45.45,0,0,0-.41.27c-.06.09-.07.09-.09.09a.25.25,0,0,1-.12,0,.6.6,0,0,0-.24-.06c-.28,0-.4.24-.48.4s-.11.21-.16.21h0a1.17,1.17,0,0,0-.29,0c-.39,0-.44.33-.5.69l0,.19a28.64,28.64,0,0,0-.31,3.49c0,.56.76.56,1,.56a17.52,17.52,0,0,0,2.09-.22A15.23,15.23,0,0,0,108.71,35a1.4,1.4,0,0,1,.86-.39.25.25,0,0,1,.16,0,1.8,1.8,0,0,1-.59.87l-.14.12a8.12,8.12,0,0,1-4.09,2,48.84,48.84,0,0,1-5.12.85.38.38,0,0,1-.16,0h-.12a.24.24,0,0,0-.24.16c0,.13,0,.28.2.42a1.29,1.29,0,0,0,.85.31,1.27,1.27,0,0,0,.28,0c.08,0,.33.24.52.41a3.4,3.4,0,0,0,2.22,1.16c1.25,0,3-1.34,3.56-1.75a4.29,4.29,0,0,1,1.09-.55,1.92,1.92,0,0,1-.26.28l-.09.09c-1.14,1.15-2.32,2.33-3.47,2.36Z"/><path class="cls-4" d="M118.71,39.76c-.81.57-1.25.76-1.32,1.73s-.26,2.64-.63,2.78-.41-.9-.55-.55-.8.28-1-.17c-.07-.2-1.8-.18-.42-2.2a8.86,8.86,0,0,1,3.13-3.19c.91-.42,2.44.41.77,1.6Z"/><path class="cls-7" d="M152.74,122.39c-.32-.82.24-2.19,2-1.22s3.06,1.81,1.81,5.63-2.15,6-2.64,7.65-2.36,3.61-1.74.9a24.32,24.32,0,0,0,.69-7.64c-.48-3.06.5-2.88.18-4.28a6.89,6.89,0,0,0-.28-1Z"/><path class="cls-7" d="M159.31,125.69c.5,1.5,1.05,4.94.21,6.33a54.62,54.62,0,0,1-4.38,6.19c-1,1-1.74.55-1.11-.49a11.53,11.53,0,0,0,1.46-2.92,4.64,4.64,0,0,1,.76-2.65,67.28,67.28,0,0,0,2.44-7.36c.13-.42.48.48.62.9Z"/><path class="cls-7" d="M141.37,138.55c-.41-1.25-.62-3.06-1.32-4.1.56-1.53,2.39-5.64,5.5-6.88a.61.61,0,0,0,.41-.77c-.14-.28.42-.48.7.49s.76,3.75.76,3.75c.14.63-.14,1.11-.27,2a12.35,12.35,0,0,0-.28,3.68c.2,1,.55,1.67,2.5,1.26,1-.21.9-.49,1.18-1.33s1-3.19,1.32-4.52a16.67,16.67,0,0,0-.24-5.38c-.28-.84.1-3.65-.1-4.21s-.35-1.39-2.09-1.94-2.22-.7-3.41.48-1.6,1.67-2.15,2.23-1.95.06-.77-1.05,2.3-2.22,2.64-2.57l-.34-.91h-.63a12.88,12.88,0,0,1-6.05,3.34c-.63.13-1.81.21-1,1.33.21.27.27,1,.76.76s1.25-1.53,1.95-1-.14,1.88-1,2.5a23.63,23.63,0,0,1-2.37,1.6,1.58,1.58,0,0,0-.9,1.81,11.28,11.28,0,0,1-.49,4.66c-.63,1.52-.28,1.94.28,3s1.46,1.95,1.74,3.62.42,2.08,1.53,1.95a2.33,2.33,0,0,0,2-1.33l.13-2.43Z"/><path class="cls-6" d="M141.79,141.75a7.41,7.41,0,0,0-1.32,3.34c0,1.18-1.18,2.43-1,3s1.67,2,2.57,3.54a14.06,14.06,0,0,1,2.08,7.65A53.49,53.49,0,0,1,142.7,169a1.78,1.78,0,0,0,.55,2.23c1,1,2.71,2.78,3.34,6.88s1,6.26,1.32,6.47.21.55.21,1.32a26.69,26.69,0,0,0,1.18,6c.49.83.42-4.73.35-6.33a100.58,100.58,0,0,1,.34-10.36,4.12,4.12,0,0,0-.41-3.75,8.22,8.22,0,0,1-1.39-7.86c1.25-4,3.27-4,2.64-5.56a11.55,11.55,0,0,0-2.57-3.61c-.84-.91-.17-3.06-.21-4-.07-1.67-1.39-1.95-1.53-3.82s-.28-3.41,1.11-5.29-.48-1.8-1.11-3a7.23,7.23,0,0,1-.42-5.21c.28-1.25.14-1.6-.21-1.74s-1.81-.42-1.81-.42l-2.15,4.31a8.58,8.58,0,0,1,.49,2.93l-.63,3.54Z"/><path class="cls-3" d="M121.7,57.14c-1.71,2.28-4.38,8.06-5.63,11.68S112,81.05,114,86.76s6,2.08,6.88-.08,2.3-5.83,2.72-6.81.62-1.53,1.39.77a67.65,67.65,0,0,1,1.87,8.27,34.52,34.52,0,0,1-1.59,4c-.84,2.16-1.33,3.69-.49,5s4.1,7,5.14,9.38c.63,1.47,1.18,1.74,2.85,1.32a58.56,58.56,0,0,0,6.88-2.36c1.19-.55.63-1.53.28-2.71-.52-1.8-2.64-11.82-2.64-13.14s.36-3-1.39-1.11c-.62.69-1.46,0-1.25-1s2.29-14.53,2.43-16.19c-1.18-2.58-4.65-10.71-5.63-12.17s-1.32-1.53-2.78-.77-4.72,1.94-5.91-.83c-.21-.49-.55-1.6.28-1.74l-.63-.21a6.38,6.38,0,0,0-.69.7Z"/><path class="cls-3" d="M139.91,107.13a35.27,35.27,0,0,1-7.5,2.92c-1.86.28-1.39.76-1,2.15s1.39,5.56,1.95,7,1.32,1.44,2.78,1.39a14.37,14.37,0,0,0,8.69-3.54c-.77-.91-2.1-5.24-2.5-7.09s-.42-4-2.37-2.85Z"/><path class="cls-3" d="M100.07,67a1.9,1.9,0,0,1-1.73,1.11c-1.11,0-2-.34-2.72.63s-4.51,5.63-5.35,8.48c.84,1.74,2,4.87,2.78,7.09,2.72-2.29,11.37-10.74,13-12.37.63-.63.7-1.19-.2-1.81s-4.25-2.71-4.8-3.06-.84-.35-1-.07Z"/><path class="cls-3" d="M78.17,79.25a34.51,34.51,0,0,1-3.33,8.83c.69,1.11,1.25,2.08,2.08,2.43a54,54,0,0,0,6.68-6.05A14.24,14.24,0,0,0,86,80.91c0-.41-.49-.55-1.11-.41s-3.2-.89-5.7-1.39c-.7-.14-.91-.14-1,.14Z"/><path class="cls-3" d="M76.65,77.16c-.77-.15-3.41-3-4.32-4.52s-1-1.39-1.38-.28a21,21,0,0,1-2.58,4.73c-.9,1.18-3.26,4.24-3.89,4.94s0,1,.56,1.53,3.4,4,4,4.79,1.32,2.16,3,.63a18,18,0,0,0,4.59-7.16c.9-2.85,1-4.35,1.73-4.17l0-.6-.21-.34-.42-.35a.68.68,0,0,1-.07.73c-.17.28-.73.14-1.07.07Z"/><path class="cls-3" d="M119.2,13.2c-1.88,2.21-5.64,4.17-12,5.77S94.86,25,92.29,27.17s-9.06,7.46-12.17,8.76c-.83.35-2.61,1.53-.35,1.81,1.67.21,2.85-.76,6.47-3.41a79.63,79.63,0,0,0,9.18-7.23c2.57-2.5,7.23-4.86,12.23-6.26s11.59-3.57,13.49-5.63c.9-1,1-1.46.14-2.29s-1.32-.63-2.08.28Z"/><path class="cls-3" d="M87.28,35.06c-.54.3-.76.63-1.39,2.64s-.55,3.2,0,3.69a1.8,1.8,0,0,0,1.21.38c.21,0,.42.07.39-.52s-.08-3.11,1.8-4.24c.35-.21,0-1.67-1.28-1.46-.42.07,0-.87-.7-.49Z"/><path class="cls-3" d="M65.8,43c1,0,1.6,0,1.53,1.12s-.56,2.64-.63,3.68-.07,1.46.56,1.46-.9.63-1.74.77-2.12.61-2.78-2.93c-.21-1.11-.14-2.85-.28-3.26A8.39,8.39,0,0,1,65.8,43Z"/><path class="cls-3" d="M84.28,46c.26,1.41.64,1.38.36,1.59s-.57-.53-1.7-.35-9.84,1.53-10.47,1.6c-1.94.21-2-.11-.24-.49s8.42-1.59,10.39-2L84.28,46Z"/><path class="cls-3" d="M73.73,152.32c.9.55,3,1.18,6.74-.35s7.79-.49,8.41,2.16.65,6-.48,7.5c-1,1.26-1.88,1.12-3,.77-2-.63-6.68-2.78-8-3.41a14.18,14.18,0,0,0-5.14-1.32,6.54,6.54,0,0,1-.14-4.45c.41-.83.41-1.67.76-1.46s.84.56.84.56Z"/><path class="cls-3" d="M88.33,164.62a3.1,3.1,0,0,1,3.06,2c.41,1.32,3.12,1.67,4.3,1.6s1,.56.91,1.25-.28,2.78-.28,3.62a38.57,38.57,0,0,0,.35,4.31c.14.55-.35.83-1,1.11s-2.92,1-4.37-.07c-.77-.55-1.67-1.32-.77-1.39s-1.11-7.93-1.67-9.32-2.15-3.13-.55-3.13Z"/><path class="cls-3" d="M64.41,148.22c.37.12.56.48.83,1a1,1,0,0,1-.07,1.39c-.76.83-1.66,4.66-1.53,7.37a5.13,5.13,0,0,0-2.08-.21c-.21-1.53-.07-6.33.63-7.86s1.38-1.94,2.22-1.66Z"/><path class="cls-3" d="M64.55,190.63c1.73,1.94,5,4.93,7.44,6a11.41,11.41,0,0,0,6.18,1.18c1.75-.17,1.4.55,0,.76a12.55,12.55,0,0,1-6.67-.9A21.9,21.9,0,0,1,64,191.46c-.48-.7,0-1.46.56-.83Z"/><path class="cls-3" d="M100.77,185.76a38.92,38.92,0,0,1-6.53,2.57,11.43,11.43,0,0,1,.34,2.16c1.53,0,4.48-1.07,6.89-2.58.55-.34.76-.76.55-1.25s-.49-1.25-1.25-.9Z"/><path class="cls-3" d="M84.29,180.06c-.34-.35,1.64-.77,2-.77a15,15,0,0,1,1.71,1.43c.21.21.1.35-.11.49a7.53,7.53,0,0,1-2,.48c-.62-.55-1.49-1.46-1.67-1.63Z"/><path class="cls-3" d="M88,151.14c-.56-.42-.49-.63-.21-1a2.4,2.4,0,0,1,.83-.83c.28-.14.7-.21,1.19.48s3.12,5.08,3.68,6.26,1.25.42,1-.28a22.07,22.07,0,0,0-1-2.22,31.78,31.78,0,0,0,1.53-8.34,15.32,15.32,0,0,0-1-5.57,34,34,0,0,0,7.57-.48c1.61-.49.28-.63-.34-.56a63.49,63.49,0,0,1-8.42-.34c-5.7-.7-11.29-3.91-13.06-6.13-.28-.34-1.95-.2-.56.91s4.94,4.43,10.15,5.35c1.18.21,3.06.56,3.34,4.87a46.74,46.74,0,0,1-.14,7.51c0,.42-.28.55-.63.07a11.46,11.46,0,0,0-2.16-2.43,1.26,1.26,0,0,0-1.59.13,13.33,13.33,0,0,0-1.74,1.67l1.6,1Z"/><path class="cls-3" d="M76.78,164.73a25.83,25.83,0,0,1-4.31,0c-.66-.24-1.08-1-.62-1.32s1.63.1,2.71.1a13.32,13.32,0,0,1,2.5-.1c.28.17.66.1.66,1.42l-.94-.1Z"/><path class="cls-3" d="M69.21,183.81c-.91-.55-1.95-3.13-2.16-8.27a18.86,18.86,0,0,1,1.18-6c.56-1.39-.35-.83-.55-.35a19.94,19.94,0,0,0-1.12,3.9,19.64,19.64,0,0,0,0,6.74c.56,3.13.84,4.1,1,4.66l1.67-.63Z"/><path class="cls-5" d="M101,17.79c.94.1,2,0,2.23-.63s0-1.08-.28-1.22-.45-.1-.31-.73.59-.55.56-1.53-.77-1-1.43-.79-.91.51-1.53,1.35-.35-.56-.24-.8.34-1.83-.51-2.12L98.08,12c-.15.31-.27.67-.4,1-.35.9-.77.22-1.08-.21h0c-.93.52-1.74,1-2.35,1.4l-.21.14a2.87,2.87,0,0,0,1.11,1.49c.45.32.17.91-.38.91s-1.25-.38-2,.45-.24,1.63.42,1.63a1.38,1.38,0,0,1,1.46,1c.24.77.45,1.08,1.35,1.18a1.72,1.72,0,0,0,1.67-1c.25-.41.56-1,.94-.86.57.2.5.8.32,1.43.66-.38,1.32-.74,2-1.09a3,3,0,0,0-.73-1.39c-.31-.31-.21-.45.73-.34Z"/><path class="cls-5" d="M108.77,7.7l-1,.27c.17.79.49,1.81.31,2a8.08,8.08,0,0,1-1.63.48c-.63.18-2.12,1.57-1.36,2.58a5.81,5.81,0,0,1,1.15,2.12,1.34,1.34,0,0,0,2.26.1c.87-1,1.53-2.19,1.74-1.46a9.32,9.32,0,0,1,0,2.89l.55-.11a13.39,13.39,0,0,0-2-8.83Z"/><path class="cls-5" d="M89.68,26.37c-.48-.38-.62-1,0-1.14a19.49,19.49,0,0,0,2.85-.94c1.46-.63.69-1.71,0-2s-.73-.9-.66-1.56-.1-1.63-1.39-1.15-.83,1.74-1.22,2.16-.58.28-.52-.35a1.24,1.24,0,0,0-.8-1.18A4.18,4.18,0,0,0,86.71,20a25.77,25.77,0,0,0-3.47,3.7,2.19,2.19,0,0,0,1,1A1,1,0,0,1,85,25.68c0,.58-1.35.62-2.22.64a10.8,10.8,0,0,0,2.11,3.79c.19-.06.45-.15.81-.3,1.07-.45,1.42-2.08,1.6-2.57s.62-.38.94.24a3.43,3.43,0,0,1,.33,1.24c.61-.61,1.2-1.18,1.79-1.73-.18-.17-.4-.38-.7-.62Z"/><path class="cls-5" d="M108.14,67.91c.21,0-.35-2.5.11-2.6s.65,1.35,1.63,1.18,1.21-1.15,1.08-2.23.48-.48,1-1.25-.56-1.8-1.74-1.08-1-.24-.35-.62S110,59.54,108.7,60c-1,.33-1.44-.29-1.9-.56l-1,.44a2,2,0,0,0,.06,1c.1.45.32,1.6-.41,1.11s-1.5-.66-1.74.14.24.87.17,1.36-1.32.59-.73,1.6,1.46.45,2.05.07,1.15.07.94.59a10.52,10.52,0,0,0-.51,2.68l.87.59a3.58,3.58,0,0,1,1.69-1Z"/><path class="cls-5" d="M89.2,65.52c.51-.14,1.52.93,2.43.31s-.38-1.25-.21-1.78.59-1.52,0-2-1.29,0-2,.7-.42-.67-.07-1.26c.45-.76,0-1.28-.77-1.42s-1,.94-1.53.45c-.82-.77-2.12-.45-1.8.62s.66,1.43,0,1.57-1.29-1.6-2-.21.45,1.81.34,2.85.32,2.16.94,2.26,1.29-.59,1.63-1,1.19-.73,1.08.07c-.07.55-.11,1.7-.13,2.36,1.28-.62,2.65-1.27,3.4-1.52l.09,0a7,7,0,0,1-1.31-.69c-.69-.49-.58-1.12-.06-1.25Z"/><path class="cls-5" d="M73.8,97.18c1.59-.48,1.66.77,1.45,1.81a23.58,23.58,0,0,0-.13,4.38l2.64.14a24.88,24.88,0,0,1,.07-3.89c.07-1.18,1.25-3,1.67-1.18s2.22,1.87,3.47,1.11,2.16-2.43,3.48-4.8S86,91.76,85,91.9s-2.09.28.28-1.67c2.2-1.81-1.5-2.72-3.2-3.06-2.81,2.94-6.25,6.28-9.32,8.9l-1.11,1a2.65,2.65,0,0,0,2.16.14Z"/><path class="cls-5" d="M71,114.71c1.32-.42,2.16,2.43,4.11.76s.55-3.06.48-4.45,1.53-2,1.05-3.69c-.75-2.64-3.2-.13-4.73,1.32s-1.6.28-.07-2.08-1-3.13-2.5-2.5a3.24,3.24,0,0,1-3.41-.7,27.93,27.93,0,0,0-1.46,2.71c-1.32,2.72-.42,2.78.56,2.78s3,4.11,3.33,4.87a26.09,26.09,0,0,0,1.76,2.65,1.42,1.42,0,0,1,.88-1.67Z"/><path class="cls-5" d="M109,87.31c-1.25-.28-2.87-.49-3.05,2.09-.07,1,.9,1.74,1.8,2.08s.77,1-.21.63-1.73-.56-2.43,1.46.56,2.29,1.18,2.43,1.11.28,1,1.12-.56,3.26,1,3.47,3-1.74,3.48-2.71,1-1.95,1.18-.83a4.62,4.62,0,0,1-.63,2.91c-.55,1.26-.55,1.81.28,1.74s2.22,0,2.64-1a14.55,14.55,0,0,0,1.12-4.17c0-.83.76-.92,1.3-.87.16-1.41.37-2.79.57-4-2.73.41-5.05-2.92-5.86-5.81A3.89,3.89,0,0,1,109,87.31Z"/><path class="cls-5" d="M96,86.83c-.48.83-1.87,3.19-1.25,4s1.32-.77,1.88-.21,1.81,1.18,1.81.76A18.34,18.34,0,0,1,98.82,89c.21-1.11.7-1.74,1.19-.83a2.26,2.26,0,0,0,2.91,1.25c1.74-.42,1.53-2.23,1.19-3.55s.9-1.94,1.53-2.29,2.22-1.6,1-2.71-2.23.48-3.27.69-.62-.69,1.53-2.36c1.86-1.44.31-2.88-.83-3.38-3,3-8.29,7.9-9.46,9a6.48,6.48,0,0,0-1.11,1.43c2.8-1.3,3-.21,2.5.59Z"/><path class="cls-5" d="M113.29,114.77c.9.84,3.06,2,4.58.63s-.34-2.92-.55-4,1.11-1.81.42-3.62c-1.21-3.14-3,.63-4,1.67s-.87-.73.07-1.67c.49-.48,2.65-1.8,1.39-3.27s-3.06-.62-4,0-1.6,1.4-3,1-2.57-.56-3.41,1.46.77,1.46,2.09,2.92.49,1.53-.56,1.18-1.53-1.67-3.06-1.46-1.53,2.64-1,3.27,1.46,1,.77,2.15.34,2.58,1.59,3.13,3.13-1.67,3.83-2.57,1.39-.7,1.25,0a24,24,0,0,0-.49,3.48c1.06-.34,2.11-.65,3.11-.93a13.28,13.28,0,0,0-.46-3c-.42-1.53.55-1.11,1.46-.28Z"/><path class="cls-5" d="M95.21,122.21c-1.67.49-1.95-.28-3.06-.69s-1.18.55-.42,1.74,1.6,2.29.7,2.29-1.6.14-1.74.84-1.6-.14-2-1.6-.69-4.24-1.46-2.86-1.46,3.69-3.4,2.65-.63-2.44-1.6-3.41-1.88-2.22-.91-4,1.81-.28,2.72-.28,1-.84.2-1.46-1.87-3.62,1.95-3.41a6.89,6.89,0,0,0,4.31-1.32c1.25-.9,4.52-.42,3.2,1.88s-.9,2.78-.14,1.95,1.74-2.37,3.2-1.95.83,1.53-.07,2.78a1.62,1.62,0,0,0,.35,2.57c.69.49,2,3.12-1.88,4.24Z"/><path class="cls-5" d="M102.3,105.81a11.93,11.93,0,0,1-2.78-.28c-.14,1.32-1.42,3.21-2.71,5.14-.14.21-.9.21-1.25-.07s-1.32-.76-.56-1.6,2-2.57,1.81-3.33-.77-1.46-1.6-.42-2.16,3.2-3.62,3.27-2.91-1.25-2.22-2.57.9-2-.07-3.21-.61-2.69,1.46-3.61a2.74,2.74,0,0,1,2.5.63c.77.62,1.18,0,.14-.63a3.54,3.54,0,0,1-2-2.78c-.14-1.32.69-2.71,2.5-1.95a3.24,3.24,0,0,0,3.68-.48c.77-.63,4-1.41,3.55,1.46-.35,2.08-1.32,2.15-1.6,3.26s.55.42,1-.41,1.6-4.25,3.89-1.67c.56.62.35,1.67-.34,2.85a2,2,0,0,0,.28,2.5c.41.63,1.38,3.7-2.09,3.9Z"/><polygon class="cls-3" points="159.65 50.51 161.78 49.01 166.38 55.84 169.09 53.92 164.35 47.22 166.41 45.77 171.45 52.84 174.16 50.91 166.68 40.42 154.36 49.15 161.15 58.81 163.86 56.89 159.65 50.51 159.65 50.51"/><polygon class="cls-3" points="168.56 74.25 172.59 72.38 169.81 66.36 179.25 62.42 177.53 58.65 164.21 64.44 168.56 74.25 168.56 74.25"/><polygon class="cls-3" points="170.96 80.62 171.38 84.34 180.32 83.29 180.67 87.16 184.68 86.87 183.56 73.86 179.55 74.16 179.9 79.57 170.96 80.62 170.96 80.62"/><polygon class="cls-3" points="171.41 93.3 171.47 97.73 184.61 97.69 184.56 93.26 171.41 93.3 171.41 93.3"/><path class="cls-3" d="M177.59,104a8.64,8.64,0,0,0-6.65,1.33,6.85,6.85,0,0,0-2.83,4.77,11.4,11.4,0,0,0,.42,5L172,113.9a5,5,0,0,1-.12-3.25,4.23,4.23,0,0,1,5-3.1c2.51.37,3.93,2.67,3.48,5.4a3.8,3.8,0,0,1-2,2.77l2.16,2.59a8,8,0,0,0,3.36-4.67,8.31,8.31,0,0,0-1.27-6.26,7.15,7.15,0,0,0-5.06-3.39Z"/><path class="cls-3" d="M175.17,122.37c-1.83-.48-4.33,1.54-5.54,2.7-.7.67-3.13,3.12-4.25,2.74s-.7-1.87-.35-2.87a6.48,6.48,0,0,1,2.42-3.48l-2.18-1a9.17,9.17,0,0,0-2.72,3.75,10.63,10.63,0,0,0-.55,4.83c.3,1.59.85,2.61,2.65,2.44,1.39-.12,4.87-2.38,6.87-4.28,1-1,1.89-1.06,2.34-.81.73.41.69,1.66.42,2.45-.35,1-.85,2.65-1.69,3.24l3,2a9.39,9.39,0,0,0,2.2-4.76c.86-4.14-1.38-6.66-2.59-7Z"/><path class="cls-3" d="M158.66,35.08a9.63,9.63,0,0,0-2.53-5.37A7.46,7.46,0,0,0,150,28.05a8.47,8.47,0,0,0-5.55,3.44A8.61,8.61,0,0,0,143,38.08a6.86,6.86,0,0,0,3.18,4.55,11.33,11.33,0,0,0,4.71,1.66l.37-3.64a5,5,0,0,1-3-1.24,4.34,4.34,0,0,1-.78-5.82,4.46,4.46,0,0,1,6.38-1,3.8,3.8,0,0,1,1.45,3l3.38-.59Z"/><path class="cls-3" d="M24.16,110.84c.1-1,0-2.81,1.12-3s1.72.79,1.94,1.83c.32,1.51.74,2.68.14,4l2.8-.29a9.1,9.1,0,0,0,0-4.52,6.74,6.74,0,0,0-2.17-4,3.8,3.8,0,0,0-3.9-1c-1.08.23-3,2.16-3.07,6,0,.73-.19,2.14-.85,2.17-.84,0-1.46-1-1.63-1.77a10,10,0,0,1,.5-4.39H16.1a13.91,13.91,0,0,0-.22,5.71c.8,3.78,3.08,5,4.94,4.81s3-2.29,3.34-5.48Z"/><polygon class="cls-3" points="18.3 94.92 28.68 94.78 28.63 91.52 18.25 91.65 18.21 87.23 14.88 87.27 15.02 99.66 18.34 99.62 18.3 94.92 18.3 94.92"/><polygon class="cls-3" points="37.05 62.33 29.03 57.7 29.05 57.66 39.67 57.49 42.2 53.58 29.12 46.03 27.15 49.11 36.07 54.72 23.9 55.06 22.2 58.34 35.07 65.82 37.05 62.33 37.05 62.33"/><path class="cls-3" d="M24.07,69.91a4.19,4.19,0,1,1-4.19,4.19,4.18,4.18,0,0,1,4.19-4.19Zm0,12.22a8,8,0,1,0-8-8,8,8,0,0,0,8,8Z"/><path class="cls-3" d="M29.25,131.16A4.19,4.19,0,1,1,33.43,127a4.19,4.19,0,0,1-4.18,4.19Zm8-4.19a8,8,0,1,0-8,8,8,8,0,0,0,8-8Z"/><path class="cls-3" d="M44.34,145.71l-.28-.33c-.88-1.07-3.88-4.24-2.64-5.4s4,2.55,4.78,3.52l.34.41-2.2,1.8Zm-4.94,4.46c-1.06-1.27-4.22-3.76-2.87-5s4.46,2.66,4.85,3.14l-2,1.9Zm-.49-14a4.55,4.55,0,0,0-.66,5.45c-1.27-.62-3.82-.83-5,.19-2.89,2.51.62,6.14,3.5,9l4,4L51.44,146l-4.33-5c-1.51-1.9-5.7-7-8.2-4.77Z"/><path class="cls-8" d="M86.41,177.69c.46-.2,1.08-.48,1.36-.27s1.94,1.39,3,2.29,1.39,1.18.56,1.67-1.61,1-1.46.55a1.42,1.42,0,0,0-.21-1.59c-.56-.56-1.92-1.61-2.51-2.09-.38-.31-.73-.56-.73-.56Z"/><path class="cls-8" d="M82.49,178.84a.82.82,0,0,0,0,1.25c.41.42,2.74,2.37,3.12,2.75a1.65,1.65,0,0,0,1.57.38c.62-.14-.73.77-1.25.87a1.77,1.77,0,0,1-1.67-.42L80,179.61c-.63-.59.17-.59.73-.66s1,0,1.81-.11Z"/><path class="cls-8" d="M78.59,161c.21.64.28,1.22-.69,1.08s-5.08-.52-6.26-.52c-.28,0-.17-.69-.59-.42s-.24.9-.24,1.6-.06,1.12,0,1.6c0,.73.49,1.74,2.36,1.84a9.07,9.07,0,0,0,4.21-.48c.56-.39,0-1-.56-1a25.83,25.83,0,0,1-4.31,0c-.66-.24-1.08-1-.62-1.32s1.63.1,2.71.1a13.32,13.32,0,0,1,2.5-.1c.28.17.66.1.66,1.42,0,.28.66.39,1,.39s.45.52.41,1.21,0,.84-1.21.84-6.64-.07-7.44-.07c-.31,0-.35-.25-.38-.87s-.25-5-.32-5.32.84-.38,1.57-.24a21.35,21.35,0,0,0,2.81.34c1.18.07,3,.25,3,.25s.91.1,1-.18.38-.34.45-.14Z"/><path class="cls-8" d="M97.68,13.06c.13-.34.24-.71.38-1l-1.45.78c.3.44.72,1.13,1.07.23Z"/><path class="cls-8" d="M110.23,13.75c-.21-.73-.87.42-1.74,1.46a1.34,1.34,0,0,1-2.26-.1A5.81,5.81,0,0,0,105.08,13c-.76-1,.73-2.4,1.36-2.58a8.08,8.08,0,0,0,1.63-.48c.18-.15-.14-1.17-.31-2a53.29,53.29,0,0,0-8.23,3.34c.82.31.57,1.9.48,2.13s-.38,1.63.24.8.87-1.15,1.53-1.35,1.39-.18,1.43.79-.42.91-.56,1.53,0,.59.31.73.52.56.28,1.22-1.29.73-2.23.63-1,0-.73.34a3,3,0,0,1,.72,1.4,38.53,38.53,0,0,1,9.24-2.89,9.61,9.61,0,0,0,0-2.89Z"/><path class="cls-8" d="M88.26,27.48c-.32-.62-.77-.73-.94-.24s-.53,2.12-1.6,2.57a5.58,5.58,0,0,1-.82.29,7.49,7.49,0,0,0,1.27,1.1c.85-.89,1.65-1.71,2.41-2.48a3.4,3.4,0,0,0-.32-1.24Z"/><path class="cls-8" d="M98.65,19.18c-.38-.14-.69.45-.94.86a1.72,1.72,0,0,1-1.67,1c-.9-.1-1.11-.41-1.35-1.18a1.38,1.38,0,0,0-1.46-1c-.66,0-1.12-.8-.42-1.63s1.39-.45,2-.45.83-.59.38-.91a3.11,3.11,0,0,1-1.1-1.5,63.74,63.74,0,0,0-7.31,5.55,4.25,4.25,0,0,1,1.21.3,1.24,1.24,0,0,1,.8,1.18c-.06.63.14.77.52.35s-.06-1.67,1.22-2.16,1.46.49,1.39,1.15,0,1.29.66,1.56,1.43,1.36,0,2a19.49,19.49,0,0,1-2.85.94c-.59.17-.45.76,0,1.14a6.33,6.33,0,0,1,.68.64,43.62,43.62,0,0,1,5.55-4.43c1.07-.72,2-1.37,3.07-2,.17-.63.23-1.23-.33-1.43Z"/><path class="cls-8" d="M85,25.68a1,1,0,0,0-.83-1.05,2.26,2.26,0,0,1-.94-1,10.81,10.81,0,0,0-.9,1.38c.15.47.3.9.45,1.3.87,0,2.19-.06,2.22-.64Z"/><path class="cls-8" d="M114.4,58.11a18.6,18.6,0,0,0-7.58,1.32c.46.27.94.88,1.88.56,1.32-.45,1.77.94,1.14,1.32s-.83,1.35.35.62,2.22.32,1.74,1.08-1.11.18-1,1.25-.11,2-1.08,2.23-1.18-1.29-1.63-1.18.1,2.57-.11,2.6A3.61,3.61,0,0,0,106.46,69l.08.06c3.83,2.74,4.8,1.25,5.36-.07a49.2,49.2,0,0,0,2.15-7.3,12.52,12.52,0,0,0,.35-3.55Z"/><path class="cls-8" d="M106.09,65.69c.21-.52-.35-1-.94-.59s-1.46.94-2.05-.07.66-1.11.73-1.6-.42-.56-.17-1.36,1.1-.56,1.74-.14.51-.66.41-1.11a2.41,2.41,0,0,1-.07-.94A19.83,19.83,0,0,0,103.55,61c-3.57,2.19-3.68,4-2.85,4.73s2.28.91,4.88,2.61a10.61,10.61,0,0,1,.51-2.68Z"/><path class="cls-8" d="M94.72,63.6a9.8,9.8,0,0,1-3.89-4.24s.07-.27-.35-.27A16,16,0,0,1,86,58c-2.57-.9-2.92-.35-3.26.77a25.52,25.52,0,0,0-.7,6.46c-.07,3.34,1.39,5.42,2.29,5.08.44-.17,1.58-.74,2.8-1.33,0-.66,0-1.81.12-2.36.11-.8-.73-.48-1.08-.07s-1,1.12-1.63,1-1-1.21-.94-2.26-1.11-1.46-.34-2.85,1.39.35,2,.21.31-.49,0-1.57,1-1.39,1.8-.62c.53.49.77-.59,1.53-.45s1.22.66.77,1.42c-.35.59-.59,2,.07,1.26s1.32-1.19,2-.7.2,1.49,0,2,1.11,1.15.21,1.78-1.92-.45-2.43-.31-.63.76.06,1.25a7.32,7.32,0,0,0,1.28.7,21.52,21.52,0,0,0,3.7-1.78l.9.07c.07-1.18,0-2-.42-2.16Z"/><path class="cls-8" d="M89.58,78.9c-.56-1.25-.75-.29-2.3,2.15a50.66,50.66,0,0,1-5.22,6.12c1.71.35,5.4,1.26,3.21,3.06C82.9,92.18,84,92,85,91.9s2.78.49,1.46,2.85-2.23,4-3.48,4.8-3.06.69-3.47-1.11-1.6,0-1.67,1.18a24.88,24.88,0,0,0-.07,3.89l-2.64-.14A23.58,23.58,0,0,1,75.25,99c.21-1,.14-2.29-1.45-1.81A2.64,2.64,0,0,1,71.66,97a29.58,29.58,0,0,0-5.73,6.36,3.26,3.26,0,0,0,3.42.69c1.52-.63,4,.14,2.5,2.5s-1.46,3.55.07,2.08,4-4,4.73-1.32c.48,1.74-1.12,2.3-1.05,3.69s1.46,2.78-.48,4.45-2.79-1.18-4.11-.76a1.44,1.44,0,0,0-.91,1.63c1.73,2.45,4.25,5.91,5.15,7.4,1.4,2.3,1.4,5.08,2,4.66s1.88-1.67,2.3-2a1.39,1.39,0,0,0,.62-1.54,29.15,29.15,0,0,1-.76-7.71,25.11,25.11,0,0,1,2.92-8.9c1.07-2,4.31-8.28,5.07-9.94s2.16-3.62,2.51-5.15,1.66-5.07,2.22-6.74a30.87,30.87,0,0,0-2.5-7.51Z"/><path class="cls-8" d="M100,63.39c-.42,1.12-1,2.51-1.26,3.2s-1.55.43-1.46-.07c.21-1-1.27-.35-1.11-1.18s-.14-1.81.63-1.81,2.22-.14,3.2-.14Z"/><path class="cls-8" d="M97.68,13.06c.13-.34.24-.71.38-1l-1.45.78c.3.44.72,1.13,1.07.23Z"/><path class="cls-8" d="M102.3,105.81a11.93,11.93,0,0,1-2.78-.28c-.14,1.32-1.42,3.21-2.71,5.14-.14.21-.9.21-1.25-.07s-1.32-.76-.56-1.6,2-2.57,1.81-3.33-.77-1.46-1.6-.42-2.16,3.2-3.62,3.27-2.91-1.25-2.22-2.57.9-2-.07-3.21-.61-2.69,1.46-3.61a2.74,2.74,0,0,1,2.5.63c.77.62,1.18,0,.14-.63a3.54,3.54,0,0,1-2-2.78c-.14-1.32.69-2.71,2.5-1.95a3.24,3.24,0,0,0,3.68-.48c.77-.63,4-1.41,3.55,1.46-.35,2.08-1.32,2.15-1.6,3.26s.55.42,1-.41,1.6-4.25,3.89-1.67c.56.62.35,1.67-.34,2.85a2,2,0,0,0,.28,2.5c.41.63,1.38,3.7-2.09,3.9Zm-7.09,16.4c-1.67.49-1.95-.28-3.06-.69s-1.18.55-.42,1.74,1.6,2.29.7,2.29-1.6.14-1.74.84-1.6-.14-2-1.6-.69-4.24-1.46-2.86-1.46,3.69-3.4,2.65-.63-2.44-1.6-3.41-1.88-2.22-.91-4,1.81-.28,2.72-.28,1-.84.2-1.46-1.87-3.62,1.95-3.41a6.89,6.89,0,0,0,4.31-1.32c1.25-.9,4.52-.42,3.2,1.88s-.9,2.78-.14,1.95,1.74-2.37,3.2-1.95.83,1.53-.07,2.78a1.62,1.62,0,0,0,.35,2.57c.69.49,2,3.12-1.88,4.24Zm24.68-12.44a13.42,13.42,0,0,1-2.43-7.23,35.46,35.46,0,0,1,.26-6.85c-.54,0-1.26,0-1.3.87a14.55,14.55,0,0,1-1.12,4.17c-.42,1-1.8.9-2.64,1s-.83-.48-.28-1.74a4.62,4.62,0,0,0,.63-2.91c-.14-1.12-.7-.14-1.18.83s-1.88,2.92-3.48,2.71-1.18-2.64-1-3.47-.35-1-1-1.12-1.88-.42-1.18-2.43,1.46-1.81,2.43-1.46,1.12-.28.21-.63-1.87-1.11-1.8-2.08c.18-2.58,1.8-2.37,3.05-2.09a4,4,0,0,0,3.4-1.41l-.06-.19c-1.85-7.08,1.67-15.78,2.64-18.21a121.63,121.63,0,0,1,6-11.34c-.7-.34-2.54-1.28-3.55-1.8s-1.56-.77-1.84-.39-.63.59-1.11,1.29c-1,1.39-.14,1.18.14,1.18s1.46,1.53,1.67,1.88,0,.62-.49,1.74c-.64,1.45-1,4.79-1.6,6.81-1.69,6.11-4.31,5.49-5.49,4.73s-1.53.42-2.72,2.08a22.28,22.28,0,0,1-1.92,2.1c1.13.51,2.67,2,.81,3.4-2.15,1.67-2.57,2.57-1.53,2.36s2.09-1.81,3.27-.69-.42,2.36-1,2.71-1.88,1-1.53,2.29.55,3.13-1.19,3.55A2.26,2.26,0,0,1,100,88.15c-.49-.91-1-.28-1.19.83a18.34,18.34,0,0,0-.34,2.36c0,.42-1.25-.2-1.81-.76s-1.25,1-1.88.21.77-3.13,1.25-4,.27-1.88-2.49-.6a38,38,0,0,0-2.72,7.06A77,77,0,0,1,84.4,106.6c-3.75,6-4.42,11.72-3.86,15.27s1,3.26,1.81,3.26S85,127.5,86.24,129s1.74.83,2.36.34a68,68,0,0,1,11.75-6.88,77.67,77.67,0,0,1,8.83-3.4,23.75,23.75,0,0,1,.49-3.48c.14-.7-.56-.91-1.25,0s-2.57,3.13-3.83,2.57-2.29-2-1.59-3.13-.28-1.53-.77-2.15-.49-3.06,1-3.27,2,1.11,3.06,1.46,1.88.28.56-1.18-2.92-.91-2.09-2.92,2-1.88,3.41-1.46,2.08-.35,3-1,2.71-1.46,4,0-.9,2.79-1.39,3.27c-.94.94-1.11,2.71-.07,1.67s2.83-4.81,4-1.67c.69,1.81-.63,2.5-.42,3.62s2.08,2.64.55,4-3.68.21-4.58-.63-1.88-1.25-1.46.28a13.2,13.2,0,0,1,.46,3,25.17,25.17,0,0,1,7-1.23c2,.18,3.48.77,3.41-1s-1-3.06-2.85-6Z"/></g></svg>