<svg id="Layer_1" data-name="Layer 1" xmlns="http://www.w3.org/2000/svg" viewBox="0 0 200 200"><defs><style>.cls-1{fill:#9da2a2;}.cls-2{fill:#717372;}.cls-3{fill:#071a23;}.cls-4{fill:#373a36;}.cls-5{fill:#f5f6f6;}.cls-6{fill:#fbfbfb;}.cls-7{fill:#fafafa;}.cls-8{fill:#3f423e;}.cls-9{fill:#cd1241;}.cls-10{fill:#9c9598;}.cls-11{fill:#fefefe;}.cls-12{fill:#9c999a;}.cls-13{fill:#14262e;}.cls-14{fill:#383a36;}</style></defs><title>Artboard 1</title><path class="cls-1" d="M.92,120.76a2.86,2.86,0,0,1-.07-1c0-9.68,0-19.36,0-29a9.28,9.28,0,0,1,2.31-6.12,23.81,23.81,0,0,1,6.73-5.37,71,71,0,0,1,13.79-5.86q3.66-1.2,7.4-2.14a1.2,1.2,0,0,0,.9-.77c.83-1.93,1.75-3.81,2.73-5.66A75.25,75.25,0,0,1,42.5,53a76.56,76.56,0,0,1,7.56-8A74.63,74.63,0,0,1,77.64,29,71.6,71.6,0,0,1,89,26.3c2.16-.32,4.31-.54,6.48-.7a68,68,0,0,1,8.32-.08,74.41,74.41,0,0,1,54.84,28.37,75.33,75.33,0,0,1,9,14.72c.3.64.62,1.28.86,1.94a1,1,0,0,0,.79.65c3.23.83,6.43,1.75,9.58,2.85a65,65,0,0,1,12.28,5.51A24.61,24.61,0,0,1,196.84,84a10.21,10.21,0,0,1,2.75,5.35,6.79,6.79,0,0,1,.08,1.1q0,14.9,0,29.8c0,.27.08.57-.12.82a2.38,2.38,0,0,1-.38-.93,8.71,8.71,0,0,0-1.23-2.31,17.59,17.59,0,0,0-4.43-4.13c-.32-.22-.62-.5-1.06-.43,0-.4-.37-.48-.62-.63-.9-.53-1.8-1.06-2.74-1.53A92.43,92.43,0,0,0,175,105.69l-.24-.06c-.36-.09-.54.05-.53.43a17.66,17.66,0,0,1-.17,1.77c-.17,1.82-.47,3.63-.79,5.44a85.47,85.47,0,0,1-2.11,8.63c-.57,1.56-1.12,3.13-1.71,4.69-.85,2.27-1.89,4.47-3,6.65-.53,1.09-1.15,2.14-1.75,3.19a61.48,61.48,0,0,1-3.47,5.51,3.69,3.69,0,0,0-.82,1.37,22,22,0,0,0-1.95,2.44A75,75,0,0,1,146.24,158a73.79,73.79,0,0,1-31.32,14.54,80.47,80.47,0,0,1-8.46,1.2,70,70,0,0,1-8.56.26A74.45,74.45,0,0,1,46,150.45,73.68,73.68,0,0,1,40.6,144a1.93,1.93,0,0,0-.71-.71.79.79,0,0,0-.2-.62,73.86,73.86,0,0,1-6.59-11.23,77.75,77.75,0,0,1-3.52-8.81,1.38,1.38,0,0,0-.39-.73,1.89,1.89,0,0,0-.17-1,73.84,73.84,0,0,1-2.57-12.49,21.93,21.93,0,0,0-.27-2.44c-.07-.34-.21-.43-.51-.35l-.49.15c-2.84.85-5.64,1.81-8.4,2.91a54.28,54.28,0,0,0-8.29,4c-.2.13-.5.19-.5.51a1.15,1.15,0,0,0-.77.29,21.11,21.11,0,0,0-2.09,1.57,12.12,12.12,0,0,0-3.9,5.2C1.17,120.49,1.17,120.71.92,120.76Zm195.54-8.55a2.47,2.47,0,0,0,.07-1c0-6.73,0-13.47,0-20.2a6.71,6.71,0,0,0-1.8-4.7,19.78,19.78,0,0,0-4.16-3.47,55.25,55.25,0,0,0-11.39-5.4,107.75,107.75,0,0,0-12.68-3.74,1.7,1.7,0,0,1-1.36-1.18c-.51-1.31-1.12-2.59-1.74-3.86a70.5,70.5,0,0,0-59.34-39.23,67.76,67.76,0,0,0-10.94.25,70.44,70.44,0,0,0-56.6,40c-.51,1.07-1,2.16-1.44,3.26a.88.88,0,0,1-.78.65,3.06,3.06,0,0,0-.58.14,110.33,110.33,0,0,0-16,5.08,43.59,43.59,0,0,0-9.11,4.87A15.28,15.28,0,0,0,5.16,87,5.61,5.61,0,0,0,3.9,90.31q0,10.74,0,21.48c0,.18-.11.4.16.53l.4-.28a40.23,40.23,0,0,1,6.05-3.77,95.36,95.36,0,0,1,18.67-6.84c.6-.16.65-.12.67.56a64.37,64.37,0,0,0,.5,6.51,66.86,66.86,0,0,0,2.85,12.89,69,69,0,0,0,21.26,31.84c14.33,12.13,30.94,17.68,49.7,16.79a65.5,65.5,0,0,0,11.42-1.56,70.6,70.6,0,0,0,49-40.19,69,69,0,0,0,5.9-24.68c0-.73.1-1.46.15-2.17a1,1,0,0,1,.7,0,110.3,110.3,0,0,1,12.42,4,51.55,51.55,0,0,1,12.29,6.62A.42.42,0,0,0,196.46,112.21Z"/><path class="cls-2" d="M29.19,121.91a1.4,1.4,0,0,1,.39.74,80.29,80.29,0,0,0,3.52,8.8,73.86,73.86,0,0,0,6.59,11.23.8.8,0,0,1,.2.62,128.84,128.84,0,0,1-23-6.62,49,49,0,0,1-9.17-4.76,21.35,21.35,0,0,1-4.57-4,8.85,8.85,0,0,1-2.21-7.14c.25-.05.25-.28.31-.46a12.24,12.24,0,0,1,3.9-5.2,22.69,22.69,0,0,1,2.09-1.56,1.15,1.15,0,0,1,.77-.29c1.36.86,2.75,1.66,4.19,2.39a85.71,85.71,0,0,0,14.68,5.6A17.21,17.21,0,0,0,29.19,121.91Z"/><path class="cls-2" d="M192.43,113.28c.44-.07.74.21,1.06.44a17.41,17.41,0,0,1,4.43,4.13,8.5,8.5,0,0,1,1.23,2.3,2.38,2.38,0,0,0,.38.93,8.7,8.7,0,0,1-2.46,7.13,24.86,24.86,0,0,1-6.44,5,67.27,67.27,0,0,1-12.24,5.35,144.89,144.89,0,0,1-17.75,4.69h-.17a3.57,3.57,0,0,1,.82-1.36,63.1,63.1,0,0,0,3.47-5.52c.6-1.05,1.22-2.1,1.75-3.19,1.06-2.18,2.1-4.37,3-6.65.59-1.55,1.14-3.12,1.71-4.69a1.3,1.3,0,0,0,.34,0c2-.61,4-1.19,6-1.85A66.3,66.3,0,0,0,192.43,113.28Z"/><path class="cls-3" d="M196.46,112.21a.42.42,0,0,1-.38-.1,51.36,51.36,0,0,0-12.29-6.62,110.3,110.3,0,0,0-12.42-4,1,1,0,0,0-.7,0c0,.71-.11,1.44-.15,2.17a70,70,0,0,1-19.64,45,69.75,69.75,0,0,1-35.29,19.82A65.52,65.52,0,0,1,104.18,170c-18.76.89-35.37-4.66-49.7-16.79a69,69,0,0,1-21.27-31.84,67.61,67.61,0,0,1-2.85-12.89,64.37,64.37,0,0,1-.5-6.51c0-.67-.06-.72-.66-.56a95.45,95.45,0,0,0-18.68,6.84,39.64,39.64,0,0,0-6,3.77l-.41.28c-.27-.13-.16-.35-.16-.53,0-7.16,0-14.32,0-21.47A5.7,5.7,0,0,1,5.16,87a15.49,15.49,0,0,1,3.5-3.31,43.59,43.59,0,0,1,9.11-4.87,110.46,110.46,0,0,1,16-5.08,3,3,0,0,1,.57-.14.86.86,0,0,0,.78-.65c.47-1.1.93-2.19,1.44-3.26a70.27,70.27,0,0,1,56.6-40,67.76,67.76,0,0,1,10.94-.25,70.5,70.5,0,0,1,59.34,39.23c.62,1.27,1.23,2.55,1.74,3.86a1.72,1.72,0,0,0,1.36,1.18,107.75,107.75,0,0,1,12.68,3.74,55.25,55.25,0,0,1,11.39,5.4,19.78,19.78,0,0,1,4.16,3.47,6.71,6.71,0,0,1,1.8,4.7c-.06,6.73,0,13.47,0,20.2A2.66,2.66,0,0,1,196.46,112.21ZM156.6,79.63c0-.34,0-.68,0-1V76c0-.21,0-.49-.24-.55a16.92,16.92,0,0,0-2.37-.51c0,.31-.07.56-.09.8-.71-.68-1.3-1.48-2-2.19a83.12,83.12,0,0,0-8.22-7.7,3.09,3.09,0,0,0-1.3-.83,15.49,15.49,0,0,0-.23,3.65c0,.7-.1.78-.79.79s-1.44-.26-2.16-.3a1.69,1.69,0,0,1-1.6-2.13c.11-.65.09-1.29.14-1.94s.13-1.51.26-2.26.14-1-.62-1.46a71.08,71.08,0,0,0-7.21-4.09c-.15-.08-.29-.2-.47-.13a.3.3,0,0,0-.11.31c.17,1.11.26,2.23.37,3.35a32.76,32.76,0,0,1,.3,3.28,3.77,3.77,0,0,0,.06,1,5.94,5.94,0,0,1,.1,1.68c0,.59-.29.88-.85.8a20.25,20.25,0,0,1-2.9-.52,1.09,1.09,0,0,1-.82-1.07c-.13-1.88-.3-3.75-.5-5.63-.18-1.68-.4-3.34-.67-5a.84.84,0,0,0-.66-.74A74.09,74.09,0,0,0,115.76,52a17.27,17.27,0,0,0-2.48-.51,12.54,12.54,0,0,1,.3,2.66c-.07.88.32,1.75.1,2.73a21.11,21.11,0,0,0-3.74-1.44c-.78-.26-.92-.44-.92-1.3,0-1-.28-2-.38-3,0-.33-.22-.51-.6-.59a37.53,37.53,0,0,0-4.1-.46,50.23,50.23,0,0,0-6-.2c-.76,0-1.53,0-2.29,0-.23,0-.48,0-.53-.28-.25-1.36-.66-2.68-1-4.06a14.37,14.37,0,0,1,1.52-.23,77.53,77.53,0,0,1,8.21.2,13.31,13.31,0,0,1,2.27.21c.27.07.58.2.78-.06s-.09-.48-.13-.72a1.2,1.2,0,0,0-.13-.31A25.64,25.64,0,0,0,104.82,41a41.61,41.61,0,0,0-3.22-4.56,1.81,1.81,0,0,0-1.54-.68,66.85,66.85,0,0,0-6.93.34c-1.4.16-2.79.33-4.17.59a67.2,67.2,0,0,0-11.39,3.14,63,63,0,0,0-10.06,4.85,66.17,66.17,0,0,0-11.39,8.61c-1.8,1.67-3.4,3.54-5,5.38a7.06,7.06,0,0,0-.82,1.07.91.91,0,0,0,.47,1.49,1.16,1.16,0,0,0,1-.29c.88-.65,1.77-1.31,2.67-1.93A76,76,0,0,1,61,55a81.68,81.68,0,0,1,8.17-3.92A83.82,83.82,0,0,1,78.28,48c2.09-.58,4.22-1,6.34-1.42.71-.14.85,0,.67.75-.29,1.12-.63,2.23-.87,3.36a.92.92,0,0,1-.85.78l-1.49.3A72.64,72.64,0,0,0,71.51,55a67.77,67.77,0,0,0-8.05,3.77,71,71,0,0,0-7.86,5c-1.93,1.41-3.81,2.9-5.6,4.49a30.85,30.85,0,0,0-4.51,5,5,5,0,0,0-1.18,2,12.77,12.77,0,0,1-1.71.48,2.2,2.2,0,0,0-1.9,2.48c0,1.57,0,3.15,0,4.73-.37.12-.34.49-.42.76-.27,1-.53,2.07-.76,3.12a22.13,22.13,0,0,0-.58,4.42A66.72,66.72,0,0,0,39,98.11c.17,2.1.39,4.2.71,6.28a64.41,64.41,0,0,0,2.46,10.17,66.18,66.18,0,0,0,3.62,8.76A74.79,74.79,0,0,0,49.64,130a1.58,1.58,0,0,0,1.34.77,1.92,1.92,0,0,0,2.15-1.6,68.09,68.09,0,0,1,4-10.5,76.55,76.55,0,0,1,4-7.26,1.23,1.23,0,0,1,1.64-.59c.67.21,1.33.47,2,.71.88.33,1.14,1,.64,1.71a65.86,65.86,0,0,0-5.06,9.3c-.9,2-1.68,4.06-2.38,6.15a63,63,0,0,0-1.68,6.2A5.31,5.31,0,0,0,57.76,140c.92.93,1.85,1.83,2.82,2.7q2.07,1.88,4.29,3.57a63.07,63.07,0,0,0,9.57,6.06q2.86,1.47,5.85,2.68a5.45,5.45,0,0,0,5.39-.52c.71-.47,1.32-1.07,2-1.59,1.7-1.35,3.34-2.78,4.9-4.29,2.43-2.36,4.87-4.72,7.11-7.28.78-.88,1.52-1.81,2.28-2.72a4.33,4.33,0,0,1,.46-.5c.46-.41.89-.29,1.09.3a1.69,1.69,0,0,1,.08.5c0,1.33,0,2.66,0,4a2.55,2.55,0,0,1-.57,1.56c-1,1.26-2.18,2.37-3.25,3.57-1.59,1.76-3.42,3.29-5.11,4.95-.12.12-.26.21-.39.33l-2.4,2.13a1.85,1.85,0,0,0,.88,3.1,18,18,0,0,0,2.33.38c1.17.17,2.35.26,3.52.39s2.42.2,3.62.25a46.72,46.72,0,0,0,5.42-.09c1.88-.15,3.75-.3,5.62-.53a57.44,57.44,0,0,0,6.39-1.17,62.47,62.47,0,0,0,7-2.07,49.08,49.08,0,0,0,8.09-3.67,32.46,32.46,0,0,0,5.64-4.16,34.25,34.25,0,0,0,6-7.3A35.13,35.13,0,0,0,150.79,129a70.92,70.92,0,0,0,1.07-7.09c.15-1.55,0-3.1.26-4.64a13.5,13.5,0,0,0-.11-2.69c-.07-1.58-.15-3.15-.35-4.72-.24-2-.56-3.89-1-5.81a59.53,59.53,0,0,0-2.82-9,1,1,0,0,1,1.1-1.38c.66.1,1.33.23,2,.31A2.19,2.19,0,0,1,153,95.58a78.35,78.35,0,0,1,2.77,10.87,49.06,49.06,0,0,1,.75,6.7,68.43,68.43,0,0,1-.26,10.32c-.28,2.29-.64,4.56-1.1,6.82-.1.51,0,.82.31.91s.6-.21.77-.5l0-.07c.56-1.21,1.24-2.34,1.81-3.55a63.33,63.33,0,0,0,3.42-8.92,62.26,62.26,0,0,0,2-9c.16-1.09.27-2.18.38-3.27s.24-2.41.28-3.61c.05-1.73,0-3.46,0-5.18a3.84,3.84,0,0,0,0-.68c-.25-1.17-.12-2.36-.31-3.53a8,8,0,0,0-.78-3.08c-.63-1-1.12-2.16-1.73-3.21a29.91,29.91,0,0,0-2.11-3.35,6.59,6.59,0,0,1,.45-1.45c.51-1.49,1.05-3,1.57-4.45.18-.52.16-.54-.38-.7s-1-.25-1.55-.4c-.68-.2-.62-.24-.88.46-.41,1.1-.73,2.24-1.21,3.32C157,79.92,156.89,79.61,156.6,79.63Zm-33-30.06c-.58-2.87-1.34-5.55-2.12-8.22a4,4,0,0,0-2.88-2.94c-1.59-.46-3.19-.9-4.82-1.22-1.38-.28-2.76-.54-4.14-.79a1.21,1.21,0,0,0-1.11,2c.4.72.85,1.4,1.22,2.13A35.76,35.76,0,0,1,112,46a.94.94,0,0,0,.85.75A73.55,73.55,0,0,1,121,48.78Zm4.47-7.29a1.07,1.07,0,0,0-1.18,1.29c0,.3.15.6.22.9.48,2.05,1,4.1,1.39,6.17a1.55,1.55,0,0,0,1,1.33,60.53,60.53,0,0,1,6.72,3.41c.87.52,1.75,1,2.63,1.54.22.13.41.2.54-.11l1.9-4.53a1.83,1.83,0,0,0-.63-2.12,16.29,16.29,0,0,0-1.78-1.42q-2.68-2-5.53-3.75a51.5,51.5,0,0,0-4.61-2.52A1.31,1.31,0,0,0,128.05,42.28Zm-95,50.4V78.47L31.29,79c-.82.25-.82.25-.82,1.08V93.9c0,.17,0,.34,0,.51.07,1.1.63,1.51,1.7,1.21s2.37-.73,3.58-1A2.52,2.52,0,0,0,37.69,92c0-4.66,0-9.33,0-14a1.53,1.53,0,0,0-.08-.78,11.17,11.17,0,0,0-1.79.45c-.78.2-.78.22-.78,1V91.81a.38.38,0,0,1-.33.41C34.2,92.34,33.72,92.5,33.07,92.68ZM20.39,91v4c0,1,0,2,0,3A1,1,0,0,0,21.75,99l.41-.11,3.59-1.25a2.34,2.34,0,0,0,1.74-2.42c0-4.38,0-8.76,0-13.14,0-1.17-.76-1.73-1.81-1.32s-2.33.85-3.52,1.21a2.68,2.68,0,0,0-1.81,2.57C20.43,86.71,20.39,88.86,20.39,91Zm-5.56,10.63,2-.75c.73-.29.65-.16.65-1V84.4c0-.18.09-.39-.17-.59l-2.09.79c-.3.11-.34.33-.34.6,0,.65,0,1.3,0,2v4.15c0,.25,0,.53-.27.65a6.06,6.06,0,0,1-1.49.5V85.51a20.43,20.43,0,0,0-2,.71c-.47.15-.56.42-.56.88,0,5.2,0,10.41,0,15.61,0,.18-.1.4.18.56.57-.22,1.15-.49,1.77-.69a.75.75,0,0,0,.59-.86c0-1.69,0-3.39,0-5.09,0-1.49,0-1.49,1.42-2a1.77,1.77,0,0,1,.31,0ZM167,88.12l3.34,1c0-.75,0-1.43,0-2.1a.59.59,0,0,0-.53-.7c-.76-.22-1.5-.5-2.27-.68-.47-.11-.57-.34-.56-.77,0-.82,0-1.64,0-2.46V81l4.48,1.35v-2c0-.69,0-.7-.71-.91-1.83-.56-3.67-1.12-5.51-1.66-.26-.08-.51-.24-.79-.15a.9.9,0,0,0,0,.19q0,8.06,0,16.13c0,.38.13.52.5.63,2.06.6,4.11,1.23,6.17,1.85a.33.33,0,0,0,.41,0c0-.57,0-1.21,0-1.85s-.17-.7-.62-.82c-1.14-.32-2.27-.7-3.4-1-.32-.09-.48-.22-.48-.58C167,90.84,167,89.54,167,88.12ZM189.86,90c0-.63,0-1.16,0-1.7a2.48,2.48,0,0,0-1.7-2.55c-1-.42-2-.82-3.07-1.22a7.71,7.71,0,0,0-.8-.3,1,1,0,0,0-1.42,1.06c0,.12,0,.23,0,.34,0,1.36,0,2.72,0,4.07a3.46,3.46,0,0,0,1,2.54c1.05,1.15,2.07,2.33,3.09,3.5.16.18.41.34.4.62,0,1.06.06,2.12,0,3.25-.52-.2-1-.38-1.41-.53s-.47-.27-.44-.61.08-.43-.15-.53a18.35,18.35,0,0,0-2.4-.89c0,.65,0,1.19,0,1.72a2.43,2.43,0,0,0,1.64,2.43c1.2.49,2.43.92,3.61,1.44s1.82-.09,1.76-1.16c-.08-1.38,0-2.77,0-4.16a3.51,3.51,0,0,0-1-2.61c-1-1.16-2-2.34-3.07-3.51-.16-.19-.38-.35-.38-.64,0-1,0-2.07,0-3.14a4.75,4.75,0,0,1,1.27.39c.43.12.73.31.63.83a.38.38,0,0,0,.27.46ZM145.62,55a.82.82,0,0,0-.8.57c-.52,1.22-1,2.44-1.44,3.71a.7.7,0,0,0,.29.88c.5.32,1,.7,1.43,1.06A67.26,67.26,0,0,1,151.83,67a39.4,39.4,0,0,1,3.52,3.67,2.24,2.24,0,0,0,1.63.92c.19,0,.4.11.54-.09s0-.32-.08-.48-.14-.3-.22-.45a64.53,64.53,0,0,0-4.07-6.84c-1.21-1.73-2.45-3.44-3.83-5-1-1.11-1.89-2.24-2.94-3.26C146.15,55.22,146,55,145.62,55Zm35.06,30.41c0-.68,0-1.33,0-2a.68.68,0,0,0-.55-.79c-2-.66-3.95-1.36-5.93-2-.17-.06-.35-.21-.59,0,0,.28,0,.59,0,.9,0,.51-.18,1.09.09,1.49s.91.39,1.37.57c.87.33.8.09.8,1.11V97.14c0,.23,0,.45,0,.68a.3.3,0,0,0,.2.33,17.77,17.77,0,0,0,2.37.74V84.82C179.26,84.89,179.88,85.36,180.68,85.43Z"/><path class="cls-3" d="M100.36,170.5a69.33,69.33,0,0,1-46.13-17A69.37,69.37,0,0,1,41.28,139a71.91,71.91,0,0,1-8.43-17.53,67.94,67.94,0,0,1-2.87-13c-.3-2.53-.46-4.61-.5-6.55,0,0,0-.15,0-.24l-.17,0c-10.09,2.75-15.24,5.08-18.61,6.81a40.52,40.52,0,0,0-6,3.73,3.05,3.05,0,0,1-.32.22l-.11.08-.18.12-.2-.09a.7.7,0,0,1-.38-.8s0-.06,0-.08q0-6.32,0-12.64V90.32a5.9,5.9,0,0,1,1.34-3.58,15.31,15.31,0,0,1,3.58-3.4,44.12,44.12,0,0,1,9.18-4.92,110.6,110.6,0,0,1,16-5.09l.17,0a2.14,2.14,0,0,1,.48-.1c.19,0,.31-.08.45-.42v0c.45-1.07.92-2.18,1.43-3.26A71,71,0,0,1,79.51,32a71.7,71.7,0,0,1,13.6-2.72,67.79,67.79,0,0,1,11-.25A71.9,71.9,0,0,1,126,33.74a71.12,71.12,0,0,1,19.27,11.37,70.27,70.27,0,0,1,18.51,23.37c.52,1.06,1.2,2.46,1.76,3.89a1.34,1.34,0,0,0,1.08.95,109.12,109.12,0,0,1,12.73,3.75,56.69,56.69,0,0,1,11.47,5.44,19.73,19.73,0,0,1,4.24,3.54,7.09,7.09,0,0,1,1.89,5c0,4.71,0,9.5,0,14.13,0,2,0,4.05,0,6.07,0,.07,0,.15,0,.23a2.08,2.08,0,0,1-.11.93l-.07.19-.21,0a.76.76,0,0,1-.67-.17h0a50.18,50.18,0,0,0-12.2-6.56,109.43,109.43,0,0,0-12.37-4l-.12,0-.13,0c0,.11,0,.23,0,.34,0,.49-.08,1-.1,1.5a70.39,70.39,0,0,1-19.76,45.3,70.09,70.09,0,0,1-35.48,19.92,66,66,0,0,1-11.47,1.57C102.91,170.47,101.63,170.5,100.36,170.5ZM29.6,101a.62.62,0,0,1,.37.11c.26.2.26.54.27.9,0,1.92.2,4,.5,6.47a68.09,68.09,0,0,0,2.83,12.83,71.22,71.22,0,0,0,8.35,17.33,68.42,68.42,0,0,0,12.8,14.33,70.6,70.6,0,0,0,23.07,13.21,71.65,71.65,0,0,0,26.37,3.49,65.37,65.37,0,0,0,11.34-1.55,69.41,69.41,0,0,0,35.11-19.72,69.6,69.6,0,0,0,19.53-44.8c0-.51.07-1,.1-1.52,0-.22,0-.44,0-.65l0-.24.22-.09a1.22,1.22,0,0,1,.85,0l.09,0a110.35,110.35,0,0,1,12.46,4,51,51,0,0,1,12.23,6.55v-.23a2.17,2.17,0,0,1,0-.26v-6.07c0-4.63,0-9.43,0-14.14a6.32,6.32,0,0,0-1.71-4.44,19.27,19.27,0,0,0-4.07-3.4,56.25,56.25,0,0,0-11.32-5.36,107.6,107.6,0,0,0-12.64-3.73,2.05,2.05,0,0,1-1.62-1.41c-.55-1.41-1.22-2.79-1.73-3.83A69.59,69.59,0,0,0,144.78,45.7a70.31,70.31,0,0,0-19.07-11.25,71.05,71.05,0,0,0-21.65-4.65,67.35,67.35,0,0,0-10.87.25,70.75,70.75,0,0,0-13.45,2.69A70.22,70.22,0,0,0,36.89,69.81c-.5,1.06-1,2.16-1.42,3.23v0a1.26,1.26,0,0,1-1.12.88l-.29.07-.21.06a108.65,108.65,0,0,0-15.93,5.06,42.69,42.69,0,0,0-9,4.83,14.71,14.71,0,0,0-3.42,3.23,5.17,5.17,0,0,0-1.19,3.13c0,2.94,0,5.89,0,8.83V111.7a41.15,41.15,0,0,1,6.05-3.77,97.16,97.16,0,0,1,18.76-6.87A2.19,2.19,0,0,1,29.6,101Zm74.69,59c-.67,0-1.37,0-2.09,0-1.38-.05-2.57-.13-3.65-.25l-1.1-.11c-.79-.08-1.62-.17-2.43-.28-.22,0-.45-.06-.67-.09a11.13,11.13,0,0,1-1.71-.3,2.28,2.28,0,0,1-1.64-1.7,2.11,2.11,0,0,1,.6-2l1.21-1.08L94,153c.06-.06.12-.1.18-.15l.19-.16c.62-.61,1.27-1.21,1.9-1.8,1.08-1,2.2-2,3.2-3.14.39-.44.81-.88,1.22-1.3.68-.72,1.39-1.46,2-2.25a2.16,2.16,0,0,0,.49-1.32c0-1.2,0-2.43,0-3.61v-.38a1.06,1.06,0,0,0,0-.38c-.06-.18-.14-.26-.19-.28s-.15,0-.29.15a4.22,4.22,0,0,0-.4.43l0,0-.78.94c-.48.59-1,1.2-1.5,1.79-2.26,2.57-4.74,5-7.14,7.29-1.52,1.48-3.18,2.93-4.92,4.32l-.68.56a14,14,0,0,1-1.33,1.05,5.87,5.87,0,0,1-5.74.56c-2.05-.84-4-1.75-5.88-2.7a63,63,0,0,1-9.63-6.1c-1.47-1.12-2.92-2.33-4.32-3.58-.87-.78-1.77-1.64-2.83-2.72A5.67,5.67,0,0,1,56,134.8a61.2,61.2,0,0,1,1.69-6.24c.74-2.21,1.52-4.24,2.39-6.19A65.21,65.21,0,0,1,65.13,113a.8.8,0,0,0,.17-.65,1,1,0,0,0-.62-.49l-.52-.19c-.48-.18-1-.36-1.46-.52a.87.87,0,0,0-1.19.43,75.09,75.09,0,0,0-4,7.22,67.88,67.88,0,0,0-4,10.44A2.29,2.29,0,0,1,51,131.14a2,2,0,0,1-1.65-.95,74.59,74.59,0,0,1-3.87-6.7,66.35,66.35,0,0,1-3.63-8.81,64.28,64.28,0,0,1-2.48-10.23c-.29-1.89-.52-3.89-.71-6.31a66.55,66.55,0,0,1-.1-6.82,23.5,23.5,0,0,1,.59-4.49c.23-1,.49-2.07.77-3.14a.57.57,0,0,0,0-.15,1.11,1.11,0,0,1,.38-.74V81.54c0-1.06,0-2.16,0-3.24a2.58,2.58,0,0,1,2.18-2.85l.57-.14a8.06,8.06,0,0,0,.91-.24,4.28,4.28,0,0,1,.9-1.57q.15-.21.3-.39A30.67,30.67,0,0,1,49.75,68c1.72-1.53,3.56-3,5.63-4.52a70.06,70.06,0,0,1,7.89-5,68.83,68.83,0,0,1,8.1-3.8A73.7,73.7,0,0,1,82,51.37l1-.21.46-.09c.37-.08.49-.18.55-.49.16-.76.37-1.51.57-2.24l.3-1.13a3,3,0,0,0,.06-.32l-.28,0-1.13.23c-1.71.34-3.48.7-5.19,1.18a78.41,78.41,0,0,0-17.22,7,76.39,76.39,0,0,0-6.51,4c-.75.52-1.49,1.06-2.21,1.6l-.46.33a1.49,1.49,0,0,1-1.34.35,1.24,1.24,0,0,1-.87-.74,1.44,1.44,0,0,1,.17-1.32,8.79,8.79,0,0,1,.86-1.13c.18-.19.35-.39.52-.58,1.44-1.63,2.92-3.31,4.54-4.82a67.35,67.35,0,0,1,11.45-8.66,63.66,63.66,0,0,1,10.12-4.87,67.76,67.76,0,0,1,11.46-3.17c1.37-.25,2.77-.43,4.2-.59a66.28,66.28,0,0,1,7-.34,2.12,2.12,0,0,1,1.84.82,38.4,38.4,0,0,1,3.25,4.6A24,24,0,0,1,107,44.53a.21.21,0,0,1,0,.07,1,1,0,0,1,.12.33l.06.14a.78.78,0,0,1,0,.86.93.93,0,0,1-1.09.23l-.09,0a8.67,8.67,0,0,0-1.56-.17c-.21,0-.43,0-.64,0a76.85,76.85,0,0,0-8.18-.19,6.88,6.88,0,0,0-1,.13l-.11,0,.27,1c.23.86.46,1.75.63,2.64h2.44a51.85,51.85,0,0,1,6,.2l.79.06a28,28,0,0,1,3.36.41,1,1,0,0,1,.9.92c0,.39.11.79.17,1.17a11.63,11.63,0,0,1,.21,1.88c0,.7,0,.73.66.93l.47.15a21.42,21.42,0,0,1,2.83,1.07,5.26,5.26,0,0,0-.08-1,5.4,5.4,0,0,1-.08-1.21,6.27,6.27,0,0,0-.16-1.7c-.05-.28-.1-.58-.14-.88l-.06-.48.48,0a18.57,18.57,0,0,1,2.38.47l.16.05a74.53,74.53,0,0,1,8.27,2.57,1.22,1.22,0,0,1,.91,1c.27,1.71.5,3.41.67,5,.2,1.82.36,3.72.5,5.65a.7.7,0,0,0,.55.72,14.8,14.8,0,0,0,2.3.43l.54.08a.47.47,0,0,0,.31,0,.55.55,0,0,0,.11-.38v-.31a4.1,4.1,0,0,0-.09-1.27,3,3,0,0,1-.07-.89v-.22a19.29,19.29,0,0,0-.19-2.28c0-.31-.07-.64-.11-1l-.06-.65c-.09-.88-.17-1.8-.31-2.68a.7.7,0,0,1,.25-.67l.05,0,.06,0a.81.81,0,0,1,.7.11l.07,0A71.23,71.23,0,0,1,137.57,61c.91.59,1,.84.79,1.84a21.58,21.58,0,0,0-.26,2.23c0,.23,0,.46,0,.69a9.57,9.57,0,0,1-.1,1.28,1.57,1.57,0,0,0,.25,1.23,1.39,1.39,0,0,0,1,.46,8.35,8.35,0,0,1,1,.15,5.57,5.57,0,0,0,1.12.15,1.76,1.76,0,0,0,.38,0,2.61,2.61,0,0,0,0-.38v-.75a11.76,11.76,0,0,1,.24-3l.08-.35.35.06a2.42,2.42,0,0,1,1.22.7l.25.22a80.18,80.18,0,0,1,8.27,7.73c.3.31.58.65.86,1s.35.42.54.62l0-.34.36,0a7.81,7.81,0,0,1,1.64.32c.27.07.52.14.78.19a.73.73,0,0,1,.55.85v2.7l0,.67v0a.35.35,0,0,1,.12.07c.22-.55.41-1.11.6-1.66.13-.4.27-.81.42-1.22l0-.08c.13-.34.2-.55.41-.67s.46-.07.77,0l.14,0c.27.08.55.15.83.21l.72.19c.31.09.56.15.69.4a1,1,0,0,1-.06.78l-.72,2c-.28.79-.57,1.62-.85,2.43,0,.14-.1.28-.15.41a4.14,4.14,0,0,0-.26.8,26.67,26.67,0,0,1,1.77,2.79l.27.48c.29.5.55,1,.81,1.51s.59,1.15.92,1.69A4.78,4.78,0,0,1,164,91V82.25c0-1.46,0-2.93,0-4.39a.75.75,0,0,1,0-.24s0,0,0-.05l0-.2.2-.06a1.23,1.23,0,0,1,.85.08l.16.06c1.84.54,3.67,1.1,5.53,1.66.85.27,1,.41,1,1.28v2.46l-4.48-1.35v.89c0,.24,0,.48,0,.72,0,.57,0,1.16,0,1.75,0,.31,0,.33.26.39.48.11.95.26,1.41.41.28.09.58.19.88.27a1,1,0,0,1,.8,1.1c0,.45,0,.91,0,1.4v1.18l-3.34-1c0,.22,0,.44,0,.66,0,1,0,1.92,0,2.86,0,.13,0,.15.19.2l1.47.45c.64.2,1.29.4,1.94.58a1.07,1.07,0,0,1,.89,1.22c0,.43,0,.87,0,1.3,0,.18,0,.35,0,.52v.18l-.14.11a.65.65,0,0,1-.74.13h0L169,96.25c-1.38-.42-2.81-.85-4.22-1.26a1.34,1.34,0,0,1-.34-.15,8.58,8.58,0,0,0,.15,1.45,2.41,2.41,0,0,1,0,.59v.17c0,.49,0,1,0,1.49,0,1.21,0,2.46,0,3.7s-.15,2.34-.27,3.47v.17c-.12,1.22-.23,2.23-.38,3.28a63.68,63.68,0,0,1-2,9.11,65.16,65.16,0,0,1-3.44,9c-.28.58-.59,1.16-.89,1.72s-.64,1.2-.92,1.82l-.06.1,0,.07a1,1,0,0,1-1.16.61c-.31-.09-.78-.38-.58-1.35.44-2.18.81-4.46,1.09-6.8a68.11,68.11,0,0,0,.26-10.26,48.16,48.16,0,0,0-.75-6.64,76.69,76.69,0,0,0-2.76-10.83,1.8,1.8,0,0,0-1.73-1.41c-.44,0-.88-.12-1.3-.19l-.71-.12a.64.64,0,0,0-.63.2.66.66,0,0,0,0,.66,60.69,60.69,0,0,1,2.83,9.09,59.25,59.25,0,0,1,1,5.85c.19,1.57.28,3.14.36,4.75,0,.27,0,.56.06.83a7,7,0,0,1,0,1.94,20,20,0,0,0-.16,2.56c0,.68,0,1.37-.09,2.06-.25,2.45-.61,4.85-1.07,7.12a35.5,35.5,0,0,1-4.51,11.76,35,35,0,0,1-6.07,7.38,32.42,32.42,0,0,1-5.71,4.21,49.14,49.14,0,0,1-8.15,3.7,62.16,62.16,0,0,1-7,2.08,58.2,58.2,0,0,1-6.42,1.18c-1.89.23-3.75.38-5.64.53C106.6,160,105.49,160,104.29,160Zm-1.36-22.49a.73.73,0,0,1,.22,0,1.05,1.05,0,0,1,.71.77,1.65,1.65,0,0,1,.1.62v.38c0,1.18,0,2.41,0,3.61a2.85,2.85,0,0,1-.65,1.8c-.64.81-1.36,1.57-2.06,2.3-.4.41-.81.85-1.2,1.28-1,1.14-2.15,2.18-3.25,3.2-.62.57-1.27,1.17-1.88,1.78a2.39,2.39,0,0,1-.26.21l-.15.12-1.19,1.06-1.21,1.08a1.36,1.36,0,0,0-.37,1.31,1.52,1.52,0,0,0,1.11,1.13,9.75,9.75,0,0,0,1.59.28l.69.09c.79.12,1.61.2,2.4.28l1.1.11c1.07.12,2.24.2,3.59.25a46.68,46.68,0,0,0,5.38-.09c1.89-.15,3.74-.3,5.61-.53a56.62,56.62,0,0,0,6.34-1.16,62.74,62.74,0,0,0,6.92-2.06,49.35,49.35,0,0,0,8-3.64,32.23,32.23,0,0,0,5.57-4.11,34.26,34.26,0,0,0,5.94-7.22,34.81,34.81,0,0,0,4.41-11.51c.45-2.25.81-4.62,1.06-7,.06-.66.07-1.33.09-2a18.69,18.69,0,0,1,.17-2.67,6.39,6.39,0,0,0,0-1.74c0-.29,0-.58-.07-.88-.07-1.59-.16-3.14-.35-4.68-.25-2.07-.58-4-1-5.78a60.78,60.78,0,0,0-2.8-9,1.41,1.41,0,0,1,.16-1.41,1.39,1.39,0,0,1,1.34-.48l.72.11c.42.07.85.14,1.27.19a2.55,2.55,0,0,1,2.37,1.94,78,78,0,0,1,2.78,10.93,49.31,49.31,0,0,1,.77,6.75,67.11,67.11,0,0,1-.28,10.38c-.28,2.35-.65,4.66-1.1,6.85-.05.29,0,.44.05.47s.12,0,.3-.27l0-.06,0,0c.3-.64.63-1.26.95-1.86s.6-1.12.86-1.69a63.61,63.61,0,0,0,3.41-8.87,62.13,62.13,0,0,0,2-9c.15-1,.26-2,.38-3.25v-.16c.12-1.13.23-2.29.27-3.43s0-2.46,0-3.67V96.86a1.79,1.79,0,0,0,0-.41,12.13,12.13,0,0,1-.18-2,11.61,11.61,0,0,0-.13-1.58l-.09-.66a5.6,5.6,0,0,0-.64-2.28c-.34-.57-.65-1.17-.94-1.75s-.51-1-.79-1.46c-.09-.17-.18-.33-.28-.49a24.6,24.6,0,0,0-1.8-2.83l-.09-.12v-.15A4.25,4.25,0,0,1,159.2,82c.05-.13.1-.26.14-.38.28-.82.57-1.64.85-2.44s.48-1.34.71-2a.66.66,0,0,0,0-.15l-.16,0-.69-.18c-.29-.06-.58-.14-.86-.22l-.15,0-.16,0-.08.22,0,.09c-.15.39-.29.8-.42,1.19a22.37,22.37,0,0,1-.8,2.15l-.13.3-.31-.08a1.16,1.16,0,0,1-.43-.25l-.11-.09-.39,0v-.38c0-.11,0-.22,0-.33s0-.46,0-.7V75.8l-.77-.19a7.67,7.67,0,0,0-1.13-.26l-.13,1.21-.56-.55c-.41-.4-.78-.84-1.14-1.26s-.55-.64-.84-1a79.84,79.84,0,0,0-8.18-7.66,3.22,3.22,0,0,1-.28-.24,4.13,4.13,0,0,0-.5-.38,13.36,13.36,0,0,0-.13,2.38v.77c0,.9-.26,1.15-1.16,1.16a5.9,5.9,0,0,1-1.28-.16,7.9,7.9,0,0,0-.92-.14,2.05,2.05,0,0,1-1.53-.74A2.29,2.29,0,0,1,137.2,67a9.4,9.4,0,0,0,.1-1.2c0-.23,0-.47,0-.71,0-.69.13-1.5.26-2.29a2.07,2.07,0,0,0,.06-.67,1.57,1.57,0,0,0-.5-.41A72.92,72.92,0,0,0,130,57.61c.12.84.2,1.68.28,2.5l.06.65c0,.32.08.64.11,1a20.3,20.3,0,0,1,.19,2.37,1.76,1.76,0,0,1,0,.23,2.45,2.45,0,0,0,0,.68,5.09,5.09,0,0,1,.12,1.49c0,.1,0,.2,0,.3a1.21,1.21,0,0,1-.37,1,1.08,1.08,0,0,1-.92.21l-.53-.07a15.86,15.86,0,0,1-2.42-.46,1.47,1.47,0,0,1-1.1-1.4c-.13-1.92-.29-3.81-.49-5.62-.17-1.61-.39-3.29-.67-5,0-.26-.1-.32-.42-.44a74.57,74.57,0,0,0-8.19-2.55l-.16,0a16,16,0,0,0-1.78-.39l.06.35a6.63,6.63,0,0,1,.17,1.89,4.69,4.69,0,0,0,.08,1,4.82,4.82,0,0,1,0,1.74l-.11.5-.44-.25A19.1,19.1,0,0,0,110.3,56l-.48-.15c-.94-.31-1.18-.63-1.18-1.66a11.88,11.88,0,0,0-.2-1.75c-.07-.4-.14-.81-.18-1.22,0-.11,0-.2-.29-.25a25.81,25.81,0,0,0-3.27-.39l-.79-.07a50.6,50.6,0,0,0-6-.2c-.59,0-1.18,0-1.76,0H95.6a.77.77,0,0,1-.87-.61c-.16-.86-.38-1.71-.62-2.6-.12-.46-.25-.94-.37-1.43l-.09-.4.41-.07.49-.08A6.38,6.38,0,0,1,95.63,45a78.35,78.35,0,0,1,8.25.2l.63,0a8.35,8.35,0,0,1,1.7.19l.12,0a.87.87,0,0,0,.22,0l0-.07a1.17,1.17,0,0,1-.12-.36l0-.08a.52.52,0,0,1-.07-.15,24.35,24.35,0,0,0-1.8-3.57,39,39,0,0,0-3.19-4.52,1.39,1.39,0,0,0-1.24-.53,61.85,61.85,0,0,0-6.88.33c-1.42.16-2.8.33-4.15.58A67.15,67.15,0,0,0,77.7,40.23a63.05,63.05,0,0,0-10,4.82A67.19,67.19,0,0,0,56.38,53.6c-1.59,1.49-3.06,3.16-4.49,4.77l-.51.59a7.64,7.64,0,0,0-.79,1,.72.72,0,0,0-.11.63.49.49,0,0,0,.36.29c.21.06.38,0,.69-.23l.45-.33c.73-.53,1.48-1.09,2.23-1.61,2-1.42,4.27-2.79,6.58-4.07a77.86,77.86,0,0,1,17.39-7c1.73-.49,3.51-.85,5.23-1.2l1.13-.23a1,1,0,0,1,1,.15,1.1,1.1,0,0,1,.1,1.07c-.1.38-.21.77-.31,1.14-.19.72-.4,1.46-.55,2.2a1.31,1.31,0,0,1-1.15,1.08l-.46.09c-.34.06-.69.13-1,.21a70.55,70.55,0,0,0-10.52,3.26,68.94,68.94,0,0,0-8,3.76,70.08,70.08,0,0,0-7.81,5c-2,1.49-3.87,3-5.58,4.47a30.39,30.39,0,0,0-4.45,5l-.32.42a3.45,3.45,0,0,0-.8,1.44l0,.2-.19.09a7,7,0,0,1-1.22.36l-.54.13a1.83,1.83,0,0,0-1.62,2.11c0,1.08,0,2.18,0,3.24,0,.5,0,1,0,1.49v.27l-.26.09c-.06,0-.08,0-.12.28,0,.07,0,.15,0,.22-.28,1.06-.54,2.1-.76,3.1a22.14,22.14,0,0,0-.57,4.35c0,2.4-.08,4.56.09,6.74.19,2.4.42,4.39.7,6.25a64.69,64.69,0,0,0,2.45,10.11,65.76,65.76,0,0,0,3.6,8.71A71.3,71.3,0,0,0,50,129.79a1.17,1.17,0,0,0,1,.59,1.54,1.54,0,0,0,1.77-1.33,68,68,0,0,1,4.06-10.55,76.56,76.56,0,0,1,4-7.3,1.59,1.59,0,0,1,2.07-.76q.76.25,1.5.54l.51.19a1.58,1.58,0,0,1,1.08,1,1.47,1.47,0,0,1-.25,1.32,63.57,63.57,0,0,0-5,9.23c-.86,1.93-1.63,3.93-2.36,6.12A57.21,57.21,0,0,0,56.71,135a5,5,0,0,0,1.33,4.8c1.05,1.06,1.94,1.91,2.79,2.68,1.39,1.24,2.82,2.43,4.27,3.54a62.8,62.8,0,0,0,9.52,6c1.84.94,3.79,1.84,5.82,2.67a5.07,5.07,0,0,0,5-.49,12.61,12.61,0,0,0,1.25-1l.7-.58c1.72-1.37,3.36-2.8,4.87-4.26,2.39-2.32,4.85-4.71,7.09-7.26.51-.57,1-1.18,1.49-1.77l.78-.94,0,0a3.23,3.23,0,0,1,.47-.51A1.15,1.15,0,0,1,102.93,137.51Zm61.82-59.45v4.19c0,3.85,0,7.83,0,11.74,0,.19,0,.2.23.26,1.41.41,2.84.85,4.22,1.27l1.86.56v-.17a12.63,12.63,0,0,1,0-1.37c0-.27,0-.33-.34-.42l-1.95-.59-1.46-.44a.91.91,0,0,1-.75-1c0-.93,0-1.86,0-2.85V87.6l3.34,1v-.15c0-.51,0-1,0-1.46,0-.2,0-.25-.25-.32s-.61-.18-.91-.27-.9-.29-1.35-.4a1,1,0,0,1-.85-1.15c0-.58,0-1.16,0-1.73V80.47L171,81.82v-.14c0-.45,0-.86,0-1.28,0-.17,0-.34,0-.41a2.25,2.25,0,0,0-.42-.14c-1.85-.57-3.67-1.13-5.51-1.67l-.22-.07ZM106.39,45ZM10.73,103.7l-.16-.1a.75.75,0,0,1-.38-.82v-5.4c0-3.37,0-6.85,0-10.28A1.12,1.12,0,0,1,11,85.86c.25-.08.48-.18.74-.29A8.07,8.07,0,0,1,13,85.13l.46-.1v7a5.25,5.25,0,0,0,.55-.22l.43-.17h0a1,1,0,0,0,0-.18V86.59c0-.45,0-.92,0-1.38a.92.92,0,0,1,.59-1l1.45-.54.64-.24.19-.08.17.13a.8.8,0,0,1,.32.81v.08c0,4.59,0,9.52,0,15.53v.2c0,.66-.09.81-.69,1l-.2.08-1.32.51L15,102l-.52.2V95.08a2.1,2.1,0,0,0-.86.4,2.91,2.91,0,0,0-.1,1.15c0,.47,0,.93,0,1.4,0,1.21,0,2.46,0,3.69a1.11,1.11,0,0,1-.86,1.22c-.41.13-.82.31-1.22.47l-.52.22Zm2-17.69c-.23.08-.45.18-.66.27s-.53.22-.81.31-.3.13-.3.51c0,3.43,0,6.91,0,10.28v5.4l.17-.07c.41-.17.83-.35,1.28-.5.28-.09.33-.16.33-.48,0-1.24,0-2.49,0-3.7v-1.4c0-1.67.1-1.8,1.67-2.34a1,1,0,0,1,.28,0h.12l.42,0v6.89l.12,0,1.32-.51.22-.08.19-.08v-.44c0-6,0-10.94,0-15.53,0,0,0-.07,0-.1l-.29.11L15.31,85c-.07,0-.09,0-.08.24v6.19a.84.84,0,0,1-.52.93,4,4,0,0,0-.39.16,4,4,0,0,1-1.18.36l-.43,0Zm1.76,5.58Zm174.4,11.62a2.25,2.25,0,0,1-.9-.21c-.71-.31-1.45-.59-2.16-.87-.48-.18-1-.37-1.45-.57a2.84,2.84,0,0,1-1.88-2.78V96.57l.48.12a15.7,15.7,0,0,1,2.23.82l.22.09a.73.73,0,0,1,.4.85v.06c0,.12,0,.15.17.22s.62.22,1,.35c0-.61,0-1.2,0-1.78,0-.3,0-.62,0-.93,0-.05-.05-.11-.16-.22l-.15-.15-.48-.56c-.85-1-1.72-2-2.6-2.93a3.85,3.85,0,0,1-1.06-2.8c0-.95,0-1.91,0-2.85v-1.3a2.72,2.72,0,0,1,0-.28,1.53,1.53,0,0,1,.57-1.23,1.57,1.57,0,0,1,1.33-.18,4.29,4.29,0,0,1,.63.23l.21.08.82.33,2.25.89a2.91,2.91,0,0,1,1.95,2.92c0,.36,0,.72,0,1.11v1.14l-.52-.21-2.1-.83-.16-.06a.78.78,0,0,1-.51-.9c0-.17.06-.27-.35-.38l-.46-.17-.32-.13v.33c0,.8,0,1.57,0,2.35,0,.07,0,.12.18.26l.11.12.54.63c.82,1,1.67,1.93,2.53,2.88a4,4,0,0,1,1.08,2.88c-.05,1.54-.06,2.83,0,4.12a1.65,1.65,0,0,1-.61,1.52A1.3,1.3,0,0,1,188.87,103.21Zm-5.62-5.64v1.21a2.05,2.05,0,0,0,1.4,2.07c.47.2,1,.39,1.43.57.72.28,1.47.57,2.2.88a1,1,0,0,0,.94,0,.93.93,0,0,0,.28-.84c-.08-1.33-.06-2.63,0-4.19A3.18,3.18,0,0,0,188.6,95c-.86-1-1.71-1.94-2.54-2.89l-.54-.62a.39.39,0,0,0-.08-.1,1.09,1.09,0,0,1-.39-.79V87h.4a2.52,2.52,0,0,1,1,.27,3.3,3.3,0,0,0,.37.13c.72.21,1,.63.89,1.27h0l0,0,.16.06,1.58.63v0c0-.39,0-.76,0-1.12a2.14,2.14,0,0,0-1.47-2.2c-.74-.31-1.5-.6-2.24-.89l-.82-.33a2.18,2.18,0,0,1-.23-.09c-.18-.07-.35-.14-.52-.19a.85.85,0,0,0-.68.06.88.88,0,0,0-.27.66v1.53c0,.94,0,1.91,0,2.86a3.09,3.09,0,0,0,.87,2.27c.88,1,1.76,2,2.6,3l.49.56a.94.94,0,0,0,.1.1,1.07,1.07,0,0,1,.4.77v.92a21.17,21.17,0,0,1,0,2.37l0,.5-.48-.18-.47-.18c-.32-.13-.63-.25-.92-.35a.91.91,0,0,1-.7-1,230478199650,230478199650,0,0,0,0-.16l-.17-.07C184.37,98,183.83,97.76,183.25,97.57ZM21.41,99.45a1.39,1.39,0,0,1-.89-.29A1.5,1.5,0,0,1,20,98c0-.7,0-1.41,0-2.09V91c0-.63,0-1.27,0-1.89,0-1.49,0-3,0-4.54a3,3,0,0,1,2.08-3c1.28-.38,2.42-.77,3.49-1.2a1.73,1.73,0,0,1,1.64.09,1.83,1.83,0,0,1,.69,1.59c0,2.93,0,5.91,0,8.8v4.34a2.69,2.69,0,0,1-2,2.78L23,99l-.74.26-.46.13A3.15,3.15,0,0,1,21.41,99.45ZM26.35,81a1.27,1.27,0,0,0-.51.11c-1.09.42-2.25.82-3.55,1.22a2.28,2.28,0,0,0-1.54,2.19c0,1.52,0,3.07,0,4.56,0,.62,0,1.26,0,1.89v4c0,.3,0,.6,0,.89,0,.68,0,1.38,0,2.06a.77.77,0,0,0,.22.61.85.85,0,0,0,.68.09,2.26,2.26,0,0,0,.35-.09l.74-.26,2.86-1a2,2,0,0,0,1.48-2.06V90.91c0-2.89,0-5.87,0-8.81a1.11,1.11,0,0,0-.37-.95A.76.76,0,0,0,26.35,81Zm152.5,18.3-.44-.07a9.9,9.9,0,0,1-1.67-.49c-.26-.1-.5-.19-.75-.27a.67.67,0,0,1-.48-.68V84.45a3.23,3.23,0,0,0,0-.34l-.14,0c-.11,0-.24-.08-.4-.15l-.43-.11a1.7,1.7,0,0,1-1.13-.59,1.83,1.83,0,0,1-.18-1.25,3.61,3.61,0,0,0,0-.44c0-.23,0-.45,0-.66v-.43l.14-.12a.77.77,0,0,1,.88-.08l.08,0,1.81.63c1.34.47,2.74,1,4.11,1.41a1.07,1.07,0,0,1,.81,1.17c0,.45,0,.89,0,1.35v1l-.41,0a4.55,4.55,0,0,1-1.22-.33c-.2-.07-.39-.15-.58-.2Zm-2.57-1.54.73.26c.35.13.7.26,1.08.36v-14l.41,0a4.08,4.08,0,0,1,1.2.33c.2.07.4.15.59.2v-.14c0-.48,0-.93,0-1.39,0-.27,0-.33-.28-.41-1.38-.46-2.77-1-4.12-1.42L174.09,81,174,81c0,.18,0,.36,0,.54a3.38,3.38,0,0,1,0,.55,1.23,1.23,0,0,0,.06.74c.1.15.37.21.65.27a3.32,3.32,0,0,1,.54.15l.37.13c.65.22.68.43.67,1.12V97.26C176.27,97.44,176.27,97.63,176.28,97.8ZM31.56,96.1a1.34,1.34,0,0,1-.83-.25,1.76,1.76,0,0,1-.64-1.42c0-.13,0-.26,0-.39v-14c0-1,.11-1.15,1.09-1.45l1.18-.34.6-.18.49-.14V92.17l.11,0,1-.29h0V78.67c0-1,.12-1.14,1.07-1.39.18,0,.36-.1.55-.16a6,6,0,0,1,1.3-.3l.25,0,.12.23a1.52,1.52,0,0,1,.13.8.76.76,0,0,0,0,.15v4.27c0,3.19,0,6.49,0,9.73a2.88,2.88,0,0,1-2.23,3c-.73.18-1.47.4-2.18.62L32.27,96A2.73,2.73,0,0,1,31.56,96.1Zm-.68-16.56a2.25,2.25,0,0,0,0,.53V94.39a1.15,1.15,0,0,0,.32.84,1,1,0,0,0,.89,0c.46-.12.93-.27,1.38-.4.72-.22,1.47-.45,2.22-.63A2.13,2.13,0,0,0,37.31,92c0-3.25,0-6.55,0-9.74,0-1.42,0-2.84,0-4.27v-.19a1,1,0,0,0,0-.16,6.53,6.53,0,0,0-.81.22L35.9,78a2.62,2.62,0,0,0-.47.15,3,3,0,0,0,0,.49V91.22c0,.09,0,.17,0,.26v.33a.74.74,0,0,1-.62.78l-1,.28-.59.18-.49.14V79l-.12,0-1.17.35A2.61,2.61,0,0,0,30.88,79.54Zm3.76,12.32Zm0,0ZM157.27,72a1.29,1.29,0,0,1-.23,0h-.1a2.66,2.66,0,0,1-1.9-1.07A27.91,27.91,0,0,0,152.3,68l-.74-.72a67.42,67.42,0,0,0-6.69-5.75l-.45-.34c-.32-.25-.62-.49-.95-.7a1.08,1.08,0,0,1-.45-1.32,37.43,37.43,0,0,1,1.45-3.74,1.2,1.2,0,0,1,1.13-.8,1.16,1.16,0,0,1,1,.46l.06.06c.92.9,1.76,1.88,2.57,2.82l.4.47a62,62,0,0,1,3.85,5.08,64.78,64.78,0,0,1,4.1,6.88c.06.11.11.23.16.34a.83.83,0,0,0,.07.13l0,.05a.74.74,0,0,1,0,.81A.66.66,0,0,1,157.27,72ZM145.7,55.39h-.08c-.19,0-.32.06-.45.34a38,38,0,0,0-1.42,3.67c-.08.26,0,.35.13.45a10.93,10.93,0,0,1,1,.74l.44.33a67.6,67.6,0,0,1,6.76,5.82l.74.71a29.64,29.64,0,0,1,2.82,3,1.84,1.84,0,0,0,1.36.78h.1v0l-.07-.13-.15-.32a63.14,63.14,0,0,0-4-6.79A61.81,61.81,0,0,0,149,59l-.4-.47c-.8-.93-1.63-1.9-2.52-2.77l-.07-.07C145.87,55.47,145.78,55.39,145.7,55.39Zm-6.54,2a1,1,0,0,1-.49-.16l-1-.62L136,55.7a61.8,61.8,0,0,0-6.67-3.38,1.91,1.91,0,0,1-1.26-1.61c-.27-1.49-.63-3-1-4.45l-.4-1.7c0-.11-.06-.21-.09-.33a5.27,5.27,0,0,1-.14-.6,1.48,1.48,0,0,1,.33-1.24,1.56,1.56,0,0,1,1.22-.5,1.73,1.73,0,0,1,.89.23c1.55.75,3.11,1.61,4.64,2.54,1.85,1.13,3.72,2.4,5.56,3.77l.28.21a15.07,15.07,0,0,1,1.53,1.24,2.17,2.17,0,0,1,.72,2.55c-.37.9-.76,1.81-1.13,2.69-.26.61-.51,1.22-.77,1.84a.67.67,0,0,1-.42.42ZM128,42.66a.82.82,0,0,0-.61.23.8.8,0,0,0-.15.62,4.77,4.77,0,0,0,.13.51l.09.36c.13.57.27,1.14.41,1.7.35,1.46.72,3,1,4.5a1.17,1.17,0,0,0,.82,1,61.76,61.76,0,0,1,6.76,3.43L138,56l1.05.62h0l.75-1.78L141,52.14c.25-.59.08-1.11-.54-1.71A15.21,15.21,0,0,0,139,49.25l-.29-.21c-1.82-1.36-3.67-2.61-5.5-3.73-1.51-.92-3-1.76-4.58-2.5a.93.93,0,0,0-.49-.15H128Zm-3.92,7.46-.61-.19-.87-.26-1.72-.52a72.27,72.27,0,0,0-8.14-2,1.31,1.31,0,0,1-1.14-1,35.39,35.39,0,0,0-2.22-5.41c-.21-.43-.46-.85-.7-1.26s-.34-.57-.5-.86l0-.08A1.48,1.48,0,0,1,108,37a1.58,1.58,0,0,1,1.74-1l4.14.79c1.64.33,3.23.77,4.86,1.23a4.41,4.41,0,0,1,3.14,3.2c.75,2.58,1.53,5.34,2.12,8.25ZM109.4,36.76a.83.83,0,0,0-.75.59c-.12.25,0,.42.15.76l0,.08c.15.28.32.57.48.84s.51.85.74,1.3a36.92,36.92,0,0,1,2.26,5.53.57.57,0,0,0,.56.5,74.25,74.25,0,0,1,8.22,2.06l1.71.52.25.08c-.57-2.66-1.29-5.19-2-7.56a3.61,3.61,0,0,0-2.61-2.68c-1.61-.46-3.19-.9-4.8-1.22-1.38-.27-2.77-.54-4.13-.78Z"/><path class="cls-4" d="M44.31,75.35a5.09,5.09,0,0,1,1.18-2,30.85,30.85,0,0,1,4.51-5c1.79-1.59,3.67-3.08,5.6-4.49a71,71,0,0,1,7.86-5A69.38,69.38,0,0,1,71.51,55a71.15,71.15,0,0,1,10.58-3.28l1.48-.31a.94.94,0,0,0,.86-.78c.23-1.13.57-2.24.86-3.36.18-.72,0-.89-.67-.75-2.12.44-4.25.84-6.34,1.42a83.82,83.82,0,0,0-9.13,3.1A82.75,82.75,0,0,0,61,55a76,76,0,0,0-6.55,4.06c-.9.62-1.78,1.28-2.67,1.93a1.11,1.11,0,0,1-1,.29.91.91,0,0,1-.48-1.49,7.6,7.6,0,0,1,.82-1.07c1.63-1.84,3.23-3.71,5-5.38a66.68,66.68,0,0,1,11.39-8.61,63,63,0,0,1,10.06-4.85A67.2,67.2,0,0,1,89,36.73c1.38-.26,2.78-.43,4.17-.59a67,67,0,0,1,6.93-.34,1.8,1.8,0,0,1,1.54.68A39.07,39.07,0,0,1,104.82,41a24.62,24.62,0,0,1,1.82,3.63,1.2,1.2,0,0,1,.13.31c0,.25.3.49.13.72s-.51.13-.78.06a14.28,14.28,0,0,0-2.26-.21,77.79,77.79,0,0,0-8.22-.2,14.77,14.77,0,0,0-1.52.23c.33,1.38.74,2.7,1,4.06.06.3.31.28.53.28.77,0,1.53,0,2.29,0a52.33,52.33,0,0,1,6,.2,37.53,37.53,0,0,1,4.1.46c.39.08.57.26.61.59.09,1,.36,2,.37,3,0,.86.14,1,.93,1.3a21.32,21.32,0,0,1,3.73,1.44c.22-1-.17-1.85-.09-2.73a13.26,13.26,0,0,0-.31-2.66,19.24,19.24,0,0,1,2.49.51A74.58,74.58,0,0,1,124,54.6c.38.15.59.29.66.74.27,1.67.5,3.34.68,5q.3,2.82.49,5.63a1.08,1.08,0,0,0,.82,1.07,20.5,20.5,0,0,0,2.9.52c.56.08.84-.21.85-.79a5.64,5.64,0,0,0-.1-1.69,4.23,4.23,0,0,1-.06-1A32.74,32.74,0,0,0,130,60.8c-.12-1.12-.21-2.24-.38-3.35a.35.35,0,0,1,.11-.31c.18-.06.32.06.47.13a71.23,71.23,0,0,1,7.22,4.09c.75.5.76.59.61,1.46s-.2,1.51-.26,2.26,0,1.29-.14,1.94a1.7,1.7,0,0,0,1.6,2.13c.72,0,1.43.31,2.16.3s.78-.09.79-.79a16,16,0,0,1,.23-3.65,3,3,0,0,1,1.3.84,81.85,81.85,0,0,1,8.22,7.69c.68.71,1.27,1.51,2,2.19,0,.31,0,.62,0,.93V90.82c0,.2,0,.4,0,.6s.07.36.25.39a21.5,21.5,0,0,0,2.42.52V86.39a1.32,1.32,0,0,1,.36.65c.53,1.76,1,3.52,1.58,5.28.07.23,0,.55.34.64a19.55,19.55,0,0,0,2.56.63c-.08-.3-.12-.5-.17-.69-.73-2.46-1.41-4.94-2.2-7.38a2.65,2.65,0,0,1,.22-2.32,29.23,29.23,0,0,1,2.12,3.36c.61,1,1.09,2.17,1.72,3.21a7.87,7.87,0,0,1,.78,3.07c.19,1.17.07,2.37.31,3.53a3.08,3.08,0,0,1,0,.68c0,1.73,0,3.45,0,5.18,0,1.21-.16,2.41-.28,3.61s-.22,2.19-.38,3.27a62.36,62.36,0,0,1-2,9.06,65.12,65.12,0,0,1-3.43,8.92c-.57,1.2-1.25,2.34-1.81,3.54a.3.3,0,0,1,0,.08c-.17.29-.33.63-.77.5s-.41-.41-.31-.91c.46-2.26.82-4.53,1.1-6.83a69.74,69.74,0,0,0,.27-10.32,50.56,50.56,0,0,0-.76-6.69A78.13,78.13,0,0,0,153,95.58,2.21,2.21,0,0,0,151,93.9c-.67-.07-1.34-.2-2-.3a1,1,0,0,0-1.1,1.37,59.53,59.53,0,0,1,2.82,9c.43,1.92.75,3.86,1,5.81.2,1.57.28,3.14.36,4.72a13.62,13.62,0,0,1,.1,2.7c-.24,1.54-.11,3.09-.26,4.63a70.06,70.06,0,0,1-1.07,7.09,35.33,35.33,0,0,1-4.45,11.63,34.35,34.35,0,0,1-6,7.3,32,32,0,0,1-5.64,4.16,50.26,50.26,0,0,1-8.08,3.68,63.27,63.27,0,0,1-7,2.07,60.12,60.12,0,0,1-6.38,1.17c-1.88.22-3.75.38-5.63.53a46.72,46.72,0,0,1-5.42.08c-1.2,0-2.41-.11-3.62-.25s-2.35-.22-3.52-.39a16.4,16.4,0,0,1-2.33-.38,1.84,1.84,0,0,1-.88-3.09l2.4-2.14c.13-.11.27-.2.39-.32,1.69-1.67,3.53-3.19,5.11-5,1.08-1.2,2.25-2.3,3.25-3.57a2.42,2.42,0,0,0,.57-1.56c0-1.33,0-2.66,0-4a1.45,1.45,0,0,0-.08-.5c-.2-.59-.63-.7-1.09-.29a3.56,3.56,0,0,0-.46.49c-.76.91-1.5,1.84-2.28,2.73-2.24,2.55-4.68,4.91-7.11,7.27-1.56,1.51-3.2,2.94-4.9,4.29a25,25,0,0,1-2,1.59,5.46,5.46,0,0,1-5.38.53c-2-.82-3.94-1.71-5.86-2.69a62.78,62.78,0,0,1-9.57-6.06q-2.22-1.69-4.29-3.56c-1-.87-1.9-1.78-2.81-2.7a5.27,5.27,0,0,1-1.43-5.14,59.63,59.63,0,0,1,1.67-6.2c.7-2.09,1.48-4.15,2.38-6.16a65.21,65.21,0,0,1,5.06-9.29c.5-.76.25-1.39-.64-1.71-.66-.24-1.32-.5-2-.72a1.24,1.24,0,0,0-1.64.59,80.17,80.17,0,0,0-4,7.26,69.12,69.12,0,0,0-4,10.5A1.93,1.93,0,0,1,51,130.77a1.58,1.58,0,0,1-1.34-.77,76.39,76.39,0,0,1-3.84-6.68,65.63,65.63,0,0,1-3.62-8.76,64.29,64.29,0,0,1-2.46-10.16c-.32-2.09-.54-4.18-.71-6.29a66.52,66.52,0,0,1-.09-6.77,23,23,0,0,1,.58-4.43c.23-1,.49-2.08.76-3.11.08-.28.05-.64.42-.77a1.85,1.85,0,0,0,1.2,1.32c1,.44,2,.93,3,1.39a.6.6,0,0,1,.44.63c0,.88,0,1.75,0,2.63,0,.26-.06.44-.35.49a12.09,12.09,0,0,1-1.54.33c-.22-.25,0-.59-.24-.8l-.74.16c-1.9.48-1.9.48-1.73,2.48a1.15,1.15,0,0,0,1.5,1.16c1.4-.32,2.8-.66,4.19-1a2,2,0,0,0,1.52-1.92c0-1.64,0-3.28,0-4.92a1.49,1.49,0,0,0-1-1.46c-.8-.36-1.56-.82-2.38-1.12-1-.35-1.49-.9-1.27-2a3.05,3.05,0,0,0,0-.43c0-.53-.22-1.2.1-1.56s1.09-.38,1.66-.5c.05,0,.11,0,.16,0,.15.22,0,.52.21.76.69-.17,1.4-.33,2.12-.49a.41.41,0,0,0,.37-.47c0-.46,0-.91,0-1.36,0-1.23-.61-1.68-1.82-1.41A13.88,13.88,0,0,1,44.31,75.35Zm96.8,29.92h0a.27.27,0,0,0,.19-.2c.2-.19.42-.37.62-.57,1.24-1.26,1.41-2.37.17-3.78a5.44,5.44,0,0,0-1-.88,19.15,19.15,0,0,0-6.25-2.54,61.71,61.71,0,0,0-14-1.7c-1.75,0-3.51,0-5.26,0-.42,0-.65-.11-.61-.57a4.34,4.34,0,0,0,0-.51q0-4.62,0-9.25a4.41,4.41,0,0,0-1.88-3.7,8.2,8.2,0,0,0-3.2-1.28c-1-.23-2-.13-3-.29a2.68,2.68,0,0,1,1-.46,20.39,20.39,0,0,0,3.29-1.68c.18-.11.44-.17.43-.46h0a.26.26,0,0,0,.35-.18h0l.17,0a.42.42,0,0,0,.34-.39,11.21,11.21,0,0,0,5.11-9.69,7.79,7.79,0,0,0-3.5-6.61,19.5,19.5,0,0,0-9-3c-1-.14-2.09-.13-3.13-.22a23.37,23.37,0,0,0-3.55,0c-1.41.08-2.82.15-4.23.24-.59,0-.64,0-.72-.57a74.48,74.48,0,0,0-2.24-10.86,10.63,10.63,0,0,0-1-2.83c-.1,0-.16.06-.16.16h0c-.38,0-.5.33-.61.63s-.26.74-.37,1.12a95,95,0,0,0-3.23,13.5c-2.63.49-5.27,1-7.87,1.63a56.6,56.6,0,0,0-6.27,1.76,1,1,0,0,0-.77.69c.48,0,.91,0,1.32,0,2.23-.2,4.46-.3,6.69-.33.51,0,1-.05,1.52-.07,1.47-.05,3,0,4.42,0,.32,0,.46.13.44.46a4.35,4.35,0,0,0,0,.51c-.11,1.77-.26,3.55-.29,5.33,0,2.57,0,5.14.07,7.72.11,2.74.11,5.48.18,8.22.09,3.68.08,7.36.11,11-2.28,0-4.57,0-6.85.11-2.11.14-4.22.27-6.32.52a44.71,44.71,0,0,0-7.94,1.61c-2.19.69-4.32,1.53-5.8,3.44a2.41,2.41,0,0,0-.13,3.6,11.67,11.67,0,0,0,4.15,2.59A47.81,47.81,0,0,0,71.12,110a97.25,97.25,0,0,0,10,1.57c1.16.12,2.3.27,3.46.34.71,0,.77.13.77.82.05,3.77.22,7.52.35,11.28.09,2.94.15,5.88.23,8.82a1.29,1.29,0,0,0,.2.89,1.13,1.13,0,0,0,.22-.11c.55-.38.34-1,.39-1.48a1.55,1.55,0,0,0,.15-.9c.08-1.1.13-2.19.22-3.29.14-1.85.32-3.69.46-5.54.12-1.55.17-3.09.39-4.63.58.29.62.83.63,1.37,0,1.75.07,3.49.13,5.24.14,3.6.18,7.21.24,10.82,0,1.07.08,2.13.17,3.22.74-.26.68-.84.68-1.4.2-.28.12-.6.14-.9.08-1.16.14-2.31.23-3.46.14-1.85.31-3.7.45-5.55s.25-3.71.38-5.57a2.21,2.21,0,0,1,.15-.48,1.11,1.11,0,0,1,.52,1c0,.91.1,1.81.12,2.71.06,2,.06,3.9.15,5.85.14,3.27.16,6.55.24,9.83,0,.59,0,1.19,0,1.78,0,.18-.07.41.2.5a1,1,0,0,0,.6-1.1c0-.45,0-.9,0-1.35s.12-1,.13-1.52c.08-3.56.18-7.12.35-10.67.08-1.69.06-3.39.15-5.08.14-2.8.17-5.59.23-8.39a13.53,13.53,0,0,1,.15-2.11c3.51.09,7,.06,10.52,0,1.13,0,1-.24,1.17,1.08,0,0,0,.11,0,.17,0,1.86.09,3.72.15,5.59.12,3.53.21,7.06.35,10.59.1,2.76.15,5.53.22,8.3,0,1.61.11,3.22.16,4.83a.24.24,0,0,0,.14.24,1.21,1.21,0,0,0,.63-1.23c0-.79.07-1.58.11-2.37.15-2.79.34-5.58.46-8.38.07-1.58.25-3.15.21-4.74a3.3,3.3,0,0,1,.16-.83,1,1,0,0,1,.51.93c0,.64.12,1.29.13,1.94.05,3,.19,6,.33,9.06.1,2.29.14,4.58.22,6.86,0,1.61.11,3.22.17,4.83,0,.11,0,.23.17.29a1,1,0,0,0,.61-1.14c.1-1.06.11-2.14.17-3.21.18-3.37.26-6.75.42-10.13.07-1.58.12-3.15.19-4.73a5.2,5.2,0,0,1,.22-1.66c.64.26.72.82.75,1.4.06,1.6.1,3.21.15,4.82.06,1.78,0,3.55.14,5.33.12,2.34.08,4.68.18,7,.13,2.73.14,5.47.22,8.21,0,.17-.1.4.16.5a.89.89,0,0,0,.55-1c0-.23,0-.45,0-.68a1,1,0,0,0,.09-.49c.05-2.4,0-4.8.16-7.2.12-2.14,0-4.29.15-6.44.14-2.59,0-5.19.19-7.79.12-2.28,0-4.57.15-6.86.13-2.73.06-5.48.2-8.21.09-1.87,0-3.73.11-5.6,2.18-.09,4.33-.4,6.48-.68a91.06,91.06,0,0,0,9.58-1.72,38.73,38.73,0,0,0,7.71-2.55,4.29,4.29,0,0,0,1.62-1h0a.51.51,0,0,0,.52-.34h0c.11,0,.18-.07.19-.18h.07l.08,0A.21.21,0,0,0,141.11,105.27ZM75,74.93h-.19c-.08-.2-.15-.41-.22-.61L73.36,71c-.32-.91-.23-.73-1.07-.67-.36,0-.73.12-1.09.14-.82,0-.73.12-.73.79V86.77c0,.21-.09.45.16.63.61-.08,1.22-.18,1.84-.23s.69-.09.69-.84V80c0-.23,0-.47,0-.7a21,21,0,0,1,.88,2.11A9.59,9.59,0,0,1,75,86.23c0,.08,0,.17,0,.25,0,.3.13.4.42.36a17.69,17.69,0,0,1,1.77-.18c.42,0,.55-.2.51-.58a2.94,2.94,0,0,1,0-.42V70.72a4.34,4.34,0,0,1,0-.51c0-.4-.17-.48-.51-.44-.59.07-1.18.14-1.78.17-.34,0-.42.21-.41.5s0,.51,0,.76ZM130.35,87.4a1.2,1.2,0,0,0,0-.63c-.33-2.06-.65-4.13-1-6.19-.05-.3-.07-.53.25-.71a1.34,1.34,0,0,0,.6-1.24c0-2.15,0-4.3,0-6.45a1.81,1.81,0,0,0-1.66-1.84c-1.71-.21-3.42-.39-5.14-.55-.56-.06-.56,0-.58.52,0,.14,0,.28,0,.42V85.66a4.34,4.34,0,0,1,0,.51c0,.33.12.45.43.48.73.06,1.45.15,2.28.23v-7c1,0,1,0,1.18.85.24,1.54.48,3.07.73,4.6.1.59,0,1.3.38,1.71s1.16.23,1.76.36A1.64,1.64,0,0,0,130.35,87.4ZM60.26,80.49c0,2.21,0,4.41,0,6.62,0,1.22.53,1.7,1.75,1.54s2.57-.37,3.85-.59A1.89,1.89,0,0,0,67.59,86q0-6.61,0-13.22c0-1.25-.58-1.78-1.81-1.61s-2.45.42-3.68.57A2.13,2.13,0,0,0,60.24,74C60.31,76.14,60.26,78.32,60.26,80.49Zm80.48.2c0-2.23,0-4.46,0-6.69a2,2,0,0,0-1.83-2.16c-1.22-.2-2.45-.39-3.68-.57s-1.81.32-1.81,1.57q0,6.61,0,13.22a1.88,1.88,0,0,0,1.78,2.08c1.17.19,2.34.36,3.51.56,1.48.25,2-.21,2-1.73C140.75,84.88,140.74,82.78,140.74,80.69Zm10.19-2.9a10.06,10.06,0,0,0,0-2.26,1.93,1.93,0,0,0-1.42-1.64,8.87,8.87,0,0,0-1.16-.26c-1-.21-2-.44-3-.6s-1.67.32-1.7,1.42v13c0,.2,0,.4,0,.59a2,2,0,0,0,1.44,1.81c.35.1.72.16,1.08.23,1,.21,2,.43,3,.62,1.24.22,1.78-.23,1.8-1.45,0-.42,0-.85,0-1.27,0-.26-.06-.44-.35-.49l-1.91-.4c-.23,0-.41,0-.39.28,0,.51-.27.46-.6.39l-.66-.14c-.71-.15-.72-.15-.72-.86V76.48c0-.19-.06-.4.14-.58l1.22.23c.4.07.69.21.62.71,0,.25.06.41.35.47C149.42,77.45,150.15,77.62,150.93,77.79ZM57.66,72.54c-.58.1-1.13.19-1.68.31l-5,1c-.29.06-.57.08-.56.48a20.46,20.46,0,0,0,.06,2.21c.77,0,1.47-.41,2.28-.29V87.58c0,.91,0,1.83,0,2.78L55,89.94a.44.44,0,0,0,.41-.53,5.8,5.8,0,0,1,0-.59V76.68a4.34,4.34,0,0,0,0-.51c0-.4.08-.63.53-.67s.94-.19,1.42-.27a.38.38,0,0,0,.37-.45A21.22,21.22,0,0,0,57.66,72.54Z"/><path class="cls-4" d="M123.58,49.57,121,48.78a73.55,73.55,0,0,0-8.18-2.05A.94.94,0,0,1,112,46a35.76,35.76,0,0,0-2.23-5.48c-.37-.72-.82-1.41-1.22-2.13a1.21,1.21,0,0,1,1.11-2c1.38.25,2.76.51,4.14.79,1.63.32,3.23.76,4.82,1.22a4,4,0,0,1,2.88,2.94C122.24,44,123,46.7,123.58,49.57Z"/><path class="cls-4" d="M128.05,42.28a1.31,1.31,0,0,1,.71.19A51.5,51.5,0,0,1,133.37,45q2.85,1.74,5.53,3.75a16.29,16.29,0,0,1,1.78,1.42,1.82,1.82,0,0,1,.63,2.12l-1.9,4.53c-.13.31-.32.24-.54.11-.88-.52-1.76-1-2.63-1.54A60.53,60.53,0,0,0,129.52,52a1.55,1.55,0,0,1-1-1.33c-.37-2.07-.91-4.11-1.39-6.17-.07-.3-.18-.6-.22-.9A1.07,1.07,0,0,1,128.05,42.28Z"/><path class="cls-5" d="M33.07,92.68c.65-.18,1.13-.34,1.62-.46a.36.36,0,0,0,.33-.4V78.67c0-.8,0-.81.78-1a10.23,10.23,0,0,1,1.79-.46,1.57,1.57,0,0,1,.08.79c0,4.66,0,9.33,0,14a2.52,2.52,0,0,1-1.94,2.61c-1.21.3-2.39.7-3.58,1s-1.63-.11-1.7-1.21c0-.17,0-.34,0-.5V80.08c0-.84,0-.84.81-1.09l1.79-.52Z"/><path class="cls-6" d="M20.39,91c0-2.15,0-4.3,0-6.44A2.68,2.68,0,0,1,22.18,82c1.19-.36,2.37-.76,3.52-1.21s1.82.15,1.81,1.32c0,4.38,0,8.76,0,13.14a2.34,2.34,0,0,1-1.74,2.42l-3.59,1.25-.41.11A1,1,0,0,1,20.39,98c0-1,0-2,0-3Zm2.55,5,1.26-.41c.71-.25.71-.25.71-1,0-3.37,0-6.74,0-10.11,0-.21.07-.44-.1-.66a4.54,4.54,0,0,0-1.19.36c-.67.23-.67.24-.68.93V96Z"/><path class="cls-5" d="M14.83,101.64v-7a1.77,1.77,0,0,0-.31,0c-1.42.49-1.42.49-1.42,2,0,1.7,0,3.4,0,5.09a.75.75,0,0,1-.59.86c-.61.2-1.2.47-1.77.69-.28-.16-.18-.38-.18-.56,0-5.2,0-10.41,0-15.61,0-.46.09-.73.56-.88a20.43,20.43,0,0,1,2-.71v6.95a6.06,6.06,0,0,0,1.49-.5c.31-.12.27-.4.27-.65V87.16c0-.66,0-1.31,0-2,0-.27,0-.49.34-.6l2.09-.79c.26.2.17.41.17.59V99.93c0,.8.08.67-.65,1Z"/><path class="cls-7" d="M159.25,83.2a2.65,2.65,0,0,0-.22,2.32c.78,2.44,1.47,4.92,2.19,7.38.06.19.1.39.18.69a19.16,19.16,0,0,1-2.56-.63c-.3-.09-.27-.41-.34-.64-.54-1.76-1.06-3.52-1.58-5.28a1.32,1.32,0,0,0-.36-.65v5.94a21.5,21.5,0,0,1-2.42-.52c-.18,0-.25-.2-.25-.39s0-.4,0-.6V76.66c0-.31,0-.62,0-.93s.05-.49.09-.8a16.92,16.92,0,0,1,2.37.51c.29.06.24.34.24.56v2.62c0,.33,0,.67,0,1a7.74,7.74,0,0,0,0,2,6.42,6.42,0,0,0,.62-1.68c.48-1.08.8-2.22,1.21-3.33.26-.7.2-.65.88-.45.52.15,1,.26,1.55.4s.56.17.38.69c-.52,1.49-1.06,3-1.57,4.46A6.51,6.51,0,0,0,159.25,83.2Z"/><path class="cls-7" d="M167,88.12c0,1.42,0,2.72,0,4,0,.36.16.49.48.58,1.13.33,2.26.7,3.4,1,.45.12.66.32.62.82s0,1.28,0,1.85a.33.33,0,0,1-.41,0c-2.06-.62-4.11-1.25-6.17-1.85-.37-.11-.5-.25-.5-.63q0-8.07,0-16.13a.9.9,0,0,1,0-.19c.28-.09.53.07.79.15,1.84.54,3.68,1.1,5.51,1.66.7.21.7.22.71.91v2L167,81v1.4c0,.82,0,1.64,0,2.46,0,.43.09.66.56.77.77.18,1.51.46,2.27.67.38.11.56.29.53.71,0,.67,0,1.35,0,2.1Z"/><path class="cls-6" d="M44.31,75.35a12.44,12.44,0,0,0,1.81-.4c1.21-.26,1.78.18,1.81,1.42,0,.45,0,.9,0,1.35a.41.41,0,0,1-.38.47l-2.12.49c-.23-.23-.06-.53-.2-.75a.34.34,0,0,0-.16,0c-.58.12-1.3.07-1.67.49s-.07,1-.09,1.57a3.09,3.09,0,0,1,0,.43c-.23,1.08.28,1.63,1.27,2,.82.29,1.58.75,2.37,1.12a1.48,1.48,0,0,1,1,1.46c0,1.64,0,3.28,0,4.92a2,2,0,0,1-1.51,1.92c-1.39.38-2.79.72-4.2,1a1.14,1.14,0,0,1-1.49-1.16c-.18-2-.17-2,1.73-2.47l.74-.16c.27.21,0,.55.24.8A12.47,12.47,0,0,0,45,89.49c.29,0,.35-.24.35-.49,0-.88,0-1.75,0-2.63a.61.61,0,0,0-.44-.63c-1-.46-2-.95-3-1.39A1.84,1.84,0,0,1,40.68,83c0-1.58,0-3.15,0-4.73a2.21,2.21,0,0,1,1.9-2.48A14.41,14.41,0,0,0,44.31,75.35Z"/><path class="cls-7" d="M189.86,90l-2.26-.9a.38.38,0,0,1-.27-.46c.1-.52-.2-.71-.62-.83a5,5,0,0,0-1.27-.39c0,1.07,0,2.11,0,3.14,0,.29.22.45.39.64,1,1.17,2,2.35,3.06,3.51a3.51,3.51,0,0,1,1,2.61c0,1.39-.07,2.78,0,4.16.06,1.07-.62,1.66-1.75,1.16s-2.42-1-3.62-1.44a2.43,2.43,0,0,1-1.64-2.43V97.06a18.35,18.35,0,0,1,2.4.89c.24.1.17.34.16.53s.12.5.43.61.89.33,1.41.53c.1-1.13,0-2.19,0-3.25,0-.28-.24-.44-.41-.62-1-1.17-2-2.35-3.08-3.5a3.46,3.46,0,0,1-1-2.54c0-1.35,0-2.71,0-4.07V85.3a1,1,0,0,1,1.43-1.06,7.54,7.54,0,0,1,.79.3c1,.4,2,.8,3.07,1.22a2.5,2.5,0,0,1,1.71,2.55C189.85,88.85,189.86,89.38,189.86,90Z"/><path class="cls-4" d="M145.62,55c.33-.05.53.2.76.42,1.05,1,2,2.15,2.94,3.26,1.38,1.61,2.62,3.32,3.83,5a64.53,64.53,0,0,1,4.07,6.84c.08.15.15.3.22.45s.18.32.08.48-.35.1-.55.09a2.27,2.27,0,0,1-1.63-.92A37,37,0,0,0,151.82,67a66,66,0,0,0-6.72-5.78c-.48-.36-.93-.74-1.43-1.06a.7.7,0,0,1-.29-.88c.4-1.27.92-2.49,1.44-3.71A.82.82,0,0,1,145.62,55Z"/><path class="cls-7" d="M180.68,85.43c-.8-.07-1.42-.54-2.21-.61V98.89a19.37,19.37,0,0,1-2.37-.74c-.17-.05-.2-.18-.21-.33V84.66c0-1,.07-.77-.8-1.1-.47-.18-1.09-.16-1.37-.57s-.07-1-.09-1.49c0-.31,0-.62,0-.9.24-.2.42,0,.59,0,2,.68,3.94,1.39,5.93,2a.67.67,0,0,1,.54.79C180.66,84.1,180.68,84.75,180.68,85.43Z"/><path class="cls-8" d="M157.25,80a6.55,6.55,0,0,1-.62,1.68,7.75,7.75,0,0,1,0-2C156.89,79.61,157,79.92,157.25,80Z"/><path class="cls-9" d="M71.65,62.1a56.6,56.6,0,0,1,6.27-1.76c2.6-.64,5.23-1.14,7.87-1.63.65-.12.66-.12.78-1A84.75,84.75,0,0,1,89,47a26.78,26.78,0,0,0,1-3.5h0a.18.18,0,0,0,.15-.16,10.66,10.66,0,0,1,1,2.83A74.48,74.48,0,0,1,93.4,57c.08.54.13.61.72.57,1.41-.09,2.82-.16,4.23-.24a23.38,23.38,0,0,1,3.55,0c1,.09,2.09.08,3.13.22a19.5,19.5,0,0,1,9,3,7.81,7.81,0,0,1,3.5,6.61,11.23,11.23,0,0,1-5.11,9.69.54.54,0,0,0-.34.23c-.09,0-.17.07-.17.18h0a.32.32,0,0,0-.35.18h0a.83.83,0,0,0-.47.18,23.45,23.45,0,0,1-5.48,2.2c-.27.07-.53.17-.8.26a7.79,7.79,0,0,0,2.05,0c1,.16,2,.06,3,.29a8.2,8.2,0,0,1,3.2,1.28A4.38,4.38,0,0,1,115,85.3l0,9.25c0,.17,0,.34,0,.51,0,.46.19.57.61.57,1.75,0,3.5,0,5.26,0a61.78,61.78,0,0,1,14,1.7,19.15,19.15,0,0,1,6.25,2.54,5.78,5.78,0,0,1,1,.88c1.23,1.41,1.07,2.52-.18,3.78-.19.2-.41.38-.62.57a.26.26,0,0,0-.18.2h0l-.18,0a.17.17,0,0,0-.17.14h0a.18.18,0,0,0-.18.17h0c-.25,0-.48,0-.52.35h0c-.28-.08-.48.1-.71.2-.65.28-1.29.59-1.94.84a61.71,61.71,0,0,1-12.2,3c-3.31.55-6.64,1-10,1.21-.48,0-.69.21-.56.69-.13,1.86,0,3.73-.12,5.59-.13,2.74-.06,5.48-.19,8.22-.11,2.29,0,4.58-.16,6.86-.14,2.6,0,5.2-.18,7.79-.12,2.15,0,4.29-.15,6.44-.13,2.39-.12,4.8-.17,7.19a1,1,0,0,1-.08.5c-.1-1.64-.07-3.27-.17-4.91-.13-2.08-.08-4.18-.17-6.26-.14-3.45-.16-6.89-.24-10.34,0-1.21-.09-2.42-.14-3.64a1.69,1.69,0,0,0-.08-.5c-.1-.32-.23-.65-.65-.68s-.64.26-.71.67a4.9,4.9,0,0,0-.23,1.66c-.06,1.57-.12,3.15-.19,4.73-.16,3.37-.23,6.76-.41,10.13-.06,1.07-.08,2.14-.17,3.21a3,3,0,0,1-.09-.41c-.12-3.28-.24-6.55-.35-9.83-.09-2.34-.1-4.69-.24-7-.09-1.49-.1-3-.15-4.49a3.47,3.47,0,0,0-.23-1.32c-.21-.51-.66-.54-1-.09a1.33,1.33,0,0,0-.12.4,2.6,2.6,0,0,0-.16.83c0,1.58-.15,3.16-.21,4.74-.13,2.79-.31,5.58-.47,8.38,0,.79-.07,1.58-.1,2.37-.19-1.69-.1-3.39-.23-5.08s-.09-3.16-.15-4.74c-.13-3.82-.22-7.63-.37-11.44-.1-2.77-.15-5.54-.22-8.31a2.26,2.26,0,0,1,0-.26c0-.41-.19-.56-.57-.53s-1,.09-1.52.09c-3.2,0-6.4.13-9.59-.09-.7,0-.7,0-.7.76a12.34,12.34,0,0,0-.15,2.11c-.07,2.79-.09,5.59-.24,8.38-.09,1.7-.06,3.39-.15,5.09-.17,3.55-.27,7.11-.34,10.67,0,.5-.09,1-.14,1.51-.18-.22-.12-.48-.12-.73-.07-2.09-.07-4.18-.16-6.27-.14-3.41-.17-6.83-.24-10.25,0-.39,0-.79,0-1.19a2.51,2.51,0,0,0-.26-1.14.49.49,0,0,0-.89-.09.64.64,0,0,0-.17.46,2.18,2.18,0,0,0-.14.48c-.14,1.86-.24,3.71-.38,5.56s-.31,3.7-.46,5.56c-.09,1.15-.14,2.3-.22,3.45a1.67,1.67,0,0,1-.14.91c-.06-1-.1-1.92-.13-2.88-.1-2.49-.09-5-.19-7.46-.12-2.8-.14-5.6-.2-8.39a1.66,1.66,0,0,0-.27-1c-.27-.38-.59-.39-.89,0a.67.67,0,0,0-.17.47c-.22,1.53-.28,3.08-.39,4.62-.14,1.85-.32,3.7-.46,5.55-.09,1.1-.14,2.19-.22,3.29,0,.3,0,.62-.16.89,0-.42-.11-.84-.12-1.26-.06-1.95-.09-3.9-.17-5.85-.14-3.08-.14-6.16-.26-9.24,0-1.27-.1-2.54-.13-3.82,0-.67,0-.69-.73-.74-.87-.08-1.75-.13-2.62-.23-2.66-.32-5.32-.66-8-1.13a60.37,60.37,0,0,1-10.58-2.7,15.78,15.78,0,0,1-4.56-2.39,2.83,2.83,0,0,1-1.22-3.32.33.33,0,0,0,0-.17c1.49-1.91,3.61-2.76,5.81-3.44a43.67,43.67,0,0,1,7.94-1.61c2.1-.25,4.2-.38,6.31-.52,2.29-.15,4.57-.06,6.86-.11.13.25,0,.27-.22.3-2.26.35-4.52.68-6.77,1a59.07,59.07,0,0,0-8,1.75,7.17,7.17,0,0,0-3,1.46,1.55,1.55,0,0,0,0,2.43,4.63,4.63,0,0,0,1.13.89,20.17,20.17,0,0,0,5.68,2.12,58.79,58.79,0,0,0,7.22,1.33,23.81,23.81,0,0,0,3.86.38c.74.19.75.19.75-.47,0-1.92.07-3.85.1-5.77.07-4.88.13-9.77-.05-14.67-.11-2.93-.06-5.87-.19-8.81-.07-1.75,0-3.51-.06-5.26,0-3.25,0-6.5.24-9.75.07-1,.1-1-.85-1-3.62,0-7.23,0-10.84.33C73.39,62,72.52,62.06,71.65,62.1Zm34.63,13.79h0a.3.3,0,0,0,.19-.33h0a.32.32,0,0,0,.33-.35h0a.45.45,0,0,0,.3-.31A7.43,7.43,0,0,0,108,73.2a9.6,9.6,0,0,0,.49-4.25,4,4,0,0,0-1.11-2.59,7.9,7.9,0,0,0-2.68-1.9,32.17,32.17,0,0,0-10-2.32c-.56-.06-.8,0-.63.71a10.67,10.67,0,0,0,.12,1.6c.13,2.59.28,5.18.34,7.78s0,5.31,0,8c0,.64.07.7.68.59A29.76,29.76,0,0,0,101,79.28a13.18,13.18,0,0,0,5.11-3.22Zm27.36,26.67h0a1.47,1.47,0,0,0,.06-2.49,5.48,5.48,0,0,0-.92-.58,14.9,14.9,0,0,0-3.17-1.17,76.62,76.62,0,0,0-8.61-1.7c-1.87-.28-3.74-.52-5.6-.8-.28,0-.44,0-.48.3s-.1.33,0,.49c0,.65-.1,1.29-.11,1.94,0,2.68,0,5.37,0,8v.51c0,.25.14.34.38.32,1-.11,2.08-.19,3.11-.33,2.63-.36,5.25-.72,7.83-1.32a25.27,25.27,0,0,0,6-2,4,4,0,0,0,1.37-1A.28.28,0,0,0,133.64,102.56ZM94.6,82.5c-.08,1.55,0,3.11-.14,4.66-.13,2.17-.11,4.34-.16,6.52-.11,4.55-.07,9.1-.09,13.65,0,.63,0,.65.68.66q2,0,3.9,0c2.29,0,4.58,0,6.87-.06.73,0,.74,0,.77-.65,0-.28,0-.56,0-.85,0-2.85,0-5.71,0-8.57,0-3.36.12-6.73.15-10.09a3.62,3.62,0,0,0-1.29-2.92,7.81,7.81,0,0,0-1.27-.85,16.09,16.09,0,0,0-3.56-1.34,45.78,45.78,0,0,0-5.33-1c-.51-.08-.56,0-.59.52A1.06,1.06,0,0,0,94.6,82.5Z"/><path class="cls-6" d="M75,74.93V71.21c0-.26,0-.51,0-.77S75,70,75.37,70c.6,0,1.19-.11,1.78-.18.34,0,.54,0,.51.44a4.34,4.34,0,0,0,0,.51V85.66a2.94,2.94,0,0,0,0,.42c0,.39-.09.56-.51.58a17.69,17.69,0,0,0-1.77.18c-.29,0-.43-.06-.42-.35,0-.09,0-.18,0-.26a9.59,9.59,0,0,0-.89-4.86,22,22,0,0,0-.88-2.11c0,.24,0,.47,0,.7v6.37c0,.75.06.77-.69.84s-1.23.15-1.84.23c-.25-.18-.16-.42-.16-.63V71.24c0-.68-.09-.76.73-.8.36,0,.73-.11,1.09-.14.84-.06.75-.24,1.07.67l1.19,3.36c.07.2.14.41.22.61Z"/><path class="cls-7" d="M130.35,87.4a1.64,1.64,0,0,1-.8,0c-.6-.13-1.39.1-1.76-.36s-.28-1.12-.38-1.71c-.25-1.53-.49-3.07-.73-4.6-.13-.87-.13-.87-1.18-.85v7c-.83-.08-1.55-.17-2.28-.23-.31,0-.46-.15-.43-.48a4.34,4.34,0,0,0,0-.51V70.73c0-.14,0-.28,0-.43,0-.54,0-.57.58-.52,1.72.17,3.43.34,5.14.56a1.82,1.82,0,0,1,1.67,1.84c0,2.15,0,4.3,0,6.45a1.34,1.34,0,0,1-.6,1.24c-.32.18-.3.41-.25.71.34,2.06.66,4.13,1,6.19A1.2,1.2,0,0,1,130.35,87.4ZM125.5,74.86v.93c0,1.43,0,1.43,1.46,1.49.53,0,.54,0,.55-.56,0-.84,0-1.69,0-2.53,0-1.43,0-1.42-1.47-1.51-.39,0-.57,0-.55.49S125.5,74.29,125.5,74.86Z"/><path class="cls-7" d="M60.26,80.49c0-2.17.05-4.35,0-6.52a2.13,2.13,0,0,1,1.86-2.23c1.24-.15,2.45-.4,3.68-.57s1.81.36,1.82,1.61q0,6.61,0,13.22a1.88,1.88,0,0,1-1.72,2.06c-1.28.22-2.56.42-3.85.59s-1.75-.32-1.75-1.54C60.26,84.9,60.26,82.7,60.26,80.49ZM63,85.76a6.32,6.32,0,0,0,1.5-.16c.29,0,.38-.18.37-.44V74.8a1.23,1.23,0,0,0-.1-.77,8.4,8.4,0,0,0-1.57.18c-.21,0-.28.17-.28.35s0,.34,0,.51V85A1.3,1.3,0,0,0,63,85.76Z"/><path class="cls-6" d="M140.74,80.69V87c0,1.53-.54,2-2,1.73-1.17-.2-2.34-.37-3.51-.56a1.88,1.88,0,0,1-1.78-2.08q0-6.6,0-13.22c0-1.25.59-1.76,1.81-1.57s2.46.37,3.68.57A2,2,0,0,1,140.74,74C140.75,76.23,140.74,78.46,140.74,80.69Zm-4.68-.79v4.41c0,1.31,0,1.31,1.3,1.53.7.12.71.12.71-.58v-9.5c0-.45.17-1-.09-1.33s-.85-.21-1.29-.3c-.61-.11-.62-.1-.63.51Z"/><path class="cls-7" d="M150.93,77.79c-.78-.17-1.51-.34-2.25-.48a.38.38,0,0,1-.36-.47c.08-.49-.21-.64-.61-.71l-1.22-.23c-.21.18-.14.39-.14.58V86.75c0,.71,0,.71.72.86l.66.14c.33.07.63.12.6-.39,0-.27.16-.33.39-.28l1.91.4c.29,0,.35.23.35.49,0,.42,0,.85,0,1.27,0,1.23-.56,1.67-1.8,1.45-1-.19-2-.41-3-.62a9.7,9.7,0,0,1-1.07-.23A2,2,0,0,1,143.67,88c0-.19,0-.39,0-.59V74.88c0-.14,0-.28,0-.43,0-1.1.6-1.6,1.7-1.42s2,.39,3,.6a8.87,8.87,0,0,1,1.16.26,2,2,0,0,1,1.42,1.64A10.06,10.06,0,0,1,150.93,77.79Z"/><path class="cls-10" d="M71.65,62.1c.87,0,1.74-.07,2.61-.14,3.61-.29,7.23-.34,10.85-.33.94,0,.92,0,.84,1-.25,3.24-.25,6.49-.23,9.74,0,1.76,0,3.51.06,5.26.12,2.94.07,5.88.18,8.82.19,4.89.12,9.78.06,14.67,0,1.92-.09,3.84-.1,5.76,0,.66,0,.66-.75.47a6.43,6.43,0,0,1,0-1.52l.06-8.4c0-.85,0-.85-.86-.78l-.26,0c-2.75.44-5.52.84-8.27,1.35a35,35,0,0,0-8.09,2.13.69.69,0,0,1-.49,0,7.11,7.11,0,0,1,3-1.46,57.75,57.75,0,0,1,8-1.74c2.25-.37,4.51-.7,6.77-1,.18,0,.35,0,.22-.3,0-3.68,0-7.36-.11-11-.07-2.74-.07-5.48-.18-8.22-.11-2.58-.12-5.15-.07-7.72,0-1.78.19-3.56.29-5.33,0-.17,0-.34,0-.51s-.12-.47-.44-.46c-1.47,0-3,0-4.42,0-.5,0-1,.06-1.52.07-2.23,0-4.46.13-6.69.33-.41,0-.84,0-1.32,0A1,1,0,0,1,71.65,62.1Z"/><path class="cls-11" d="M57.66,72.54a21.22,21.22,0,0,1,.06,2.24.38.38,0,0,1-.37.45c-.48.08-.94.22-1.42.27s-.56.27-.53.67a4.34,4.34,0,0,1,0,.51V88.82a5.8,5.8,0,0,0,0,.59.44.44,0,0,1-.41.53l-2.2.42c0-1,0-1.87,0-2.78V76.26c-.81-.12-1.51.32-2.28.29a20.46,20.46,0,0,1-.06-2.21c0-.4.27-.42.56-.48l5-1C56.53,72.73,57.08,72.64,57.66,72.54Z"/><path class="cls-12" d="M58.41,101.3a.49.49,0,0,1,0,.17,2.83,2.83,0,0,0,1.22,3.32,15.91,15.91,0,0,0,4.56,2.39,60.37,60.37,0,0,0,10.58,2.7c2.64.48,5.3.81,8,1.13.87.1,1.75.15,2.62.23.68.05.71.07.73.75,0,1.27.08,2.54.13,3.81.12,3.08.13,6.16.26,9.24.09,1.95.11,3.9.17,5.85,0,.42.08.84.13,1.27s.16,1.09-.39,1.48l-.22.11a1.29,1.29,0,0,1-.2-.89c-.08-2.94-.14-5.88-.23-8.82-.13-3.76-.3-7.52-.35-11.28,0-.69-.06-.77-.77-.82-1.16-.08-2.3-.22-3.45-.34a97,97,0,0,1-10-1.57,47.81,47.81,0,0,1-8.69-2.54,11.77,11.77,0,0,1-4.14-2.59A2.4,2.4,0,0,1,58.41,101.3Z"/><path class="cls-12" d="M94.06,112.54c0-.79,0-.81.7-.76,3.2.22,6.39.09,9.59.1.51,0,1-.07,1.52-.1s.59.12.57.53c0,.09,0,.17,0,.26.07,2.77.11,5.54.22,8.31.14,3.81.23,7.63.37,11.44,0,1.58,0,3.17.14,4.74s0,3.39.23,5.08a1.21,1.21,0,0,1-.63,1.23.24.24,0,0,1-.14-.24c0-1.61-.11-3.22-.16-4.83-.08-2.77-.12-5.54-.22-8.3-.14-3.53-.23-7.06-.35-10.59-.06-1.87-.1-3.73-.16-5.59a1,1,0,0,0,0-.17c-.17-1.32,0-1.09-1.17-1.08C101.07,112.6,97.57,112.63,94.06,112.54Z"/><path class="cls-12" d="M111.49,128.86c.07-.41.25-.71.71-.67s.55.36.66.68a2.15,2.15,0,0,1,.07.5c0,1.22.11,2.43.14,3.64.08,3.45.1,6.89.24,10.34.09,2.09,0,4.18.17,6.26.1,1.64.07,3.28.17,4.91a5.15,5.15,0,0,0,0,.68.89.89,0,0,1-.55,1c-.26-.1-.16-.33-.16-.5-.08-2.74-.09-5.48-.22-8.21-.1-2.35-.06-4.69-.18-7-.1-1.78-.08-3.56-.14-5.33,0-1.61-.09-3.22-.16-4.82C112.21,129.68,112.13,129.11,111.49,128.86Z"/><path class="cls-12" d="M108.35,125.82a1.69,1.69,0,0,1,.12-.4c.31-.45.75-.42,1,.09a3.73,3.73,0,0,1,.24,1.33c0,1.49.06,3,.15,4.48.13,2.34.15,4.69.23,7,.11,3.27.24,6.55.36,9.82a2,2,0,0,0,.08.41,1,1,0,0,1-.61,1.13c-.16-.05-.16-.17-.17-.28-.06-1.61-.12-3.22-.17-4.83-.08-2.29-.12-4.57-.22-6.86-.14-3-.28-6-.33-9.06,0-.65-.08-1.3-.13-2A1,1,0,0,0,108.35,125.82Z"/><path class="cls-10" d="M91.19,121.09a.57.57,0,0,1,.17-.46.48.48,0,0,1,.88.09,2.52,2.52,0,0,1,.26,1.15c0,.39,0,.79,0,1.18.08,3.42.1,6.84.25,10.25.09,2.09.09,4.18.15,6.27,0,.25,0,.51.13.73,0,.46,0,.91,0,1.36a1,1,0,0,1-.6,1.1c-.27-.09-.2-.32-.2-.5,0-.59,0-1.19,0-1.78-.08-3.28-.1-6.56-.24-9.83-.08-2-.09-3.9-.15-5.85,0-.9-.08-1.8-.12-2.71A1.09,1.09,0,0,0,91.19,121.09Z"/><path class="cls-12" d="M88,117.8a.67.67,0,0,1,.17-.47c.31-.37.62-.36.9,0a1.73,1.73,0,0,1,.26,1c.06,2.8.09,5.6.2,8.39.1,2.49.1,5,.19,7.46,0,1,.08,1.92.13,2.88,0,.55.06,1.14-.68,1.4-.09-1.09-.15-2.15-.17-3.22-.06-3.61-.1-7.22-.24-10.82-.06-1.75-.08-3.5-.13-5.24C88.61,118.63,88.57,118.09,88,117.8Z"/><path class="cls-10" d="M114.7,111.93c-.12-.48.09-.66.56-.69,3.35-.24,6.67-.66,10-1.21a61,61,0,0,0,12.2-3c.66-.25,1.29-.56,1.94-.84.23-.09.43-.28.71-.19a4.15,4.15,0,0,1-1.62,1,37.48,37.48,0,0,1-7.71,2.55,88.59,88.59,0,0,1-9.58,1.73C119,111.53,116.88,111.84,114.7,111.93Z"/><path class="cls-10" d="M90,43.46A26.78,26.78,0,0,1,89,47a84.75,84.75,0,0,0-2.44,10.8c-.12.83-.13.83-.78,1A92.07,92.07,0,0,1,89,45.21c.11-.38.23-.76.36-1.13S89.62,43.5,90,43.46Z"/><path class="cls-10" d="M106.87,80a7.79,7.79,0,0,1-2.05,0c.27-.09.53-.19.8-.26a23.45,23.45,0,0,0,5.48-2.2.83.83,0,0,1,.47-.18c0,.29-.25.35-.43.46a20.39,20.39,0,0,1-3.29,1.68A2.68,2.68,0,0,0,106.87,80Z"/><path class="cls-10" d="M140.08,106c0-.32.27-.35.52-.34A.52.52,0,0,1,140.08,106Z"/><path class="cls-2" d="M112.07,77.09a.54.54,0,0,1,.34-.23.44.44,0,0,1-.35.39A.86.86,0,0,0,112.07,77.09Z"/><path class="cls-10" d="M111.56,77.44a.29.29,0,0,1,.35-.18A.26.26,0,0,1,111.56,77.44Z"/><path class="cls-10" d="M140.59,105.62a.19.19,0,0,1,.19-.17C140.77,105.56,140.7,105.61,140.59,105.62Z"/><path class="cls-10" d="M140.77,105.46a.16.16,0,0,1,.16-.14v.11l-.08,0Z"/><path class="cls-2" d="M141.1,105.28a.26.26,0,0,1,.19-.2A.27.27,0,0,1,141.1,105.28Z"/><path class="cls-2" d="M140.93,105.43v-.11l.18,0A.21.21,0,0,1,140.93,105.43Z"/><path class="cls-10" d="M112.07,77.09a.86.86,0,0,1,0,.16l-.16,0C111.9,77.15,112,77.11,112.07,77.09Z"/><path class="cls-10" d="M90.14,43.31a.18.18,0,0,1-.15.16A.15.15,0,0,1,90.14,43.31Z"/><path class="cls-13" d="M22.94,96V94.52q0-4.71,0-9.43c0-.69,0-.7.67-.93a4.54,4.54,0,0,1,1.19-.36c.17.22.1.45.1.66q0,5.06,0,10.11c0,.75,0,.75-.71,1Z"/><path class="cls-4" d="M105.66,108c-2.29.1-4.58.06-6.87.06q-2,0-3.9,0c-.66,0-.68,0-.68-.66,0-4.55,0-9.11.09-13.65,0-2.18,0-4.35.16-6.52.09-1.56.06-3.11.14-4.66a29.09,29.09,0,0,1,3.59.55,16.88,16.88,0,0,1,5.49,1.89,3.94,3.94,0,0,1,2.18,3.71C105.75,95.09,105.78,101.52,105.66,108Z"/><path class="cls-14" d="M106.1,76.06A13.22,13.22,0,0,1,101,79.28a29.48,29.48,0,0,1-5.71,1.51c-.61.11-.68,0-.68-.59,0-2.66,0-5.32,0-8s-.21-5.19-.34-7.78a10.77,10.77,0,0,1-.12-1.6A42.86,42.86,0,0,1,100.74,64a15.13,15.13,0,0,1,5,2.18,4.8,4.8,0,0,1,2.09,3.87,9.62,9.62,0,0,1-1,4.84.27.27,0,0,0-.06.31h0c-.25,0-.32.14-.33.35h0a.35.35,0,0,0-.19.33h0Z"/><path class="cls-14" d="M133.47,102.78a3.92,3.92,0,0,1-1.37,1,25.35,25.35,0,0,1-6,2c-2.59.6-5.21,1-7.83,1.32-1,.14-2.08.22-3.11.33-.25,0-.38-.07-.39-.32v-.51c0-2.68,0-5.37,0-8,0-.65.08-1.29.12-1.94l1.08.15c3.59.44,7.15,1,10.68,1.74a21.14,21.14,0,0,1,5.54,1.8,2.09,2.09,0,0,1,1.39,2.26h0C133.51,102.58,133.49,102.68,133.47,102.78Z"/><path class="cls-14" d="M67.3,100.17a.71.71,0,0,0,.5,0A35,35,0,0,1,75.89,98c2.75-.51,5.51-.91,8.27-1.35l.26,0c.85-.07.86-.07.86.78q0,4.2-.07,8.4a7,7,0,0,0,0,1.52,21.77,21.77,0,0,1-3.86-.38,58.76,58.76,0,0,1-7.22-1.32,20.62,20.62,0,0,1-5.68-2.13,4.4,4.4,0,0,1-1.12-.89A1.55,1.55,0,0,1,67.3,100.17Z"/><path class="cls-12" d="M105.66,108c.12-6.44.09-12.87.2-19.31a3.94,3.94,0,0,0-2.18-3.71,16.88,16.88,0,0,0-5.49-1.89,29.09,29.09,0,0,0-3.59-.55,1.06,1.06,0,0,1,0-.25c0-.55.08-.6.59-.53a45.81,45.81,0,0,1,5.33,1A16.09,16.09,0,0,1,104.06,84a7.81,7.81,0,0,1,1.27.85,3.61,3.61,0,0,1,1.29,2.92c0,3.36-.17,6.72-.15,10.09,0,2.86,0,5.71,0,8.57,0,.28,0,.57,0,.85C106.4,108,106.39,108,105.66,108Z"/><path class="cls-12" d="M133.63,102.57a2.09,2.09,0,0,0-1.39-2.26,21.26,21.26,0,0,0-5.54-1.8c-3.53-.76-7.09-1.3-10.68-1.74l-1.08-.15c-.13-.16,0-.32,0-.49s.2-.34.48-.3c1.86.28,3.73.52,5.6.8a76.62,76.62,0,0,1,8.61,1.7,14.9,14.9,0,0,1,3.17,1.17,5.48,5.48,0,0,1,.92.58A1.47,1.47,0,0,1,133.63,102.57Z"/><path class="cls-12" d="M106.86,74.9a9.59,9.59,0,0,0,1-4.83,4.8,4.8,0,0,0-2.09-3.87,15.13,15.13,0,0,0-5-2.18,42.86,42.86,0,0,0-6.65-1.17c-.17-.71.07-.77.63-.71a31.9,31.9,0,0,1,10,2.32,7.87,7.87,0,0,1,2.68,1.89,4.09,4.09,0,0,1,1.11,2.6A9.61,9.61,0,0,1,108,73.2a7.43,7.43,0,0,1-.92,1.71Z"/><path class="cls-2" d="M106.47,75.57c0-.21.08-.37.33-.35A.32.32,0,0,1,106.47,75.57Z"/><path class="cls-2" d="M106.86,74.9h.24a.45.45,0,0,1-.3.31A.29.29,0,0,1,106.86,74.9Z"/><path class="cls-2" d="M106.28,75.89a.35.35,0,0,1,.19-.33A.3.3,0,0,1,106.28,75.89Z"/><path class="cls-12" d="M133.47,102.78c0-.1,0-.2.17-.22A.28.28,0,0,1,133.47,102.78Z"/><path class="cls-2" d="M106.1,76.06l.18-.17Z"/><path class="cls-8" d="M125.5,74.86c0-.57,0-1.13,0-1.69s.16-.51.55-.49c1.47.09,1.47.08,1.47,1.51,0,.84,0,1.69,0,2.53,0,.58,0,.58-.55.56-1.46-.06-1.46-.06-1.46-1.49Z"/><path class="cls-4" d="M63,85.76A1.31,1.31,0,0,1,63,85V74.56c0-.18.08-.33.29-.34A7.65,7.65,0,0,1,64.81,74a1.23,1.23,0,0,1,.1.77V85.16c0,.26-.08.42-.37.44A6.32,6.32,0,0,1,63,85.76Z"/><path class="cls-8" d="M136.06,79.9V74.64c0-.61,0-.62.63-.51.44.09,1,0,1.29.3s.09.88.09,1.33v9.5c0,.7,0,.7-.71.58-1.3-.22-1.3-.22-1.3-1.53Z"/></svg>