<?xml version="1.0" encoding="utf-8"?>
<!-- Generator: Adobe Illustrator 26.0.2, SVG Export Plug-In . SVG Version: 6.00 Build 0)  -->
<svg version="1.1" id="Layer_1" xmlns="http://www.w3.org/2000/svg" xmlns:xlink="http://www.w3.org/1999/xlink" x="0px" y="0px"
	 viewBox="0 0 500.8 552.3" style="enable-background:new 0 0 500.8 552.3;" xml:space="preserve">
<style type="text/css">
	.st0{fill:#231F20;}
	.st1{fill:#BB935C;}
	.st2{fill:#72253D;}
</style>
<g>
	<path class="st0" d="M420.5,231.9c0-3.1,0-6.7-0.1-10.7l0-0.8c0-1.2,0-2.4,0-3.6l0-1.7c0-2.2,0-4.6,0-7.2
		c-0.2-24.9-1.4-74.5-3.6-101.5c-0.2-2.3-0.4-4.5-0.6-6.5l-0.6-5.4l-4.3-3.3c-3.3-2.5-7.1-5.2-11.4-7.8
		c-8.5-5.2-19.1-10.6-31.5-16.1C318.2,42.6,251.9,20,251.2,19.8l-2.9-1l-2.9,1c-0.6,0.2-59.9,21-108.6,44.3
		c-9.5,4.1-18.1,8.1-25.6,12c-10.4,5.4-19,10.7-25.5,15.8l-4.3,3.3l-0.5,5.4c-0.4,3.9-0.8,8.9-1.1,14.7c-1.7,28.4-2.4,71.4-2.5,93.3
		c0,2.6,0,5,0,7.2l0,0.2l0,1.5c0,1.3,0,2.5,0,3.8l0,0.6c0,4,0,7.6,0,10.7c0.3,103.2,45.3,177.5,83,221.7
		c40.8,47.8,81.3,71.1,83,72.1l6.3,3.6l6.2-3.6c1.7-1,42.1-24.5,82.7-72.5C376.1,409.6,420.7,335,420.5,231.9"/>
	<path class="st1" d="M342.8,457.6c38.1-45.1,83.5-120.8,83.3-225.7c0-3.1,0-6.7-0.1-10.7l0-0.7c0-1.2,0-2.5,0-3.7l0-1.7
		c0-2.2,0-4.6,0-7.2c-0.2-25-1.4-74.8-3.6-101.9c-0.2-2.6-0.4-4.7-0.6-6.6l-0.6-5.4l-0.2-2.4l-1.9-1.5l-4.3-3.3
		c-3.5-2.7-7.5-5.4-11.9-8.1c-8.7-5.3-19.5-10.8-32-16.4C320.5,37.5,253.7,14.7,253,14.5l-2.9-1l-1.8-0.6l-1.8,0.6l-2.9,1
		c-0.6,0.2-60,21-109.1,44.5c-9.6,4.1-18.3,8.2-25.8,12.1C98,76.7,89.1,82.2,82.3,87.5L78,90.9l-1.9,1.5l-0.2,2.4l-0.5,5.4
		c-0.4,4-0.8,9-1.1,14.9c-1.7,28.5-2.4,71.6-2.5,93.6c0,2.6,0,5,0,7.2l0,0.3l0,1.4c0,1.3,0,2.6,0.1,3.9l0,0.6c0,4.1,0,7.7,0,10.7
		c0.3,104.9,46,180.4,84.4,225.3c41.4,48.5,82.8,72.3,84.5,73.3l6.3,3.6l2.8,1.6l2.8-1.6l6.2-3.6
		C260.4,530.3,301.6,506.3,342.8,457.6 M255.7,526.4l-6.2,3.6l-6.3-3.6c-1.7-1-42.2-24.3-83-72.1c-37.7-44.2-82.8-118.5-83-221.7
		c0-3.1,0-6.7,0-10.7l0-0.6c0-1.3,0-2.5-0.1-3.8l0-1.5l0-0.2c0-2.1,0-4.6,0-7.2c0.1-21.9,0.8-64.9,2.5-93.3
		c0.3-5.8,0.7-10.8,1.1-14.7l0.5-5.4l4.3-3.4c6.5-5.1,15.1-10.4,25.5-15.8c7.5-3.9,16.1-7.9,25.6-12c48.7-23.3,108-44.1,108.7-44.3
		l2.9-1l2.9,1c0.7,0.2,67,22.8,117.2,47.4c12.4,5.5,23,10.9,31.5,16.1c4.3,2.6,8.2,5.2,11.4,7.8l4.3,3.3l0.6,5.4
		c0.2,1.9,0.4,4.1,0.6,6.5c2.2,27,3.3,76.6,3.6,101.5c0,2.6,0,5,0,7.2l0,1.7c0,1.2,0,2.4,0,3.6l0,0.8c0.1,4,0.1,7.6,0.1,10.7
		c0.3,103.2-44.4,177.7-81.9,222.1C297.8,501.9,257.4,525.5,255.7,526.4"/>
	<path class="st2" d="M432.8,220.1c0-1.1,0-2.3,0-3.4l0-1.7c0-2.2,0-4.6,0-7.3c-0.2-25.1-1.4-75.1-3.6-102.4
		c-0.2-2.6-0.4-4.9-0.6-6.8l-0.6-5.4l-0.2-2.4l-0.3-2.9l-2.3-1.8l-1.9-1.5l-4.3-3.3c-3.7-2.8-7.9-5.7-12.5-8.5
		c-9-5.5-20-11.1-32.8-16.9C323.5,31.5,258,9,255.2,8.1l-2.9-1l-1.8-0.6l-2.2-0.7l-2.2,0.8l-1.8,0.6l-2.9,1
		c-0.5,0.2-60.5,21.2-109.8,44.8c-9.5,4.1-18.4,8.2-26.1,12.2c-11.1,5.7-20.3,11.5-27.4,17l-4.3,3.3L71.9,87l-2.3,1.8l-0.3,2.9
		l-0.2,2.4l-0.5,5.4c-0.4,4.1-0.8,9.2-1.1,15.2c-1.7,28.7-2.4,71.9-2.5,94c0,2.6,0,5.1,0,7.3l0,0l0,0.3l0,1.3c0,1.4,0,2.7,0.1,4
		l0,0.6c0,4,0,7.6,0,10.6c0.3,106.9,46.9,183.9,86,229.7c42.2,49.4,84.5,73.8,86.3,74.8l6.3,3.6l2.8,1.6l3.4,1.9l3.3-1.9l2.8-1.6
		l6.3-3.6c1.8-1,43.9-25.5,85.9-75.2c38.9-46,85.1-123.2,84.9-230.1c0-3.1,0-6.8-0.1-10.8l0-0.5L432.8,220.1z M252.4,534.9l-2.8,1.6
		l-2.8-1.6l-6.3-3.6c-1.7-1-43.1-24.8-84.5-73.3C117.8,413.1,72,337.6,71.7,232.7c0-3,0-6.6,0-10.7l0-0.6c0-1.3-0.1-2.6-0.1-3.9
		l0-1.4l0-0.3c0-2.2,0-4.6,0-7.2c0.1-22,0.8-65.1,2.5-93.6c0.3-5.9,0.7-10.9,1.1-14.9l0.5-5.4l0.2-2.4l1.9-1.5l4.3-3.3
		c6.8-5.3,15.7-10.8,26.4-16.4c7.6-3.9,16.3-8,25.8-12.1C183.6,35.6,243,14.8,243.6,14.5l2.9-1l1.8-0.6l1.8,0.6l2.9,1
		c0.7,0.2,67.5,23,117.8,47.6c12.6,5.6,23.4,11.1,32,16.4c4.5,2.7,8.5,5.5,11.9,8.1l4.3,3.3l1.9,1.5l0.2,2.4l0.6,5.4
		c0.2,1.9,0.4,4,0.6,6.6c2.2,27.1,3.4,76.9,3.6,101.9c0,2.6,0,5.1,0,7.2l0,1.7c0,1.2,0,2.5,0,3.7l0,0.7c0,4,0.1,7.6,0.1,10.7
		c0.3,104.9-45.1,180.6-83.3,225.7c-41.2,48.7-82.4,72.7-84.1,73.7L252.4,534.9z"/>
	<path class="st1" d="M339.7,288.1l0-13.3l-3.3-3.3c-41.9-39.6-131.3,12.8-161.6,38l-15,23.3l18.7-4.7
		c-28.6,36.1-18.3,59.6-17.1,62.1c3,8.5,9.9,15.3,21.1,19.7c8.5,3.4,18.1,3.8,26.4,3.4c35.7-1.8,77.7-24.1,104.9-47.8l0.6-0.5
		l5.4-27.3l-10.6,5.9c-36.7,16.2-66.2,25.2-66.2,25.2c-19.3,6.1-28.2,7.1-34.5,5.6l-0.8-0.2c-1.7-0.7-2.1-2.3-2.1-2.7
		c-0.3-12.1,20.4-38.1,30.9-49.4c9.7-10.5,25.1-22.1,38-27.6c8.7-3.7,14.3-5.2,16.9-4.9c-0.7,2.3-1.9,5-3.6,8.4
		c0,0-13.9,27.6-14.5,28.6L339.7,288.1z"/>
	<path class="st2" d="M257.1,286.4c-12,6.3-25.7,19.1-30,23.7c-35,37.4-59.4,87.4,17.3,63.3c0,0,29.8-9.1,66.8-25.5
		c-104.6,88.8-203.7,52-106.5-41.3c-8.9,2-17.8,4-26.5,6.5c31.1-25.9,116.5-74.2,154.8-38l-40.7,25.1
		C309.7,265.8,278.2,273.9,257.1,286.4"/>
	<polygon class="st1" points="180.3,101.9 185.3,106.9 185.3,110.5 179.7,116.2 179.6,108.4 178.9,107.6 175.7,107.6 175,108.4 
		175,129.7 175.8,130.4 179,130.4 179.7,129.7 179.7,126.4 185.4,120.7 185.4,131.1 180.4,136.1 174.4,136.1 169.4,131.1 
		169.3,106.9 174.3,102 	"/>
	<polygon class="st1" points="193.9,101.9 194,130.4 202.5,130.4 201.4,136.1 188.3,136.1 188.2,103.7 187.9,101.9 	"/>
	<polygon class="st1" points="217.6,101.9 217.6,107.5 210.5,107.6 210.5,115 216.2,115 216.2,120 210.5,120 210.5,130.4 
		217.7,130.3 217.7,136 204.9,136 204.8,104 204.4,101.9 	"/>
	<polygon class="st1" points="238,101.8 233.2,136 226.9,136 223.7,131.7 219.5,101.8 225.2,101.8 228.9,129.9 232.4,101.8 	"/>
	<polygon class="st1" points="253.1,101.8 253.1,107.4 246,107.5 246,114.9 251.7,114.9 251.8,119.9 246,119.9 246.1,130.3 
		253.2,130.3 253.2,135.9 240.4,136 240.3,103.9 240,101.8 	"/>
	<polygon class="st1" points="261.7,101.7 261.8,130.2 270.3,130.2 269.3,135.9 256.1,135.9 256,103.5 255.7,101.8 	"/>
	<path class="st1" d="M285.4,101.7l5.1,34.2l-5.7,0l-0.9-6.7l-5.4,0l-0.8,6.8l-5.7,0l4.5-32l-0.3-2.1L285.4,101.7z M279.1,123.4l4,0
		l-2-15.7L279.1,123.4z"/>
	<polygon class="st1" points="308.6,135.8 303.2,135.8 297.9,117.3 297.9,117.3 297.9,135.8 292.2,135.8 292.1,103.8 291.8,101.7 
		297.5,101.7 302.9,119 302.8,101.6 308.5,101.6 	"/>
	<path class="st1" d="M327.7,106.5l0.1,24.6l-4.6,4.6l-11.7,0l-0.1-32.1l-0.3-2l11.7,0L327.7,106.5z M322,108l-0.7-0.7l-4.3,0
		l0.1,22.8l4.3,0l0.7-0.7L322,108z"/>
	<polygon class="st1" points="114.8,148.8 125.4,159.2 125.4,166.8 113.5,178.8 113.4,162.3 111.9,160.8 105.1,160.8 103.6,162.3 
		103.7,207.4 105.2,208.9 112,208.9 113.5,207.4 113.5,200.4 125.5,188.4 125.5,210.3 115,220.9 102.3,220.9 91.7,210.4 91.6,159.3 
		102.1,148.8 	"/>
	<path class="st1" d="M156.9,148.7l10.7,72.1l-12.1,0l-1.8-14.2l-11.5,0l-1.8,14.3l-12,0l9.6-67.6l-0.7-4.5L156.9,148.7z
		 M143.8,194.5l8.4,0l-4.2-33.1L143.8,194.5z"/>
	<polygon class="st1" points="203.6,148.5 193.3,220.7 180,220.7 173.2,211.7 164.5,148.6 176.5,148.6 184.2,207.9 191.6,148.6 	"/>
	<path class="st1" d="M229.5,148.5l10.7,72.1l-12.1,0l-1.8-14.2l-11.5,0l-1.8,14.3l-12,0l9.6-67.6l-0.7-4.5L229.5,148.5z
		 M216.4,194.3l8.4,0l-4.2-33.1L216.4,194.3z"/>
	<polygon class="st1" points="256.3,148.4 256.5,208.6 274.5,208.5 272.3,220.5 244.5,220.6 244.3,152.1 243.6,148.4 	"/>
	<polygon class="st1" points="291.3,148.3 291.5,220.5 279.5,220.5 279.3,152.9 278.5,148.4 	"/>
	<polygon class="st1" points="324.5,148.2 324.5,160.2 309.4,160.3 309.5,176.1 321.6,176 321.6,186.6 309.5,186.6 309.6,208.4 
		324.6,208.4 324.6,220.4 297.6,220.4 297.4,152.8 296.7,148.3 	"/>
	<path class="st1" d="M354.7,148.2l10.5,10.4l0,18l-9.9,6.7l9.9,12.9l0.1,24.1l-12,0l0-19.6l-7.4-11.1l-3.1,2.1l0.1,28.6l-12,0
		l-0.2-67.6l-0.7-4.5L354.7,148.2z M342.7,179.8l10.5-7.6l0-10.5l-1.5-1.5l-9,0L342.7,179.8z"/>
	<polygon class="st1" points="393.9,170.6 393.8,161.6 392.3,160.1 384.8,160.1 383.3,161.6 383.3,170.6 405.9,188.6 406,209.6 
		395.5,220.2 382,220.2 371.4,209.7 371.4,188.7 383.4,196.2 383.4,206.7 384.9,208.2 392.4,208.2 394,206.7 393.9,194.7 
		371.3,176.6 371.3,158.6 381.8,148.1 395.3,148.1 405.8,158.5 405.9,178.1 	"/>
</g>
</svg>
