<svg id="Layer_1" data-name="Layer 1" xmlns="http://www.w3.org/2000/svg" xmlns:xlink="http://www.w3.org/1999/xlink" viewBox="0 0 200 200"><defs><style>.cls-1{fill:none;}.cls-2{fill:#2d2a26;}.cls-3{clip-path:url(#clip-path);}.cls-4{fill:#fff;}</style><clipPath id="clip-path"><rect class="cls-1" x="24.52" y="0.14" width="150.96" height="199.73"/></clipPath></defs><title>Team_Logos</title><g id="NETS"><path class="cls-2" d="M46.56,174.23c0,1.09-.07,3.12-2.38,3.82a7.72,7.72,0,0,1-2.24.27H40.1V166.39h2.68c1.49.05,3,.09,3.56,1.43a10.35,10.35,0,0,1,.23,1.9v4.19c0,.09,0,.19,0,.32m-6.41,7.33h1.92c2.5.1,4.64.37,5.42,2.51a7,7,0,0,1,.28,2.21v5c0,2.37-.16,3.48-1.12,4.23a4.8,4.8,0,0,1-2.92.69H40.15V181.56Zm9.31-.82a5.79,5.79,0,0,0-1.91-1,4.44,4.44,0,0,0,2.23-2.66,7.84,7.84,0,0,0,.27-2.46v-5.34a6.69,6.69,0,0,0-1.33-4.37,5.61,5.61,0,0,0-4.43-1.69H37.12a.55.55,0,0,0-.55.55v35.12a.54.54,0,0,0,.55.54h7.3a7.43,7.43,0,0,0,4.95-1.63c1.69-1.52,1.87-3.36,1.93-5.43v-6c0-1.8,0-4-1.84-5.59"/><path class="cls-2" d="M64.42,170.52V176a2.62,2.62,0,0,1-1.77,2.87,5.75,5.75,0,0,1-1.91.27H56.81V166.39h4a4.56,4.56,0,0,1,2.26.42c1.21.69,1.27,2.23,1.31,3.71m-1,11.49a3.63,3.63,0,0,0,.76-.29,5.82,5.82,0,0,0,3.71-4,12.48,12.48,0,0,0,.22-2.37v-5.51c0-.07,0-.16,0-.26a6.24,6.24,0,0,0-2.14-5c-1.63-1.26-3.42-1.31-5.31-1.36H53.83a.55.55,0,0,0-.55.55v35.12a.55.55,0,0,0,.55.54h2.44a.54.54,0,0,0,.54-.54V182.3h2.91L66,199.06a.55.55,0,0,0,.51.35h2.61a.54.54,0,0,0,.54-.54.56.56,0,0,0-.09-.31L63.42,182Z"/><path class="cls-2" d="M73.67,171c0-2,.6-3.45,1.79-4.23a4.4,4.4,0,0,1,2.39-.66,4.36,4.36,0,0,1,2.1.49A2.85,2.85,0,0,1,81.3,168c.66,1.28.78,2.91.78,5.67v17.1c0,1.92-.09,3.9-1.77,5.09A4.32,4.32,0,0,1,74,194.22a12.64,12.64,0,0,1-.37-3.81V171Zm9.13-6.78A8,8,0,0,0,78,162.81h-.17c-3.45,0-6.09,1.72-7.07,4.6a13.16,13.16,0,0,0-.55,3.7v.05c0,.16,0,.28,0,.38v19.84c0,2,.11,4.2,1.67,6.16,1.76,2.11,4.71,2.33,5.9,2.33,4.27,0,6.06-2.31,6.63-3.29a9.12,9.12,0,0,0,1.12-4.86v-19.4c0-2.83,0-6.05-2.71-8.11"/><path class="cls-2" d="M91.11,171c0-2,.59-3.45,1.79-4.23a4.7,4.7,0,0,1,4.49-.17,2.9,2.9,0,0,1,1.35,1.4c.66,1.28.78,2.91.78,5.67v17.1c0,1.92-.09,3.9-1.77,5.09a4.32,4.32,0,0,1-6.27-1.62,12.6,12.6,0,0,1-.37-3.81V171Zm9.13-6.78a8,8,0,0,0-4.79-1.39h-.16c-3.46,0-6.1,1.72-7.08,4.6a13.16,13.16,0,0,0-.55,3.7v0c0,.16,0,.29,0,.39v19.84c0,2,.09,4.2,1.66,6.15,1.76,2.12,4.71,2.34,5.89,2.34,4.28,0,6.07-2.31,6.64-3.29a9.12,9.12,0,0,0,1.12-4.86v-19.4c0-2.83,0-6.05-2.71-8.11"/><path class="cls-2" d="M112.51,177.55l7.35-13.77a.53.53,0,0,0,0-.53.52.52,0,0,0-.47-.27h-2.73a.54.54,0,0,0-.49.3l-7.72,15.18V163.53a.55.55,0,0,0-.55-.55h-2.43a.55.55,0,0,0-.55.55v35.12a.55.55,0,0,0,.55.55h2.39a.55.55,0,0,0,.54-.55v-13.2l1.94-3.65,6,17a.54.54,0,0,0,.51.37h2.65a.55.55,0,0,0,.55-.55.53.53,0,0,0-.09-.3l-7.44-20.8Z"/><path class="cls-2" d="M133.61,196.13H125V163.75a.55.55,0,0,0-.55-.55H122a.55.55,0,0,0-.55.55v35.12a.55.55,0,0,0,.55.54h11.59a.54.54,0,0,0,.54-.54v-2.19a.55.55,0,0,0-.54-.55"/><path class="cls-2" d="M146.74,163.2h-2.69a.56.56,0,0,0-.52.38l-5.05,15-5.1-15a.56.56,0,0,0-.52-.38h-2.59a.59.59,0,0,0-.45.23.55.55,0,0,0-.06.5l6.88,19.51v15.43a.55.55,0,0,0,.55.54h2.38a.55.55,0,0,0,.55-.54V183.44l7.13-19.5a.58.58,0,0,0-.06-.51.59.59,0,0,0-.45-.23"/><g class="cls-3"><path class="cls-2" d="M162.88,163.2h-2.39a.56.56,0,0,0-.39.17.55.55,0,0,0-.16.38l.2,25.64c0,.66,0,1.3.06,2.08,0,.39,0,.8,0,1.2l-7.25-29a.56.56,0,0,0-.53-.42h-3.58a.55.55,0,0,0-.54.55v35.12a.54.54,0,0,0,.54.54h2.34a.51.51,0,0,0,.39-.16.55.55,0,0,0,.16-.39l-.15-25v-3.31l7,28.42a.54.54,0,0,0,.53.41h3.73a.55.55,0,0,0,.55-.54V163.75a.55.55,0,0,0-.55-.55"/><path class="cls-2" d="M175.45,21c0-1.61,0-2.51,0-2.51v-2l-1.78-.89C172.43,15,142.51.14,101,.14H99C57.51.14,27.56,15,26.31,15.65l-1.78.89v2s0,.9,0,2.41c-.34,17.69,1.83,62.59,29.3,97.48C76.12,146.72,97,153.29,99.31,153.94l.89.26.89-.25c.9-.26,22.17-6.46,45.06-35.55C173.64,83.5,175.8,38.65,175.45,21"/></g><path class="cls-4" d="M100.2,149.39c-1.69-.48-21.57-6.59-42.92-33.74C29.14,79.91,29,33.11,29.23,22.09c0-1.55,0-2.43,0-2.43l.09,0v-.1l.63-.29c1.49-.68,4.82-2.14,9.65-3.87A176.21,176.21,0,0,1,99.05,4.81h1.89a176.43,176.43,0,0,1,59.38,10.51c4.88,1.75,8.25,3.23,9.75,3.91l.63.29v.1l.09,0s0,.88,0,2.43c.22,11,.1,57.82-28.05,93.56-21.41,27.2-40.89,33.29-42.52,33.74m44-32.54c26.89-34.16,29-78.16,28.66-95.49,0-1.61,0-2.5,0-2.5V18.2l-.59-.29C171,17.29,141.74,2.73,101,2.73H99C58.28,2.73,29,17.29,27.73,17.91l-.59.29v.66s0,.89,0,2.4c-.33,17.39,1.8,61.45,28.68,95.59,21.72,27.61,41.86,34,44.08,34.58l.3.09.29-.08c.86-.24,21.35-6.23,43.68-34.59"/><path class="cls-4" d="M152,41.75c-10-10.34-11.16-12-11.16-16.27s1.85-4.78,3.65-4.78a13,13,0,0,1,3.43.58c7.23,2.08,7.23,6,7.23,9v4.2a.78.78,0,0,0,.53.74c1.75.6,2.63.91,4.45,1.59a.8.8,0,0,0,.72-.1.77.77,0,0,0,.34-.64V32.51c0-4.43,0-11.85-12.94-15.56-9.05-2.6-13.66.18-13.66,8,0,6.52,4,10.42,10.62,16.89l1.33,1.31c7.86,7.7,9.45,10.25,9.45,15.12a6.54,6.54,0,0,1-.81,3.75,3.12,3.12,0,0,1-2.79,1.14,15,15,0,0,1-3.95-.68c-3.43-1-5.93-2.34-7.41-4-1.81-2-1.81-3.76-1.81-7.2V47.56a.78.78,0,0,0-.61-.77c-1.93-.43-2.86-.63-4.71-1a.79.79,0,0,0-.65.17.74.74,0,0,0-.29.6v6.6c0,6.2,5.07,10.92,14.67,13.67a26.3,26.3,0,0,0,7,1.16h0c7.52,0,7.52-6.06,7.52-8.65,0-6.82-3.47-10.72-10.12-17.6Zm-20.14-28a172.24,172.24,0,0,0-29-2.8.79.79,0,0,0-.79.78v3a.77.77,0,0,0,.77.78c4.55,0,6.89.16,11.19.5V59.34a.78.78,0,0,0,.72.78c1.89.16,2.82.24,4.73.45h.08a.77.77,0,0,0,.52-.2.78.78,0,0,0,.27-.59V16.57c4.31.48,6.68.84,11.23,1.67a.76.76,0,0,0,.65-.17.78.78,0,0,0,.28-.6v-3a.78.78,0,0,0-.64-.77ZM98.09,11a171.55,171.55,0,0,0-24.36,2.14.78.78,0,0,0-.66.77v47a.74.74,0,0,0,.28.59.74.74,0,0,0,.51.19H74a171.35,171.35,0,0,1,24-2.12.79.79,0,0,0,.77-.78V55.87a.78.78,0,0,0-.24-.56.8.8,0,0,0-.56-.23,141.18,141.18,0,0,0-18.71,1.35V37.82a138.55,138.55,0,0,1,15.35-1.26.79.79,0,0,0,.75-.79V32.91a.79.79,0,0,0-.81-.79,143.15,143.15,0,0,0-15.2,1.24V16.82a138.84,138.84,0,0,1,18.75-1.34.79.79,0,0,0,.77-.79V11.76a.8.8,0,0,0-.24-.56.75.75,0,0,0-.56-.22ZM67,14.35c-1.87.38-2.78.57-4.61,1a.78.78,0,0,0-.61.77l.38,34.21c0,2.27.06,4.36.15,6.23C57.64,44.74,52.82,32.5,47.91,20.11a.78.78,0,0,0-1-.45c-2.73.9-4,1.37-6.74,2.38a.8.8,0,0,0-.51.74v47a.8.8,0,0,0,.34.65.79.79,0,0,0,.45.13.65.65,0,0,0,.27,0c1.66-.62,2.5-.93,4.26-1.54a.78.78,0,0,0,.53-.74q-.1-16.7-.19-33.38c0-2.93,0-4.56-.13-6.64,4.83,12.28,9.52,24.3,14,35.8a.77.77,0,0,0,.92.48c2.86-.71,4.26-1,7.13-1.6a.79.79,0,0,0,.63-.77v-47a.79.79,0,0,0-.29-.61.76.76,0,0,0-.65-.16Z"/><path class="cls-4" d="M126.36,120.82l-1.41,1c-1.31.92-2.6,1.69-4,2.51l-2,1.2c-4.68,2.9-10.28,6.11-16.29,8a35.43,35.43,0,0,1-4.91,1.18,28.66,28.66,0,0,1-4.15.32h-.27a28.72,28.72,0,0,1-5.14-.48,35.19,35.19,0,0,0,31.1-3.77,23.36,23.36,0,0,0,7.22-10l-.21.15ZM94.53,133.21a31.52,31.52,0,0,0,11.06-3.37c.55-.27,1.09-.55,1.63-.84l1.38-.7c3.19-1.68,6.61-3.49,10.77-5.72,1.46-.78,2.92-1.62,4.33-2.42l1.66-.92c.64-.35,1.24-.67,1.85-1l.2-.13a32.84,32.84,0,0,0,1-6.27c-4.07,2-10.2,3.83-19.19,5.63a55.72,55.72,0,0,1-32.8-3c-6.75-2.84-10-6.78-11.29-9a36.22,36.22,0,0,0,.84,4.64,34.72,34.72,0,0,0,14.63,20.55l0-.06,1,.59a13.07,13.07,0,0,0,3,1.22,22.69,22.69,0,0,0,6.62,1,28.57,28.57,0,0,0,3.36-.21Zm35.85-14.75c0-.14-.06-.14-.13-.14a1.76,1.76,0,0,0-.85.37l-.27.18a2.49,2.49,0,0,0-.24.17,31.28,31.28,0,0,1-3.36,6.45,35.13,35.13,0,0,0,5-6.75h-.05l-.06-.28Zm1.34-8.68-.36.27-.59.42a31.64,31.64,0,0,1-1.21,6.55c1.1-.39,1.48.06,1.59.31l0,.11a34.35,34.35,0,0,0,3.5-11.44,8.46,8.46,0,0,1-3,3.78Zm-.85-1.91.26-.18a9.83,9.83,0,0,0,3.8-5.91,34,34,0,0,0-1.06-8.43l-.09-.34a11.5,11.5,0,0,1-3.8,7.14,33.52,33.52,0,0,1,.89,7.72Zm-52.44,4.24c8.3,2.74,12.91,3.61,19,3.61,2.21,0,4.73-.12,7.91-.39a73.69,73.69,0,0,0,23.2-6.12,44.72,44.72,0,0,0-.66-7.35,9.76,9.76,0,0,1-5.24,1.32,38.36,38.36,0,0,1-8.69-1.38c-4.83-1.14-11.73-5.25-17.82-8.88-3.34-2-6.5-3.87-9.1-5.16-9.95-4.91-15.6-4.23-17.1-3.9a34.53,34.53,0,0,0-4.87,20c.67,1,4.06,5.17,13.41,8.25Zm5.09-28.45C86.9,85.07,91.33,87.45,96,90c7.4,4,15,8.09,20.22,9.37,4.61,1.15,8.4,1,11.06-.29l0-.15c0-.19-.08-.38-.13-.57-2.25-9.42-14-30.06-34.48-30.06-.86,0-1.73,0-2.61.12a34.66,34.66,0,0,0-18.8,13.42,9.73,9.73,0,0,1,3.05-.45,24.84,24.84,0,0,1,9.23,2.3Zm45.78,13.9a7.14,7.14,0,0,0,1.28-1.8c2.47-4.74.25-10.05-.67-11.9A35.18,35.18,0,0,0,96.54,67.15c14,.75,27.57,13.28,32.76,30.41Z"/><path class="cls-4" d="M113.79,108.85c0-2.55,0-6.33-3-9.27a10.35,10.35,0,0,0,.81-1.86,12.77,12.77,0,0,0,.52-4.27V86.33c-.08-2.61-.48-5.37-2.61-7.76-1.91-2.16-4.79-3.29-8.33-3.29l-9.52,0a4,4,0,0,0-4,4l.09,46.08a3.9,3.9,0,0,0,1.87,3.35,4.21,4.21,0,0,0,2.16.6h9.69a13,13,0,0,0,8.71-3l0,0c3.2-2.87,3.54-6.25,3.62-9.48v0l0-7.94Z"/><path class="cls-2" d="M101,97.47a10.15,10.15,0,0,1-3,.36H96.2c-.3,0-.39-.14-.39-.37s0-14.81,0-14.81c0-.24.09-.38.34-.41h3a8.11,8.11,0,0,1,3.7.67,1.91,1.91,0,0,1,.85,1,11.6,11.6,0,0,1,.33,2.51l0,5.73a2.63,2.63,0,0,0,0,.44c0,1.48-.07,4-3,4.87m3.35,23.92c-.72.51-1.58.81-3.8.88H96.42c-.35,0-.48-.21-.48-.53,0-2.81,0-18.26,0-18.39a.29.29,0,0,1,.33-.33l1.91,0c2,.1,4.13.24,5.5,1.12a3.89,3.89,0,0,1,1.67,2.06,9.46,9.46,0,0,1,.36,2.9v6.81c0,3.11-.19,4.57-1.37,5.49m7-12.22c0-2.58,0-5.73-2.68-8a7.67,7.67,0,0,0-2-1.2,6.38,6.38,0,0,0,2.57-3.43,11.59,11.59,0,0,0,.39-3.52l0-7.32c-.07-2-.29-4.33-1.93-6.2a8.29,8.29,0,0,0-6.44-2.43l-9.93,0a1.19,1.19,0,0,0-.8.33,1.09,1.09,0,0,0-.33.79l.09,48.08a1.09,1.09,0,0,0,.54,1,1.13,1.13,0,0,0,.63.18l10.1,0a10.78,10.78,0,0,0,7.11-2.35c2.43-2.2,2.68-4.8,2.75-7.72l0-8.22Z"/></g></svg>