<?xml version="1.0" encoding="utf-8"?>
<!-- Generator: Adobe Illustrator 25.0.1, SVG Export Plug-In . SVG Version: 6.00 Build 0)  -->
<svg version="1.1" id="Layer_1" xmlns="http://www.w3.org/2000/svg" xmlns:xlink="http://www.w3.org/1999/xlink" x="0px" y="0px"
	 viewBox="0 0 500.8 552.3" style="enable-background:new 0 0 500.8 552.3;" xml:space="preserve">
<style type="text/css">
	.st0{fill:#FFFFFF;}
	.st1{fill:#061922;}
	.st2{fill:#BD1B21;}
</style>
<g>
	<path class="st0" d="M495,276c0,135.3-109.7,245-245,245C114.7,521,5,411.3,5,276C5,140.7,114.7,31,250,31
		C385.3,31,495,140.7,495,276"/>
	<path class="st1" d="M250,508.3c-61.5,0-119.5-23.8-163.2-67.1c-43.8-43.3-68.3-101-69-162.6c-0.7-62,22.8-120.6,66.2-165
		c43.4-44.3,101.4-69.1,163.5-69.8c0.9,0,1.8,0,2.6,0c61.5,0,119.5,23.8,163.2,67.1c43.8,43.3,68.3,101,69,162.6
		c0.7,62-22.8,120.6-66.2,165c-43.4,44.4-101.4,69.1-163.5,69.8C251.7,508.3,250.8,508.3,250,508.3"/>
	<g>
		<path class="st0" d="M272.8,116.5l-8,8.1h-22.6l-8.1-8.1V71.7l8.1-8.1h22.6l8.1,8.1V116.5z M249.3,76.8l-2.4,2.4v29.6l2.4,2.4h8.3
			l2.4-2.4V79.2l-2.4-2.4H249.3z"/>
		<path class="st0" d="M403.9,222.3l-10.8-3.7l-9.8-20.4l3.8-10.8l40.5-19.4l10.8,3.8l9.7,20.3l-3.8,10.9L403.9,222.3z M429.6,184
			l-3.3-1.1l-26.7,12.8l-1.1,3.3l3.6,7.4l3.2,1.1l26.7-12.8l1.1-3.3L429.6,184z"/>
		<path class="st0" d="M152.8,150.4l0.2,11.4l-15.8,16.2l-11.5,0.2L93.6,147l-0.2-11.5l15.7-16.2l11.5-0.2L152.8,150.4z
			 M107.9,139.6l0,3.4l21.2,20.6l3.4,0l5.8-5.9l0-3.4l-21.2-20.6l-3.4,0L107.9,139.6z"/>
		<polygon class="st0" points="356.1,89.4 332.3,145.6 322.5,141.4 319.9,101.6 306,134.4 295.3,129.9 319.2,73.8 332.4,79.4 
			332.5,114.3 345.1,84.7 		"/>
		<path class="st0" d="M199,102.2l-2.7,9.5l17,16.8l-11.9,5.2l-15.8-15.2l-5.8,2.6l8,18.5l-10.9,4.7l-24.3-56.1l26.1-11.4l11,4.5
			L199,102.2z M174.1,107.8l9.6-4.2c0.1,0,1.3-3.2,1.3-3.2l-3.3-7.6l-3.2-1.3l-9.6,4.2L174.1,107.8z"/>
		<polygon class="st0" points="403.9,144.1 395.9,136.3 362.3,170.5 353.2,161.6 386.8,127.3 378.8,119.5 388.1,110.2 413.1,134.7 
					"/>
		<polygon class="st0" points="78.1,179 73.5,189.1 117.3,208.7 112.1,220.4 68.3,200.8 63.8,211 51.8,205.6 66.1,173.6 		"/>
		<path class="st0" d="M412.9,334.9l-6,11.5l-4.2-2.2l-1.2,2.2l-3.8,7.3l1.1,3.2l6,3.2l-0.8-0.4l3.3-1l7.2-13.7l11.3-3.4l18.3,9.6
			l3.4,11l-10.5,20c0,0-11.1,3.4-11.1,3.3l-9.2-4.8l6-11.4l4.6,2.4l5-9.5l-1-3.3l-4.8-2.5l-3.3,1l-7,13.4l-11.4,3.5l0,0.1l-18.4-9.6
			l-3.6-11.2l10.5-20l11.2-3.2L412.9,334.9z"/>
		<path class="st0" d="M99,376.9l-9.7-2L73.8,393l-6-11.5l14-16.8l-2.9-5.6L61,368.5l-5.5-10.5l54.2-28.2l13.2,25.3l-3.7,11.3
			L99,376.9z M91.7,352.4l4.9,9.3c0,0.1,3.3,1,3.3,1l7.4-3.8l1-3.3l-4.9-9.3L91.7,352.4z"/>
		<path class="st0" d="M179,450.7l-8.8,21.1l-10.6-4.4L183,411l25.8,10.7l4.3,11.1l-8.5,20.6l-8.5,4.5L179,450.7z M183.5,439.8
			l8.6,3.6c0.1,0,3.1-1.3,3.1-1.3l3.2-7.7l-1.3-3.2l-8.6-3.6L183.5,439.8z"/>
		<polygon class="st0" points="271.6,440.2 260.5,440.4 261,488.3 248.2,488.5 247.7,440.5 236.6,440.6 236.4,427.5 271.5,427.1 		
			"/>
		<path class="st0" d="M342.6,460.2l-4.6,10.5l-21.2,8l-10.5-4.7L290.4,432l4.7-10.5l21.1-8l10.5,4.7L342.6,460.2z M306.5,431.4
			l-1.4,3.1l10.5,27.7l3.1,1.4l7.7-2.9l1.4-3.1l-10.5-27.7l-3.1-1.4L306.5,431.4z"/>
		<path class="st0" d="M387.4,401.1l0.2,9.9l21.2,11.2l-9.9,8.4l-19.5-9.9l-4.8,4.1l13.1,15.4l-9,7.7L339,401.1l21.7-18.5l11.9,1.1
			L387.4,401.1z M365.1,413.6l8-6.8c0.1-0.1,0.3-3.4,0.3-3.4L368,397l-3.4-0.3l-8,6.8L365.1,413.6z"/>
		<path class="st0" d="M128.5,451.2l-9.6-8.8l4.4-9l-13.1-12l-8.6,5.2l-9.6-8.8l55.2-33.1l9.6,8.8L128.5,451.2z M128.9,422.2
			l8.4-16.9L121,415L128.9,422.2z"/>
	</g>
	<g>
		<path class="st2" d="M297.6,398.8c0.2,0.3,0.4,0.6,0.5,0.6c0.7,0,2-0.3,2-0.3l1.4-0.6l3.8-1.5c0,0,9.6-4.6,9.6-4.6
			c0,0,1.7-0.9,1.7-0.9l0.9-0.4l1-0.7l1.7-1.1l2-1.1l2.6-1.7l4.5-3.2l2.2-1.7l3.2-2.3l2.9-2.2l1.4-1l1.9-1.8l2-2l3.2-3.4l3.7-3.6
			l4.3-5l2.4-3.2l0.8-1.1l2.5-3.1l5-7.1l1.4-2.3l3.3-6.5l1.9-3.6l3.2-6.5l1.7-4l1.9-6.1c0,0,2.2-8,3.4-12.2c0.1-0.5,0.2-0.9-0.1-1.3
			c-0.7-1-1.2-2.2-1.8-3.3c-0.3-0.6-0.8-1.1-1.1-1.6c-0.3-0.5-1.2-1.5-1.5-1.9c-0.3-0.4-0.8-0.8-1.2-1.1c-1-1-1.9-1.9-2.8-2.6
			c-0.4-0.2-0.8-0.5-1.2-0.8c-2.7-2.1-5.4-3.7-8.5-5.1c-1.3-0.6-2.6-1-3.9-1.5c-0.9-0.3-2.4-0.7-3.4-0.8c-0.6-0.1-1-0.1-1.4,0.2
			c-0.4,0.3-0.4,0.9-0.5,1.6c-0.2,1.7-0.2,3.5-0.4,5.2c-0.2,1.7-0.3,3.5-0.4,5.2c-0.1,1.6-0.2,3.1-0.4,4.7c-0.2,2.1-0.5,4.1-0.9,6.2
			c-0.7,3.8-1.5,7.6-2.3,11.4c-0.2,1-0.4,2.1-0.8,3.1c-0.7,1.6-1.2,3.3-1.5,5c-0.7,3.6-2,7-3.3,10.5c-1,2.8-2,5.6-3.6,8.2
			c-0.1,0.2-0.2,0.4-0.2,0.5c-0.7,1.8-1.5,3.5-2.3,5.3c-0.5,1.1-1.2,2.2-1.7,3.3c-0.6,1.4-1.4,2.7-2.2,4c-1.3,2.1-2.7,4.1-3.9,6.2
			c-0.8,1.5-1.7,2.9-2.7,4.3c-0.3,0.4-0.5,0.7-0.7,1.1c-0.8,1.2-1.5,2.4-2.4,3.5c-1.7,2.1-3.4,4.2-5.2,6.3c-1.1,1.3-2.3,2.5-3.5,3.7
			c-1.1,1.1-2.1,2.2-3.2,3.4c-0.2,0.2-0.5,0.4-0.8,0.6c-0.6,0.5-1.3,1.1-1.9,1.6c-1.4,1.4-2.8,2.7-4.4,3.8c-0.7,0.5-1.4,0.9-2,1.5
			C301.7,396.5,299.8,397.6,297.6,398.8"/>
		<path class="st2" d="M383.4,296c0.1,0,0.1-0.1,0.1-0.3c0-0.3,0.1-0.9,0.1-0.9l0.9-8.4l0.6-7.8l0-7.8l0-1.2l-0.9-8.8
			c0,0-1.1-7.9-1.9-12c-0.3-1.5-1.2-2.2-2.4-2.8c-0.4-0.2-0.8-0.4-1.2-0.5c-0.9-0.3-1.8-0.7-2.7-0.9c-2-0.5-3.9-1.1-5.9-1.5
			c-2.4-0.4-4.8-0.7-7.2-0.9c-2-0.2-3.9-0.3-5.9-0.3c-1.6,0-2.5,0-4.1,0c-0.8,0-1.7,0-2.1,0.5c-0.4,0.5-0.1,1.5,0,2.4
			c0.3,1.9,0.6,2.9,0.9,4.8c0.9,5.7,2,11.3,2.2,17c0.1,2.6,0.3,5.2,0.4,7.7c0,0.7,0,1.2,0,2c0,0.4,0.1,0.9,0.3,1.2
			c0.2,0.4,0.6,0.4,1,0.5c0.5,0.2,1,0.2,1.5,0.3c0.5,0.1,1.4,0.3,2,0.5c2.3,0.7,4.7,1.6,6.9,2.5c1.6,0.6,3,1.5,4.6,2.3
			c0.2,0.1,0.3,0.2,0.5,0.3c0.9,0.7,1.8,1.3,2.6,2c2.1,1.5,4.2,3,5.8,5.1c0.3,0.4,0.7,0.8,1,1.1c0.6,0.6,1.7,2.5,2.4,3.4
			C383.2,296,383.3,296,383.4,296"/>
		<path class="st2" d="M324.5,202.2c0.8-0.1,1.5-0.1,2.1-0.1c0.4-0.1,0.9-0.1,1.1-0.5c0.2-0.5-0.2-1-0.3-1.2c-0.2-0.4-1.7-3-1.7-3
			l-1.5-2.3l-6.2-8.9l-1.3-1.5l-1.2-1.6l-2-2.2l-5-5.5l-2.1-2.1l-7.8-7.2l-6.4-4.9l-2.3-1.2l-7.5-4.6l-5.2-2.8l-1-0.4l-4.3-1.6
			l-6.3-2.4l-0.5-0.1l-2-0.5l-0.5-0.1l-1.8-0.5l-3.8-0.7l-1.8-0.1l-3.4-0.6l-4-0.3l-1.4-0.2l-2.5,0l-4.2,0.1l-4.2,0.5l-3.2,0.1
			l-2.9,0.3l-2.9,0.6l-2.2,0.7l-3.6,0.7l-0.8,0l-3.4,1.2l-2,0.6l-1.2,0.7l-2.9,0.8l-1.4,0.8l-1.8,0.7l-4.3,1.8l-5.5,2.2l-1.8,0.9
			l-3.9,2.1l-3.4,2.2l-3.1,1.6l-1.1,0.7l-3.4,1.8l-0.6,0.4l-3.9,3.1l-3.2,2.2l-0.6,0.4l-3.7,2.9l-1.3,1.1c0,0-2,1.7-2,1.9l1.4-0.4
			c0,0,2.5-0.9,2.6-0.9c0,0,0.5,0,0.5,0l3.6-1.5h0.5l4-1.6c0,0,2.1-0.7,2.1-0.6c0,0,2.1-0.8,2.1-0.8l3-1l7.1-2.7l0.7,0l3.7-1.3
			l2.9-1.2l0.4,0.3c0,0,5.6,0.1,5.6,0.1c0,0,3.6,0.3,3.6,0.3l0.1,0.1l7.2,0.6l0.1-0.1l10,0.5l0,0.2l3.5,3l0.3,0l3.6,3.5l0.3-0.2
			l5,0.1l0.2-0.2l12.5,0.7l0.1,0.3l5.5,3.2l0.2,0l9.8,4.8l0.1,0.5l5.6-2.2l8.1,2.7l1.4,2.3l3,0.2l2.9,3.2l0.3,0l2.3,2.6l0,0.2h0.3
			l6.4,1.5l2.4,3.6l5.9,2.2c0,0,6.4,1.6,9.6,2C318.8,202.5,322.3,202.4,324.5,202.2"/>
		<path class="st2" d="M380,239.9c-0.2-0.9-0.9-2.9-0.9-2.9l-0.4-1l-0.3-1.3l-1.1-3.1l-1-2.7l-3.1-6.8l-1.4-3.3l-1.7-3.9l-2.1-3.4
			l-0.5-1l-1.4-2.8l-1.3-2.1l-0.5-0.7l-8.9-12.1c0,0-0.9-1-1.3-1.5c-0.2-0.3-0.3-0.5-0.6-0.5c0,0,0,0-0.1,0c0,0-2.7,4.5-3.9,5.8
			c-1.1,1.3-3.4,3.4-3.4,3.4s-1.9,1.6-2.3,1.8c-0.3,0.3-1.8,1.2-1.8,1.2l-2,1.2c0,0-1.5,0.7-1.8,0.8c-0.3,0.1-0.5,0.2-0.7,0.4
			c-0.2,0.2-0.2,0.4-0.1,0.7c0.1,0.3,0.2,0.5,0.3,0.8c0.8,1.7,1.6,3.5,2.5,5.2c1.4,2.5,2.2,5.2,3.3,7.8c0.4,0.9,0.7,1.7,1,2.6
			c0.8,2.3,1.5,4.6,2.2,6.9c0.3,1,0.7,2,1,3.1c0.3,1,0.5,2.1,0.8,3.1c0.2,0.7,0.6,1,1.3,1c0.7,0,1.3,0,2-0.1
			c2.4-0.1,4.8-0.1,7.2-0.2c0.7,0,5.5,0.4,5.5,0.4s1.7,0.2,2.5,0.3c1.8,0.3,3.6,0.7,5.4,1.1c1.5,0.3,3.1,0.8,4.5,1.5
			c0.7,0.3,1.4,0.5,2.2,0.7c0.2,0.1,0.6,0.1,0.7,0.1C379.9,240.3,380,240,380,239.9"/>
		<path class="st2" d="M348.8,186.8c-0.1-0.3-0.7-1.3-0.7-1.3l-0.5-0.8l-1.3-1.5l-0.9-1.3l-1.6-1.6c0,0-0.4-0.3-0.5-0.4
			c-2.8-2.3-8.5-6.9-8.5-6.9c0,0-1.6-1.3-1.6-1.3l-2.9-2.6l-14.8-8.8l-11.6-5.5c0,0-6.2-2.4-6.2-2.4c0,0-2.2-0.8-2.3-0.8
			c0,0-7.6-2.6-7.6-2.6l-5.4-1.4l-5.2-1.1l-0.8-0.1l-0.5,0.5l0.2,0.2c0,0,0.5,0.3,0.8,0.4c1.6,0.6,3.3,1.2,4.9,1.9
			c1.1,0.4,2.1,1,3.1,1.3c0.8,0.2,1.5,0.5,2.1,0.9c2.5,1.4,4.9,2.9,7.4,4.3c1.5,0.9,2.8,1.9,4.1,3.1c1,0.9,2,1.7,3.1,2.4
			c0.5,0.3,0.9,0.8,1.4,1.1c0.3,0.2,0.5,0.4,0.8,0.6c1.4,1.2,3,2.2,4.3,3.6c1.4,1.5,2.8,2.9,4.3,4.3c1.4,1.3,2.8,2.6,3.9,4.2
			c1,1.3,2,2.5,3.1,3.6c2.1,2.1,3.8,4.6,5.7,6.9c0.2,0.3,0.4,0.6,0.6,0.9c1.3,2,2.4,4,3.9,5.9c1.1,1.3,2,2.6,2.7,4.1
			c0.4,0.9,1,1.7,1.6,2.5c0.3,0.5,0.9,0.7,1.2,0.7c0.3,0,0.8-0.3,0.8-0.3l1-0.4c0,0,1.4-0.6,1.8-0.8c0.5-0.2,1.4-0.7,1.7-1
			c0.3-0.3,1.7-1.3,2.5-2c0.8-0.7,2.4-2.6,2.4-2.6l1.1-1.5l2-3.3C348.5,187.8,348.9,187.1,348.8,186.8"/>
		<path class="st2" d="M342.7,235.9c-0.8-2.5-1.4-4.8-2.3-7.2c-0.7-2-1.3-4-2.2-5.9c-0.6-1.1-0.9-2.4-1.3-3.6
			c-0.2-0.6-0.5-1.2-0.7-1.8c-1.1-3.1-2.6-5.6-4-8.5c-0.1-0.2-0.1-0.3-0.3-0.6c-0.1-0.3-0.3-0.5-0.6-0.7c-0.4-0.2-0.7-0.1-1.3,0
			c-1.3,0.1-2.9,0.3-3.5,0.3c-0.6,0-3.1,0.2-5.1,0.3l-0.5-0.1h-1.2h-1.2l-6.4-0.8c-2.3-0.3-7.7-1.7-7.7-1.7l-3.9-1.3l-4.8-1.7
			l-0.4,0.2l-7.5-0.6l-0.2,0.1l-4.2-3.2l-0.5,0l-2.6-2.4l-0.1-0.5l-2.9-0.4L277,196l-2.4-0.8l-0.3-0.3l-5.5,0.4l-5-2l-17.3,0.9
			l-0.3-0.2l-3.3,0.2l-0.3,0.3l-8.5,0.6l-0.2-0.2l-12.2,7l-0.1,0.5L221,203l-0.3-0.2l-6.1-0.6l-0.3,0.1l-10.8,0.1l-0.2-0.1l-3.1-0.1
			l-0.9-0.5l-11.3,8.8l0,0.2l-4,3.1l-4.4-2.1l-0.3,0.1l-1.6-0.5c0,0-8.2,2.1-8.1,2.1c0.1,0.1-7.6-1.2-7.6-1.2l-0.5-0.4l-1.4,1.5
			l-3,1.5l-0.1,0.3l-6.1,4.6l-8.6,6.2l-9.7,7.2l-4.4,3.2l-0.2,1.9l-1.8,4.3l-0.8,3.7l-1.2,7.4l-0.7,3.2l-0.3,3.9l-1.1,8l-0.5,17.6
			l0.5,1l0.3,4.8c0,0,0.1,0.8,0.3,0.9c0,0,0,0,0,0l21.5-22.3l7.1-2.8l5.9-0.3l3.6-4.1l0.3-0.8l0.4,0.2l9.7-1.1l0.4-0.3h3.6l0.5,0.2
			l1.2-1.5l4.3-2.7l4.7-3.2l13.1,0.2l0.1,0.3l5.1,0.5l4-0.8l7.3-7.5l0.1,0l5.8-5.5l8.7-1.1l0.3-0.2l0.4,0.4l4.5,2.1l0.3-0.3l4-0.5
			l0.2-0.2l3.8-0.6l0.3-0.2l4.1,3.5l0.2-0.3l8.4-0.2l0.7-0.5l6.8,0.3l0.4,0.1l1-0.3l0.2-0.3l2.7-1.2l0.3,0l3.1-1.4l0.3-0.3l3.3-1.3
			l0.2-0.4l9.2-3.5l0.1-0.1l1.6-0.5l0.4-0.4l0.5,0.5l2.7,1.3l0.8,0l3,1.7l0.2-0.3l0.9-0.4l0.1,0l1.5-0.7l0.1-0.1l2.2-0.5l5.5,1.4
			l1.2-0.3l1,0.7l4,0.6l4,1.5c0,0,2.3-0.2,2.3-0.2c0,0,0.7,0.5,0.7,0.5l0.6-0.3c0,0,7.8-1,11.7-1.3c2.5-0.2,5.1-0.5,7.6-0.7
			c1.4-0.1,2.9-0.3,4.3-0.4C342.6,237,342.9,236.8,342.7,235.9"/>
		<path class="st2" d="M348.4,275.9c0-0.5-0.1-0.9-0.1-1.4c-0.1-1.5-0.2-3-0.2-4.5c0-0.5-0.1-1-0.1-1.5c-0.1-1.9-0.2-3.8-0.4-5.6
			c-0.2-2.4-0.6-4.7-0.9-7.1c-0.3-1.8-0.6-3.6-1-5.5c-0.4-1.9-0.7-3.6-1.1-5.5c-0.4-1.9-0.8-2.2-2.8-1.9c-0.2,0-0.3,0.1-0.5,0.1
			c-0.7,0.1-1.7,0.2-2.5,0.3c-3.8,0.5-7.4,0.7-11.3,1.2l-11,3.8l-15.9-0.4l-1.7-0.6l0,0.3l-4.7,3.5l-0.7,0.1l-3.7,3.4l-0.2,0.5
			l-9.5,1.3l-8.7,6.7l-0.9,0l-4.6,2.7l-1.8,0.2l-1.8,1.5l-0.5-0.4l-8.8-0.6l-1.5,1.7l0,0.3l-7.6,8.3l-0.1,0.5l-0.3,0.1l-9.7,11.1
			l-2.7,0l-0.2,0.3l-8,1.4l-0.6,0c0,0-0.2,0.4-0.2,0.4c0,0-13.2,7.3-13.2,7.3L203,297l-1.2,0.4l-5.9-0.4l-5.8,6.3l-3.5,0.7l-2-0.1
			l-2.1,0.9l-1.2-0.1l0.1,0.2l-7.3,5.6l-0.7,0.1l-11.3,8.8l0.1,0.5l-7,17l0.3,0.7l-11.6,1.1l-3.8,3.3l-0.4,1.2l5.1,7.2l3.8,5.8
			l3.3,4.2l5.3,5.8c0,0,0,0.4,0.1,0.4c0.1,0,0.7,0.1,0.7,0.1c0,0,3.2,1.1,3.2,1.1c0,0,3.9,1.2,3.9,1.2s0,0.2,0.1,0.2
			c0,0,0.4-0.1,0.4-0.1l6.5,2.5l0.5,0l0.4,0.4c0,0,0.6,0,0.6,0c0,0,1.5,1,1.5,1l2.7-1.5l0.1,0l1.2-0.8l9.9,2.5l7.3-3.7l16.2-1.6
			l6.6-10.7c1.1-1.1,2.9-3,2.9-3l0.3,0c0,0,2.3-2.1,2.3-2.1c0,0,0-0.3,0-0.3l4.2-3.8l1.9-2c0,0,0.4-0.3,0.5-0.3
			c0.1,0,2.2-2.3,2.2-2.3l1.8-1.9l0.5-0.1l-0.5-1.6l1.9-6.8l3.6-1.1l0.1-0.1l1.1-0.2l0-0.6l4.9-7.9l0.5-0.2l2-3.9l3.3-1.9l0.4-0.5
			l0.7,0.1c0,0,1.9-1.1,2-1.1h0.2l3.6-1.6l0.3-0.4l11.9-5.4l0.7-0.1l0.1-0.7l0.5-0.4l1.2-4.1l3.8-1.6l4.3-0.5l3.9-2.7l5.6,0.2
			l0.6,0.5l0.3-0.4l7.9-3.5l0-1l1.9-3.6l3.9-1l0.2-0.2l5.3-1.1l2-2.4l0.3-0.1c0,0,1.2-1.2,1.3-1.2c0,0,3.6,0.5,3.6,0.5l0.2,0.1
			l2,0.3l1.2,0.1c0,0,5.3-2.5,7.6-3.3c0.9-0.4,1.9-0.6,2.7-0.9c1.2-0.4,2.5-0.9,3.7-1.3c0.6-0.2,1.2-0.4,1.8-0.5l2.5-0.5l2.9-0.5
			l1.8-0.1c0,0,0.9-0.1,1.2-0.2c0.3,0,0.8,0,1.2-0.4c0.4-0.3,0.4-0.7,0.4-1C348.4,276.5,348.4,276.3,348.4,275.9"/>
		<path class="st2" d="M348.2,286.2c0-0.4,0.1-1.1-0.3-1.5c-0.3-0.4-0.8-0.4-1.1-0.4c-0.3,0-1.6,0.2-1.6,0.2l-2.3,0.4
			c-0.3,0-0.5,0.1-0.8,0.1c-1.4,0.3-2.8,0.6-4.1,1c-1.5,0.4-3.1,0.8-4.5,1.5c-1.5,0.7-3.2,1.2-4.7,1.9c-0.5,0.3-5.6,2.7-8,3.9
			l-3,3.2l-0.1,0.7l-0.4-0.2l-1.9,0.1l-0.1,0.1l-6.1,2l0.1,0.7l-0.6,0.6l0,0.4l-2.8,5l-0.4,0l-0.1,0.5c0,0-0.6,0.9-1.2,2l-12.8,8.2
			l-0.3,0l-1.9,1.6l-1.4,5.4l-1.2,1.2l-5,18.4l0.7,2.1l-7.4,3.5h-1.2l-1.4,6.4l-0.2,0.2l-1.8,5.8l0.1,0.3l-0.8,5l-0.3,0.3l0.2,0.5
			l-7.1,11.2l-0.5,0.2l-1.7,2.7l0,0.5c0,0-6,8.5-6.1,8.5c0,0-6.4,3.8-6.4,3.8l0.3,0.5c0,0.1-0.3,2.6-0.3,2.6l0.6,1l-0.9,0.3
			l-4.6,2.7l-0.5-0.1l-6.8,4l-0.8,1.3c0,0.1,2.6,0.4,2.6,0.4l4.4,0.4l3,0.2l3.5,0.1l1.6,0.1l2.6,0.1l2.6-0.1l9.5-1.1l5.6-1l4.3-1.2
			l4.6-1.4l5.9-2.3l0.4-0.3l1.7-0.9c0,0,4.7-2.5,6.9-4.1c3.7-2.8,7.4-5.5,10.7-8.7c1.1-1.1,2.3-2.2,3.4-3.3c1.1-1.1,2.1-2.1,3.2-3.2
			c0.2-0.2,0.4-0.4,0.5-0.6c0.4-0.9,1.1-1.4,1.7-2.1c0.4-0.5,0.9-0.9,1.2-1.4c0.7-1.1,1.8-2,2.7-2.9c0.7-0.7,1.4-1.6,2.1-2.5
			c1.1-1.6,2.2-3.2,3.2-4.9c1.4-2.2,3-4.3,4.2-6.5c1.3-2.4,2.6-4.9,4-7.2c1.2-2,2.4-4.1,3.3-6.2c1.5-3.6,3-7.1,4.4-10.7
			c1.5-3.8,2.6-7.7,3.7-11.7c0.8-3,1.2-6,2.3-8.9c0.1-0.4,0.2-0.8,0.3-1.2c0.4-2.4,0.8-4.8,1.2-7.2c0.4-2.3,0.7-4.6,1-6.9
			c0.2-1.6,0.5-3.1,0.6-4.7c0.2-2.2,0.3-4.4,0.4-6.5c0-0.2,0-0.7,0-0.7S348.2,286.7,348.2,286.2"/>
	</g>
</g>
</svg>
