<svg id="Layer_1" data-name="Layer 1" xmlns="http://www.w3.org/2000/svg" xmlns:xlink="http://www.w3.org/1999/xlink" viewBox="0 0 200 200"><defs><style>.cls-1{fill:none;}.cls-2{clip-path:url(#clip-path);}.cls-3{fill:#63717a;}.cls-4{fill:#051922;}.cls-5{fill:#fff;}.cls-6{fill:#bec0c2;}.cls-7{fill:#f9a01b;}.cls-8{fill:#e56020;}.cls-9{fill:#b95915;}</style><clipPath id="clip-path"><rect class="cls-1" x="0.61" width="196.72" height="199.67"/></clipPath></defs><title>Team_Logos</title><g class="cls-2"><path class="cls-3" d="M197,.62A1.64,1.64,0,0,0,195.7,0H72.35C57.64,0,48.59,6.38,45.48,18.88L.66,197.64A1.6,1.6,0,0,0,1,199a1.62,1.62,0,0,0,1.29.63H136.59c7.72,0,15.41-6.14,17.15-13.67L197.29,2A1.65,1.65,0,0,0,197,.62Z"/></g><path class="cls-4" d="M2.24,198H136.59c7,0,14-5.61,15.57-12.41l43.54-184H72.35c-11.44,0-21.83,3.77-25.29,17.65L2.24,198Z"/><path class="cls-3" d="M29.94,125.37H146.45a14,14,0,0,0,13-10.35L183.92,9.11H77.06c-13,0-18.81,4.05-21.54,15L29.94,125.37Zm116.51,1.44H28.09l26-103.08C57.45,10.4,65.7,7.66,77.06,7.66H185.73L160.84,115.34a15.5,15.5,0,0,1-14.39,11.47Z"/><polygon class="cls-5" points="47.47 184.61 50.71 189.09 75.24 189.09 85.2 149.63 75.15 149.63 66.59 183.52 57.66 183.52 66.21 149.63 53.55 149.63 52.74 150.35 55.26 153.75 47.47 184.61 47.47 184.61"/><polygon class="cls-5" points="48.22 163.46 50.62 153.95 47.38 149.46 27.25 149.46 21.75 153.95 18.41 167.23 35.4 174.37 33.1 183.52 24.2 183.52 25.28 179.22 16.4 175.15 14.02 184.61 17.25 189.09 37.38 189.09 42.88 184.61 46.23 171.33 29.23 164.18 31.54 155.03 40.44 155.03 39.33 159.41 48.22 163.46 48.22 163.46"/><polygon class="cls-5" points="117.63 153.95 114.39 149.46 89.86 149.46 79.9 188.92 89.95 188.92 98.51 155.03 107.45 155.03 98.89 188.92 111.55 188.92 112.36 188.2 109.84 184.81 117.63 153.95 117.63 153.95"/><polygon class="cls-5" points="148.73 163.46 151.13 153.95 147.9 149.46 127.77 149.46 122.27 153.95 118.92 167.23 135.92 174.37 133.61 183.52 124.72 183.52 125.8 179.22 116.92 175.15 114.53 184.61 117.77 189.09 137.9 189.09 143.39 184.61 146.75 171.33 129.75 164.18 132.06 155.03 140.95 155.03 139.84 159.41 148.73 163.46 148.73 163.46"/><polygon class="cls-6" points="16.4 175.15 20.04 180.66 19.25 183.81 21.08 186.28 35.28 186.28 38.15 184.06 42.88 184.61 37.38 189.09 17.25 189.09 14.02 184.61 16.4 175.15 16.4 175.15"/><polygon class="cls-6" points="33.1 183.52 38.15 184.06 40.99 172.83 23.82 165.62 26.63 154.51 21.75 153.95 18.41 167.23 35.4 174.37 33.1 183.52 33.1 183.52"/><polygon class="cls-6" points="43.52 152.25 29.59 152.25 26.63 154.51 31.54 155.03 40.44 155.03 39.33 159.41 44.62 157.78 45.38 154.77 43.52 152.25 43.52 152.25"/><polygon class="cls-6" points="116.92 175.15 120.56 180.66 119.76 183.81 121.59 186.28 135.8 186.28 138.66 184.06 143.39 184.61 137.9 189.09 117.77 189.09 114.53 184.61 116.92 175.15 116.92 175.15"/><polygon class="cls-6" points="133.61 183.52 138.66 184.06 141.5 172.83 124.34 165.62 127.14 154.51 122.27 153.95 118.92 167.23 135.92 174.37 133.61 183.52 133.61 183.52"/><polygon class="cls-6" points="144.03 152.25 130.1 152.25 127.14 154.51 132.06 155.03 140.95 155.03 139.84 159.41 145.14 157.78 145.9 154.77 144.03 152.25 144.03 152.25"/><polygon class="cls-6" points="52.74 150.35 60.61 152.26 52.65 183.81 54.51 186.31 70.87 186.31 75.24 189.09 50.71 189.09 47.47 184.61 55.26 153.75 52.74 150.35 52.74 150.35"/><polygon class="cls-6" points="75.15 149.63 79.51 152.25 70.87 186.31 66.59 183.52 75.15 149.63 75.15 149.63"/><polygon class="cls-6" points="94.23 152.25 89.86 149.46 79.9 188.92 89.95 188.92 85.59 186.3 94.23 152.25 94.23 152.25"/><polygon class="cls-6" points="104.49 186.29 112.46 154.74 110.6 152.25 94.23 152.25 98.51 155.03 107.45 155.03 98.89 188.92 111.55 188.92 112.36 188.2 104.49 186.29 104.49 186.29"/><path class="cls-5" d="M31.88,137.59l-2.6.76.85-3.49h2.42l-.67,2.73Zm-4.76-4.73-.25.21.83,1.1-2.53,10.37h3.5l.26-.21-.87-1,.68-2.81,5.43-1.69,1.11-4.56-1.08-1.41Z"/><polygon class="cls-5" points="56.17 132.86 53.58 132.86 52.55 137.06 50.01 137.67 51.18 132.86 47.69 132.86 47.43 133.07 48.27 134.17 45.73 144.54 48.33 144.54 49.45 139.92 51.99 139.36 50.72 144.54 54.22 144.54 54.48 144.33 53.61 143.33 56.17 132.86 56.17 132.86"/><path class="cls-5" d="M71.8,142.66H69.38l1.92-7.86h2.42l-1.92,7.86Zm-1.19-9.8-1.77,1.4-2.17,8.86,1.09,1.42h4.76l1.76-1.41,2.17-8.87-1.08-1.4Z"/><polygon class="cls-5" points="116.83 134.26 115.74 132.86 109.46 132.86 106.61 144.54 109.2 144.54 111.58 134.8 114.1 134.8 111.72 144.54 115.22 144.54 115.47 144.33 114.61 143.33 116.83 134.26 116.83 134.26"/><polygon class="cls-5" points="133.03 132.86 129.54 132.86 129.28 133.07 130.12 134.17 127.58 144.54 131.08 144.54 131.34 144.33 130.47 143.33 133.03 132.86 133.03 132.86"/><polygon class="cls-5" points="151.81 143.39 150.43 138.82 155.05 132.86 152.55 132.86 149.86 136.47 148.94 132.86 145.45 132.86 145.19 133.06 146.61 134.11 147.93 138.87 143.54 144.54 146.06 144.54 148.62 141.11 149.51 144.54 153 144.54 153.26 144.33 151.81 143.39 151.81 143.39"/><polygon class="cls-5" points="93.07 142.66 90.03 142.66 90.76 139.67 93.27 139.67 93.75 137.74 91.23 137.74 91.95 134.8 94.79 134.8 95.51 135.82 95.78 135.63 96.46 132.86 88.93 132.86 88.67 133.07 89.51 134.17 86.97 144.54 93.8 144.54 94.46 141.81 94.29 141.62 93.07 142.66 93.07 142.66"/><polygon class="cls-7" points="33.07 123.47 99.66 87.01 54.51 123.47 109.3 91.99 108.39 98.34 117.53 93.26 138.17 112.77 149.15 79.77 165.04 78.75 156.96 58.73 171.35 47.47 152.74 40.22 157.45 20.2 141.62 27.45 133.46 10.23 120.77 22.89 97.95 12.65 94.81 33.03 74.47 37.45 86.5 44.7 74.39 50.77 84.68 51.67 42.36 84.58 84.93 61.97 39.26 96.73 87.87 71.4 35.95 110.44 93.18 79.94 33.07 123.47 33.07 123.47"/><path class="cls-8" d="M154.92,59a33.16,33.16,0,1,1-31.77-34.5A33.15,33.15,0,0,1,154.92,59Z"/><path class="cls-9" d="M125.85,86.26a33.16,33.16,0,0,1-22.45-56.2,33.15,33.15,0,1,0,42.2,50.65,32.93,32.93,0,0,1-19.75,5.55Z"/><path class="cls-4" d="M154.93,58a31.48,31.48,0,0,0-.14-3.52,15.25,15.25,0,0,0-6.88-2.7c-.51-.06-1-.09-1.49-.13a41,41,0,0,0-1.48-6.42l1,.06c2.33.17,4.63.44,6.9.77-.32-.85-.67-1.67-1-2.49-2.55-.38-5.14-.68-7.76-.88h0A38.67,38.67,0,0,0,141,36.59a9,9,0,0,0,4.44-2.2c-.63-.64-1.28-1.25-2-1.83a7.17,7.17,0,0,1-4,1.71c-.24-.34-.48-.68-.73-1A36.35,36.35,0,0,0,131,25.79a32.94,32.94,0,0,0-7.82-1.27h-.44a32.08,32.08,0,0,1,13.16,9.77,65.19,65.19,0,0,1-11.37-2.65l-3.4-1a44.48,44.48,0,0,0-15.72-1.81,33.36,33.36,0,0,0-7.73,6.09A34.39,34.39,0,0,1,120.46,33c1.09.3,2.22.63,3.36,1,4.52,1.33,9.59,2.81,14,2.85a35.32,35.32,0,0,1,3.12,5.69c-.86,0-1.71-.07-2.57-.09-21.29-.36-39.54,6-49.67,16.17a32.14,32.14,0,0,0,.69,5.92A37.2,37.2,0,0,1,101.9,53.67c10.3-5.79,24-8.84,38.51-8.59l1.5.05a37.48,37.48,0,0,1,1.63,6.5c-9.36.4-15.43,6.24-22.39,12.46-6.26,5.59-13.88,11.16-25.05,14.52a32.67,32.67,0,0,0,3.44,3.62C110.05,78,117,71.4,123,66.12c6.7-6,12.45-11.74,20.91-12a39.37,39.37,0,0,1,0,7.12c-1.14,13-8.66,24-18.92,29.44A32.48,32.48,0,0,0,132.54,89c.82-.68,1.62-1.39,2.4-2.15a40.55,40.55,0,0,0,11.75-25.4,42.82,42.82,0,0,0,0-7.25c.42,0,.83.08,1.27.15a12.88,12.88,0,0,1,7,3.68Z"/></svg>