<svg id="Layer_1" data-name="Layer 1" xmlns="http://www.w3.org/2000/svg" xmlns:xlink="http://www.w3.org/1999/xlink" viewBox="0 0 200 200"><defs><style>.cls-1{fill:none;}.cls-2{clip-path:url(#clip-path);}.cls-3{fill:#8c9091;}.cls-4{fill:#2d2a26;}.cls-5,.cls-7{fill:#fff;}.cls-6{fill:#0055b8;}.cls-7{fill-rule:evenodd;}</style><clipPath id="clip-path"><rect class="cls-1" x="0.03" y="27.53" width="199.59" height="144.93"/></clipPath></defs><title>Team_Logos</title><g id="MAGC"><g class="cls-2"><path class="cls-3" d="M80.52,128.43c10.73-1.64,21.43-1.16,30.8,2.8l1.14-2.51c-15.16-4.88-34.21-4.63-48.41,3.14l4-9.4c-17.84,4.83-29.84,14.89-41.91,25.25,8.8-20.78,27.93-37.87,49.56-44.07l-1.1,3.45a123.94,123.94,0,0,1,56.58-4.58l-3.94-5.13,9.66,2.46,6.21-9.27L145.6,102l9.5,3.08s-6.92,2.9-6.59,3c36,14.82,24.46,64-9.74,64.31-17.31.15-30.73-15.48-30.14-31.84-8.8-5.79-17.62-8.57-28.11-12.19"/></g><path class="cls-3" d="M73.76,62.77l0-.13a4.69,4.69,0,0,1,1.76-3.32h0a5.91,5.91,0,0,1,3.31-1.11h0l2-.13h0l3.09-.2V80.13l-2.71.19-4.4.29h0l-3.09.2v-18Zm-15.11-.6a14.44,14.44,0,0,1,3.45-9.94h0a14.27,14.27,0,0,1,9.52-4.39h0c7.32-.68,14.76-1.09,22.12-1.24h0l5.43-.12v62.46l-.09,5.38-5.41-.09c-1,0-8.17.25-9.51.34h0l-.16,0h0l-5.85.52V115l-3.66.17c-.5,0-9.21.9-9.64,1h0l-6.19,1v-55Z"/><path class="cls-3" d="M192.73,128.86l-8.36-2.56h0l-.13,0h0c-3.27-.93-6.22-1.75-8.38-2.33h0l-3.9-1A15.9,15.9,0,0,1,163,117.6h0a15.49,15.49,0,0,1-3.15-9.87h0V67.13c0-4,1.19-7.62,4.07-9.86h0a10.41,10.41,0,0,1,6.56-2.13h0a16.34,16.34,0,0,1,3.89.5h0c.49.11,1.91.51,4.16,1.14h0L186.39,59h0l11.08,3.14h0l2.11.61V90.32l-17.69-5.44-.28-1.79s-.5-3.21-1-6.18h0v30.87s0,0,0,0h0a.74.74,0,0,0,.07.21h0s-.08,0,.49.23h0l1.9.51h0l1-4.24h0l.69-3,14.81,4.44,0,25-6.9-2.07Z"/><path class="cls-3" d="M0,70.7a10.76,10.76,0,0,1,3.16-7.45h0a13.75,13.75,0,0,1,5.47-3.51h0a162.67,162.67,0,0,1,20.19-4.48h0l3.1-.49a14.75,14.75,0,0,1,4.23-1.6h0c4-.84,16.09-3.11,16.64-3.21h0l6.3-1.18,0,63.52L59,117l-4.69.54c-.39,0-9.19,1.52-9.6,1.64h0l-6.55,1.47V110.42L19.9,114.74V121l-.07,4.14-4,1c-.08,0-1.4.4-2.82.84h0l-4.34,1.34h0l-1.45.47h0L0,131.43V70.7Z"/><path class="cls-3" d="M153.64,119l-.1,0h0l-.35-.07h0l-1.11-.2h0l-3.14-.53h0l-4.76-.76h0L142,117.2l-2.6-.29V49.45l5.78.45c.6.07,1.89.28,3.7.57h0c1.75.28,3.79.63,5.26.88h0c1,.18,1.61.28,2.07.39h0l4,1v61.09l-.08,6.6-6.5-1.44Z"/><path class="cls-3" d="M133.15,116c-.58-.12-4.22-.47-8-.76h0c-3.62-.29-7.6-.57-10.13-.73h0l-2.8-.1a14,14,0,0,1-9.76-3.88h0a13.75,13.75,0,0,1-3.53-9.84h0V58.45a11.7,11.7,0,0,1,3.27-8.68h0a12.08,12.08,0,0,1,8.61-3h0c.6,0,1.12,0,1.46,0H113c.75,0,1.7,0,3.08.12h0l1.55.06,0,0c1.53.1,3.45.25,5.92.44h0c8.27.64,10.44.86,11.7,1.12h0a5.11,5.11,0,0,1,1.15.38h0l3.08,1.49,0,3.39V72.48L122,70.22l-.44-2S121,66,120.6,64h0l-.75,0h0l.05,8v1.74l1.07,0h.22c.51,0,1.15.06,2.23.14h0l3.71.32h0c2.74.24,5.68.53,7.13.7h0a10.4,10.4,0,0,1,1.06.15h0l4.18.92-.05,41.24-6.3-1.17Z"/><path class="cls-4" d="M77.83,76.47l2.07-.14h0V62.21l-.79,0h0a2.14,2.14,0,0,0-1.08.28h0c-.1.09-.15.12-.2.45h0V76.47ZM60.39,62.17c-.09-7.12,4.34-12,11.39-12.59h0c7.28-.68,14.68-1.09,22-1.23h0l3.65-.08v60.64l0,3.64-3.65-.07h0c-.94,0-9.23.29-9.87.36h0l-3.94.36V89.52l-2.07.14h0v20.21l0,3.4-3.4.16c-.66,0-9.16.89-9.8,1h0l-4.17.66,0-52.91Z"/><path class="cls-4" d="M193.24,127.19l-8.08-2.48h0l-.32-.1h0c-3.6-1-6.81-1.92-9-2.51h0l-3.4-.84c-6.85-1.6-10.81-6.56-10.74-13.51h0V67.13c0-3.69,1.08-6.68,3.41-8.5h0a8.58,8.58,0,0,1,5.48-1.75h0a14.68,14.68,0,0,1,3.5.45h0c1.14.26,23,6.48,23,6.48h0l.84.24V88l-14.39-4.42-.11-.72-1.56-9.92h0l-2-.58h0l-.37-.1-.51-.14h0v35.75a2.72,2.72,0,0,0,.27,1h0a2.22,2.22,0,0,0,1.59,1.13h0s1.93.51,3.67,1h0c.54-2.42,1.36-6,1.36-6h0l.27-1.21,11.78,3.53,0,21.34-4.64-1.39Z"/><path class="cls-4" d="M1.78,70.7c.08-5.21,4.53-8.34,7.42-9.29h0A162.61,162.61,0,0,1,29.11,57h0l3.44-.53a12.74,12.74,0,0,1,4-1.57h0c4-.82,16.07-3.11,16.6-3.21h0l4.23-.78,0,61.4-.06,3.18-3.16.36c-.64.07-9.17,1.51-9.8,1.67h0l-4.42,1V68.81l-.09,0h0c-1.25.39-1.47.63-1.75,2h0v0c0,3.31,0,36.82,0,36.82h0v.92l-17.31,4.1V73.15l-.3.08h0a4.64,4.64,0,0,0-1.68.83h0a1.47,1.47,0,0,0-.62,1.2h0V121l0,2.79-2.7.66c-.59.15-8.23,2.5-8.78,2.71h0l-4.85,1.78V70.7Z"/><path class="cls-4" d="M154.06,117.3c-.6-.15-9.05-1.54-9.69-1.6h0l-2.2-.24-1-.12v-64l3.88.3c1,.1,9.81,1.57,10.75,1.79h0l2.71.69v59.71l-.05,4.45-4.36-1Z"/><path class="cls-4" d="M115.79,62.23Zm2.36,36.42a1.76,1.76,0,0,0,.17.74h0c.09.14.25.33,1.11.4h0l.88.06h0v-12l-1.58-.12h0l-.58,0v11Zm15.33,15.64c-1.69-.33-13.14-1.19-18.35-1.51h0l-2.85-.11c-3.59-.14-6.54-1.25-8.57-3.34h0c-2-2.1-3-5.08-3-8.64h0V58.45A9.88,9.88,0,0,1,103.41,51h0c2.33-2.24,5.38-2.51,7.4-2.52h0c.55,0,1,0,1.4,0h0l.4,0h.44c1.54,0,4.32.21,10.37.67h0c8.23.63,10.47.87,11.46,1.09h0a3.29,3.29,0,0,1,.75.24h0l2.09,1V70.49l-14.3-1.84-.17-.8s-.75-3.39-1.22-5.49h0l-.76,0h0L119,62.16h-.32a2.37,2.37,0,0,0-.52,0h0v.09h0s0,.38,0,.48h0v.38h0l.07,8.88v3.55l2.92-.11h.12c.71,0,3.79.27,7,.56h0c3.18.29,6.13.58,6.77.7h0l2.82.63,0,37.72-4.23-.78Z"/><path class="cls-5" d="M81.86,60.13v18l-6,.4V62.81c.16-1.08.55-2.27,3.1-2.51l2.89-.17Zm12-9.25h0V50.3c-7.27.15-14.62.57-21.85,1.23-6.16.52-9.67,4.39-9.61,10.64l0,50.64,1.91-.34c.52-.08,9.48-1,10-1l1,0,.57,0V87.83l6-.41v23.67l1.8-.2c.49-.07,8.78-.38,10-.38h.09l1.1,0,.6,0V50.27l-1.65,0v.58Z"/><path class="cls-5" d="M195.87,108.7l-8.37-2.51-.14.61s-1,4.56-1.49,6.62c-3.36-1-4.83-1.42-5.63-1.56h0a4.24,4.24,0,0,1-2.84-2.15,4.6,4.6,0,0,1-.48-1.91v-36a2.69,2.69,0,0,1,.36-1.34,1.11,1.11,0,0,1,1-.4,4,4,0,0,1,1.11.18l.08,0h.09c.13,0,1.53.42,4,1.15.33,2.08,1.61,10.28,1.61,10.29l.05.36,10.68,3.29V65.56l-.42-.12s-20.82-5.95-21.88-6.19a12.86,12.86,0,0,0-3.07-.41,6.71,6.71,0,0,0-4.26,1.33h0c-1.81,1.42-2.66,3.83-2.66,7v40.59c0,6.09,3.19,10.15,9.19,11.59l.11.06h.23c.7.12,6.44,1.67,12.22,3.34l8.48,2.59,2.1.64,0-17.25Z"/><path class="cls-5" d="M36.94,56.8a10.86,10.86,0,0,0-5.65,3.13v-1.3l-1.87.3A155.83,155.83,0,0,0,9.79,63.28c-2.51.83-6,3.54-6,7.42v55.46L6,125.3c.46-.17,8.5-2.64,9-2.77l.78-.18.45-.1v-47c0-2.38,2.22-3.46,3.72-3.92.5-.16,1.7-.38,2.8-.57v39.48l13.4-3.16v-1.29c0-3.39,0-31.52,0-34.94v-.19a3.94,3.94,0,0,1,3.27-3.77h.06l2.44-.39v49.58l2-.51c.52-.13,9.5-1.65,10-1.71l.92-.07.52,0,0-1.47v-59l-1.91.35S40.86,56,36.94,56.8Z"/><path class="cls-5" d="M144.85,53.6l-1.12-.08-.62-.05v60.15l.53,0,1,.09c.5,0,9.42,1.51,9.91,1.64l2,.49V55.64l-1.22-.31c-.77-.18-9.64-1.65-10.44-1.73Z"/><path class="cls-5" d="M105.17,52.86Zm16.07,24.56h-.09l-1,0-.56,0v8.35l.53,0,2.12.16V102l-3-.19a3.09,3.09,0,0,1-2.67-1.38,3.5,3.5,0,0,1-.43-1.73V72l-.06-8.87v-.46l0-.43a2.09,2.09,0,0,1,.43-1.41,2.64,2.64,0,0,1,2.07-.67,3.17,3.17,0,0,1,.43,0h.2c.27,0,1.79.11,4.35.32.36,1.67,1.31,5.95,1.31,6l.09.39,10.72,1.39V52.85l-.92-.5c-.45-.17-.87-.34-11.57-1.16-6.47-.5-9.12-.66-10.34-.66h-.34l-.46,0c-.39,0-.85,0-1.37,0a8.41,8.41,0,0,0-6,2h0a8,8,0,0,0-2.13,6v42.25c-.07,6.17,3.5,9.84,9.71,10h.11l.14,0h0c1.61,0,18.79,1.21,21.2,1.67l1.92.35,0-33.79-1.28-.29c-.86-.17-12.08-1.2-13.27-1.21Z"/><path class="cls-6" d="M194.26,109.9l-5.56-1.66-1.63,7.23c-3.61-1.07-7.24-2.11-7.25-2.06a5.87,5.87,0,0,1-3.85-3,5.8,5.8,0,0,1-.66-2.66.66.66,0,0,1,0-.14h0c0-.36,0-35.83,0-35.88a4.08,4.08,0,0,1,.67-2.29c.53-.7,1.62-1.44,3.84-.84,0,0,2.37.65,5.16,1.49l1.67,10.65,7.62,2.34V66.84s-20.08-5.79-21-6c-5.3-1.3-8,.89-8,6.32v40.6c0,5.43,2.71,8.74,8,10,0-.12,6.73,1.72,12.58,3.39l8.49,2.6,0-13.86ZM29.66,66.53v-6a161.78,161.78,0,0,0-19.37,4.3c-2,.65-4.93,3-4.93,5.88v53.1c.59-.23,8.6-2.69,9.21-2.83V75.27c0-3.2,2.62-4.8,4.86-5.47,1.23-.37,4.89-.92,4.89-.92v39.34l10.16-2.41s0-35.12,0-35.26A5.58,5.58,0,0,1,39,65.33c2.58-.43,4.46-.72,4.46-.72V114c.62-.16,9.65-1.7,10.27-1.75,0-11.4,0-57.07,0-57.07s-12.59,2.36-16.53,3.18a10,10,0,0,0-7.61,8.15m115.06,45.61c.63,0,9.56,1.53,10.18,1.68V56.91c-.62-.17-9.55-1.64-10.18-1.69v56.92ZM64,62.17s0,48,0,48.72c.63-.12,9.63-1,10.27-1V86.33c3.07-.27,6.15-.47,9.21-.64v23.58c.64-.07,9.74-.41,10.38-.37v-57Q83,52.15,72.11,53.14c-5.41.5-8.14,3.6-8.14,9m10.29.58c.09-1.11.72-3.77,4.61-4.06,1.53-.1,3.06-.2,4.6-.28V79.68c-3.06.16-6.14.37-9.21.62V62.75Zm47,21.58,2.65.19v19.17c-1.57-.12-3.15-.22-4.71-.33a4.6,4.6,0,0,1-4-2.17,5.22,5.22,0,0,1-.66-2.54c0-.42,0-16.14,0-26.63,0-5.09-.07-8.92-.07-9.18,0-.08,0-.29,0-.61a3.73,3.73,0,0,1,.85-2.45,4.45,4.45,0,0,1,3.81-1.19c0-.05,2.69.16,5.77.42l1.41,6.4,7.77,1V53.82c-.65-.3-21.69-1.89-21.71-1.67l-.36,0c-1.67-.08-4.45-.17-6.17,1.49a6.44,6.44,0,0,0-1.64,4.84v42.24c0,5.44,2.75,8.19,8.17,8.41,0-.18,19,1.16,21.71,1.67,0-.66,0-29.89,0-30.55-.63-.14-12.28-1.21-12.93-1.19v5.3Z"/><path class="cls-6" d="M29.66,66.53v-6a161.78,161.78,0,0,0-19.37,4.3c-2,.64-4.93,3-4.93,5.88v53.1c.59-.23,8.6-2.7,9.21-2.83V75.26c0-3.19,2.62-4.79,4.86-5.46,1.23-.37,4.89-.92,4.89-.92v39.34l10.16-2.41s0-35.12,0-35.27A5.59,5.59,0,0,1,39,65.33c2.58-.43,4.46-.72,4.46-.72V114c.61-.16,9.64-1.7,10.27-1.75,0-11.4,0-57.07,0-57.07s-12.59,2.36-16.53,3.18a10,10,0,0,0-7.61,8.15m115.06,45.61c.63,0,9.56,1.52,10.17,1.68V56.9c-.61-.16-9.54-1.63-10.17-1.68v56.92ZM121.24,84.33l2.65.19v19.17c-1.57-.12-3.15-.22-4.71-.33a4.63,4.63,0,0,1-4-2.17,5.29,5.29,0,0,1-.65-2.54c0-.42,0-16.14,0-26.63,0-5.09-.07-8.92-.07-9.18,0-.08,0-.29,0-.61a3.7,3.7,0,0,1,.84-2.45,4.42,4.42,0,0,1,3.81-1.19c0-.05,2.69.16,5.77.42l1.41,6.4,7.77,1V53.82c-.65-.3-21.69-1.89-21.71-1.67l-.37,0c-1.66-.08-4.44-.17-6.16,1.49a6.43,6.43,0,0,0-1.64,4.83v42.25c0,5.44,2.75,8.18,8.17,8.41,0-.18,19,1.16,21.71,1.67,0-.66,0-29.89,0-30.55-.64-.14-12.28-1.21-12.93-1.19v5.3Z"/><path class="cls-4" d="M65.07,43.78a.36.36,0,0,1-.15.27h0a1.45,1.45,0,0,1-.68.29l-1.31.25a.94.94,0,0,1-.22,0c-.18,0-.18,0-.19,0h0s0-.1,0-.1h0v-10h0s0-.11.13-.26a1.52,1.52,0,0,1,.71-.31l1.14-.22.29,0a.57.57,0,0,1,.26.05s0,.08,0,.08v10ZM68.6,31.45a2,2,0,0,0-1.09-.69h0a3.26,3.26,0,0,0-.92-.11,7,7,0,0,0-1.29.13L62,31.4a5.92,5.92,0,0,0-2.09.79,3.16,3.16,0,0,0-1,1,3,3,0,0,0-.44,1.6V45.38A2.42,2.42,0,0,0,59,46.89a2,2,0,0,0,1.1.68,3.44,3.44,0,0,0,.78.08,7.15,7.15,0,0,0,1.4-.17l3.26-.62a6,6,0,0,0,2.1-.73,3.16,3.16,0,0,0,1-.93,2.93,2.93,0,0,0,.46-1.61V33a2.45,2.45,0,0,0-.47-1.54Z"/><path class="cls-4" d="M118.45,29.41a2.83,2.83,0,0,0-1-.88h0a5.86,5.86,0,0,0-2.16-.5c-2.17-.15-4.35-.26-6.52-.33l-.64,0V43.75l.6,0,2.83.12.65,0V30.52l1.32.08c1.55.17,1.3.65,1.38.83V44.07l.57,0c.94.07,1.88.13,2.81.21l.67.06V31a2.76,2.76,0,0,0-.46-1.58Z"/><path class="cls-4" d="M127.64,42.42a1.18,1.18,0,0,1-.59.11l-.51,0-1.46-.18V31.63l1.31.16a2.5,2.5,0,0,1,1.07.33.71.71,0,0,1,.33.67v9.26c0,.29-.06.29-.15.37Zm3.72-11.52a3,3,0,0,0-1-.93h0a5.75,5.75,0,0,0-2.13-.65c-.89-.14-5.29-.65-6.48-.76l-.67-.05V44.6l.56,0c2.14.22,4.29.47,6.42.76a7.36,7.36,0,0,0,1,.07,4.51,4.51,0,0,0,1.14-.14,2.17,2.17,0,0,0,1.12-.71,2.34,2.34,0,0,0,.49-1.53V32.49a2.81,2.81,0,0,0-.45-1.59Z"/><path class="cls-4" d="M77.8,35.36v0a.6.6,0,0,1-.24.45h0a2.22,2.22,0,0,1-1.17.42l-1.21.15V31.94l1.36-.17a4.85,4.85,0,0,1,.6,0,1.17,1.17,0,0,1,.62.11s0,0,0,.18h0v2.67c0,.36,0,.59,0,.67ZM81.87,44c0-1.81,0-3.62,0-5.42a1.67,1.67,0,0,0-.79-1.43h0a1,1,0,0,0-.19-.12,2.16,2.16,0,0,0,1-1.67V31.29a2.39,2.39,0,0,0-.49-1.55A2.28,2.28,0,0,0,80.23,29a4,4,0,0,0-1.3-.18c-.27,0-.56,0-.87.05q-3.21.38-6.4.84l-.52.08V45.92l.7-.11q1.39-.21,2.79-.39l.54-.07v-6.2l1.4-.18h.15l.36,0a1.24,1.24,0,0,1,.63.12c.09.06.12.16.12.39V45l.68-.08,2.8-.3.56-.05V44Z"/><path class="cls-4" d="M93.09,40.37V38.29l-.66,0L90,38.49l-.93,2.82L88,41.38V28l-.66.05c-1,.06-1.89.14-2.84.21l-.56.05v16.1l.66-.06q4-.31,7.93-.5l.59,0V40.37Z"/><path class="cls-4" d="M101.85,35H99.13V30.8a.38.38,0,0,1,.18-.28,2,2,0,0,1,1.18-.28h1.36V35Zm3.48-7.4c-.79,0-3,0-4.64,0l-1.92,0a5.37,5.37,0,0,0-2.16.4,2.7,2.7,0,0,0-1.07.84,2.58,2.58,0,0,0-.47,1.57c0,1.06,0,11.21,0,12.73v.63l.63,0,2.81-.06h.61v-6l2.38,0h.34v6h.61l2.84,0h.63V27.6l-.6,0Z"/><path class="cls-4" d="M140.27,44.48v.06s0,0,0,0h0a.53.53,0,0,1-.25,0l-.35,0-1.29-.25a.82.82,0,0,1-.61-.36.46.46,0,0,1-.06-.2h0v-10h0a.54.54,0,0,1,.26,0,2.31,2.31,0,0,1,.32,0l1.15.22a1.31,1.31,0,0,1,.65.29.47.47,0,0,1,.18.32v10Zm3.56-11.3h0a3.25,3.25,0,0,0-.94-1,6.22,6.22,0,0,0-2.16-.79l-3.26-.64a6.78,6.78,0,0,0-1.21-.12,3.71,3.71,0,0,0-1,.12,2.16,2.16,0,0,0-1.11.67A2.39,2.39,0,0,0,133.7,33V43.6a3,3,0,0,0,.42,1.58,3,3,0,0,0,1,.94,6.38,6.38,0,0,0,2.16.74l3.24.63a6.87,6.87,0,0,0,1.35.15,3.79,3.79,0,0,0,.77-.08,2.05,2.05,0,0,0,1.14-.66,2.31,2.31,0,0,0,.49-1.52V34.77a3.12,3.12,0,0,0-.41-1.59Z"/><polygon class="cls-5" points="77.09 120.69 79.11 119.69 80.79 121.19 80.46 118.97 82.4 117.84 80.19 117.45 79.71 115.26 78.67 117.25 76.43 117.03 78 118.63 77.09 120.69 77.09 120.69"/><path class="cls-4" d="M145,108.17l5.67-2.48.28-.12-.29-.09s-5.94-2-7.22-2.37c-.19-1.35-1.13-7.81-1.13-7.81l-.05-.31-2.16,3.51-1.91,3.09-7.55-1.93-.32-.08.2.27s2.5,3.21,4,5.17A101.68,101.68,0,0,0,113,102.93c-2.69,0-5.48.08-8.39.24A115.15,115.15,0,0,0,72,109.69l1.2-3.58-.22.07C56.51,111.32,38.5,126.76,30.54,142l.18.13c11.26-10.55,26.49-19,40.14-22.05l-3.58,8.36.27-.13c6.36-3.07,14.7-4.43,23.11-4.43a72.83,72.83,0,0,1,24,3.87l-2.57,5.61a58.42,58.42,0,0,0-22.33-4.7,34.78,34.78,0,0,0-3.76.19l0,.22c8.68,2.45,17.66,5.22,24.78,10.93,0,.6-.06,1.21-.06,1.81,0,15,13,28.63,28.2,28.63h.3c16.78-.2,29.21-15.58,29.21-31.62,0-11.81-6.76-24-23.47-30.67Z"/><path class="cls-3" d="M135.81,135.69c-6.2,0-12.4-2.27-18.62-4.56a24.82,24.82,0,0,0-1.76,16.75l1.54,0a70.51,70.51,0,0,0,35.08-9.45,46.79,46.79,0,0,0-4.19-6.26,21.91,21.91,0,0,1-12.05,3.5Z"/><path class="cls-3" d="M116.54,150.23h-.4c3.76,9.72,12.37,16.16,22.89,16.31,3.36-8.29,7.09-17.35,15.63-21.58a44.92,44.92,0,0,0-1.6-4.38,72.83,72.83,0,0,1-36.52,9.65Z"/><path class="cls-3" d="M142.52,119.73a38,38,0,0,0-6.34-1.91c-1.05.14-2.47.28-3.61.51a39,39,0,0,1,15.75,10.85,23,23,0,0,0,6-6.75c-4.33-4.2-12.46-9.35-32.76-11,8.57,2,16.45,4.79,21,8l-.11.21Z"/><path class="cls-3" d="M85.62,116.91c1.26,0,2.62,0,4,0,14.42,0,36.67,1.71,45.3,12l-.14.18c-3-1.67-9-4.42-12.68-4.42h-.36a32.09,32.09,0,0,0-3.42,4.6c5.76,2.12,11.6,4.23,17.39,4.23a20.24,20.24,0,0,0,10.82-3c-10-10.9-26.92-15.65-42.89-15.65a74.08,74.08,0,0,0-18.07,2.16Z"/><path class="cls-3" d="M153.85,137.31a36.55,36.55,0,0,0,7.38-6.43,28.16,28.16,0,0,0-5.46-7.07,25.24,25.24,0,0,1-6.1,7.15,56.09,56.09,0,0,1,4.18,6.35Z"/><path class="cls-3" d="M141.47,166.44a25.27,25.27,0,0,0,13.64-5.68,26.59,26.59,0,0,0,.86-6.88,36.58,36.58,0,0,0-.64-6.62c-7.64,3.67-10.81,11.73-13.86,19.18Z"/><path class="cls-3" d="M158.23,155.37c0,.77,0,1.53-.06,2.3A27.31,27.31,0,0,0,163.62,145a28.49,28.49,0,0,0-6.37,1.23,42.09,42.09,0,0,1,1,9.12Z"/><path class="cls-3" d="M154.9,139.43c.67,1.54,1.26,3.09,1.78,4.68a28.42,28.42,0,0,1,7.17-1.32v-.53a25.8,25.8,0,0,0-1.55-9,45.74,45.74,0,0,1-7.4,6.13Z"/><path class="cls-3" d="M163.85,142.79a28.42,28.42,0,0,0-7.17,1.32c-.52-1.59-1.11-3.14-1.78-4.68a45.74,45.74,0,0,0,7.4-6.13,25.8,25.8,0,0,1,1.55,9v.53Z"/><path class="cls-3" d="M163.85,142.79a28.42,28.42,0,0,0-7.17,1.32c-.52-1.59-1.11-3.14-1.78-4.68a45.74,45.74,0,0,0,7.4-6.13,25.8,25.8,0,0,1,1.55,9v.53Z"/><path class="cls-3" d="M155.77,123.81a28.16,28.16,0,0,1,5.46,7.07,36.55,36.55,0,0,1-7.38,6.43,56.09,56.09,0,0,0-4.18-6.35,25.24,25.24,0,0,0,6.1-7.15Z"/><path class="cls-3" d="M155.77,123.81a28.16,28.16,0,0,1,5.46,7.07,36.55,36.55,0,0,1-7.38,6.43,56.09,56.09,0,0,0-4.18-6.35,25.24,25.24,0,0,0,6.1-7.15Z"/><path class="cls-3" d="M121.59,111.48c20.3,1.6,28.43,6.75,32.76,11a23,23,0,0,1-6,6.75,39,39,0,0,0-15.75-10.85c1.14-.23,2.56-.37,3.61-.51a38,38,0,0,1,6.34,1.91l.11-.21c-4.59-3.25-12.47-6-21-8Z"/><path class="cls-3" d="M121.59,111.48c20.3,1.6,28.43,6.75,32.76,11a23,23,0,0,1-6,6.75,39,39,0,0,0-15.75-10.85c1.14-.23,2.56-.37,3.61-.51a38,38,0,0,1,6.34,1.91l.11-.21c-4.59-3.25-12.47-6-21-8Z"/><path class="cls-3" d="M117,147.9l-1.54,0a24.82,24.82,0,0,1,1.76-16.75c6.22,2.29,12.42,4.56,18.62,4.56a21.91,21.91,0,0,0,12.05-3.5,46.79,46.79,0,0,1,4.19,6.26A70.51,70.51,0,0,1,117,147.9Z"/><path class="cls-3" d="M117,147.9l-1.54,0a24.82,24.82,0,0,1,1.76-16.75c6.22,2.29,12.42,4.56,18.62,4.56a21.91,21.91,0,0,0,12.05-3.5,46.79,46.79,0,0,1,4.19,6.26A70.51,70.51,0,0,1,117,147.9Z"/><path class="cls-3" d="M139,166.54c-10.52-.15-19.13-6.59-22.89-16.31h.4a72.83,72.83,0,0,0,36.52-9.65,44.92,44.92,0,0,1,1.6,4.38c-8.54,4.23-12.27,13.29-15.63,21.58Z"/><path class="cls-3" d="M139,166.54c-10.52-.15-19.13-6.59-22.89-16.31h.4a72.83,72.83,0,0,0,36.52-9.65,44.92,44.92,0,0,1,1.6,4.38c-8.54,4.23-12.27,13.29-15.63,21.58Z"/><path class="cls-3" d="M158.17,157.67c0-.77.06-1.53.06-2.3a42.09,42.09,0,0,0-1-9.12,28.49,28.49,0,0,1,6.37-1.23,27.31,27.31,0,0,1-5.45,12.65Z"/><path class="cls-3" d="M158.17,157.67c0-.77.06-1.53.06-2.3a42.09,42.09,0,0,0-1-9.12,28.49,28.49,0,0,1,6.37-1.23,27.31,27.31,0,0,1-5.45,12.65Z"/><path class="cls-3" d="M146.58,130.4a20.24,20.24,0,0,1-10.82,3c-5.79,0-11.63-2.11-17.39-4.23a32.09,32.09,0,0,1,3.42-4.6h.36c3.72,0,9.69,2.75,12.68,4.42l.14-.18c-8.63-10.24-30.88-11.94-45.3-12-1.43,0-2.79,0-4,0a74.08,74.08,0,0,1,18.07-2.16c16,0,32.89,4.75,42.89,15.65Z"/><path class="cls-3" d="M146.58,130.4a20.24,20.24,0,0,1-10.82,3c-5.79,0-11.63-2.11-17.39-4.23a32.09,32.09,0,0,1,3.42-4.6h.36c3.72,0,9.69,2.75,12.68,4.42l.14-.18c-8.63-10.24-30.88-11.94-45.3-12-1.43,0-2.79,0-4,0a74.08,74.08,0,0,1,18.07-2.16c16,0,32.89,4.75,42.89,15.65Z"/><path class="cls-3" d="M155.11,160.76a25.27,25.27,0,0,1-13.64,5.68c3.05-7.45,6.22-15.51,13.86-19.18a36.58,36.58,0,0,1,.64,6.62,26.59,26.59,0,0,1-.86,6.88Z"/><path class="cls-3" d="M155.11,160.76a25.27,25.27,0,0,1-13.64,5.68c3.05-7.45,6.22-15.51,13.86-19.18a36.58,36.58,0,0,1,.64,6.62,26.59,26.59,0,0,1-.86,6.88Z"/><polygon class="cls-3" points="135.06 110.34 139.47 108.8 142.82 112.6 142.43 107.63 146.71 105.77 142.06 104.24 141.33 99.29 138.85 103.31 134.14 102.11 137.26 106.13 135.06 110.34 135.06 110.34"/><polygon class="cls-5" points="111.55 113.91 114.61 112.4 117.17 114.67 116.67 111.29 119.62 109.58 116.25 109 115.52 105.67 113.94 108.7 110.54 108.35 112.93 110.79 111.55 113.91 111.55 113.91"/><polygon class="cls-5" points="77.08 120.69 79.1 119.69 80.78 121.19 80.45 118.97 82.39 117.84 80.18 117.45 79.7 115.26 78.66 117.25 76.42 117.03 77.99 118.63 77.08 120.69 77.08 120.69"/><path class="cls-6" d="M153.39,151.17v-.41l-2.84,4.76.82-4.19-.21-.1a33.1,33.1,0,0,0-7.05,13.17l-.07.22.21-.08a26.08,26.08,0,0,0,8.09-4.28l0,0v0c.7-1.52,1-4.57,1-8.32v-.73Z"/><path class="cls-6" d="M143.87,140.14a77.28,77.28,0,0,1-14.73,1.46q-1.09,0-2.16,0l10.45-3.09,0-.23c-6.9-.32-12.22-.45-19-3.61l-.1,0,0,.1a14.67,14.67,0,0,0-1.57,6.87,15.11,15.11,0,0,0,.58,4.26l0,.08h.77c3,0,15.39-.34,25.86-5.56l-.08-.21Z"/><path class="cls-6" d="M146.18,148.61c-5.27,3.91-9.23,7.07-17,8.54,7.19-3.74,12-6.31,16.55-10.9l-.14-.18c-8,4.68-18.51,6.68-25.9,7h-.2l.11.17c6.08,9.62,13.78,10.49,16.28,10.49h0a7.09,7.09,0,0,0,.82,0h0l0,0c3.26-5.16,5.34-10.13,9.54-14.83l-.15-.17Z"/><path class="cls-7" d="M140.79,116.53c-.39-.2-.77-.39-1.18-.57A39.61,39.61,0,0,1,152.37,122c-.36.54-.77,1-1.18,1.55a30.51,30.51,0,0,0-10.4-7M160,151.36l0-.4a32.07,32.07,0,0,0,.58-5c.44-.12.89-.21,1.34-.3a29.44,29.44,0,0,1-1.9,5.71m2.59-10.91c-.81.11-1.56.23-2.3.39a32.66,32.66,0,0,0-.71-3.57c.8-.68,1.57-1.36,2.36-2.1a20.54,20.54,0,0,1,.65,5.28m-2.77-10.21c-.69.74-1.36,1.4-2,2a30.87,30.87,0,0,0-2.65-4.64c.53-.64,1-1.3,1.52-2a21.23,21.23,0,0,1,3.17,4.63"/></g></svg>