<svg id="Layer_1" data-name="Layer 1" xmlns="http://www.w3.org/2000/svg" xmlns:xlink="http://www.w3.org/1999/xlink" viewBox="0 0 200 200"><defs><style>.cls-1{fill:none;}.cls-2{clip-path:url(#clip-path);}.cls-3{fill:#fff;}.cls-4{fill:#ffc629;}.cls-5{fill:#73308a;}.cls-6{clip-path:url(#clip-path-2);}.cls-7{fill:#2d2a26;}</style><clipPath id="clip-path"><rect class="cls-1" x="-2.48" y="37.9" width="202.48" height="125.34"/></clipPath><clipPath id="clip-path-2"><path class="cls-1" d="M94.6,156.65c30.21,0,54.69-24.86,54.69-55.52S124.81,45.62,94.6,45.62,39.92,70.47,39.92,101.13,64.4,156.65,94.6,156.65Z"/></clipPath></defs><title>Team_Logos</title><g id="LAKE"><g class="cls-2"><path class="cls-3" d="M41.55,66.09S58.79,37.9,94.09,37.9s51.72,27.37,51.72,27.37h47.9L191.79,77s-1.37,4.65-3.56,5.19h3.29s1.09,4.11-5.48,18.34h14s.55,24.9-29.56,36.67c0,0-15.59,4.93-23.53-3.56,0,0-15.87,29.56-52.82,29.56s-53.64-30.38-53.64-30.38h-43l6.84-12.31H-.33l5.48-10.13h9.3l1.64-3.83H11.72l10.67-19.7h6l2.46-6h-5.2l7.94-14.78Z"/></g><path class="cls-4" d="M94.6,156.65c30.21,0,54.69-24.86,54.69-55.52S124.81,45.62,94.6,45.62,39.92,70.47,39.92,101.13,64.4,156.65,94.6,156.65Z"/><path class="cls-5" d="M100.64,100.86l-2.39,0a.3.3,0,1,0,0,.6l2.42,0c.82,0,1.57.1,1.37.47l-6.27,12a1.41,1.41,0,0,1-2.69-.08L90,97.74l10.92-8.47c1.08-.94,3.17-2.46,4.24-2.44h2.38c1.45,0,2,.67,1.62,1.54l-.42.81c-.27.46-1.13.51-1.86.51h-1.37a.31.31,0,0,0,0,.61h1.36c.58,0,1.32,0,1,.45l-5.07,9.66c-.23.38-1.28.45-2.18.45Zm18.89,6c-5.11,6.19-8,8.31-13.19,8.31-1.77,0-2.69-.39-2.19-1.25l6.15-12.37h2.35c2.62,0,2.26,2.2,1.55,5.19-.13.42.19.44.5.08l5.85-10.28c.29-.65-.45-.78-.81-.29-2.94,4-6,3.69-7.32,3.69h-1.06l6.57-12.55h2.65c3.34.21,4.89,3,3.93,9.87h1.39l4.83-9.52c.39-.81-.44-1.54-1.35-1.54H96.59c-1.9,0-2,1.45-.17,1.45,1.48,0,1.4,2.12.08,3.14L82.58,101.82l2.8,13.05a1.72,1.72,0,0,0,1.93,1.46h27.12a2.17,2.17,0,0,0,1.95-.93l4.91-8.48c.67-1.22-.9-1.14-1.76-.1Z"/><path class="cls-5" d="M59.53,103.25H50.9L61.82,88.86l-2.29,14.39Zm-2,9c-.26,1.48-1.74,2.46-3.61,3l-1.93.48,1.58-2.85c.42-.78-.49-1.24-1.49-.08-6.71,7.81-8.84,11.55-19.18,11.57H30.12c-.84,0-1.77-.33-1.2-1.14l3.66-6.81h13.9c1.89,0,1.41-1.42.29-1.46a2.68,2.68,0,0,1-2.11-1.35,2,2,0,0,1,0-2L50,104.45h8.85l-1.34,7.75Zm20.59,2.67a1.51,1.51,0,0,1-1.37-1,4.08,4.08,0,0,1,.07-2.48L89.48,88.93c.2-.42.72-1.28,1.34-1.28,1.12,0,1.6-1.47-.29-1.47H80.4c-1.9,0-1.92,1.44-.1,1.44a.86.86,0,0,1,.83,1.17l-2.81,5.08c-.35.55-1.12.6-1.94.6H74a.3.3,0,0,0-.31.3.31.31,0,0,0,.31.31h2.39c.65,0,1.17.19.79,1l-9.34,17c-.67.93-2,1.14-1.93-.65L69.2,87.46c.13-.78-.08-1.3-.91-1.3h-5a1.46,1.46,0,0,0-1.25.68l-1.79,2.25c-.24.24-.74.24-1.3.24h-4.2a.31.31,0,1,0,0,.61h3.43c.61,0,1.32.14,1.06.43l-4.81,6.06a1.56,1.56,0,0,1-.9.21H52.15a.3.3,0,0,0,0,.6h1.14c.35,0,.35.18.21.33L49,103.25a1.73,1.73,0,0,1-1.13.27h-4a.3.3,0,0,0,0,.6h3.43c.52,0,.92.1.65.45l-6.44,8.07c-1.21,1.54-7,2.33-8.17,2.33L55.09,74.23a2.32,2.32,0,0,1,1.85-1.18h4.63c2.18,0,2.11-1.45.22-1.45H38.55c-1.89,0-2,1.45.21,1.45h4.3c1.22,0,1.62.74,1.3,1.34l-.61,1.12c-.21.37-.5.51-1.68.51h-7.6a.3.3,0,1,0,0,.6h7.58c.42,0,1,.11.64.85l-1.06,2a1.37,1.37,0,0,1-1.18.44H37a.31.31,0,1,0,0,.61h3.43c.49,0,.5.33.22.78L38.2,85.82c-.21.39-.61.44-1.39.44H35.44a.3.3,0,0,0-.3.31.29.29,0,0,0,.3.3H36.8c.51,0,.65.29.42.78l-2,3.74c-.3.53-.73.75-2.07.75h-7.6a.31.31,0,0,0,0,.61h7.58c.86,0,1.18.39.84,1L30,101.11c-.23.32-.87.37-2,.37h-7.6a.3.3,0,1,0,0,.6h7.58c.91,0,1.46,0,1.19.52L27,106.85c-.42.66-1.58.65-2,.65H22.53a.3.3,0,0,0,0,.6h2.39c.84,0,1.29.15,1.07.61l-3,5.67c-.27.51-1.45.53-2.36.53H8.85a.3.3,0,0,0,0,.6H20.59c.78,0,1.76.1,1.4.72l-1.93,3.63c-.18.3-.84.32-1.79.32H15.86a.29.29,0,0,0-.3.3.3.3,0,0,0,.3.31h2.39c.59,0,1.3.06,1.05.5l-1.21,2.32a1.91,1.91,0,0,1-1.71,1.09h-5.9c-2.18,0-2.1,1.45-.21,1.45l34.64,0c1,0,1.05-.14,1.53-.88l5.13-9H77.83c1.89,0,1.41-1.42.29-1.46Z"/><path class="cls-5" d="M145.17,98.44c-.95.78-2.45,1.68-2.74,1.39a11.51,11.51,0,0,0-2.34-1.58l5.65-10.34a1.16,1.16,0,0,1,1.13-.56c2.2,0,2.92,2.39,1.89,5.36a13.08,13.08,0,0,1-3.59,5.73Zm45.67,9.27c-.14-.71-.4-.28-.87.61-.14.28-.6.28-1.05.28h-1.39a.31.31,0,0,0,0,.61h1.37c.52,0,.52.35.28.87a23.27,23.27,0,0,1-3.24,5,1.69,1.69,0,0,1-1.15.48h-1.4a.3.3,0,0,0-.3.31.29.29,0,0,0,.3.3h1.37c.68,0,0,.43-.13.58a30.54,30.54,0,0,1-5.87,6.12,6,6,0,0,1-1.91.11h-1.38a.31.31,0,0,0,0,.61h1.36c1,0,.26.6.1.73a18.23,18.23,0,0,1-12,3.83c-8.35-1-10.07-7.38-10.69-9.92-.13-.53-.53-1.61-.66-2.28-.26-1.33,3.51-1.71,4.55-1a17.67,17.67,0,0,0,8.15,2.15c2.68,0,8.16-1.93,9.75-6.53s-2.46-9.93-4.26-11.74c-2.3-2.29-4.47-6-3.56-8.64.69-2,1.85-3,4.32-3,3.19,0,5.52,2.06,5.52,5,0,.26-.16.57-.37.57h-1.13a.3.3,0,1,0,0,.6h1.06c.3,0,.48.23.41.59-.21,1-.28,1.66-.49,2.64-.12.57.71,1,1,.55l5-9c.37-.67-.44-.85-1-.65-1.37.48-3.61.81-4.4.24a9.84,9.84,0,0,0-6.21-2.21c-4.46,0-7.59,1.1-9.59,4.77-.16.29-.6.28-1,.28h-.86a.31.31,0,0,0,0,.61h.73c.31,0,.52.09.37.45a10.63,10.63,0,0,0-.38,1,9.08,9.08,0,0,0,.45,5.81c.05.13-.12.2-.42.19h-1.37a.31.31,0,0,0,0,.61h1.36c.62,0,.77.06,1,.42.7,1,1.43,1.73,2.33,2.89.29.36-.93.46-1.58.45h-5.41a.31.31,0,0,0-.31.31.3.3,0,0,0,.31.3h5.48a8.84,8.84,0,0,1,2.56.18c1.32,1.53,2.93,3.89,3.2,5.87.08.57-.14.82-.84.82h-.73a.3.3,0,1,0,0,.6h.64c.56,0,.86.09.73.51-.71,2.27-1.77,3.91-6.11,3.89-4.55,0-5.47-4.48-4.14-9.13.27-.93,0-1.33-.43-.6l-3.16,5a1.1,1.1,0,0,1-.86.39h-.45a.31.31,0,0,0-.31.31.3.3,0,0,0,.31.3c.4,0,.56.21.4.43l-1.16,1.82a58.63,58.63,0,0,0-6.82-11.73l0-.09c4.21-.26,10.43-4.2,11.45-7.73,1.77-6.13-4.18-8.39-7.42-8.39H135.72c-1.89,0-2,1.43-.21,1.43,1,0,1.84.86,1.4,1.73L133.76,95c-.26.47-1.24.44-2.51.44h-1.39a.31.31,0,0,0,0,.61h1.36c.91,0,1.91,0,1.58.7l-3.74,6.74c-.18.31-.66.34-1.93.34h-1.38a.29.29,0,0,0-.3.3.3.3,0,0,0,.3.31h1.35c1,0,1.37.14,1.09.66l-5,9a3,3,0,0,1-2.52.77c-1.82,0-1.8,1.44.09,1.44H133c1.9,0,1.41-1.46.3-1.46a1.41,1.41,0,0,1-.92-1.93l6.23-11.81h.63c2.77,0,3.44,4.55,4,9.51,0,.36-.64.38-2,.38H137.7a.31.31,0,0,0,0,.61h3.43c.91,0,2.18,0,2.21.3a48.1,48.1,0,0,0,.84,5.84c.13.55-.85.46-1.88.46h-4.42a.3.3,0,0,0-.3.3.31.31,0,0,0,.3.31h4.41c1.39,0,2.1,0,2.18.28,1.9,7,10,12.45,18,12.14,6.79-.25,12.53-4,15.47-6.31,3.9-3.13,9.65-9.7,12-14.47.43-.88,1.12-2,1-2.78Z"/><path class="cls-5" d="M76.44,77a5,5,0,0,1-4.36,1.86h-.49l3-6a1,1,0,0,1,.85-.48c.37,0,.33-.75-.16-.75H70.55c-.4,0-.54.75-.17.75s.48.44.29.82L68,78.52a1.2,1.2,0,0,1-.81.45c-.4.1-.67.81-.22.81h7.56a.86.86,0,0,0,.87-.42L76.9,77c.22-.29-.24-.33-.46,0Z"/><path class="cls-5" d="M99.2,71.86a1.1,1.1,0,0,1-1,0A4.72,4.72,0,0,0,95.79,71c-1.78,0-3.07.35-3.85,2-.66,1.43,0,2.63,1.59,3.36.68.31,1.58.72,1.24,1.55-.25.59-1,.65-1.58.65a2.43,2.43,0,0,1-2.31-1.83c-.07-.39-.52-.3-.65-.09l-1.07,2.14c-.17.28.27.6.45.41A1.37,1.37,0,0,1,91.15,79a6.54,6.54,0,0,0,2.73,1,4.17,4.17,0,0,0,4-2c.9-1.41.35-2.81-1.3-3.59-.87-.41-1.62-1.13-1.23-1.93.25-.52,1-.41,1.42-.35a2.41,2.41,0,0,1,1.78,1.43.28.28,0,0,0,.52.08l.57-1.32c.13-.26-.29-.46-.43-.38Z"/><path class="cls-5" d="M151.63,74l.66-1.21c.29-.53-.18-1.13-.94-1.13h-8.82c-.64,0-.45.66-.19.66.57,0,.73.69.39,1.27l-2.65,4.88a1.4,1.4,0,0,1-1.22.67c-.45,0-.61.66,0,.66h8.94a.69.69,0,0,0,.66-.31l1.21-1.61c.3-.39-.34-.39-.54-.2a5.46,5.46,0,0,1-4.39,1.5h-1l1.22-2.73h.26c.79,0,1.69,0,1.93.59a.38.38,0,0,0,.61,0l1-2.09c.17-.31-.3-.36-.43-.14-.41.73-2.22.54-2.7.54h-.26l1.53-3h1.7a2.49,2.49,0,0,1,2.26,1.56c.07.2.64.35.75.1Z"/><path class="cls-5" d="M108,75.53l2.94-2.4v2.4Zm21-3.89h-3.14c-.64,0-.45.66-.19.66a1.06,1.06,0,0,1,.91,1.51l-1.3,2.38L122.48,72a1.38,1.38,0,0,0-1-.39h-3.09c-.63,0-.48.66-.22.66.65,0,.48.49.32.84L116,77.85a.58.58,0,0,1-1,0l-1.9-6.21c-.08-.24-1.19-.23-1.48,0l-4.77,3.94h-2.48c-.49,0-.68.21-.68.47s.18.49.7.49h1.3l-1.3,1.06c-.72.54-1.45,1.28-1.94,1.28h-.3c-.47,0-.73.07-.73.45s.2.5.64.5h3.85c.72,0,.58-.94.22-.94a.69.69,0,0,1-.45-1.22l1.18-1.13h2.32c1.37,0,2.33,1.59,1.51,2.09l-.63.35c-.3.15-.43.85,0,.85h7.52c.56,0,.45-.73.19-.73-.77,0-.41-1.11-.26-1.41l2-3.74,2.77,5.38c.19.34.35.5.67.5H124c.33,0,.45-.19.6-.45l3.17-5.71c.51-1,.9-1.32,1.54-1.32.26,0,.44-.66-.2-.66Z"/><path class="cls-5" d="M85.23,76.37C84.39,78,83,79,82.09,78.59s-.93-2.17-.1-3.84,2.25-2.67,3.14-2.23.94,2.17.1,3.85Zm-.74-5.09c-2.65,0-5.38,1.3-5.92,4.08a4.09,4.09,0,0,0,4.15,4.92,6,6,0,0,0,5.94-4.51c.52-2.68-1.48-4.49-4.17-4.49Z"/><path class="cls-5" d="M138,75.33h-3.4c-.64,0-.45.66-.19.66s.52.14.52.57c0,1.38-.59,1.91-1.77,1.91s-1.76-1.57-.89-3.5a4.27,4.27,0,0,1,3.78-2.38c1.07,0,2,.23,2.11,1.23,0,.25.4.25.53,0l.8-1.45c.09-.15-.05-.34-.29-.35s-.68.25-1,0a6.74,6.74,0,0,0-9.38,2.41A3.73,3.73,0,0,0,131.67,80c1.16,0,2.52-.87,3.3-1.19l.86.58a1,1,0,0,0,.66.35h.33c.3,0,.42-.4.53-.66l1.33-3.23c.17-.33.08-.56-.67-.56Z"/><path class="cls-5" d="M184.59,71.86a1.12,1.12,0,0,1-1,0,4.65,4.65,0,0,0-2.41-.88c-1.78,0-3.07.35-3.84,2-.66,1.43,0,2.63,1.59,3.36.68.31,1.58.72,1.23,1.55-.25.59-1,.65-1.58.65a2.43,2.43,0,0,1-2.31-1.83c-.06-.39-.51-.3-.64-.09l-1.08,2.14c-.17.28.28.6.45.41a1.38,1.38,0,0,1,1.55-.22,6.49,6.49,0,0,0,2.73,1,4.17,4.17,0,0,0,4-2c.91-1.41.35-2.81-1.3-3.59-.87-.41-1.61-1.13-1.22-1.93.25-.52,1-.41,1.41-.35a2.41,2.41,0,0,1,1.79,1.43.28.28,0,0,0,.52.08l.57-1.32c.13-.26-.29-.46-.43-.38Z"/><path class="cls-5" d="M160.94,77a5,5,0,0,1-4.36,1.86h-.48l3-6a1,1,0,0,1,.85-.48c.38,0,.33-.75-.16-.75h-4.73c-.41,0-.55.75-.17.75s.47.44.28.82l-2.69,5.3a1.2,1.2,0,0,1-.81.45c-.39.1-.67.81-.22.81H159a.89.89,0,0,0,.88-.42L161.4,77c.22-.29-.24-.33-.46,0Z"/><path class="cls-5" d="M172.34,72.32a2.49,2.49,0,0,1,2.26,1.56c.07.2.64.35.75.1l.66-1.21c.29-.53-.18-1.13-.94-1.13h-8.82c-.63,0-.45.66-.19.66.57,0,.74.69.39,1.27l-2.65,4.88a1.4,1.4,0,0,1-1.22.67c-.45,0-.61.66,0,.66h8.93a.69.69,0,0,0,.66-.31l1.21-1.61c.3-.39-.34-.39-.54-.2a5.46,5.46,0,0,1-4.39,1.5h-1l1.22-2.73h.26c.79,0,1.69,0,1.93.59a.38.38,0,0,0,.61,0l1-2.09c.17-.31-.3-.36-.42-.14-.42.73-2.23.54-2.7.54h-.26l1.52-3Z"/><g class="cls-6"><path class="cls-5" d="M100.64,100.86l-2.39,0a.3.3,0,1,0,0,.6l2.42,0c.82,0,1.57.1,1.37.47l-6.27,12a1.41,1.41,0,0,1-2.69-.08L90,97.74l10.92-8.47c1.08-.94,3.17-2.46,4.24-2.44h2.38c1.45,0,2,.67,1.62,1.54l-.42.81c-.27.46-1.13.51-1.86.51h-1.37a.31.31,0,0,0,0,.61h1.36c.58,0,1.32,0,1,.45l-5.07,9.66c-.23.38-1.28.45-2.18.45Zm18.89,6c-5.11,6.19-8,8.31-13.19,8.31-1.77,0-2.69-.39-2.19-1.25l6.15-12.37h2.35c2.62,0,2.26,2.2,1.55,5.19-.13.42.19.44.5.08l5.85-10.28c.29-.65-.45-.78-.81-.29-2.94,4-6,3.69-7.32,3.69h-1.06l6.57-12.55h2.65c3.34.21,4.89,3,3.93,9.87h1.39l4.83-9.52c.39-.81-.44-1.54-1.35-1.54H96.59c-1.9,0-2,1.45-.17,1.45,1.48,0,1.4,2.12.08,3.14L82.58,101.82l2.8,13.05a1.72,1.72,0,0,0,1.93,1.46h27.12a2.17,2.17,0,0,0,1.95-.93l4.91-8.48c.67-1.22-.9-1.14-1.76-.1Z"/><path class="cls-5" d="M59.53,103.25H50.9L61.82,88.86l-2.29,14.39Zm-2,9c-.26,1.48-1.74,2.46-3.61,3l-1.93.48,1.58-2.85c.42-.78-.49-1.24-1.49-.08-6.71,7.81-8.84,11.55-19.18,11.57H30.12c-.84,0-1.77-.33-1.2-1.14l3.66-6.81h13.9c1.89,0,1.41-1.42.29-1.46a2.68,2.68,0,0,1-2.11-1.35,2,2,0,0,1,0-2L50,104.45h8.85l-1.34,7.75Zm20.59,2.67a1.51,1.51,0,0,1-1.37-1,4.08,4.08,0,0,1,.07-2.48L89.48,88.93c.2-.42.72-1.28,1.34-1.28,1.12,0,1.6-1.47-.29-1.47H80.4c-1.9,0-1.92,1.44-.1,1.44a.86.86,0,0,1,.83,1.17l-2.81,5.08c-.35.55-1.12.6-1.94.6H74a.3.3,0,0,0-.31.3.31.31,0,0,0,.31.31h2.39c.65,0,1.17.19.79,1l-9.34,17c-.67.93-2,1.14-1.93-.65L69.2,87.46c.13-.78-.08-1.3-.91-1.3h-5a1.46,1.46,0,0,0-1.25.68l-1.79,2.25c-.24.24-.74.24-1.3.24h-4.2a.31.31,0,1,0,0,.61h3.43c.61,0,1.32.14,1.06.43l-4.81,6.06a1.56,1.56,0,0,1-.9.21H52.15a.3.3,0,0,0,0,.6h1.14c.35,0,.35.18.21.33L49,103.25a1.73,1.73,0,0,1-1.13.27h-4a.3.3,0,0,0,0,.6h3.43c.52,0,.92.1.65.45l-6.44,8.07c-1.21,1.54-7,2.33-8.17,2.33L55.09,74.23a2.32,2.32,0,0,1,1.85-1.18h4.63c2.18,0,2.11-1.45.22-1.45H38.55c-1.89,0-2,1.45.21,1.45h4.3c1.22,0,1.62.74,1.3,1.34l-.61,1.12c-.21.37-.5.51-1.68.51h-7.6a.3.3,0,1,0,0,.6h7.58c.42,0,1,.11.64.85l-1.06,2a1.37,1.37,0,0,1-1.18.44H37a.31.31,0,1,0,0,.61h3.43c.49,0,.5.33.22.78L38.2,85.82c-.21.39-.61.44-1.39.44H35.44a.3.3,0,0,0-.3.31.29.29,0,0,0,.3.3H36.8c.51,0,.65.29.42.78l-2,3.74c-.3.53-.73.75-2.07.75h-7.6a.31.31,0,0,0,0,.61h7.58c.86,0,1.18.39.84,1L30,101.11c-.23.32-.87.37-2,.37h-7.6a.3.3,0,1,0,0,.6h7.58c.91,0,1.46,0,1.19.52L27,106.85c-.42.66-1.58.65-2,.65H22.53a.3.3,0,0,0,0,.6h2.39c.84,0,1.29.15,1.07.61l-3,5.67c-.27.51-1.45.53-2.36.53H8.85a.3.3,0,0,0,0,.6H20.59c.78,0,1.76.1,1.4.72l-1.93,3.63c-.18.3-.84.32-1.79.32H15.86a.29.29,0,0,0-.3.3.3.3,0,0,0,.3.31h2.39c.59,0,1.3.06,1.05.5l-1.21,2.32a1.91,1.91,0,0,1-1.71,1.09h-5.9c-2.18,0-2.1,1.45-.21,1.45l34.64,0c1,0,1.05-.14,1.53-.88l5.13-9H77.83c1.89,0,1.41-1.42.29-1.46Z"/><path class="cls-5" d="M145.17,98.44c-.95.78-2.45,1.68-2.74,1.39a11.51,11.51,0,0,0-2.34-1.58l5.65-10.34a1.16,1.16,0,0,1,1.13-.56c2.2,0,2.92,2.39,1.89,5.36a13.08,13.08,0,0,1-3.59,5.73Zm45.67,9.27c-.14-.71-.4-.28-.87.61-.14.28-.6.28-1.05.28h-1.39a.31.31,0,0,0,0,.61h1.37c.52,0,.52.35.28.87a23.27,23.27,0,0,1-3.24,5,1.69,1.69,0,0,1-1.15.48h-1.4a.3.3,0,0,0-.3.31.29.29,0,0,0,.3.3h1.37c.68,0,0,.43-.13.58a30.54,30.54,0,0,1-5.87,6.12,6,6,0,0,1-1.91.11h-1.38a.31.31,0,0,0,0,.61h1.36c1,0,.26.6.1.73a18.23,18.23,0,0,1-12,3.83c-8.35-1-10.07-7.38-10.69-9.92-.13-.53-.53-1.61-.66-2.28-.26-1.33,3.51-1.71,4.55-1a17.67,17.67,0,0,0,8.15,2.15c2.68,0,8.16-1.93,9.75-6.53s-2.46-9.93-4.26-11.74c-2.3-2.29-4.47-6-3.56-8.64.69-2,1.85-3,4.32-3,3.19,0,5.52,2.06,5.52,5,0,.26-.16.57-.37.57h-1.13a.3.3,0,1,0,0,.6h1.06c.3,0,.48.23.41.59-.21,1-.28,1.66-.49,2.64-.12.57.71,1,1,.55l5-9c.37-.67-.44-.85-1-.65-1.37.48-3.61.81-4.4.24a9.84,9.84,0,0,0-6.21-2.21c-4.46,0-7.59,1.1-9.59,4.77-.16.29-.6.28-1,.28h-.86a.31.31,0,0,0,0,.61h.73c.31,0,.52.09.37.45a10.63,10.63,0,0,0-.38,1,9.08,9.08,0,0,0,.45,5.81c.05.13-.12.2-.42.19h-1.37a.31.31,0,0,0,0,.61h1.36c.62,0,.77.06,1,.42.7,1,1.43,1.73,2.33,2.89.29.36-.93.46-1.58.45h-5.41a.31.31,0,0,0-.31.31.3.3,0,0,0,.31.3h5.48a8.84,8.84,0,0,1,2.56.18c1.32,1.53,2.93,3.89,3.2,5.87.08.57-.14.82-.84.82h-.73a.3.3,0,1,0,0,.6h.64c.56,0,.86.09.73.51-.71,2.27-1.77,3.91-6.11,3.89-4.55,0-5.47-4.48-4.14-9.13.27-.93,0-1.33-.43-.6l-3.16,5a1.1,1.1,0,0,1-.86.39h-.45a.31.31,0,0,0-.31.31.3.3,0,0,0,.31.3c.4,0,.56.21.4.43l-1.16,1.82a58.63,58.63,0,0,0-6.82-11.73l0-.09c4.21-.26,10.43-4.2,11.45-7.73,1.77-6.13-4.18-8.39-7.42-8.39H135.72c-1.89,0-2,1.43-.21,1.43,1,0,1.84.86,1.4,1.73L133.76,95c-.26.47-1.24.44-2.51.44h-1.39a.31.31,0,0,0,0,.61h1.36c.91,0,1.91,0,1.58.7l-3.74,6.74c-.18.31-.66.34-1.93.34h-1.38a.29.29,0,0,0-.3.3.3.3,0,0,0,.3.31h1.35c1,0,1.37.14,1.09.66l-5,9a3,3,0,0,1-2.52.77c-1.82,0-1.8,1.44.09,1.44H133c1.9,0,1.41-1.46.3-1.46a1.41,1.41,0,0,1-.92-1.93l6.23-11.81h.63c2.77,0,3.44,4.55,4,9.51,0,.36-.64.38-2,.38H137.7a.31.31,0,0,0,0,.61h3.43c.91,0,2.18,0,2.21.3a48.1,48.1,0,0,0,.84,5.84c.13.55-.85.46-1.88.46h-4.42a.3.3,0,0,0-.3.3.31.31,0,0,0,.3.31h4.41c1.39,0,2.1,0,2.18.28,1.9,7,10,12.45,18,12.14,6.79-.25,12.53-4,15.47-6.31,3.9-3.13,9.65-9.7,12-14.47.43-.88,1.12-2,1-2.78Z"/><path class="cls-5" d="M76.44,77a5,5,0,0,1-4.36,1.86h-.49l3-6a1,1,0,0,1,.85-.48c.37,0,.33-.75-.16-.75H70.55c-.4,0-.54.75-.17.75s.48.44.29.82L68,78.52a1.2,1.2,0,0,1-.81.45c-.4.1-.67.81-.22.81h7.56a.86.86,0,0,0,.87-.42L76.9,77c.22-.29-.24-.33-.46,0Z"/><path class="cls-5" d="M99.2,71.86a1.1,1.1,0,0,1-1,0A4.72,4.72,0,0,0,95.79,71c-1.78,0-3.07.35-3.85,2-.66,1.43,0,2.63,1.59,3.36.68.31,1.58.72,1.24,1.55-.25.59-1,.65-1.58.65a2.43,2.43,0,0,1-2.31-1.83c-.07-.39-.52-.3-.65-.09l-1.07,2.14c-.17.28.27.6.45.41A1.37,1.37,0,0,1,91.15,79a6.54,6.54,0,0,0,2.73,1,4.17,4.17,0,0,0,4-2c.9-1.41.35-2.81-1.3-3.59-.87-.41-1.62-1.13-1.23-1.93.25-.52,1-.41,1.42-.35a2.41,2.41,0,0,1,1.78,1.43.28.28,0,0,0,.52.08l.57-1.32c.13-.26-.29-.46-.43-.38Z"/><path class="cls-5" d="M151.63,74l.66-1.21c.29-.53-.18-1.13-.94-1.13h-8.82c-.64,0-.45.66-.19.66.57,0,.73.69.39,1.27l-2.65,4.88a1.4,1.4,0,0,1-1.22.67c-.45,0-.61.66,0,.66h8.94a.69.69,0,0,0,.66-.31l1.21-1.61c.3-.39-.34-.39-.54-.2a5.46,5.46,0,0,1-4.39,1.5h-1l1.22-2.73h.26c.79,0,1.69,0,1.93.59a.38.38,0,0,0,.61,0l1-2.09c.17-.31-.3-.36-.43-.14-.41.73-2.22.54-2.7.54h-.26l1.53-3h1.7a2.49,2.49,0,0,1,2.26,1.56c.07.2.64.35.75.1Z"/><path class="cls-5" d="M108,75.53l2.94-2.4v2.4Zm21-3.89h-3.14c-.64,0-.45.66-.19.66a1.06,1.06,0,0,1,.91,1.51l-1.3,2.38L122.48,72a1.38,1.38,0,0,0-1-.39h-3.09c-.63,0-.48.66-.22.66.65,0,.48.49.32.84L116,77.85a.58.58,0,0,1-1,0l-1.9-6.21c-.08-.24-1.19-.23-1.48,0l-4.77,3.94h-2.48c-.49,0-.68.21-.68.47s.18.49.7.49h1.3l-1.3,1.06c-.72.54-1.45,1.28-1.94,1.28h-.3c-.47,0-.73.07-.73.45s.2.5.64.5h3.85c.72,0,.58-.94.22-.94a.69.69,0,0,1-.45-1.22l1.18-1.13h2.32c1.37,0,2.33,1.59,1.51,2.09l-.63.35c-.3.15-.43.85,0,.85h7.52c.56,0,.45-.73.19-.73-.77,0-.41-1.11-.26-1.41l2-3.74,2.77,5.38c.19.34.35.5.67.5H124c.33,0,.45-.19.6-.45l3.17-5.71c.51-1,.9-1.32,1.54-1.32.26,0,.44-.66-.2-.66Z"/><path class="cls-5" d="M85.23,76.37C84.39,78,83,79,82.09,78.59s-.93-2.17-.1-3.84,2.25-2.67,3.14-2.23.94,2.17.1,3.85Zm-.74-5.09c-2.65,0-5.38,1.3-5.92,4.08a4.09,4.09,0,0,0,4.15,4.92,6,6,0,0,0,5.94-4.51c.52-2.68-1.48-4.49-4.17-4.49Z"/><path class="cls-5" d="M138,75.33h-3.4c-.64,0-.45.66-.19.66s.52.14.52.57c0,1.38-.59,1.91-1.77,1.91s-1.76-1.57-.89-3.5a4.27,4.27,0,0,1,3.78-2.38c1.07,0,2,.23,2.11,1.23,0,.25.4.25.53,0l.8-1.45c.09-.15-.05-.34-.29-.35s-.68.25-1,0a6.74,6.74,0,0,0-9.38,2.41A3.73,3.73,0,0,0,131.67,80c1.16,0,2.52-.87,3.3-1.19l.86.58a1,1,0,0,0,.66.35h.33c.3,0,.42-.4.53-.66l1.33-3.23c.17-.33.08-.56-.67-.56Z"/></g><path class="cls-7" d="M104.11,51.27a61.65,61.65,0,0,0-10.54-.11,12.08,12.08,0,0,1,3.91-5.08,55.3,55.3,0,0,1,8.09,1c7.42,1.47,19,6,23.94,12.67-6.63-4.43-17.65-7.91-25.4-8.46Zm-12.47.15A56.33,56.33,0,0,0,83,53c-.42-1.09-1.57-4.46-1.93-5.55a41.37,41.37,0,0,1,14.08-1.4c-1.14.88-3.08,4.36-3.49,5.34Zm-21,6.18a12.45,12.45,0,0,0-4.28-3.53c3.08-2.28,10.22-5.55,12.94-6.12a41.28,41.28,0,0,1,2.13,5.5c-2.39.52-8.76,2.8-10.79,4.15Zm66.93,7.58c-.68-.78-1.62-2.44-8.35-8.31-9.89-8.62-23-12.56-35.32-12.56A50.91,50.91,0,0,0,68.11,51.2c-11.21,6.17-15.86,13.26-17,14.71-.85,1.06-1,1.68-.42,2,.39.23,1.14-.59,1.85-1.53C55.87,62,60.26,57.6,64.88,55c1.43.21,3.44,2.21,4.22,3.27a94.82,94.82,0,0,0-9.7,6.78c-1.6,1.24-2.15,1.93-1.72,2.44s1.58-.41,2.61-1.25a88.32,88.32,0,0,1,9.65-6.59c1.77,2.07,1.2,5.91.57,6.75-.34.44-.38.92,0,1.14s.76-.32,1.28-1.07c1.21-1.74.72-6-.32-7.5A38,38,0,0,1,82,55.08c.23.44,3.58,10.24,4.22,12,.35,1,.7,2.14,1.41,1.92.47-.15.16-1.21-.23-2.28-.49-1.33-3-9.55-3.81-12a33,33,0,0,1,7.8-1.56c-.68,3.58,1.85,5.05,4.72,6.93,1.52,1,11.2,6.56,13.22,7.81,1.16.72,2.05,1.17,2.3.83s-.5-1.19-1.57-1.82c-.85-.49-9.85-5.72-13.61-8.09-2.7-1.7-4.14-3.53-3.5-5.92a36.6,36.6,0,0,1,6.42-.26c19.19.16,34.58,11.16,36.31,12.92.87.9,2.08,1.67,2.55,1.3.3-.23-.21-1.24-.62-1.71Z"/><path class="cls-7" d="M141.75,130.9c.71-1.31,1.29-2.05.68-2.39s-1.1.9-1.78,2.08c-2.24,3.89-4.69,7.1-10.22,12.14a50.84,50.84,0,0,1-15.62,9.66c-2.09-5.87-10-30.85-10.26-31.56-.31-1.06-.58-1.37-.93-1.25s-.16.73,0,1.67,9.67,30.49,10,31.53A51,51,0,0,1,98.82,156c-4.75.16-10.33,0-13.15-.65-3.3-2.66-10.81-13.27-13.66-18.92a80.62,80.62,0,0,1-6.16-15.37c-.28-1.24-.63-2.13-1.25-2s-.29,1.12.1,2.44a86.85,86.85,0,0,0,6.16,15.19c3.7,7.32,10.32,15.9,12.25,18.24a52.71,52.71,0,0,1-20.38-9.31A58.29,58.29,0,0,1,49,131.26c-.45-.71-1-1.72-1.62-1.29-.29.19.07,1,.52,1.81,3.77,6.78,13,16.38,24.78,21.65,13.75,6.14,28.74,5.81,42.15.62,11.73-4.54,21.93-13.88,27-23.15Z"/><g class="cls-6"><path class="cls-7" d="M104.11,51.27a61.65,61.65,0,0,0-10.54-.11,12.08,12.08,0,0,1,3.91-5.08,55.3,55.3,0,0,1,8.09,1c7.42,1.47,19,6,23.94,12.67-6.63-4.43-17.65-7.91-25.4-8.46Zm-12.47.15A56.33,56.33,0,0,0,83,53c-.42-1.09-1.57-4.46-1.93-5.55a41.37,41.37,0,0,1,14.08-1.4c-1.14.88-3.08,4.36-3.49,5.34Zm-21,6.18a12.45,12.45,0,0,0-4.28-3.53c3.08-2.28,10.22-5.55,12.94-6.12a41.28,41.28,0,0,1,2.13,5.5c-2.39.52-8.76,2.8-10.79,4.15Zm66.93,7.58c-.68-.78-1.62-2.44-8.35-8.31-9.89-8.62-23-12.56-35.32-12.56A50.91,50.91,0,0,0,68.11,51.2c-11.21,6.17-15.86,13.26-17,14.71-.85,1.06-1,1.68-.42,2,.39.23,1.14-.59,1.85-1.53C55.87,62,60.26,57.6,64.88,55c1.43.21,3.44,2.21,4.22,3.27a94.82,94.82,0,0,0-9.7,6.78c-1.6,1.24-2.15,1.93-1.72,2.44s1.58-.41,2.61-1.25a88.32,88.32,0,0,1,9.65-6.59c1.77,2.07,1.2,5.91.57,6.75-.34.44-.38.92,0,1.14s.76-.32,1.28-1.07c1.21-1.74.72-6-.32-7.5A38,38,0,0,1,82,55.08c.23.44,3.58,10.24,4.22,12,.35,1,.7,2.14,1.41,1.92.47-.15.16-1.21-.23-2.28-.49-1.33-3-9.55-3.81-12a33,33,0,0,1,7.8-1.56c-.68,3.58,1.85,5.05,4.72,6.93,1.52,1,11.2,6.56,13.22,7.81,1.16.72,2.05,1.17,2.3.83s-.5-1.19-1.57-1.82c-.85-.49-9.85-5.72-13.61-8.09-2.7-1.7-4.14-3.53-3.5-5.92a36.6,36.6,0,0,1,6.42-.26c19.19.16,34.58,11.16,36.31,12.92.87.9,2.08,1.67,2.55,1.3.3-.23-.21-1.24-.62-1.71Z"/><path class="cls-7" d="M141.75,130.9c.71-1.31,1.29-2.05.68-2.39s-1.1.9-1.78,2.08c-2.24,3.89-4.69,7.1-10.22,12.14a50.84,50.84,0,0,1-15.62,9.66c-2.09-5.87-10-30.85-10.26-31.56-.31-1.06-.58-1.37-.93-1.25s-.16.73,0,1.67,9.67,30.49,10,31.53A51,51,0,0,1,98.82,156c-4.75.16-10.33,0-13.15-.65-3.3-2.66-10.81-13.27-13.66-18.92a80.62,80.62,0,0,1-6.16-15.37c-.28-1.24-.63-2.13-1.25-2s-.29,1.12.1,2.44a86.85,86.85,0,0,0,6.16,15.19c3.7,7.32,10.32,15.9,12.25,18.24a52.71,52.71,0,0,1-20.38-9.31A58.29,58.29,0,0,1,49,131.26c-.45-.71-1-1.72-1.62-1.29-.29.19.07,1,.52,1.81,3.77,6.78,13,16.38,24.78,21.65,13.75,6.14,28.74,5.81,42.15.62,11.73-4.54,21.93-13.88,27-23.15Z"/></g></g></svg>