<svg id="Layer_1" data-name="Layer 1" xmlns="http://www.w3.org/2000/svg" viewBox="0 0 200 200"><defs><style>.cls-1{fill:#072340;}.cls-2{fill:#6188b8;}.cls-3{fill:#5e6367;}.cls-4{fill:#ffc52f;}</style></defs><title>Artboard 1</title><path class="cls-1" d="M50.94,188.54a4.15,4.15,0,0,0-4.15-4.15H39V199h3.4v-4.56h3.15a1.86,1.86,0,0,1,1.83,1.86V199h3.4v-2.68a5.24,5.24,0,0,0-1.07-3.17,4.22,4.22,0,0,0,1.2-3Zm-4.15-.75a.76.76,0,0,1,.75.75v1.63a.86.86,0,0,1-.86.86H42.43v-3.24Z"/><polygon class="cls-1" points="127.54 198.99 115.44 198.99 115.44 184.38 118.84 184.38 118.84 195.59 127.54 195.59 127.54 198.99"/><polygon class="cls-1" points="161.22 187.79 161.22 184.39 149.12 184.39 149.12 198.99 161.22 198.99 161.22 195.59 152.52 195.59 152.52 193.22 160.02 193.22 160.02 189.82 152.52 189.82 152.52 187.79 161.22 187.79"/><polygon class="cls-1" points="84.71 198.99 71.57 198.99 79.1 187.79 72.39 187.79 72.39 184.39 85.48 184.39 77.95 195.59 84.71 195.59 84.71 198.99"/><polygon class="cls-1" points="105.81 198.99 92.67 198.99 100.21 187.79 93.49 187.79 93.49 184.39 106.59 184.39 99.05 195.59 105.81 195.59 105.81 198.99"/><rect class="cls-1" x="136.01" y="184.39" width="3.4" height="14.6"/><rect class="cls-1" x="60" y="184.39" width="3.4" height="14.6"/><rect class="cls-1" x="60" y="184.39" width="3.4" height="14.6"/><path class="cls-1" d="M117.81,152.4H105.38v26.74h6.14v-8.6h6.29a7.5,7.5,0,0,0,7.49-7.49v-3.16a7.5,7.5,0,0,0-7.49-7.49m1.35,10.65a1.36,1.36,0,0,1-1.35,1.35h-6.29v-5.86h6.29a1.36,1.36,0,0,1,1.35,1.35Z"/><path class="cls-2" d="M108.71,179.14h-.52V155.21h9.62a4.69,4.69,0,0,1,4.68,4.68v3.16a4.69,4.69,0,0,1-4.68,4.68h-9.1Zm0-11.92h9.1a4.17,4.17,0,0,0,4.16-4.17v-3.16a4.16,4.16,0,0,0-4.16-4.16h-9.1Z"/><polygon class="cls-1" points="70.21 158.54 70.21 152.4 49.95 152.4 49.95 179.14 70.21 179.14 70.21 173 56.09 173 56.09 168.84 68.03 168.84 68.03 162.7 56.09 162.7 56.09 158.54 70.21 158.54"/><polygon class="cls-2" points="70.21 155.72 70.21 155.22 52.76 155.22 52.76 176.32 70.21 176.32 70.21 175.81 53.27 175.81 53.27 166.03 68.03 166.03 68.03 165.52 53.27 165.52 53.27 155.72 70.21 155.72"/><path class="cls-1" d="M94.59,152.42H73.39v26.71h6.14V158.56h5.14v20.58h6.14V158.56h3.78a1.35,1.35,0,0,1,1.35,1.35v19.23h6.15V159.91a7.5,7.5,0,0,0-7.5-7.49"/><path class="cls-2" d="M94.59,155.24H76.21v23.89h.51V155.75H87.49v23.39H88V155.75h6.59a4.17,4.17,0,0,1,4.17,4.17v19.22h.51V159.92a4.69,4.69,0,0,0-4.68-4.68"/><path class="cls-1" d="M39.14,152.42H17.94v26.71h6.14V158.56h5.14v20.58h6.14V158.56h3.78a1.36,1.36,0,0,1,1.35,1.35v19.23h6.15V159.91a7.51,7.51,0,0,0-7.5-7.49"/><path class="cls-2" d="M39.14,155.24H20.75v23.89h.51V155.75H32v23.39h.51V155.75h6.6a4.17,4.17,0,0,1,4.17,4.17v19.22h.51V159.92a4.69,4.69,0,0,0-4.68-4.68"/><rect class="cls-1" x="152.09" y="152.4" width="6.14" height="26.75"/><rect class="cls-2" x="154.9" y="152.4" width="0.51" height="26.75"/><polygon class="cls-1" points="141.96 152.4 141.96 162.7 134.32 162.7 134.32 152.4 128.18 152.4 128.18 179.15 134.32 179.15 134.32 168.84 141.96 168.84 141.96 179.15 148.1 179.15 148.1 152.4 141.96 152.4"/><polygon class="cls-2" points="144.77 152.4 144.77 165.51 131.5 165.51 131.5 152.4 130.99 152.4 130.99 179.15 131.5 179.15 131.5 166.03 144.77 166.03 144.77 179.15 145.28 179.15 145.28 152.4 144.77 152.4"/><path class="cls-1" d="M29.86,199H22.09A4.15,4.15,0,0,1,18,194.84v-6.3a4.15,4.15,0,0,1,4.14-4.15h3.63a4.15,4.15,0,0,1,4.14,4.15v.68h-3.4v-.68a.75.75,0,0,0-.74-.75H22.09a.75.75,0,0,0-.74.75v6.3a.75.75,0,0,0,.74.75h4.37v-1.34h-2v-3.4h5.42Z"/><path class="cls-1" d="M29.86,199H22.09A4.15,4.15,0,0,1,18,194.84v-6.3a4.15,4.15,0,0,1,4.14-4.15h3.62a4.15,4.15,0,0,1,4.15,4.15v.68h-3.4v-.68a.75.75,0,0,0-.75-.75H22.09a.75.75,0,0,0-.74.75v6.3a.75.75,0,0,0,.74.75h4.37v-1.34h-2v-3.4h5.42Z"/><path class="cls-1" d="M177.83,199H174.2a4.15,4.15,0,0,1-4.14-4.15v-.51h3.39v.51a.75.75,0,0,0,.75.75h3.63a.75.75,0,0,0,.75-.75v-.63l-6.31-1.67a3.11,3.11,0,0,1-2.21-3v-.91a4.25,4.25,0,0,1,4.24-4.25h3.53a4.16,4.16,0,0,1,4.15,4.15v.69h-3.4v-.69a.76.76,0,0,0-.75-.75H174.3a.86.86,0,0,0-.85.85v.7l6.32,1.68a3.1,3.1,0,0,1,2.21,3v.83a4.15,4.15,0,0,1-4.15,4.15"/><path class="cls-1" d="M174.52,179.1H161.91v-8.5h6.14V173h6.47a1.4,1.4,0,0,0,1.4-1.4v-1.23l-10-3.08a5.6,5.6,0,0,1-4-5.38V160a7.56,7.56,0,0,1,7.55-7.55h12.6v8.82h-6.14v-2.68h-6.46a1.41,1.41,0,0,0-1.41,1.41v1.53l10,3.07a5.65,5.65,0,0,1,4,5.44v1.56a7.55,7.55,0,0,1-7.54,7.54"/><path class="cls-2" d="M174.52,176.29h-9.8V170.6h.52v5.17h9.28a4.22,4.22,0,0,0,4.21-4.21V170a2.36,2.36,0,0,0-1.66-2.26l-10.36-3.18a2.81,2.81,0,0,1-2-2.69V160a4.74,4.74,0,0,1,4.74-4.73h9.79v6h-.52v-5.49h-9.27a4.22,4.22,0,0,0-4.22,4.22v1.91a2.29,2.29,0,0,0,1.62,2.2l10.36,3.18a2.87,2.87,0,0,1,2,2.75v1.56a4.74,4.74,0,0,1-4.73,4.73"/><path class="cls-3" d="M165,33.9a22.11,22.11,0,0,0,2.73-10.32,22.73,22.73,0,0,0-10.23-18.5c-8.3-5.65-20.77-6.43-29.59,4.12a56,56,0,0,0-27.78,3.47A56,56,0,0,0,72.31,9.2C63.49-1.35,51-.57,42.71,5.08a22.75,22.75,0,0,0-10.22,18.5A22,22,0,0,0,35.22,33.9C28.56,43.5,24,54.89,24,66.49c0,14,6,21.17,8.21,24.26L34,89c6.31,16.08,17.13,24.73,30.19,32.62l.55-3c14,12.19,20.75,9.19,35.36,25.72,14.56-16.47,21.44-13.64,35.37-25.72l.55,3c5.81-3.51,22.21-12.31,30.19-32.62.84.83,1.8,1.8,1.8,1.8,1.38-1.89,8.22-9.52,8.22-24.26,0-11.59-4.61-23-11.26-32.59"/><path class="cls-1" d="M160.93,34.1c13.4-20.58-17-42-31.74-21.29a52.43,52.43,0,0,0-29.11,3.58A52.37,52.37,0,0,0,71,12.81C56.24-7.92,25.83,13.52,39.24,34.1,24,55.08,25.5,75.77,32.59,85.5l2.93-2.93s4.16,20.22,26.17,33.5l.79-4.36c13.55,14.47,25.92,14.15,37.6,27.36,11.68-13.21,24.06-12.89,37.61-27.36l.79,4.36c22-13.28,26.17-33.5,26.17-33.5l2.93,2.93c7.11-9.76,8.64-30.4-6.65-51.4"/><path class="cls-2" d="M100.22,111.06s-10.57.16-12.13,1.14c0,0-1.82,3.14,12.13,3.08,13.26-.06,11.31-2.48,11.4-2.83a42.16,42.16,0,0,0-11.4-1.39"/><path class="cls-2" d="M91.06,98.78s1.65-4.77,3.4-3.26c2.45,2.09,5.63,6.35,5.63,6.8V108l-3.86.2c-2.21.06-9.35,1.76-9.35,1.76-9.82-24.33-4.37-42.74-1.75-49.31-9.74,2.11-11.31-9.58-11.31-9.58a7.54,7.54,0,0,1,4.18,1,49.36,49.36,0,0,1,8.11,5.26h0c.72.56,1.39,1.1,2,1.6,6.62,5.57,12,4.44,12,4.44V87.23s-19.33-1.49-9,11.55"/><path class="cls-2" d="M109.17,98.79c12.29-12.48-7.77-11.75-9-11.55,2.06.11,17.61.2,9,11.55"/><path class="cls-2" d="M117.34,61c11.07,29.8-3,49-3,49.09,8.71-22.81,3.11-41.78-.7-48.83a34.44,34.44,0,0,1-4.31.09,40.42,40.42,0,0,0,4.85-3.55l.44-.4a28.85,28.85,0,0,1,8.28-5.31,16,16,0,0,1,4.24-1.05s-1,9.83-9.76,10"/><path class="cls-2" d="M134.86,22.47s4.52-11.29,18.35-8.56c0,0-12.7-8.36-21.54,6.75,0,0-12.68-5.95-31.59,2.23,0,0-17.77-6.25-31.27-2.71,0,0-7.88-13.67-19-8s-5.31,18.65-3.38,22c0,0-18.38,18.72-11.46,41.87l3.69-4.61S44,96.64,57.6,104.59l.81-6.2s14.22,17.16,31,24.45c1.59.75,10.45,5.15,10.72,7.32v-12s-11.6,1-14.66-4.39C83.34,110.12,70,86.33,76.59,61.41c0,0-6.41-1-7.62-11.79a22.75,22.75,0,0,0-10.73-1.84s10.63-3.34,20.6.52S91.48,62,98.23,57.64L100.08,30l2,27.68c6.75,4.34,9.43-5.48,19.39-9.34s20.61-.52,20.61-.52A31.58,31.58,0,0,0,131,43.41c-5.71-1.15-14.1,2.52-14.1,2.52s1.16-7.85,5-12c3.27-3.6,10.68-4.4,13-11.43M48.85,32c-.4-3.77,4.36-7.51,4.36-7.51-2-2-5.39-.26-5.39-.26,3.11-6.09,10.08-3.11,10.08-3.11-2.64-3.24-8.23-3-8.23-3,6.91-6.86,15.26,3.62,15.26,3.62C57.5,23.4,48.85,32,48.85,32"/><path class="cls-4" d="M86.11,57.38c-1.07-.34-2.84.76-3.82,2.68-3.3-1-4.43-4.52-4.29-7.94h0a48.94,48.94,0,0,1,8.11,5.26"/><path class="cls-4" d="M118.57,60.06c-1-2-2.94-3.14-4-2.62a28.63,28.63,0,0,1,8.27-5.31h0c.15,3.42-1,7-4.29,7.93"/></svg>