<svg id="Layer_1" data-name="Layer 1" xmlns="http://www.w3.org/2000/svg" viewBox="0 0 200 200"><defs><style>.cls-1{fill:#8c9091;}.cls-2{fill:#ce0e2d;}.cls-3{fill:#fff;}.cls-4{fill:#0a2240;}</style></defs><title>Team_Logos</title><path class="cls-1" d="M100-.33A100.17,100.17,0,1,0,200.18,99.84,100.16,100.16,0,0,0,100-.33"/><path class="cls-2" d="M196.46,99.48C196.46,47.64,152.12,3,100.27,3S3.54,47.88,3.54,99.72c0,47.58,37.83,89.58,84.12,96.16a97.68,97.68,0,0,0,11.92.75h.13a97.29,97.29,0,0,0,25.36-3.37c40.42-11.6,71.39-50.46,71.39-93.78Z"/><path class="cls-3" d="M196.33,94.8l-192.65,0c-.09,1.64-.14,3.3-.14,5a91.21,91.21,0,0,0,3.69,25.59l185.53,0a92.63,92.63,0,0,0,3.7-25.8c0-1.59,0-3.18-.13-4.75Z"/><path class="cls-4" d="M87.65,195.91a97.56,97.56,0,0,0,11.92.74h.13a96.79,96.79,0,0,0,25.35-3.36C150.36,186,172,168.08,184.58,145H15.42C30.14,171.73,57,191.56,87.65,195.91Z"/><path class="cls-3" d="M99.55,24.59s-.76-13.6-.76-14.22a2.11,2.11,0,0,1,.7-1.25c-.48,0-2.35.14-4.33.21-.48.1-1.35.12-1.16,2.1l.8,15,4.83-.25.36-.1a4,4,0,0,1-.44-1.49"/><path class="cls-3" d="M148.21,27.26,150,24.2l-7.15-4.13-.08,0-4.05-2.34a.82.82,0,0,0-1.15.33l-1.61,2.83h0L135.28,22a1.85,1.85,0,0,1,2.12-.3l2.53,1.46-6.47,11.21L138,37a4.09,4.09,0,0,1,.43-1.59l5.66-9.84,2,1.13c1.12.65,1.09,2.41,1.09,2.41l1.05-1.86Z"/><path class="cls-3" d="M134.26,15.71,127.6,13.4q-3.22-1.12-4.57-.61c-.91.35-1.68,1.45-2.33,3.32l-2.44,7a10.34,10.34,0,0,0-.54,2.08,2.78,2.78,0,0,0,.75,2.54A10.16,10.16,0,0,0,122,29.56l3,1c2.18.76,3.71,1,4.61.61s1.68-1.45,2.33-3.32c0,0,1.16-3.29,1.33-3.79a1.31,1.31,0,0,0-.79-1.62l-5.64-2c-.66-.23-1.08.27-1.32.7s-1.06,2.84-1.06,2.84l-.29.75a1.52,1.52,0,0,1,1.48-.34l2.07.72c-.31.76-.66,1.19-1,1.3a3.87,3.87,0,0,1-2-.38s-.73-.28-.93-.4a1.26,1.26,0,0,1-.66-1.27,8,8,0,0,1,.34-1.27l1.36-3.9q.54-1.56,1.11-1.74a4.13,4.13,0,0,1,2.14.36l5.12,1.78a2,2,0,0,1,1.11,1.53l.35-1,.91-2.63c.27-1-.37-1.54-1.23-1.84"/><path class="cls-3" d="M83.21,10.79s1.52.49,1.78,1.68l0,0,.88,4.24-3.36.7a1.62,1.62,0,0,0-1.2,1.19l-1.44-7.18L74.1,12.68a2.79,2.79,0,0,1,1.45,1.75l0,.05L78.63,29.2,82,28.5c.67-.14,1.14-.29,1.27-.81L82,21.77l4.69-1,1.33,6.44,3.38-.7c.67-.14,1.15-.29,1.27-.81L89.33,9.51l-6.12,1.28Z"/><path class="cls-3" d="M155.68,37.06l-2.54,3.24c-.69.89-1.26,1.31-1.71,1.29a4,4,0,0,1-1.82-1l.38.29a8.1,8.1,0,0,1-1.12-1,1.23,1.23,0,0,1-.2-1.41,6.79,6.79,0,0,1,.73-1.09L152,34.12c.68-.86,1.23-1.29,1.62-1.29a4.23,4.23,0,0,1,1.91,1.05l-.36-.28a8.59,8.59,0,0,1,1.12,1,1.24,1.24,0,0,1,.2,1.42,5,5,0,0,1-.76,1.05m6-.08a2.81,2.81,0,0,0,.07-2.71,9.92,9.92,0,0,0-2.72-2.8l-2.5-2c-1.78-1.41-3.16-2.09-4.12-2.06s-2.06.82-3.29,2.38l-4.59,5.85a10.18,10.18,0,0,0-1.19,1.8,2.83,2.83,0,0,0-.13,2.64A10.38,10.38,0,0,0,146,43l2.49,2q2.72,2.13,4.16,2.08c1,0,2.06-.82,3.28-2.38l4.61-5.85A11.27,11.27,0,0,0,161.71,37"/><path class="cls-3" d="M75.35,22.9A4.27,4.27,0,0,0,69.62,21L67,22.14c-.94.39-1.61.32-2-.22a2.24,2.24,0,0,1-.13-.27c-.12-.39-.41-1.08,1-1.66l4.75-2c1-.43,2.58.59,2.58.59s-.94-2.23-1.51-3.6a1.78,1.78,0,0,0-2.2-1l-5.82,2.43c-2.1.87-3.36,1.74-3.81,2.59s-.27,2.21.49,4L61,24.65a3.77,3.77,0,0,0,2.6,2.2,6.2,6.2,0,0,0,3.94-.48l2.26-.95c.88-.36,1.51-.27,1.9.29a.84.84,0,0,1,.15.49s.26.79-1.54,1.54l-4.57,1.9c-1,.35-2.51-.62-2.51-.62l1.52,3.61a1.77,1.77,0,0,0,2.2,1l.45-.19,3.14-1.31,2.28-1q3.15-1.3,3.81-2.59c.45-.86.26-2.1-.5-3.93,0,0-.59-1.35-.79-1.73"/><path class="cls-3" d="M172.59,46.53l-.82-1a2.62,2.62,0,0,1-.72,2.23l0,0-5.08,4,3.27-8.93a.64.64,0,0,0-.13-.65l-2.51-3.23-.88-1.11A2.77,2.77,0,0,1,165,40.1l-11.88,9.3,2.12,2.72c.42.53.77.9,1.29.77l6.34-5-3,7.81c-.53,1.25-1.38.51-1.38.51l.61.82h0l2.11,2.71c.42.53.77.89,1.28.77l13.05-10.21-3-3.81Z"/><path class="cls-3" d="M113.07,10.17,111.76,10a2.64,2.64,0,0,1,1.09,2.08v0l-.72,6.4L108,9.9a.66.66,0,0,0-.56-.37l-4.06-.47L102,8.91s1.31.95,1.17,2.16l-1.67,15,3.43.39c.67.07,1.18.08,1.45-.38l.89-8,3.47,7.63c.52,1.26-.6,1.34-.6,1.34l1,.14h0l3.42.39c.67.08,1.18.08,1.45-.38l1.84-16.46-4.8-.54Z"/><path class="cls-3" d="M41,29.48l-.5.6-2.69,3.05a.13.13,0,0,1,0,0,1.69,1.69,0,0,0-.59,1.15L44,44.88l-9.63-5.21a1.4,1.4,0,0,1-.72-1.83l-1,1.08-2,2.25,0,0A1.59,1.59,0,0,0,30.21,43l6.91,9.73-9.66-5a1.63,1.63,0,0,1-.71-2l-1,1.15-2.28,2.59,0,0a1.34,1.34,0,0,0-.15,1.86c.07.06,0,0,0,0l15,7,3.52-4c.48-.54.62-.83.4-1.4l-2.85-5.28,5.82,2.86,3.75-4.26a1.9,1.9,0,0,0,.34-1.84l-8-13.34a2.31,2.31,0,0,1-.3-1.67"/><path class="cls-3" d="M52.85,34.2l-.92-2.53,2.3,1.51-1.38,1Zm-3.56-9.63-2.85,2A1.42,1.42,0,0,0,45.68,28l4.8,14.65c.31.91-.81,2.57-.81,2.57l5-3.5a1.15,1.15,0,0,0,.4-1.36l-.7-2.07,3.81-2.67,1.49.93a1.05,1.05,0,0,1,.24,1.5l5.51-3.85L49.29,24.57Z"/><polygon class="cls-3" points="21.68 64.39 23.94 71.35 31.25 71.35 25.34 75.65 27.6 82.61 21.68 78.31 15.76 82.61 18.02 75.65 12.1 71.35 19.42 71.35 21.68 64.39 21.68 64.39"/><polygon class="cls-3" points="178.32 65.32 176.06 72.28 168.75 72.28 174.66 76.58 172.4 83.53 178.32 79.23 184.24 83.53 181.98 76.58 187.9 72.28 180.58 72.28 178.32 65.32 178.32 65.32"/><path class="cls-3" d="M98,183.12l.74-2.58,1,2.58Zm2.45-10H97a1.43,1.43,0,0,0-1.42.7l-4.46,14.76c-.27.92-2.14,1.64-2.14,1.64h6.12a1.15,1.15,0,0,0,1.1-.88l.61-2.1h4.66l.68,1.62a1.06,1.06,0,0,1-.66,1.37h6.72l-7.73-17.11Z"/><path class="cls-3" d="M118.33,175.77a5.23,5.23,0,0,1,.19,1.91.81.81,0,0,1-.66.58l-2.79.55c-.64.12-1.11.78-1.49,1.58l-.82-4.47,4.53-.87c.49-.09.84.14,1,.72m6.6,9.9-3.68-4.07a3,3,0,0,0,1.8-1.09c.41-.69.43-2,.07-3.94,0,0-.69-3.4-.82-3.93a2.59,2.59,0,0,0-1.47-1.89,5.52,5.52,0,0,0-2.87,0L105.85,173s1.53.57,1.79,1.72l2.69,14.79,3.38-.63c.67-.12,1.15-.26,1.28-.78l-.92-5,2.36-.47,4.08,5,6-1.13a4.28,4.28,0,0,1-1.62-.81"/><path class="cls-3" d="M135.34,169.27c.2.32,3,6.62,3,7a.81.81,0,0,1-.52.72l-4.37,1.89L130.88,173l-1-2.29,4.27-1.85a.88.88,0,0,1,1.18.46m3.18-3.94a2.64,2.64,0,0,0-1.84-1.51,5.55,5.55,0,0,0-2.81.64l-11.41,4.94a3.43,3.43,0,0,1,2.14,1.28l5.29,12.19a2.89,2.89,0,0,1-.24,2l11.1-4.76c1.51-.65,2.39-1.36,2.63-2.11s0-2.06-.8-3.87l-3.3-7.21c-.35-.79-.51-1.08-.76-1.57"/><path class="cls-3" d="M91,176.5l.72-3.25s-12.66-2.77-12.83-2.79c-1-.12-1.44.56-1.71,1.39l-.5,2.28h0l-.23.94a3,3,0,0,1,2-.56l5.83,1.29L74.5,184l-.59,2.75,12.7,2.8c.82.18,1.38.21,1.67-.61l.91-4.21a2.7,2.7,0,0,1-2,.75L81,184.12l10-7.62Z"/><path class="cls-3" d="M70.3,183.94s4.43-12.88,4.67-13.46a2.16,2.16,0,0,1,1.12-.9c-.44-.17-2.23-.75-4.09-1.44-.48-.09-1.29-.39-1.87,1.51L65.2,183.84l4.58,1.59.36,0a4.11,4.11,0,0,1,.16-1.53"/><path class="cls-3" d="M69.5,167.73l-.67-.4-3.44-2.17-.06,0a1.69,1.69,0,0,0-1.22-.4l-7.56,7.35,2.76-8.88c.18-.86,1.56-.89,1.56-.89l-1.22-.78-2.53-1.6-.06,0a1.6,1.6,0,0,0-1.81-.2l-7.76,7.19,3.41-8.66a1.62,1.62,0,0,1,1.9-1l-1.3-.83-2.91-1.84-.06,0c-.67-.42-1.53-.42-1.85.15-.06.08,0,0,0,0l-5.35,15.43,4.5,2.84c.61.39.92.48,1.45.17L52,169.5l-1.91,6.19,4.8,3a1.92,1.92,0,0,0,1.87,0L67.9,168.28a2.3,2.3,0,0,1,1.6-.55"/><path class="cls-3" d="M156.21,161.65a4.29,4.29,0,0,0-6-.63l-2.35,1.62c-.85.58-1.51.65-2,.2l-.18-.24c-.19-.36-.62-1,.63-1.83l4.24-2.92c.91-.63,2.64.05,2.64.05L151,154.68a1.76,1.76,0,0,0-2.35-.49l-5.19,3.57q-2.81,1.94-3.19,3.33c-.25.93.19,2.22,1.32,3.86l1,1.39a3.93,3.93,0,0,0,.5.57,3.87,3.87,0,0,0,2.51,1.05,6.28,6.28,0,0,0,3.75-1.3l2-1.39c.78-.54,1.42-.58,1.91-.12a.85.85,0,0,1,.25.45s.42.72-1.19,1.83l-4.07,2.81c-.93.55-2.58-.09-2.58-.09l2.23,3.22a1.77,1.77,0,0,0,2.35.49l.41-.28,2.8-1.93,2-1.4c1.88-1.29,2.94-2.39,3.19-3.33s-.19-2.11-1.31-3.74c0,0-.85-1.2-1.12-1.53"/><path class="cls-1" d="M159.1,67.84A67.65,67.65,0,0,0,142.79,48c-1.24-1-2.53-2-3.85-2.93a66.83,66.83,0,0,0-38.82-12.45H100A67.2,67.2,0,0,0,32.9,96.27c-.06,1.14-.09,2.3-.09,3.45v.12A67.12,67.12,0,0,0,38.08,126c.42,1,.88,2,1.35,3a67.4,67.4,0,0,0,15.36,20.6q2.39,2.16,5,4.1A66.9,66.9,0,0,0,99.92,167h.1a67.14,67.14,0,0,0,67.17-67.12v0h0v0a67,67,0,0,0-5.27-26.12q-1.28-3-2.82-5.87"/><path class="cls-3" d="M160.26,74.41a62.62,62.62,0,0,0-2.75-5.72,65.72,65.72,0,0,0-15.87-19.28c-1.21-1-2.46-1.94-3.74-2.85a65.07,65.07,0,0,0-37.79-12.12H100A65.4,65.4,0,0,0,34.7,96.37q-.09,1.66-.09,3.36v.11a65.21,65.21,0,0,0,5.13,25.43c.41,1,.85,2,1.31,2.9a65.72,65.72,0,0,0,15,20.05c1.55,1.4,3.16,2.74,4.84,4a65.15,65.15,0,0,0,39.09,13H100a65.34,65.34,0,0,0,65.37-65.32v0h0v0a65.16,65.16,0,0,0-5.13-25.42Z"/><path class="cls-4" d="M87.79,69.86l1.51-5.51.36-1.29-7-3.9s-4.06-2.82-13.14,2.45C58.93,67.88,50.29,76,45.81,84.58a54.68,54.68,0,0,0-5.46,16.49A59.37,59.37,0,0,0,50.6,133c-1.77-17,14.66-35.63,27.53-48.36a44.75,44.75,0,0,0,9.66-14.73"/><path class="cls-4" d="M130.52,61.61c-9.08-5.27-13.14-2.45-13.14-2.45l-7,3.9.36,1.29,1.51,5.51A44.75,44.75,0,0,0,122,84.59c12.82,12.69,29.2,31.24,27.54,48.21a59.4,59.4,0,0,0,10.16-32.26,54.81,54.81,0,0,0-5.38-16c-4.48-8.59-13.13-16.7-23.75-23"/><path class="cls-2" d="M108.68,51.42a65.87,65.87,0,0,1,47.63,28.24A59.85,59.85,0,0,0,118.9,42.84c-3.85,1.13-8.11,3.53-10.22,8.58"/><path class="cls-2" d="M91.4,51.42C89.28,46.34,85,44,81.11,42.82A59.79,59.79,0,0,0,43.59,79.94,65.81,65.81,0,0,1,91.4,51.42"/><path class="cls-2" d="M95.3,50.74l4.74-7,4.74,7c1.9-5.19,4.9-8.05,7.9-9.62a60,60,0,0,0-25.31,0c3,1.56,6,4.41,7.93,9.62"/><path class="cls-4" d="M100,71c-.69.49-22.71,16.34-32.41,32-13.1,21.19-11.4,33.4-8,40.38a59.49,59.49,0,0,0,31,15L95.68,86l4.25-4.27.06-.06h0l.06.06L104.3,86l5.14,72.29-.07,0a59.56,59.56,0,0,0,31.17-15.14c3.33-7,4.91-19.18-8.09-40.21-9.7-15.69-31.72-31.54-32.41-32"/><polygon class="cls-1" points="104.3 86.04 100.05 81.77 100.1 163.66 109.37 158.37 109.37 158.37 109.44 158.33 104.3 86.04 104.3 86.04"/><path class="cls-1" d="M112.77,55.66a73.29,73.29,0,0,0-7.84-1l-1.86-.12,0-.08,0-.07-.75-1.53,0-.09h0L100,48.41l-.7,1.42L98,52.65h0l-.06.11-.06.12-.74,1.53-.07.13v0l-1.86.12a73.29,73.29,0,0,0-7.84,1c-1.15.19-2.31.37-3.44.62h0l3.66,2,3.66,2,1.13.61,1.13.61-.69,2.48,0,.14-.32,1.14-2,7.4h0L95,69.18l3.15-2.32.93-.68.92-.69h0v0l0,0,0,0v0h0l.92.69.93.68,7.78,5.74-2-7.4-.18-.64-.18-.64-.68-2.48.73-.4,1.53-.82,4.94-2.66,2.38-1.28h0c-1.14-.25-2.29-.43-3.44-.62"/></svg>