<svg id="Layer_1" data-name="Layer 1" xmlns="http://www.w3.org/2000/svg" viewBox="0 0 200 200"><defs><style>.cls-1,.cls-6{fill:#011e41;}.cls-1,.cls-7{fill-rule:evenodd;}.cls-2{fill:#0071ce;}.cls-3{fill:#ff4438;}.cls-4,.cls-7{fill:#fff;}.cls-5{fill:#ffb71b;}</style></defs><title>Team_Logos</title><path class="cls-1" d="M31.74,84.25l5.7-2.78L13.38,32.16l5.71-2.78-2.79-5.7L-.8,32,2,37.72l5.71-2.78,24,49.31Zm12.65-6.19,6-2L41.94,50l6-2,8.48,26.09,6-2L43.57,14l-6,2L46,42l-6,2L31.51,17.89l-6,2L44.39,78.06ZM76.26,7.77,70,8.76,78.58,63l-6.27,1L63.73,9.76l-6.27,1,8.17,51.56a9.52,9.52,0,1,0,18.8-3L76.26,7.77Zm13.37,60,6.34.11.31-17.74c.09-5.4-.23-16.3-.49-21.45H96c1.64,13.66,4.67,26.4,6.68,39.29l6,.11,1.07-61.2-6.34-.1-.31,17.73c-.09,5.41.23,16.3.48,21.45h-.17c-1.65-13.65-4.68-26.4-6.69-39.29l-6-.11L89.63,67.8Zm23.68.46,12.53,2A6.34,6.34,0,0,0,133.1,65l7.59-47.91a6.33,6.33,0,0,0-5.28-7.26l-12.53-2-9.57,60.46Zm14.85-53.2,6.26,1L126.84,64l-6.27-1,7.59-47.92ZM172.78,20l-12.06-3.92a6.34,6.34,0,0,0-8,4.07l-15,46.15a6.33,6.33,0,0,0,4.07,8l12.07,3.92,2-6-12.07-3.92,6.52-20.06,9.05,2.94,2-6-9-2.94,6.51-20L170.82,26l2-6ZM156.72,79.49l26.9-55.16,11.43,5.58a6.34,6.34,0,0,1,2.93,8.5l-9.91,20.33c-1.29,2.62-3.51,3.74-6,2.52l-6.8,27.27-5.72-2.79,6.81-27.28-1.86-.91L162.43,82.28l-5.71-2.79Zm29.82-46.66-9.26,19L183,54.63l9.27-19-5.72-2.79Z"/><path class="cls-2" d="M10.44,191.64a300.54,300.54,0,0,1,39.5-29.36q4.1-2.07,8.2-4.11l6.13-3q2.81,3.15,5.81,6.13c-20.83,9.72-40.78,19.87-59.64,30.31Zm148.48-74.2A299.63,299.63,0,0,1,200,111.18q-22.09,6.76-44.92,15,2-4.24,3.83-8.76Z"/><path class="cls-3" d="M.18,150.51a302.59,302.59,0,0,1,45-23.41c.54,1.09,1.1,2.17,1.67,3.25q-1.32,2.68-2.61,5.38-22.74,7-44.1,14.78Zm164.56-50.39a295.83,295.83,0,0,1,35.27.57q-18.31,2.59-37.25,6,1-3.24,2-6.61Z"/><path class="cls-4" d="M100.1,80.72c23,0,41,5.37,61.35,15.51-10,37.52-28.17,62.72-61.34,83.19A145.49,145.49,0,0,1,68.2,153.33l12.27-5.83c1.58.15,3.09.23,4.5.26a7.16,7.16,0,0,1-1.85,4.89c.63.72,1.27,1.45,1.92,2.16a9.33,9.33,0,0,0,2.92-7,59.92,59.92,0,0,0,11.54-1.24c-.2,5.91-1,10.26-2.71,12a.42.42,0,0,0-.12.15c-.42.45-.79.81-1.12,1.1,1.63-.3,3.22-.68,4.8-1.12,2-4.2,2.06-11.56,2.09-12.83,3.76-.95,7.12-1.9,10.13-2.93.12,3.45,1.5,6.75,4.14,8,1.18-.84,2.34-1.73,3.45-2.65-.67.1-4.84.39-4.78-6.32,8.83-3.33,14.58-7.35,19.63-13.34a53.29,53.29,0,0,0,3.18-9.45c-6.05,9.54-11.63,15.12-22.51,19.48a46.59,46.59,0,0,1,1.77-7c3.17-1.33,6.49-2.91,8.48-3.74l4.76-5c1.2-4.61,2.39-9.24,3.57-13.86l-3.72,1.16,4.38-4.59q1.37-5.43,2.72-10.86c-2.19.32-4.39.65-6.58,1a44,44,0,0,0,.77-5.39c-1.06-.27-2.12-.52-3.18-.76a57.2,57.2,0,0,1-1.21,6.72l-.31,0a12.1,12.1,0,0,0-6,2.56l.59-1.78c-3.53.64-7,1.29-10.56,2l-3.5,3.68.12-.3,1.13-2.94q-5.22,1.06-10.42,2.2c-.73-4.69-1.45-8.93-2.08-12.36-1,.12-2,.25-3,.4.64,3.47,1.38,7.81,2.11,12.61l-2.45.55L90,106.2c-2.19-2.32-6.64-.85-9.44-.15-3,.77-6.08,1.56-9.1,2.38-.91.25-1.81.53-2.69.83A76.15,76.15,0,0,1,62.6,99l-.32-.68c-.92.38-1.83.76-2.74,1.16l.39.81a76.08,76.08,0,0,0,6,10.11,26.12,26.12,0,0,0-8.9,6.35s-4.25,4.45-4.75,5a28.79,28.79,0,0,0-2.9,4A144.16,144.16,0,0,1,38.73,96.24C59.08,86.1,77.11,80.71,100.1,80.72Zm2.25,56.79,6.33-2.78,1-1a5.65,5.65,0,0,0,1.44,0,19.3,19.3,0,0,0,2.92-.8,42.13,42.13,0,0,0-1.34,6.78c-3,1.07-6.38,2.06-10.22,3,0-1.67,0-3.42-.12-5.23ZM87.71,144.1l2-.92,5.09-4.09L95.92,136c.74,1.5,1.14,2.08,1.87,3.58l1.67-.74q.09,2.43.09,4.68a57.48,57.48,0,0,1-11.75,1.36l-.09-.73Z"/><path class="cls-3" d="M112.48,88.4a134,134,0,0,1,14.38.76q5.38,1.13,10.68,2.73a54.39,54.39,0,0,1,.65,27.21c-6.05,9.54-11.63,15.12-22.51,19.48a46.59,46.59,0,0,1,1.77-7c3.17-1.33,6.49-2.91,8.48-3.74l4.76-5c1.2-4.61,2.39-9.24,3.57-13.86l-3.72,1.16,4.38-4.59q1.37-5.43,2.72-10.86c-2.19.32-4.39.65-6.58,1a44,44,0,0,0,.77-5.39c-1.06-.27-2.12-.52-3.18-.76a57.2,57.2,0,0,1-1.21,6.72l-.31,0a12.1,12.1,0,0,0-6,2.56l.59-1.78c-3.53.64-7,1.29-10.56,2l-3.5,3.68.12-.3,1.13-2.94q-5.22,1.06-10.42,2.2c-.73-4.69-1.45-8.93-2.08-12.36a135.14,135.14,0,0,1,16.06-.95ZM135,128.55a54.09,54.09,0,0,1-14.85,19.66c-.67.1-4.84.39-4.78-6.32,8.83-3.33,14.58-7.35,19.63-13.34Zm-18.3,22.31a53.76,53.76,0,0,1-16.36,7.79c2-4.2,2.06-11.56,2.09-12.83,3.76-.95,7.12-1.9,10.13-2.93.12,3.45,1.5,6.75,4.14,8Zm-21.16,8.91c-1.65.31-3.34.54-5,.69-1.89-1.83-3.71-3.72-5.47-5.65a9.33,9.33,0,0,0,2.92-7,59.92,59.92,0,0,0,11.54-1.24c-.2,5.91-1,10.26-2.71,12a.42.42,0,0,0-.12.15c-.42.45-.79.81-1.12,1.1Zm-12.43-7.12q-2-2.25-3.82-4.59l1.17-.56c1.58.15,3.09.23,4.5.26a7.16,7.16,0,0,1-1.85,4.89ZM59.75,114.14c-1.64-4.17-3.1-8.45-4.35-12.82q2.07-1,4.14-1.87l.39.81a76.08,76.08,0,0,0,6,10.11,26.94,26.94,0,0,0-6.19,3.77Zm2.53-15.85a131.76,131.76,0,0,1,31.19-8.54c.64,3.47,1.38,7.81,2.11,12.61l-2.45.55L90,106.2c-2.19-2.32-6.64-.85-9.44-.15-3,.77-6.08,1.56-9.1,2.38-.91.25-1.81.53-2.69.83A76.15,76.15,0,0,1,62.6,99l-.32-.68Zm40.07,39.22,6.33-2.78,1-1a5.65,5.65,0,0,0,1.44,0,19.3,19.3,0,0,0,2.92-.8,42.13,42.13,0,0,0-1.34,6.78c-3,1.07-6.38,2.06-10.22,3,0-1.67,0-3.42-.12-5.23ZM87.71,144.1l2-.92,5.09-4.09L95.92,136c.74,1.5,1.14,2.08,1.87,3.58l1.67-.74q.09,2.43.09,4.68a57.48,57.48,0,0,1-11.75,1.36l-.09-.73Z"/><path class="cls-5" d="M101.09,173.19A131.94,131.94,0,0,1,75.1,150l4.2-2q1.86,2.34,3.82,4.59c.63.72,1.27,1.45,1.92,2.16a132.09,132.09,0,0,0,18.47,16.76c-.8.55-1.6,1.08-2.42,1.62Zm-46-54.41a138.36,138.36,0,0,1-7.17-19.47,131.69,131.69,0,0,1,53.38-12.87,130.26,130.26,0,0,1,25.57,2.72,136.32,136.32,0,0,0-30.44.19c-1,.12-2,.25-3,.4a131.63,131.63,0,0,0-31.19,8.54c-.92.38-1.83.76-2.74,1.16q-2.07.9-4.14,1.87c1.25,4.37,2.71,8.65,4.35,12.82A25.18,25.18,0,0,0,57,116.72l-2,2.06Z"/><path class="cls-6" d="M33.84,94c22-11.33,41.32-17.49,66.26-17.49S144.36,82.67,166.35,94c-10.22,41.19-29.73,68.47-66.25,90.36A152.73,152.73,0,0,1,64.27,155.2l-6.13,3c-3.44,1.71-6.89,3.44-10.32,5.19-3.87,2-8.17,5-12.63,3.8-4.87-2.11-1.66-8-.17-11.42q5.68-12.8,11.87-25.39A132.46,132.46,0,0,1,35.31,100l-1.47-6ZM100.1,80.72c-23,0-41,5.38-61.37,15.52a144,144,0,0,0,10.66,29.48,28.79,28.79,0,0,1,2.9-4c.5-.55,4.75-5,4.75-5a26.12,26.12,0,0,1,8.9-6.35,76.08,76.08,0,0,1-6-10.11l-.39-.81c.91-.4,1.82-.78,2.74-1.16l.32.68a76.15,76.15,0,0,0,6.17,10.29c.88-.3,1.78-.58,2.69-.83,3-.82,6.06-1.61,9.1-2.38,2.8-.7,7.25-2.17,9.44.15l3.13-3.29,2.45-.55c-.73-4.8-1.47-9.14-2.11-12.61,1-.15,2-.28,3-.4.63,3.43,1.35,7.67,2.08,12.36q5.2-1.14,10.42-2.2l-1.13,2.94-.12.3,3.5-3.68c3.52-.68,7-1.33,10.56-2l-.59,1.78a12.1,12.1,0,0,1,6-2.56l.31,0a57.2,57.2,0,0,0,1.21-6.72c1.06.24,2.12.49,3.18.76a44,44,0,0,1-.77,5.39c2.19-.34,4.39-.67,6.58-1q-1.35,5.43-2.72,10.86l-4.38,4.59,3.72-1.16c-1.18,4.62-2.37,9.25-3.57,13.86l-4.76,5c-2,.83-5.31,2.41-8.48,3.74a46.59,46.59,0,0,0-1.77,7c10.88-4.36,16.46-9.94,22.51-19.48a53.29,53.29,0,0,1-3.18,9.45c-5,6-10.8,10-19.63,13.34-.06,6.71,4.11,6.42,4.78,6.32-1.11.92-2.27,1.81-3.45,2.65-2.64-1.22-4-4.52-4.14-8-3,1-6.37,2-10.13,2.93,0,1.27-.06,8.63-2.09,12.83-1.58.44-3.17.82-4.8,1.12.33-.29.7-.65,1.12-1.1a.42.42,0,0,1,.12-.15c1.68-1.73,2.51-6.08,2.71-12A59.92,59.92,0,0,1,88,147.77a9.33,9.33,0,0,1-2.92,7c-.65-.71-1.29-1.44-1.92-2.16A7.16,7.16,0,0,0,85,147.76c-1.41,0-2.92-.11-4.5-.26L68.2,153.33a145.49,145.49,0,0,0,31.91,26.09c33.17-20.47,51.38-45.67,61.34-83.19C141.1,86.09,123.08,80.72,100.1,80.72Zm2.25,56.79c.08,1.81.12,3.56.12,5.23,3.84-1,7.21-2,10.22-3a42.13,42.13,0,0,1,1.34-6.78,19.3,19.3,0,0,1-2.92.8,5.65,5.65,0,0,1-1.44,0l-1,1-6.33,2.78ZM87.71,144.1l.09.73a57.48,57.48,0,0,0,11.75-1.36q0-2.25-.09-4.68l-1.67.74c-.73-1.5-1.13-2.08-1.87-3.58l-1.13,3.14-5.09,4.09-2,.92Z"/><path class="cls-7" d="M71.84,110.16c-5.17,1.4-9.79,3.62-13.49,7.71a36.79,36.79,0,0,0-5.05,8.07q-6.21,12.62-11.9,25.46c-1,2.23-4,7.66-.8,9.06,3.59.93,8.07-2.08,11.23-3.69q5.16-2.62,10.34-5.19c5.89-2.92,11.16-6.46,14.74-12.15a56.94,56.94,0,0,0,3.53-7.55q3.36-8.3,6.87-16.56c.87-2.07,2.4-4.67,1.91-6.92-1-3-6.09-1.18-8.31-.62q-4.55,1.16-9.07,2.38ZM65.3,141.74c-2.74,1.22-5.46,2.45-8.19,3.71q5.94-13.75,12.34-27.31Q73,117,76.66,115.9q-5.88,12.84-11.36,25.84Zm46.82-41.05q-5.69,7.43-11.23,15,2.6-6.9,5.24-13.76-5.89,1.2-11.76,2.55-1.52,3.54-3,7.1l2.53-.7q-4.62,11.18-9,22.42-1.81,4.58-3.6,9.14c3.93-1.85,7.85-3.69,11.8-5.5q2.67-7.4,5.4-14.76c1.68,3.35,3.33,6.71,5,10.08q3.81-1.71,7.63-3.37-2.32-5.3-4.71-10.59,4.23-6.42,8.54-12.79l2.42-.57c.61-1.84,1.21-3.68,1.82-5.53q-3.51.63-7,1.32Zm15.21-2.61a9.7,9.7,0,0,0-5.59,2.61,12.4,12.4,0,0,0-2.55,4.82q-2.52,7.92-5.06,15.84c-.66,2.09-1.74,5.89,1.61,5.61a15.1,15.1,0,0,0,3.28-1.11q5.07-2.17,10.18-4.27c.87-3.32,1.72-6.64,2.58-10-1.79.56-3.57,1.12-5.36,1.7-.42,1.49-.83,3-1.25,4.49l-3.72,1.36q2.35-8,4.69-16.07l3.3-.7c-.26.94-.51,1.88-.78,2.82l4.81-1.13q.93-3.61,1.83-7.25c-2.66.39-5.32.81-8,1.24Z"/><path class="cls-2" d="M141.61,93.18c1.61.53,3.12,1.07,4.62,1.63,3.78,1.41,7.12,2.84,9.88,4.16a131.28,131.28,0,0,1-50.6,71.21l-2,1.39A118.29,118.29,0,0,1,92,161.93l3.4-.55a55.09,55.09,0,0,0,45.2-63.26c-.07-.39-.15-.79-.22-1.19l0-.17,0-.18-.05-.2,0-.19,0-.2,0-.19,0-.21,0-.2-.05-.19,0-.16-.05-.22,0-.21,0-.16,0-.16,0-.15c-.16-.63-.3-1.17-.44-1.69l2.23.73Zm.27.34c1.51.52,3.06,1.06,4.54,1.62q-2.26-.86-4.54-1.62Z"/></svg>