<svg id="Layer_1" data-name="Layer 1" xmlns="http://www.w3.org/2000/svg" xmlns:xlink="http://www.w3.org/1999/xlink" viewBox="0 0 200 200"><defs><style>.cls-1{fill:none;}.cls-2{clip-path:url(#clip-path);}.cls-3{fill:#9ea1a2;}.cls-4{fill:#0a2240;}.cls-5{fill:#236092;}.cls-6{fill:#76bc21;}.cls-7{fill:#fff;}</style><clipPath id="clip-path"><rect class="cls-1" x="0.19" width="199.62" height="199.67"/></clipPath></defs><title>Team_Logos</title><g class="cls-2"><path class="cls-3" d="M195.26,70.07l0,0-1-2.93A99.89,99.89,0,0,0,100,0h0a99.83,99.83,0,1,0,95.26,70.07"/><path class="cls-4" d="M100,196.14A96.31,96.31,0,1,1,191,68.25l.45,1.31h0A96.33,96.33,0,0,1,100,196.14"/></g><path class="cls-5" d="M110,56.59c-.53-.06-1.14-.1-1.82-.14a58.63,58.63,0,0,1-15.84-3A33,33,0,0,0,89,57.92c1.73,1.79,5,5.24,6.65,7.08,2.82,1.69,5.65,3.53,8.45,5.49,4.46-5,8.43-9.1,12.34-13.19-1.9-.27-3.87-.5-5.92-.67l-.51,0Z"/><path class="cls-5" d="M68.19,73.19A73,73,0,0,0,55,113.56c7.93-8.73,14.46-16.83,18.91-21.11a36.24,36.24,0,0,1,9-6.39c-3-6.8-6.85-12.37-12.12-15a21.42,21.42,0,0,0-2.59,2.15"/><path class="cls-5" d="M89.29,47.78c4.41-1.8,9.2-3.63,13.82-5.18a79.49,79.49,0,0,1,15-3.92l-.31-.1a63.59,63.59,0,0,0-31.85-1,10.26,10.26,0,0,0,0,6.56,7.4,7.4,0,0,0,3.33,3.63"/><path class="cls-5" d="M80.12,65.7c-1.74.83-3.66,1.81-5.5,2.87,5.19,3.41,9.06,9.17,12,15.93a24.3,24.3,0,0,1,7-1.46c2.78-3.52,5.34-6.62,7.74-9.41-2.78-1.94-5.57-3.76-8.35-5.43C89.92,67.1,82.62,66,80.12,65.7"/><path class="cls-5" d="M95.85,50.34a55.91,55.91,0,0,0,12.58,2c.73,0,1.38.09,1.94.15l.46,0c2,.17,4.8.48,8.11,1.08,2.45-3,5.41-4.89,7.41-5.33a7.14,7.14,0,0,1,4.41,4.22,13.44,13.44,0,0,1,6.89,6.65c7.54,3.29,15.13,8.15,20.93,15.36A63.7,63.7,0,0,0,126.9,42v.07c-.17,0-13.58-.31-30.18,7.74-.3.17-.58.35-.87.55"/><path class="cls-5" d="M163.58,94.54c-1.64-7.56-7-21.5-24.2-30.32,1.94,8.67-.26,18.52-.26,18.52A13.4,13.4,0,0,1,145,90.68a2.75,2.75,0,0,1,1.12,1c1.32,1.62,3,5.35.3,12.68,0,0-1.6-3.42-5,.26l-.85,1.21c6.46,8.9,11.39,18.18,13.89,27.24a63.72,63.72,0,0,0,9.14-38.56"/><path class="cls-5" d="M50.8,118.06a80.51,80.51,0,0,1,3.68-26.4,74.9,74.9,0,0,1,8.49-18c.49-1,1.31-2.48,2.28-4.23C53,68.1,41.83,81.2,37.51,87.05a63.61,63.61,0,0,0,4.64,39.65c3-2.82,5.9-5.74,8.65-8.64"/><path class="cls-5" d="M131.65,133.87c-.13,6.11,2.88,10.82,5.12,18.09a64,64,0,0,0,14.58-14.25c-1.85-9.13-6.64-18.77-13.27-28.11-4.16,6.76-6.2,13.12-6.43,24.27"/><path class="cls-5" d="M77.5,52.83c2.07-.93,4.6-2,7.4-3.23a10.72,10.72,0,0,1-2.75-4,13.17,13.17,0,0,1-.6-6.85A64,64,0,0,0,57,52.73l1,0c6-.36,14.64-.11,19.55.08"/><path class="cls-5" d="M67.36,65.63c.86-1.52,1.73-3,2.52-4.42-3.39-2.22-5.5-3.83-11.33-4.35-2.4-.07-4.4,0-5.81.1A63.48,63.48,0,0,0,40.29,77.4c6.48-6.73,16.24-13.89,27.07-11.77"/><path class="cls-6" d="M87.55,52l-4.41,6.4a38,38,0,0,1,6.08,5.45c-4.8-1-10.07-1.87-10.07-1.87L70.8,66.49,74.71,60A59.49,59.49,0,0,0,69,55.79c3.33.1,9.66.62,9.66.62L87.55,52Z"/><path class="cls-6" d="M91.11,90.19a24.89,24.89,0,0,0-1.31,6.18S82.53,97.44,79,99.82c0,0,7.25-7.23,12.07-9.63"/><path class="cls-7" d="M140.06,89.86a6.28,6.28,0,0,1,1.86-.19,5,5,0,0,0-.83-1.48,7.58,7.58,0,0,0-1.58-1.36,5,5,0,0,1,.55,3"/><path class="cls-7" d="M133.51,93.17c.94-.65,1.79-1.18,2.57-1.62a13.27,13.27,0,0,0-.69-1.4,7.28,7.28,0,0,0-2.25-2.09,11.38,11.38,0,0,1,.37,5.11"/><path class="cls-3" d="M55.57,142.21c-6.18,2.53-20.79-.92-20.79-.92,14.76-.84,29.2-11.42,29.2-11.42l0,.07a39.13,39.13,0,0,1-10.3,10.48,8.13,8.13,0,0,0,1.92,1.79"/><path class="cls-6" d="M129.2,54.11s-3.63-2.85-7.76,1.57c4.42-8,7-3.43,7.76-1.57"/><path class="cls-3" d="M143.56,93.1s-.38-.26-.46-.3c-2.3-1.23-6.42,2.34-9.11,3.82s-6.6,4.64-8.52.29,2.49-11.14,4-15.41c3.37-9.46,3.49-15,2.78-18,3.11,3.51,4.08,10.24,4.08,10.24s1.16-12.64-5-16a15.23,15.23,0,0,1-.14,3.26l0,0c-2.88.52-9.23-.2-11.28-1.28A193.8,193.8,0,0,0,97.17,90.4c-2.78,5.66-5.5,12.29-6.18,17.68a22.89,22.89,0,0,1-1.09-5.69c-3.54,1.37-15.58,7.29-18.16,25.43,0,0,7.65-7.89,16.11-11,0,0-5.36,14,4.87,38.9,0,0,4.14-15.25,12.8-19.09,5.24,26,20.62,26.46,25.1,44.18,0,0,4.7-9.18-1-24.78a8.23,8.23,0,0,1,3.61,2.49s-.26-4.56-4.53-14.4c-2.78-5.28-3.65-12.39-3.65-12.39-2.49,2.27-3.13,9.91-3.13,9.91-7.63-20.71,14-41.23,18-44.25,1.93-1.48,3.12-1.51,3.84-1.15.74-1.54.68-2.53-.22-3.17"/><path class="cls-3" d="M157.27,56.44a72,72,0,0,0-57.35-28.5A72.12,72.12,0,0,0,28.8,90a71.27,71.27,0,0,0,7.05,42.26c.82-.69,1.64-1.39,2.45-2.1a68.24,68.24,0,0,1-6.4-39.73,69,69,0,0,1,68-59.37,70.09,70.09,0,0,1,9.47.65A68.69,68.69,0,0,1,138.06,157c.22,1.06.41,2.19.56,3.37A71.74,71.74,0,0,0,157.27,56.44"/><path class="cls-7" d="M54.55,32.71A3.43,3.43,0,1,1,58,29.29a3.42,3.42,0,0,1-3.42,3.42m0-9.7a6.27,6.27,0,1,0,6.27,6.28A6.28,6.28,0,0,0,54.55,23"/><path class="cls-7" d="M40.49,38.67,39,39.49c-.54.31-.85.32-1.15,0s-.29-.82.17-1.33h0a2.66,2.66,0,0,1,1.83-.93h.24l-.18-2.8H39.7a5.41,5.41,0,0,0-3.83,2,4.64,4.64,0,0,0-1.27,2.69A3.32,3.32,0,0,0,35.75,42c1.33,1.22,2.9,1.3,4.78.25l1.31-.73c.69-.38,1.13-.52,1.49-.19s.33,1-.31,1.67l0,0a2.93,2.93,0,0,1-2.45,1h-.23L40,47l.26,0a6.17,6.17,0,0,0,4.89-2.23l0,0a5.25,5.25,0,0,0,1.52-3.14,3.55,3.55,0,0,0-1.3-2.85c-1.36-1.24-2.84-1.27-4.95-.09"/><polygon class="cls-7" points="22.01 103.21 21.95 100.47 9.74 100.76 9.81 103.5 22.01 103.21 22.01 103.21"/><polygon class="cls-7" points="33.2 59.56 37.8 52.66 35.54 51.14 32.45 55.77 30.75 54.63 33.41 50.65 31.14 49.14 28.49 53.12 26.81 52.01 29.9 47.38 27.65 45.88 23.05 52.79 33.2 59.56 33.2 59.56"/><polygon class="cls-7" points="73.25 26.62 69.68 17.78 72.83 16.5 71.83 14.03 62.98 17.61 63.98 20.08 67.14 18.81 70.71 27.64 73.25 26.62 73.25 26.62"/><polygon class="cls-7" points="23.07 66.61 14.48 70.53 14.31 70.94 25.7 75.6 26.74 73.08 20.81 70.66 29.45 66.72 29.62 66.31 18.22 61.65 17.18 64.2 23.07 66.61 23.07 66.61"/><polygon class="cls-7" points="17.47 84.88 10 90.68 9.94 91.12 22.1 93.02 22.52 90.32 16.2 89.33 23.69 83.51 23.76 83.07 11.6 81.17 11.17 83.89 17.47 84.88 17.47 84.88"/><polygon class="cls-7" points="121.27 25.09 123.9 25.87 127.37 14.16 124.74 13.38 121.27 25.09 121.27 25.09"/><polygon class="cls-7" points="188.25 118.44 188.87 115.77 176.99 113 175.14 120.92 177.84 121.55 179.07 116.3 188.25 118.44 188.25 118.44"/><path class="cls-7" d="M184,103.72a3.42,3.42,0,1,1,3.42-3.42,3.42,3.42,0,0,1-3.42,3.42M184,94a6.27,6.27,0,1,0,6.27,6.27A6.27,6.27,0,0,0,184,94"/><polygon class="cls-7" points="159.23 49.36 164.38 55.86 166.51 54.17 163.06 49.81 164.67 48.55 167.64 52.3 169.78 50.61 166.8 46.86 168.38 45.61 171.83 49.96 173.95 48.29 168.8 41.78 159.23 49.36 159.23 49.36"/><polygon class="cls-7" points="167.68 138.57 163.24 145.59 165.54 147.04 168.51 142.34 170.24 143.44 167.69 147.48 169.99 148.94 172.55 144.89 174.25 145.97 171.28 150.67 173.56 152.11 177.99 145.1 167.68 138.57 167.68 138.57"/><polygon class="cls-7" points="112.03 23.02 113.28 13.56 116.66 14.01 117.01 11.36 107.55 10.11 107.2 12.75 110.57 13.2 109.31 22.66 112.03 23.02 112.03 23.02"/><polygon class="cls-7" points="178.06 131.38 184.69 131.07 185.82 128.25 172.31 128.87 172.17 129.24 181.52 138.99 182.64 136.19 178.06 131.38 178.06 131.38"/><polygon class="cls-7" points="139.13 25.81 136.97 17.6 136.95 17.54 136.6 17.35 130.89 28.28 133.3 29.55 135.93 24.51 137.18 29.18 137.49 29.34 142.03 27.69 139.4 32.73 141.83 34 147.54 23.07 147.17 22.88 139.13 25.81 139.13 25.81"/><polygon class="cls-7" points="17.89 117.81 12.93 124.71 12.89 124.76 12.98 125.15 25.04 122.6 24.48 119.94 18.92 121.11 21.73 117.19 21.66 116.84 17.5 114.38 23.06 113.21 22.49 110.52 10.43 113.07 10.51 113.48 17.89 117.81 17.89 117.81"/><polygon class="cls-7" points="182.65 83.79 187.81 79.47 187.71 79.05 181.14 77.51 186.39 74.04 185.71 71.22 174.79 78.47 174.89 78.89 182.24 80.6 176.47 85.44 176.58 85.87 189.6 87.34 188.92 84.53 182.65 83.79 182.65 83.79"/><path class="cls-7" d="M175.37,63l-.78-1.57,3.06-1.5.77,1.57a1.7,1.7,0,1,1-3,1.5m-.53,2.82a3.62,3.62,0,0,0,4.29.51c2.29-1.13,3-3.39,1.74-6l-2-4.09L167.9,61.64l1.21,2.46,5.07-2.49-3.46,5.75,1.44,2.93s2.5-4.22,2.68-4.5"/><path class="cls-7" d="M153.31,39.65l-1.79-1.55L153,36.43l1.68,1.46c.69.6.86,1.31.42,1.82a1.19,1.19,0,0,1-1.76-.06M156,33l1.52,1.32c.64.56.73,1.07.29,1.59s-1.22.26-1.7-.15l-1.43-1.24L156,33ZM158,38.82a3.68,3.68,0,0,0,1.82-1.16,3.59,3.59,0,0,0,.88-3,4.16,4.16,0,0,0-1.44-2.38l-1.52-1.32-2.06-1.79-1.79,2.06-1.22,1.41-.1.11-1.68,1.94-.1.12-1.35,1.55-1.79,2.06,2,1.79,1.79,1.55a4.22,4.22,0,0,0,2.65,1.08,3.72,3.72,0,0,0,3-1.3,3.67,3.67,0,0,0,.91-2.67"/><path class="cls-7" d="M156.18,153.51a6.7,6.7,0,0,1,1.81-1.28,9.48,9.48,0,0,1,3.51-.66v2.77a6.62,6.62,0,0,0-2.3.39,3,3,0,0,0-1.64,1.68,1,1,0,0,0,.24,1,.71.71,0,0,0,.76.13,8.57,8.57,0,0,0,1.12-.51,10.27,10.27,0,0,1,3.08-1.14,3.4,3.4,0,0,1,2.74.9,3.81,3.81,0,0,1,1.13,2.79,4.67,4.67,0,0,1-2.47,3.68,8.64,8.64,0,0,1-3,1l-.35-2.75a7.79,7.79,0,0,0,1.93-.58c1.44-.7,1.46-2.32.34-2.26a8.66,8.66,0,0,0-2.14.88,13,13,0,0,1-1.48.66,3.51,3.51,0,0,1-3.53-.75,3.74,3.74,0,0,1-1-3.67,5,5,0,0,1,1.31-2.2"/><polygon class="cls-7" points="85 17.4 88.73 22.89 91.73 22.37 84.13 11.19 83.74 11.25 80.33 24.34 83.3 23.82 85 17.4 85 17.4"/></svg>