<svg id="Layer_1" data-name="Layer 1" xmlns="http://www.w3.org/2000/svg" xmlns:xlink="http://www.w3.org/1999/xlink" viewBox="0 0 200 200"><defs><style>.cls-1{fill:none;}.cls-2{clip-path:url(#clip-path);}.cls-3{fill:#fff;}.cls-4{fill:#b1b1b1;}.cls-5{fill:#003da6;}.cls-6{fill:#ff671d;}</style><clipPath id="clip-path"><rect class="cls-1" x="-0.06" y="19.11" width="199.79" height="161.98"/></clipPath></defs><title>Team_Logos</title><g id="KNCK"><g class="cls-2"><path class="cls-3" d="M99.5,181.09l-13.24-17.2A43.28,43.28,0,0,1,56.6,125.4l-8.21-10.67a109.4,109.4,0,0,0-15.63,8.7L8.12,98.7,18.51,75.94-.06,51.83H29.48L35.2,39.38l14.62-5.91,1.62-4.41L63.3,34.47l2.82-9.84L68.05,24a102.36,102.36,0,0,1,31.24-4.87c.32,0,3.83.05,3.92.05.41,0,2.14.09,2.14.09a99.18,99.18,0,0,1,26.13,4.63l2,.65L136,33.92l4.27-3.23,24,8.52L170,51.83h29.69L181,76.05l10.23,22.43-25,25.76s-9.17-6.69-15.46-9.18l-7.54,9.72a43.58,43.58,0,0,1-30.54,39.38L99.5,181.09Z"/></g><polygon class="cls-4" points="99.52 169.17 184.87 59.12 14.74 59.12 99.52 169.17 99.52 169.17"/><path class="cls-5" d="M184.87,59.12l-85.35,110-84.78-110ZM7.73,55.66,99.51,174.81l92.4-119.14Z"/><path class="cls-5" d="M172.55,66.78l0-.08-.07,0L167,63l2-3.89.06-.11-.06-.13-7.51-16.47-.05-.1-.11,0L141.1,35,141,35l-.12.09-5.37,4.1-.06,0,0,.07-.92,2.25a158.54,158.54,0,0,0-20.74-3.34c-1.25-.13-4.61-.4-10-.83l-.52,0-.54,0h-.13l-.08.08-4,4V37.27s-11.36.64-18.8,1.65-14.75,2.85-14.75,2.85l-1.35-2.88,0-.09-.09,0-9.56-4.38-.27-.12-.1.28-1.12,3L52.15,37l-.1-.25-.25.1L38.11,42.3l-.1,0,0,.1L12.73,97.89l20.72,20.75,1-.55c.62-.35,1.5-.88,2.5-1.46,2.51-1.48,5.94-3.5,7.58-4.29l.34-.16c2.12-1,3.18-1.55,13.26-5.86l.84-.31s1.13-.44,3.2-1.13C67.68,103,82,98.77,96,98.77h.16l1.67,0c9.45.26,20.51,2.27,28.12,3.91,7.32,1.58,12.83,3.1,14.39,3.54l1.06.32a138.74,138.74,0,0,1,23.24,12.12l1,.64,21-21.6-14-30.94Z"/><path class="cls-6" d="M170.3,68.7,150.14,55.24l-3.51-9.84,6.25,2.22,2.52,6.15,9.49,3-5.54-12.23-17.91-6.36-3.29,2.54,6,19.35,19.17,13.55,4.91,12.24-8-3.6-2.74-7.62L147.7,71.8,152.93,89c1.61.59,3.22,1.2,4.8,1.85q6.53,2.64,12.78,5.84,4.34,2.22,8.52,4.69l4.16-4.27L170.3,68.7Z"/><path class="cls-6" d="M34.34,77.82l6.72-6,1.6,1.87L36,92.76q5.44-2.4,11.07-4.38l4.8-15.73L47.76,65.8l8.59-8.17,5-16.73L55.2,38.13,49.65,53.9l-8.88,7.65,8.1-20.44-8.71,3.47-24,52.64L19.92,101q3.34-2,6.77-3.74l7.65-19.43Z"/><path class="cls-6" d="M95.15,40.28l-7.36.39L84.33,80.16q4.69-.45,9.45-.61l1.37-39.27Z"/><path class="cls-6" d="M117,72l-8.55-.51-1.37-24.18,7.24.35L113.45,41l-9.73-.69-4.36,4.34V74.85l4.57,4.68q7.08.23,14,1.06L117,72Z"/><path class="cls-6" d="M68.57,55.87l3.08,15-2,11.38q4.47-.87,9-1.47h0l4.75-39.59-6.83,1-2.24,13L71.85,43l-8,2L52.64,86.53q4.83-1.52,9.78-2.71l6.15-27.95Z"/><path class="cls-6" d="M128,69.78l2.4-3.25,3.51,2.89,3.24,14.72q5.09,1.29,10.05,2.89l-6-21.6-6.22-5.08,3.54-4.72-2.94-11L128,43l3,11-4.68,6.24-3.45-18.15-6.95-.88S119.36,67.87,121,81c3.15.44,6.27,1,9.36,1.62L128,69.78Z"/><path class="cls-4" d="M85.41,87.65S88.3,86,94.1,85.32l-.19-4.57q-4.77.16-9.46.61c.27,1.78.68,4.44,1,6.29Z"/><path class="cls-4" d="M103.82,85a48.65,48.65,0,0,1,7.08,1.67,35.88,35.88,0,0,1,5.93,2.13l1-7c-4.66-.57-9.06-.92-13.83-1.07-.06,1.37-.06,3.29-.15,4.3Z"/><path class="cls-4" d="M73.34,96.17c2.69-2,4.31-4.07,7.15-5.79C80,87.82,79.24,84.52,78.71,82c-3.08.41-6.14.92-9.17,1.51,1.16,3.78,2.64,8.85,3.8,12.66Z"/><path class="cls-4" d="M119.17,90.25a34.74,34.74,0,0,1,7,5.53l.47.35,3.7-12.25c-3.19-.67-6.29-1.24-9.55-1.7l-1.65,8.07Z"/><path class="cls-4" d="M130.86,100.9l8.83,2.08,7.43-14.69c-3.42-1.12-6.72-2-10.24-2.92l-6,15.53Z"/><path class="cls-4" d="M59.82,103c2.31-.85,5.52-2,8.53-2.81L62.62,85c-3.47.84-6.49,1.72-9.87,2.79,2.14,5.07,4.53,10.31,7.07,15.18Z"/><path class="cls-4" d="M46.5,108.44c.51-.44,5.52-2.6,9-4.06-2.61-4.72-5.75-9.92-8.36-14.72C43.36,91,40,92.37,36.34,94L46.5,108.44Z"/><path class="cls-4" d="M34,115.07c1.59-1,3.28-1.94,5.14-3L27.43,98.23q-3.34,1.74-6.6,3.63L34,115.07Z"/><path class="cls-4" d="M144.37,104.8a134.21,134.21,0,0,1,20.78,10.87c1.81-1.73,11.59-12,12.93-13.41a158.16,158.16,0,0,0-25.57-12.1l-8.14,14.64Z"/><polygon class="cls-4" points="102.46 84.81 99.1 84.69 99.05 76.53 102.54 80.16 102.46 84.81 102.46 84.81"/><path class="cls-5" d="M99.87,83.2a39.52,39.52,0,1,0,39.52,39.52A39.52,39.52,0,0,0,99.87,83.2Z"/><path class="cls-6" d="M102.3,86.15c-3,1.06-6,2.6-8.85,3.95-2-1.19-3.1-1.48-4.44-2.35,4.16-1.51,8.63-1.74,13.29-1.6Z"/><path class="cls-6" d="M130.61,102.93c-9.31-9.38-23.28-8.7-35.13-12a84.43,84.43,0,0,1,10.57-4.24,36.46,36.46,0,0,1,24.56,16.26Z"/><path class="cls-6" d="M78.26,104.34a46,46,0,0,0-3,45.46c-9.2-7.73-14.69-22.71-10.56-37.25,3.39-4.73,7.74-8.91,13.59-8.21Z"/><path class="cls-6" d="M87.84,114.12c4.82,14.33,5.89,30.2,18.37,44.64-9.73,2-19.37-.94-27.06-5.81-9.53-13.9-8.63-34.63.9-48.11,4.63,1.34,7.16,7.41,7.79,9.28Z"/><path class="cls-6" d="M81.15,103.33a41.84,41.84,0,0,1,4.92-5.77c20.24,5.71,39.55,26.71,42.86,47.34a39.28,39.28,0,0,1-4.83,5.28,35.58,35.58,0,0,1-15.9,8.14c-9.46-9.81-12.57-22.54-15.91-35.09-2.56-9.64-4.34-16.91-11.13-19.85v0Z"/><path class="cls-6" d="M128.46,103.24c-9.78-8.63-23.41-7.53-34.83-11.55a44,44,0,0,0-6.22,4.61c20.25,6.35,38.62,26.14,43,46.61a35.73,35.73,0,0,0,5.87-15.56c.49-8.68.4-16.58-7.82-24.11Z"/><path class="cls-6" d="M84.4,96.92a38.83,38.83,0,0,0-5,5.89l0,0c-5.36-1.2-9.59,1.58-13,5A34.8,34.8,0,0,1,75,95.7c3.32.15,5.73.09,9.36,1.22"/><path class="cls-6" d="M85.83,95.67a39.48,39.48,0,0,1,6.08-4.58l-5.19-2.57A33.45,33.45,0,0,0,77,94.1a49.41,49.41,0,0,1,8.81,1.57Z"/><path class="cls-5" d="M94.27,34.74l-1.6,1.6-2.74.16-1-.89-1.28,1.1-3,.28-1.31-1.25,1.72-11.68,2.26-.31L86.09,34.06l1.62-.18L89,23.55l2.23-.22-.93,10.26,1.59-.14.81-10.22c1-.1,1.44-.09,2.27-.14l-.67,11.65Z"/><path class="cls-5" d="M101.6,22.94l0,7.35h1.44L103,23s1.51.05,2.19.1l.29,8.25-1.39,1.38-.45,0,.06,3.52-2.45-.07,0-3.53-.49,0L99.22,31.1l.09-8.2c.8,0,2.29,0,2.29,0Z"/><path class="cls-5" d="M83.41,24.3,83,26.71l-2.73.52-.5,2.82c1-.18,1.62-.28,2.8-.44-.16,1.05-.21,1.41-.39,2.41l-2.75.39L79,35.11l2.81-.41s-.28,1.82-.42,2.63c-2,.25-4,.53-5.83.86,0,0,2.11-9.8,2.63-12.82l5.27-1.07Z"/><path class="cls-5" d="M73.12,38.62l-2.85.56,1.31-5.34-.89-1.92-2.23,7.69-2.78.63c1.15-4.16,2.34-8.32,3.49-12.48,1-.32,1.67-.54,2.52-.79.31.7,1.06,2.12,1.06,2.12l.67-2.61s1.77-.47,2.65-.67L73.12,38.62Z"/><path class="cls-5" d="M109.4,25.77l.71,8,1.42.11-.75-7.93-1.38-.15Zm3.75-.57c.28,3.35.84,6.55,1.17,9.67l-1.24,1.9-4-.27-1.45-1.58c-.25-3.41-.43-6.85-.64-10.28.37-.49.93-.87,1.38-1.35l3.35.33,1.46,1.58Z"/><path class="cls-5" d="M126.16,26.4c.5,1.91,1.48,5.86,1.48,5.86l1,.19.46-.63-1.19-4.91s1.18.33,2.45.71l1.26,4.75-.59.86,1.1,1.22,1.67,5.79L131,39.62l-1.08-4.06-1.71-.38.94,4-2.79-.55c-1-4.36-2.74-12.93-2.74-12.93s1.42.3,2.54.66Z"/><path class="cls-5" d="M117.93,27l.48,3.32,1.51.17-.64-3.25L117.93,27Zm3.87-.17.92,4.77-.53.74.94,1.12.81,4.74-2.68-.47-.74-3.94-1.61-.18.57,3.85-2.67-.34L115,24.05l5.11.9,1.66,1.91Z"/></g></svg>