<svg id="Layer_1" data-name="Layer 1" xmlns="http://www.w3.org/2000/svg" viewBox="0 0 200 200"><defs><style>.cls-1{fill:#fff;}.cls-2{fill:#5b6670;}.cls-3{fill:#592c82;}</style></defs><title>Team_Logos</title><path class="cls-1" d="M187.78.8,162.65,26l-21-21L120.56,26l-21-21-21,21-21-21-21,21L12.22,1.3V113c0,48.57,39,88.09,87.51,88.09A88.17,88.17,0,0,0,187.78,113V.8Z"/><path class="cls-2" d="M20.06,128.28a80.6,80.6,0,0,0,12.22,29.41c3.65-6.41,11-14.36,25.3-17.74-1.1-3.68-2.08-7.6-2.91-11.67Z"/><path class="cls-2" d="M38,165.25a81.32,81.32,0,0,0,61.35,28.8,74.43,74.43,0,0,1-6.48-3.73c-10-6.44-23.69-19-32.54-42.26C46.4,151.1,40.5,159,38,165.25"/><path class="cls-2" d="M68.93,146.84c6.28,15.8,15.78,27.95,28.24,36.1a63.62,63.62,0,0,0,21.35,9,81.43,81.43,0,0,0,35.27-18.2c-7.94-.87-16.09-5.44-24.7-10.27-13.43-7.54-30.16-16.92-52.74-16.92-2.44,0-4.93.12-7.42.33Z"/><path class="cls-3" d="M102.88,87.18h-29v34.58H85.91V94H95v27.74h11.5V92c0-2.64-1.61-4.85-3.59-4.85Z"/><path class="cls-3" d="M111.55,87.18v29.66c0,2.64,1.6,4.92,3.57,4.92h29v-21l-11.58,0v14.16h-9.06v-21h20.64V87.18Z"/><polygon class="cls-3" points="41.73 87.18 35.17 101.15 31.38 101.15 31.38 87.18 19.38 87.18 19.38 121.76 31.38 121.76 31.38 107.85 35.17 107.85 41.73 121.76 53.73 121.76 45.27 104.5 53.73 87.18 41.73 87.18 41.73 87.18"/><polygon class="cls-3" points="56.93 121.76 69.36 121.76 69.36 87.18 56.93 87.18 56.93 121.76 56.93 121.76"/><path class="cls-3" d="M180.66,96.53V87.18H148.78V103c0,2.63,1.6,4.77,3.57,4.77h16.24v7.54H148.78v6.47h31.89V105.89c0-2.46-1.35-4.77-3.18-4.77H160.75V93.88h8.37v2.65Z"/><polygon class="cls-3" points="146.75 52.12 136.57 52.12 157.56 31.11 141.65 15.23 120.56 36.2 99.6 15.23 62.74 52.12 52.57 52.12 73.52 31.08 57.67 15.23 36.72 36.2 19.38 18.98 19.38 53.39 19.38 80.84 180.66 80.84 180.66 54.22 180.66 18.18 146.75 52.12 146.75 52.12"/><path class="cls-1" d="M54.61,74.19a1.63,1.63,0,0,0,1.62,1.63h9.06V73.39H57.91v-7.9h7.38V63.06H54.61V74.19Z"/><path class="cls-1" d="M47.22,70.06H43.13V65.49h4.09v4.57Zm-7.39-7V75.82h3.3V72.48h4.09v3.34h3.3V64.69a1.67,1.67,0,0,0-1.81-1.63Z"/><path class="cls-1" d="M171.35,73.37h-4.07V65.49h4.07v7.88Zm1.7-10.31h-7.48A1.62,1.62,0,0,0,164,64.68v9.51a1.63,1.63,0,0,0,1.62,1.63h7.48a1.63,1.63,0,0,0,1.61-1.63V64.68a1.61,1.61,0,0,0-1.61-1.62"/><path class="cls-1" d="M25,69a1.63,1.63,0,0,0,1.63,1.62h5.76v2.74H25v2.43H35.73v-6a1.63,1.63,0,0,0-1.45-1.62H28.34V65.49h7.39V63.06H25v6Z"/><path class="cls-1" d="M91.28,70.06H87.19V65.49h4.09v4.57Zm1.67-7H83.89V75.82h3.3V72.48h4.09v3.34h3.3V64.69A1.63,1.63,0,0,0,93,63.06"/><polygon class="cls-1" points="149.57 65.49 153.28 65.49 153.28 75.82 156.57 75.82 156.57 65.49 160.26 65.49 160.26 63.06 149.57 63.06 149.57 65.49 149.57 65.49"/><path class="cls-1" d="M115.37,63.06H99V75.82h3.3V65.49h4V75.82h3.35V65.49h4V75.82H117V64.68a1.63,1.63,0,0,0-1.62-1.62Z"/><path class="cls-1" d="M144.61,63.06h-9.06V75.82h3.3V65.49h4.09V75.82h3.3V64.68a1.63,1.63,0,0,0-1.63-1.62Z"/><path class="cls-1" d="M121.48,74.19a1.63,1.63,0,0,0,1.63,1.63h9V73.39h-7.38V70.65h7.38V68.23h-7.38V65.49h7.38V63.06H121.48V74.19Z"/><path class="cls-1" d="M76.48,68.75H72.39V65.49h4.09v3.26ZM78,71.18h1.77v-6.5A1.68,1.68,0,0,0,78,63.06H69.09V75.82h3.3V71.18h2.39l2,4.64H80l-2-4.64Z"/><path class="cls-2" d="M74.59,138.07c17.18-.35,34.17,4,55.86,16.31,16,9.13,23.07,11.9,27.87,10.72,4.43-1.09,8.54-3.7,15.78-19a79.28,79.28,0,0,0,5.72-17.79H63.25c.81,3.53,1.61,7,2.67,10.27a77.37,77.37,0,0,1,8.67-.49Z"/></svg>