<svg id="Layer_1" data-name="Layer 1" xmlns="http://www.w3.org/2000/svg" xmlns:xlink="http://www.w3.org/1999/xlink" viewBox="0 0 200 200"><defs><style>.cls-1{fill:none;}.cls-2{fill:#fff;}.cls-3{fill:#2d2a26;}.cls-4{clip-path:url(#clip-path);}.cls-5{fill:#8c9091;}</style><clipPath id="clip-path"><rect class="cls-1" x="-0.01" y="58.87" width="200.01" height="90.25"/></clipPath></defs><title>Team_Logos</title><path class="cls-2" d="M76.23,116.59h4.36l-1.3,3.3-3.06-3.3ZM71,131.4,64.1,141.71,75.49,138l4.63,11.13,3.48-12,12.8,3.3-8.3-9.59,10-8.23-8.9.54,5.86-6.6h11.48l13.13-23.25V78h-9.31L105.87,86,105,92l-6.7,11.9H92.16l6-10.67V78H88.57l-4.3,7.87-.79,6L73,110.69l1.63,4.12-2-2.19.84,11.32-12.24.52L71,131.4Z"/><path class="cls-3" d="M21.3,103.75q-5.7,1.43-11.36,3.07l-1.23.35V97.64l1.67-.49c3.09-.89,6.18-1.73,9.29-2.53l1.63-.41v5.16q4.32-1.08,8.67-2V91l-3-4.6L24.73,87l-.1,0Q15.36,89.2,6.2,92l-.66.2c-.77.24-1.54.47-2.31.72-1,2.13-2,4.28-3.07,6.42h0v12.78q2.3,1.57,4.6,3.2,1.89-.58,3.78-1.14C12.41,113,16.28,112,20.18,111l1.23-.32v9.88l-1.63.41q-4.83,1.25-9.62,2.63L8.54,124V118.8Q4.25,120.08,0,121.45v6.36H0l3,4.33c.74-.24,1.49-.47,2.23-.69l.74-.23q9.31-2.82,18.73-5.08l2.31-.55,3.1-6.1V106.38c-1.54-1.23-3.08-2.44-4.62-3.65-1.39.33-2.77.67-4.16,1"/><path class="cls-3" d="M200,114.58q-2.26-3.09-4.55-6.15c-1.37-.42-2.74-.84-4.11-1.24q-5.66-1.66-11.36-3.12l-1.23-.31V94.22l1.68.43c3.11.8,6.2,1.64,9.29,2.53l1.62.47v5.17q4.29,1.26,8.55,2.64v-6.3c-1-2.08-2-4.16-3-6.23l-2.18-.67-.1,0q-9.15-2.79-18.41-5l-.68-.16-2.34-.55-3.12,4.74V104l4.68,5.73,3.82.93c3.89,1,7.78,2,11.64,3.15l1.23.36V124l-1.62-.48q-4.8-1.38-9.62-2.62l-1.63-.41V115.3c-2.88-.72-5.77-1.41-8.67-2v6.35h0l3,6,2.27.53.74.18q9.42,2.28,18.72,5.12l2.29.71c1-1.48,3-4.44,3-4.45s.05-8.73.05-13.09"/><path class="cls-3" d="M60.84,88.69V99.76l-2,.25q-5.66.72-11.3,1.65V88.6C51.3,88,55.07,87.44,58.84,87l2-.25v2Zm3.08-8.6-.72.09c-8.16.93-16.31,2.18-24.4,3.74v39.17q4.37-.84,8.74-1.56V107.91q7.82-1.29,15.66-2.19l.72-.08,2.39-.26q1.66-3,3.34-6.06V85.24l-3.34-5.4-2.39.25"/><path class="cls-3" d="M150.4,99.68q-5.73-.9-11.47-1.59V86.56q5.81.7,11.58,1.62l1.94.31V100l-2-.33m7.71,4.4,3.08-1.2V89.37c-1.83-2.17-3.66-4.33-5.5-6.46Q143,80.68,130.11,79.48v39.17q4.41.42,8.82.95V104.27c2.26.28,4.51.57,6.76.9l2.26.32,4.5.71v15.33l.45.07c2.77.46,5.54,1,8.29,1.49V106.44l-3.08-2.36"/><path class="cls-3" d="M37,69.83l-3.7.71-.4.08V67.53l.55-.1,3-.59.53-.09v1.67c.94-.17,1.87-.35,2.81-.51v-2l-1-1.54-.72.13h0q-3,.56-6,1.15l-.22,0-.76.16-1,2v4.13l1.51,1.2,1.23-.25,3.79-.73.41-.07v3.19l-.53.1-3.14.6-.53.11V74.38l-2.8.57v2h0c.32.5.64,1,1,1.5l.73-.15.24,0c2-.41,4.07-.8,6.1-1.17l.75-.14,1-1.93h0l0,0V70.84l-1.5-1.25L37,69.83"/><path class="cls-3" d="M47.19,70.62q.77-3.16,1.54-6.33.75,2.92,1.52,5.87l-3.06.46M46.75,63Q45,69.63,43.26,76.25l2.68-.44.72-3,4.12-.62c.24.92.48,1.83.71,2.75l2.9-.4q-1.76-6.1-3.5-12.19c-1.38.2-2.76.4-4.14.62"/><path class="cls-3" d="M65.2,69.07q-2.22-4-4.45-8l-3,.36V74.14l2.51-.3v-8.5q2.2,4,4.42,8l3-.3V60.39l-2.53.24v8.44Z"/><g class="cls-4"><path class="cls-3" d="M80.8,67.09c.51-2.06,1-4.13,1.55-6.18l1.53,6-3.08.16m-.44-7.66C79.18,63.73,78,68,76.83,72.33l2.71-.17.72-2.89,4.15-.21c.24.93.49,1.87.72,2.81l2.92-.11q-1.77-6.29-3.52-12.54c-1.39.06-2.79.13-4.17.21"/><path class="cls-3" d="M99.67,67.31q-2.23-4.22-4.47-8.4l-3,.05V71.64l2.53,0V63.08l4.44,8.47h3V58.88H99.67v8.44Z"/></g><path class="cls-3" d="M106.35,61.21l3.47.08v10.4l2.85.09V61.38l3.47.15V59.25c-3.26-.15-6.53-.26-9.79-.32v2.28Z"/><path class="cls-3" d="M142,69.88q-2.22-4.5-4.45-8.95l-3-.32V73.29l2.52.26v-8.5q2.22,4.49,4.42,9l3,.38V61.76L142,61.44v8.44Z"/><path class="cls-3" d="M148.65,64.29l2.15.31v8.75L148.65,73v2q3.56.51,7.11,1.09v-2l-2.14-.35V65l2.14.34v-2c-2.37-.38-4.74-.75-7.11-1.09v2"/><path class="cls-3" d="M127.61,62.83v7.72l-.74-.06c-1-.08-2-.16-3-.22l-.73-.06V61.76l.73.05,3,.22.74.06v.74Zm1.75-2.7-.8-.07h0q-3-.26-6.09-.45l-.29,0-.8-.05-1.08,1.8v8.93l1.08,1.94.8.05.29,0q3,.21,6.09.45h0l.8.06L130.44,71V62.09l-1.08-2"/><path class="cls-3" d="M167.11,68.32V76l-.73-.14c-1-.2-2-.38-3-.57l-.73-.14V66.73l.73.14q1.49.27,3,.57l.73.14v.74m2.8-.41-1.07-2.09-.79-.16h0c-2-.4-4-.79-6-1.15l-.28,0-.79-.15L159.87,66v8.92L160.94,77l.79.14.28,0q3,.56,6,1.16h0l.79.16c.35-.55.71-1.1,1.07-1.65V67.91Z"/><polygon class="cls-3" points="84.87 92.42 74.55 110.81 76.28 115.13 82.7 115.13 79.78 122.55 74.31 116.62 74.95 125.31 65.46 125.71 73 131.02 67.63 139.03 76.31 136.19 79.88 144.79 82.6 135.42 92.28 137.91 86.03 130.7 93.72 124.35 85.79 124.84 94.37 115.13 105.67 115.13 118.18 92.97 118.18 79.48 111.16 79.48 107.11 86.67 106.4 92.42 99.16 105.31 89.68 105.31 96.76 92.81 96.76 79.48 89.41 79.48 85.53 86.6 84.87 92.42 84.87 92.42"/><polygon class="cls-5" points="115.45 81.41 112.15 81.41 109.64 85.89 113.07 85.89 115.45 81.41 115.45 81.41"/><polygon class="cls-5" points="94.14 81.41 90.58 81.41 88.09 85.89 91.78 85.89 94.14 81.41 94.14 81.41"/><polygon class="cls-5" points="87.44 109.83 80.09 126.59 76.78 123.01 77.11 127.53 72.18 127.73 76.1 130.5 73.3 134.66 77.82 133.19 79.67 137.66 81.09 132.78 86.12 134.08 82.88 130.32 86.87 127.02 81.26 127.37 80.88 127.37 92.49 109.83 102.55 109.83 111.45 93.85 107.98 93.85 100.48 107.05 82.47 107.05 89.98 93.85 86.45 93.85 77.39 109.83 87.44 109.83 87.44 109.83"/><polygon class="cls-5" points="90.85 87.7 87.63 87.7 87.22 91.54 90.54 91.55 90.85 87.7 90.85 87.7"/><polygon class="cls-5" points="112.33 87.7 109.11 87.7 108.69 91.54 112.02 91.55 112.33 87.7 112.33 87.7"/><path class="cls-3" d="M78.53,131.6A1.45,1.45,0,0,0,80,130.13a1.48,1.48,0,1,0-1.47,1.47"/></svg>